<svg width="41" height="40" viewBox="0 0 41 40" fill="none" xmlns="http://www.w3.org/2000/svg">
<g clip-path="url(#clip0_3749_20396)">
<path d="M38.7031 15.2989H36.5562C37.3555 13.8538 37.7636 12.2251 37.7403 10.5739C37.7171 8.92274 37.2632 7.30621 36.4235 5.88423C35.5839 4.46225 34.3876 3.28408 32.953 2.46623C31.5184 1.64838 29.8951 1.21919 28.2437 1.2211C26.7274 1.22589 25.2339 1.59201 23.8873 2.2891C22.5406 2.98619 21.3794 3.99418 20.5 5.22954C19.0991 3.24872 16.9929 1.87959 14.6139 1.40339C12.235 0.927201 9.76405 1.38011 7.70866 2.66909C5.65328 3.95806 4.16955 5.98521 3.56228 8.33411C2.95501 10.683 3.27032 13.1753 4.44344 15.2989H2.29688C1.82049 15.2995 1.36379 15.489 1.02693 15.8258C0.690078 16.1627 0.500579 16.6194 0.5 17.0958L0.5 36.9811C0.500579 37.4575 0.690078 37.9142 1.02693 38.251C1.36379 38.5879 1.82049 38.7774 2.29688 38.778H38.7031C39.1795 38.7775 39.6363 38.588 39.9732 38.2511C40.31 37.9143 40.4995 37.4575 40.5 36.9811V17.0958C40.4995 16.6194 40.31 16.1626 39.9732 15.8258C39.6363 15.4889 39.1795 15.2994 38.7031 15.2989ZM28.2431 2.31485C29.7561 2.31453 31.241 2.72271 32.5412 3.4963C33.8414 4.26989 34.9087 5.38019 35.6302 6.70998C36.3518 8.03977 36.7009 9.53971 36.6408 11.0515C36.5806 12.5632 36.1134 14.0307 35.2884 15.2989H33.5219C34.6333 14.0325 35.2444 12.4041 35.2406 10.7192C35.2409 9.11185 34.6877 7.55339 33.6741 6.30589C32.6605 5.05839 31.2483 4.19791 29.6749 3.86914C28.1015 3.54036 26.4629 3.76334 25.0346 4.50058C23.6062 5.23782 22.4753 6.44436 21.8319 7.91735C21.6531 7.34035 21.4193 6.78186 21.1338 6.24954C21.8921 5.04856 22.9412 4.05834 24.1839 3.37056C25.4266 2.68277 26.8228 2.31966 28.2431 2.31485ZM21.8319 13.5227C22.1168 14.1689 22.4987 14.7679 22.9644 15.2989H21.0703C21.3844 14.7345 21.6396 14.1393 21.8319 13.5227ZM22.3391 10.7183C22.3368 9.72029 22.5876 8.738 23.0679 7.8632C23.5483 6.98841 24.2425 6.24964 25.0858 5.71592C25.9291 5.1822 26.894 4.87094 27.8902 4.81123C28.8864 4.75152 29.8815 4.94531 30.7825 5.37448C31.6835 5.80365 32.461 6.4542 33.0424 7.26536C33.6238 8.07653 33.9901 9.02182 34.1071 10.0129C34.2241 11.0041 34.0879 12.0087 33.7114 12.9329C33.3348 13.8571 32.7301 14.6708 31.9538 15.298H24.5312C23.8457 14.7479 23.2927 14.0507 22.9132 13.258C22.5338 12.4652 22.3375 11.5972 22.3391 10.7183ZM4.35281 10.7183C4.35265 9.41035 4.65776 8.12044 5.24387 6.95118C5.82999 5.78193 6.68092 4.76561 7.72896 3.98311C8.77699 3.20061 9.9932 2.67353 11.2808 2.44381C12.5684 2.21408 13.8918 2.28806 15.1458 2.65986C16.3998 3.03165 17.5497 3.691 18.504 4.58543C19.4583 5.47986 20.1906 6.58468 20.6428 7.81197C21.0949 9.03926 21.2544 10.3551 21.1085 11.6549C20.9625 12.9547 20.5152 14.2024 19.8022 15.2989H18.0356C19.1469 14.0325 19.7581 12.4041 19.7544 10.7192C19.7605 9.7963 19.5841 8.88128 19.2352 8.02683C18.8863 7.17238 18.3718 6.39539 17.7213 5.7406C17.0709 5.0858 16.2974 4.56614 15.4453 4.21152C14.5932 3.8569 13.6793 3.67433 12.7564 3.67433C11.8335 3.67433 10.9196 3.8569 10.0675 4.21152C9.21545 4.56614 8.44191 5.0858 7.79148 5.7406C7.14104 6.39539 6.62656 7.17238 6.27764 8.02683C5.92872 8.88128 5.75227 9.7963 5.75844 10.7192C5.75471 12.4041 6.36584 14.0325 7.47719 15.2989H5.71156C4.82208 13.937 4.34982 12.3449 4.35281 10.7183ZM6.85281 10.7183C6.8509 9.72044 7.10192 8.73838 7.58241 7.86383C8.06291 6.98929 8.75721 6.25078 9.60048 5.7173C10.4437 5.18381 11.4085 4.87274 12.4045 4.81314C13.4006 4.75354 14.3955 4.94736 15.2964 5.37649C16.1973 5.80563 16.9747 6.45607 17.556 7.26709C18.1374 8.0781 18.5037 9.02322 18.6208 10.0142C18.7379 11.0051 18.6019 12.0096 18.2255 12.9338C17.8492 13.8579 17.2448 14.6716 16.4688 15.2989H9.04625C8.3603 14.749 7.80695 14.0517 7.42724 13.2587C7.04752 12.4657 6.8512 11.5975 6.85281 10.7183ZM39.4062 36.9811C39.406 37.1675 39.3318 37.3462 39.2 37.478C39.0682 37.6098 38.8895 37.684 38.7031 37.6842H2.29688C2.11047 37.684 1.93177 37.6098 1.79996 37.478C1.66816 37.3462 1.594 37.1675 1.59375 36.9811V17.0958C1.594 16.9094 1.66816 16.7307 1.79996 16.5989C1.93177 16.4671 2.11047 16.3929 2.29688 16.3927H38.7031C38.8895 16.3929 39.0682 16.4671 39.2 16.5989C39.3318 16.7307 39.406 16.9094 39.4062 17.0958V36.9811Z" fill="white"/>
<path d="M37.4531 20.6336C36.8471 20.6329 36.266 20.3919 35.8375 19.9633C35.4089 19.5348 35.1678 18.9537 35.1672 18.3477C35.1672 18.2026 35.1096 18.0635 35.007 17.961C34.9045 17.8584 34.7654 17.8008 34.6203 17.8008H6.37969C6.23465 17.8008 6.09555 17.8584 5.99299 17.961C5.89043 18.0635 5.83281 18.2026 5.83281 18.3477C5.83215 18.9537 5.5911 19.5348 5.16255 19.9633C4.73399 20.3919 4.15294 20.6329 3.54688 20.6336C3.40186 20.6337 3.26281 20.6913 3.16027 20.7939C3.05773 20.8964 3.00008 21.0355 3 21.1805V32.8992C3 33.0443 3.05762 33.1834 3.16018 33.2859C3.26273 33.3885 3.40183 33.4461 3.54688 33.4461C4.15297 33.4468 4.73402 33.688 5.16256 34.1166C5.59111 34.5452 5.83215 35.1262 5.83281 35.7323C5.83281 35.8774 5.89043 36.0165 5.99299 36.119C6.09555 36.2216 6.23465 36.2792 6.37969 36.2792H34.6203C34.7654 36.2792 34.9045 36.2216 35.007 36.119C35.1096 36.0165 35.1672 35.8774 35.1672 35.7323C35.1678 35.1262 35.4089 34.5452 35.8374 34.1166C36.266 33.688 36.847 33.4468 37.4531 33.4461C37.525 33.4461 37.5961 33.432 37.6625 33.4045C37.7288 33.3771 37.7891 33.3368 37.8399 33.286C37.8907 33.2352 37.931 33.1749 37.9585 33.1085C37.9859 33.0422 38 32.971 38 32.8992V21.1805C38 21.0354 37.9424 20.8963 37.8398 20.7938C37.7373 20.6912 37.5982 20.6336 37.4531 20.6336ZM6.88219 35.1861C6.7666 34.4884 6.43558 33.8443 5.93552 33.3442C5.43547 32.8441 4.79145 32.513 4.09375 32.3973V21.6833C4.79143 21.5676 5.43542 21.2365 5.93547 20.7364C6.43552 20.2363 6.76656 19.5922 6.88219 18.8945H16.1444C14.669 19.6827 13.4353 20.8569 12.5752 22.2915C11.7151 23.7262 11.2608 25.3676 11.2608 27.0403C11.2608 28.7131 11.7151 30.3544 12.5752 31.7891C13.4353 33.2238 14.669 34.3979 16.1444 35.1861H6.88219ZM20.5 18.8945C22.1111 18.8945 23.6861 19.3722 25.0258 20.2672C26.3654 21.1623 27.4095 22.4345 28.0261 23.923C28.6427 25.4115 28.804 27.0494 28.4897 28.6296C28.1754 30.2098 27.3996 31.6613 26.2604 32.8005C25.1211 33.9398 23.6696 34.7156 22.0894 35.0299C20.5092 35.3442 18.8713 35.1829 17.3829 34.5663C15.8944 33.9497 14.6221 32.9056 13.7271 31.5659C12.832 30.2263 12.3543 28.6513 12.3544 27.0402C12.3572 24.8807 13.2163 22.8104 14.7433 21.2834C16.2703 19.7564 18.3405 18.8973 20.5 18.8945ZM36.9062 32.3973C36.2084 32.5128 35.5643 32.8438 35.0641 33.344C34.564 33.8441 34.233 34.4883 34.1175 35.1861H24.8556C26.331 34.3979 27.5647 33.2238 28.4248 31.7891C29.2849 30.3544 29.7392 28.7131 29.7392 27.0403C29.7392 25.3676 29.2849 23.7262 28.4248 22.2915C27.5647 20.8569 26.331 19.6827 24.8556 18.8945H34.1175C34.2331 19.5923 34.5641 20.2364 35.0642 20.7365C35.5644 21.2367 36.2085 21.5677 36.9062 21.6833V32.3973Z" fill="white"/>
<path d="M22.3065 29.4214H17.4434C17.2983 29.4214 17.1592 29.479 17.0567 29.5816C16.9541 29.6841 16.8965 29.8232 16.8965 29.9683C16.8965 30.1133 16.9541 30.2524 17.0567 30.355C17.1592 30.4575 17.2983 30.5152 17.4434 30.5152H18.8155V31.8705C18.8155 32.0155 18.8732 32.1546 18.9757 32.2572C19.0783 32.3597 19.2174 32.4173 19.3624 32.4173C19.5075 32.4173 19.6466 32.3597 19.7491 32.2572C19.8517 32.1546 19.9093 32.0155 19.9093 31.8705V30.5152H21.0905V31.8705C21.0905 32.0155 21.1482 32.1546 21.2507 32.2572C21.3533 32.3597 21.4924 32.4173 21.6374 32.4173C21.7825 32.4173 21.9216 32.3597 22.0241 32.2572C22.1267 32.1546 22.1843 32.0155 22.1843 31.8705V30.5152H22.3065C22.7829 30.5147 23.2396 30.3252 23.5765 29.9883C23.9134 29.6514 24.1029 29.1947 24.1034 28.7183V27.0386C24.1034 26.8936 24.0457 26.7545 23.9432 26.6519C23.8406 26.5493 23.7015 26.4917 23.5565 26.4917H17.9902V25.3589C17.9905 25.1725 18.0646 24.9938 18.1964 24.862C18.3283 24.7302 18.507 24.656 18.6934 24.6558H23.5565C23.7015 24.6558 23.8406 24.5982 23.9432 24.4956C24.0457 24.393 24.1034 24.2539 24.1034 24.1089C24.1034 23.9639 24.0457 23.8248 23.9432 23.7222C23.8406 23.6196 23.7015 23.562 23.5565 23.562H22.1843V22.207C22.1843 22.062 22.1267 21.9229 22.0241 21.8203C21.9216 21.7178 21.7825 21.6602 21.6374 21.6602C21.4924 21.6602 21.3533 21.7178 21.2507 21.8203C21.1482 21.9229 21.0905 22.062 21.0905 22.207V23.5623H19.9093V22.207C19.9093 22.062 19.8517 21.9229 19.7491 21.8203C19.6466 21.7178 19.5075 21.6602 19.3624 21.6602C19.2174 21.6602 19.0783 21.7178 18.9757 21.8203C18.8732 21.9229 18.8155 22.062 18.8155 22.207V23.5623H18.6934C18.217 23.5628 17.7602 23.7523 17.4233 24.0892C17.0865 24.4261 16.897 24.8828 16.8965 25.3592V27.0389C16.8964 27.1107 16.9106 27.1819 16.938 27.2482C16.9655 27.3146 17.0058 27.3749 17.0566 27.4257C17.1074 27.4765 17.1677 27.5168 17.234 27.5442C17.3004 27.5717 17.3715 27.5858 17.4434 27.5858H23.0096V28.7186C23.0093 28.9049 22.9351 29.0836 22.8033 29.2153C22.6715 29.347 22.4928 29.4212 22.3065 29.4214Z" fill="white"/>
<path d="M14.5141 7.37553L12.7572 9.20959L11.0004 7.37553C10.9507 7.32367 10.8912 7.28212 10.8255 7.25323C10.7597 7.22435 10.6889 7.20869 10.6171 7.20717C10.5453 7.20565 10.4739 7.21828 10.407 7.24435C10.3401 7.27043 10.2789 7.30942 10.2271 7.35912C10.1752 7.40882 10.1337 7.46824 10.1048 7.534C10.0759 7.59975 10.0602 7.67056 10.0587 7.74236C10.0572 7.81417 10.0698 7.88557 10.0959 7.95249C10.122 8.01942 10.161 8.08055 10.2107 8.1324L11.476 9.45303H10.765C10.62 9.45303 10.4809 9.51064 10.3783 9.6132C10.2758 9.71576 10.2182 9.85486 10.2182 9.9999C10.2182 10.1449 10.2758 10.284 10.3783 10.3866C10.4809 10.4892 10.62 10.5468 10.765 10.5468H12.2104V11.2505H10.765C10.62 11.2505 10.4809 11.3081 10.3783 11.4107C10.2758 11.5133 10.2182 11.6524 10.2182 11.7974C10.2182 11.9424 10.2758 12.0815 10.3783 12.1841C10.4809 12.2867 10.62 12.3443 10.765 12.3443H12.2104V13.3208C12.2104 13.4659 12.268 13.605 12.3705 13.7075C12.4731 13.8101 12.6122 13.8677 12.7572 13.8677C12.9023 13.8677 13.0414 13.8101 13.1439 13.7075C13.2465 13.605 13.3041 13.4659 13.3041 13.3208V12.3443H14.7504C14.8954 12.3443 15.0345 12.2867 15.1371 12.1841C15.2396 12.0815 15.2972 11.9424 15.2972 11.7974C15.2972 11.6524 15.2396 11.5133 15.1371 11.4107C15.0345 11.3081 14.8954 11.2505 14.7504 11.2505H13.3041V10.5474H14.7504C14.8954 10.5474 15.0345 10.4898 15.1371 10.3872C15.2396 10.2847 15.2972 10.1456 15.2972 10.0005C15.2972 9.85549 15.2396 9.71639 15.1371 9.61383C15.0345 9.51127 14.8954 9.45365 14.7504 9.45365H14.0385L15.3041 8.13303C15.4046 8.02827 15.4593 7.88789 15.4562 7.74279C15.4532 7.59768 15.3926 7.45973 15.2879 7.35928C15.1831 7.25883 15.0427 7.2041 14.8976 7.20715C14.7525 7.2102 14.6146 7.27077 14.5141 7.37553Z" fill="white"/>
<path d="M30.0004 7.37551L28.2439 9.20957L26.4867 7.37551C26.437 7.32366 26.3776 7.2821 26.3118 7.25322C26.246 7.22433 26.1752 7.20868 26.1034 7.20715C26.0316 7.20563 25.9602 7.21827 25.8933 7.24434C25.8264 7.27041 25.7653 7.30941 25.7134 7.3591C25.6616 7.4088 25.62 7.46822 25.5911 7.53398C25.5622 7.59974 25.5466 7.67054 25.545 7.74235C25.5435 7.81415 25.5562 7.88555 25.5822 7.95248C25.6083 8.0194 25.6473 8.08053 25.697 8.13238L26.9623 9.45301H26.2504C26.1054 9.45301 25.9663 9.51063 25.8637 9.61319C25.7612 9.71574 25.7036 9.85484 25.7036 9.99988C25.7036 10.1449 25.7612 10.284 25.8637 10.3866C25.9663 10.4891 26.1054 10.5468 26.2504 10.5468H27.6957V11.2505H26.2504C26.1054 11.2505 25.9663 11.3081 25.8637 11.4107C25.7612 11.5132 25.7036 11.6523 25.7036 11.7974C25.7036 11.9424 25.7612 12.0815 25.8637 12.1841C25.9663 12.2866 26.1054 12.3443 26.2504 12.3443H27.6957V13.3208C27.6957 13.4659 27.7534 13.605 27.8559 13.7075C27.9585 13.8101 28.0976 13.8677 28.2426 13.8677C28.3877 13.8677 28.5268 13.8101 28.6293 13.7075C28.7319 13.605 28.7895 13.4659 28.7895 13.3208V12.3443H30.2348C30.3798 12.3443 30.5189 12.2866 30.6215 12.1841C30.7241 12.0815 30.7817 11.9424 30.7817 11.7974C30.7817 11.6523 30.7241 11.5132 30.6215 11.4107C30.5189 11.3081 30.3798 11.2505 30.2348 11.2505H28.7904V10.5474H30.2357C30.3808 10.5474 30.5199 10.4898 30.6224 10.3872C30.725 10.2846 30.7826 10.1455 30.7826 10.0005C30.7826 9.85547 30.725 9.71637 30.6224 9.61381C30.5199 9.51125 30.3808 9.45363 30.2357 9.45363H29.5248L30.7901 8.13301C30.8399 8.08116 30.8789 8.02002 30.905 7.95308C30.9311 7.88614 30.9438 7.81471 30.9423 7.74288C30.9408 7.67104 30.9252 7.60021 30.8963 7.53441C30.8674 7.46862 30.8259 7.40915 30.774 7.35942C30.7222 7.30968 30.661 7.27064 30.5941 7.24453C30.5272 7.21842 30.4557 7.20575 30.3839 7.20725C30.3121 7.20874 30.2412 7.22437 30.1754 7.25324C30.1096 7.28211 30.0502 7.32366 30.0004 7.37551Z" fill="white"/>
</g>
<defs>
<clipPath id="clip0_3749_20396">
<rect width="40" height="40" fill="white" transform="translate(0.5)"/>
</clipPath>
</defs>
</svg>
