<svg width="39" height="39" viewBox="0 0 39 39" fill="none" xmlns="http://www.w3.org/2000/svg">
<path d="M16.25 35.75C12.4589 35.75 10.6927 35.75 9.37315 34.5722C8.05355 33.3946 7.72033 31.4054 7.05388 27.4269L5.16402 16.1453C4.85662 14.3102 4.70293 13.3927 5.17623 12.7901C5.64951 12.1875 6.52385 12.1875 8.27253 12.1875H30.7275C32.4761 12.1875 33.3505 12.1875 33.8237 12.7901C34.2971 13.3927 34.1434 14.3102 33.8359 16.1453L33.4102 18.6875" stroke="white" stroke-width="1.5" stroke-linecap="round"/>
<path d="M21.3554 23.4679C23.3165 22.28 25.0279 22.7588 26.0561 23.5214C26.4778 23.834 26.6885 23.9903 26.8125 23.9903C26.9365 23.9903 27.1473 23.834 27.569 23.5214C28.5971 22.7588 30.3085 22.28 32.2696 23.4679C34.8431 25.0271 35.4253 30.1707 29.4892 34.5101C28.3585 35.3367 27.7932 35.75 26.8125 35.75C25.8318 35.75 25.2665 35.3367 24.1358 34.5101C18.1997 30.1707 18.7819 25.0271 21.3554 23.4679Z" stroke="white" stroke-width="1.5" stroke-linecap="round"/>
<path d="M11.375 12.1875V11.375C11.375 6.88769 15.0127 3.25 19.5 3.25C23.9873 3.25 27.625 6.88769 27.625 11.375V12.1875" stroke="white" stroke-width="1.5"/>
<path d="M7.3125 28.4375H15.4375" stroke="white" stroke-width="1.5" stroke-linecap="round"/>
</svg>
