<svg width="48" height="48" viewBox="0 0 48 48" fill="none" xmlns="http://www.w3.org/2000/svg">
<rect x="-0.5" y="0.5" width="47" height="47" rx="1.5" transform="matrix(-1 0 0 1 47 0)" fill="#EAF6FE"/>
<rect x="-0.5" y="0.5" width="47" height="47" rx="1.5" transform="matrix(-1 0 0 1 47 0)" stroke="#D5EDFD"/>
<path d="M27 24H21" stroke="#2DA5F3" stroke-width="1.5" stroke-linecap="round" stroke-linejoin="round"/>
<path d="M27 27H21" stroke="#2DA5F3" stroke-width="1.5" stroke-linecap="round" stroke-linejoin="round"/>
<path d="M30.75 15.75H17.25C17.0511 15.75 16.8603 15.829 16.7197 15.9697C16.579 16.1103 16.5 16.3011 16.5 16.5V30.75C16.5 31.3467 16.7371 31.919 17.159 32.341C17.581 32.7629 18.1533 33 18.75 33H29.25C29.8467 33 30.419 32.7629 30.841 32.341C31.2629 31.919 31.5 31.3467 31.5 30.75V16.5C31.5 16.3011 31.421 16.1103 31.2803 15.9697C31.1397 15.829 30.9489 15.75 30.75 15.75V15.75Z" stroke="#2DA5F3" stroke-width="1.5" stroke-linecap="round" stroke-linejoin="round"/>
<path d="M28.5 14.25V17.25" stroke="#2DA5F3" stroke-width="1.5" stroke-linecap="round" stroke-linejoin="round"/>
<path d="M24 14.25V17.25" stroke="#2DA5F3" stroke-width="1.5" stroke-linecap="round" stroke-linejoin="round"/>
<path d="M19.5 14.25V17.25" stroke="#2DA5F3" stroke-width="1.5" stroke-linecap="round" stroke-linejoin="round"/>
</svg>
