<svg width="45" height="45" viewBox="0 0 45 45" fill="none" xmlns="http://www.w3.org/2000/svg">
<path fill-rule="evenodd" clip-rule="evenodd" d="M7.11914 18.3691L3.01025 11.25H11.25V2.97729L18.3691 7.11914L22.5 0L26.6309 7.11914L33.75 2.97729V11.25H42.0227L37.8809 18.3691L45 22.5L37.8809 26.6309L42.0227 33.75H33.75V41.9897L26.6309 37.8809L22.5 45L18.3691 37.8809L11.25 41.9897V33.75H3.01025L7.11914 26.6309L0 22.5L7.11914 18.3691Z" fill="#CE2334"/>
<path fill-rule="evenodd" clip-rule="evenodd" d="M9.43359 18.9917L5.9436 12.9456H12.9456V5.91797L18.9917 9.43359L22.5 3.38745L26.0083 9.43359L32.0581 5.91797V12.9456H39.082L35.5664 18.9917L41.6126 22.5L35.5664 26.0083L39.082 32.0544H32.0581V39.0564L26.0083 35.5664L22.5 41.6126L18.9917 35.5664L12.9456 39.0564V32.0544H5.9436L9.43359 26.0083L3.38745 22.5L9.43359 18.9917Z" fill="#E5273A"/>
<path d="M13.4692 24.8584C13.103 24.8218 12.7295 24.7375 12.345 24.6094C11.9385 24.4739 11.5466 24.2981 11.1694 24.0784C11.1328 24.0564 11.0962 24.0344 11.0596 24.0125C10.6714 23.7781 10.3308 23.5291 10.0415 23.2617C9.68994 22.9395 9.39697 22.5879 9.15894 22.2034C9.1333 22.1594 9.10767 22.1191 9.08569 22.0752C8.86963 21.7053 8.71948 21.3355 8.62793 20.9656C8.51074 20.4932 8.49243 20.0281 8.56934 19.563V19.5557C8.63159 19.1968 8.74512 18.8123 8.90991 18.4131C9.05273 18.0688 9.24316 17.6953 9.47754 17.2888C9.49585 17.2559 9.51416 17.2266 9.53613 17.1936L9.81445 16.7139C10.0671 16.2708 10.481 15.9778 10.9424 15.8606C10.9424 15.6445 10.957 15.4248 10.99 15.2051C11.0339 14.8975 11.1218 14.5679 11.2573 14.2163C11.3745 13.9124 11.521 13.6047 11.7041 13.2898C11.9641 12.843 12.2131 12.4731 12.4548 12.1838C12.7661 11.8103 13.0994 11.5173 13.4583 11.3013L13.4546 11.2976C13.8171 11.0815 14.2053 10.9277 14.6191 10.8472C14.989 10.7739 15.3882 10.7556 15.8203 10.7959C16.2195 10.8325 16.615 10.9204 17.0105 11.0596C17.3694 11.1841 17.7393 11.3562 18.1165 11.5759L18.1201 11.5796L18.1238 11.5759C18.5156 11.803 18.8709 12.052 19.1895 12.3267C19.5264 12.616 19.8157 12.9309 20.0537 13.2678L20.061 13.2751C20.2625 13.5608 20.4236 13.8501 20.5444 14.1394C21.0864 13.8757 21.7383 13.8904 22.2766 14.2126L25.5908 16.1279C25.9277 16.3257 26.1804 16.6113 26.3306 16.9409C26.6895 16.908 27.063 16.9812 27.3999 17.1753L29.7107 18.5083C30.1062 18.7354 30.3809 19.0869 30.52 19.4861C30.9338 19.4055 31.3733 19.4678 31.7651 19.6948L35.614 21.9177C36.4819 22.4158 36.7822 23.5254 36.2842 24.3933L35.2625 26.1658C35.0647 26.5137 34.7681 26.7664 34.4275 26.9202C34.4238 27.2241 34.3469 27.5281 34.1821 27.8101L33.2117 29.4946C33.0396 29.7913 32.7942 30.022 32.5159 30.1758C32.6514 30.6372 32.6038 31.1462 32.3438 31.5967C32.3254 31.6296 32.3071 31.6589 32.2852 31.6882L31.322 33.3618C30.824 34.2297 29.7144 34.53 28.8464 34.032L28.8391 34.0283V34.032L24.8291 31.7102C24.7156 31.6443 24.613 31.5674 24.5215 31.4832C24.4006 31.4429 24.2798 31.3916 24.1663 31.3257C24.1333 31.3074 24.104 31.2891 24.0747 31.2671L20.4712 29.187C20.3906 29.1394 20.3137 29.0881 20.2405 29.0295L20.2148 29.0222C20.0867 28.9709 19.9658 28.9087 19.856 28.8318L17.6147 27.5391C17.4207 27.4292 17.2559 27.2864 17.124 27.1252C16.9189 27.0886 16.7212 27.019 16.5344 26.9128L14.1467 25.5322C13.8538 25.3711 13.6267 25.1331 13.4692 24.8584Z" fill="#7E1822"/>
<path d="M18.1274 17.4976L15.9851 16.2598L16.3623 15.6042C16.5381 15.2966 16.626 15.0842 16.6187 14.9707C16.6113 14.8535 16.5454 14.762 16.4209 14.6887C16.2817 14.6082 16.1462 14.6045 16.0071 14.6777C15.8716 14.7473 15.7361 14.8975 15.6042 15.1282C15.4321 15.4248 15.3479 15.6702 15.3406 15.8643C15.3333 16.0584 15.4468 16.3623 15.6812 16.7834C16.3513 17.9846 16.7065 18.8599 16.7468 19.4055C16.7871 19.9512 16.5564 20.658 16.0547 21.5259C15.6885 22.1594 15.3479 22.5806 15.0256 22.7966C14.7034 23.009 14.2749 23.0969 13.7366 23.053C13.1946 23.0127 12.6453 22.8296 12.085 22.5037C11.4661 22.1484 11.012 21.7273 10.708 21.2402C10.4077 20.7532 10.2942 20.2917 10.3674 19.8523C10.4407 19.4128 10.6714 18.8599 11.0559 18.1934L11.3928 17.6111L13.5352 18.8489L12.9126 19.9292C12.7185 20.2625 12.627 20.4932 12.6306 20.6213C12.6343 20.7495 12.7148 20.8594 12.8687 20.9473C13.0225 21.0352 13.1689 21.0425 13.3154 20.9619C13.4583 20.885 13.6011 20.7275 13.7366 20.4932C14.0369 19.9695 14.165 19.5886 14.1138 19.3469C14.0588 19.1016 13.8538 18.6255 13.5022 17.915C13.1506 17.2046 12.9309 16.7102 12.843 16.4319C12.7588 16.1536 12.7405 15.824 12.7917 15.4541C12.8467 15.0806 13.0078 14.6594 13.2788 14.187C13.6707 13.5095 14.0442 13.0591 14.3994 12.8467C14.7546 12.6343 15.1758 12.55 15.6628 12.594C16.1536 12.6416 16.6699 12.821 17.2156 13.136C17.8125 13.4802 18.2666 13.8721 18.5779 14.3079C18.8855 14.7437 19.0247 15.1501 18.9917 15.5237C18.9587 15.8972 18.739 16.4355 18.3325 17.1387L18.1274 17.4976ZM24.6826 17.6953L20.8813 27.3303L18.523 25.968L19.3176 24.3018L18.4863 23.822L17.4426 25.3418L15.0549 23.9648L21.3501 15.7654L24.6826 17.6953ZM20.1636 22.6978C20.6323 21.6284 21.2366 20.3137 21.9727 18.7573C20.7605 20.332 19.8962 21.4929 19.3799 22.2437L20.1636 22.6978ZM28.8098 20.0757L24.7083 27.1765L26.0999 27.9785L25.0781 29.751L21.3757 27.6123L26.499 18.7354L28.8098 20.0757ZM30.8679 21.2622L34.7168 23.4851L33.6914 25.2576L32.1533 24.3713L31.1755 26.0669L32.6111 26.8945L31.6406 28.5791L30.2051 27.7515L29.0772 29.6997L30.7727 30.6775L29.751 32.45L25.741 30.1392L30.8679 21.2622Z" fill="white"/>
</svg>
