<svg width="60" height="60" viewBox="0 0 60 60" fill="none" xmlns="http://www.w3.org/2000/svg">
<g clip-path="url(#clip0_1_557)">
<path d="M29.9964 59.9964C46.5629 59.9964 59.9927 46.5665 59.9927 30C59.9927 13.4335 46.5629 0.00363159 29.9964 0.00363159C13.4298 0.00363159 0 13.4335 0 30C0 46.5665 13.4298 59.9964 29.9964 59.9964Z" fill="#67A3DF"/>
<path d="M26.3816 6.93857H49.1843C55.7887 12.4435 60 20.7294 60 30C60 46.5648 46.5684 59.9964 30.0036 59.9964C26.2308 59.9964 22.6232 59.2993 19.3029 58.0273V15.8283V8.21779C19.3029 7.51349 19.8778 6.93857 20.5821 6.93857H26.3887H26.3816Z" fill="#007580"/>
<path d="M24.9946 50.5174H39.3748V51.3151H24.9946V50.5174ZM24.9946 54.4197H35.1778V55.2245H24.9946V54.4197ZM24.9946 52.465H39.3748V53.2627H24.9946V52.465Z" fill="#E4E7ED"/>
<path d="M20.575 6.93857H49.1844C50.5786 8.10283 51.865 9.38193 53.0292 10.7761H19.2957V8.21779C19.2957 7.51349 19.8707 6.93857 20.575 6.93857Z" fill="#6C7678"/>
<path d="M42.968 8.26804H50.6719C51.1246 8.69917 51.5558 9.13757 51.9798 9.59038H42.968C42.7812 9.59038 42.623 9.43944 42.623 9.24538V8.60577C42.623 8.41898 42.7811 8.26077 42.968 8.26077V8.26804Z" fill="#E4E7ED"/>
<path d="M21.8469 8.03812C22.2566 8.03812 22.5871 8.3687 22.5871 8.77112C22.5871 9.18081 22.2565 9.51128 21.8469 9.51128C21.4373 9.51128 21.1139 9.18069 21.1139 8.77112C21.1139 8.36144 21.4445 8.03812 21.8469 8.03812Z" fill="#83CF8F"/>
<path d="M24.7575 8.03812C25.1671 8.03812 25.4905 8.3687 25.4905 8.77112C25.4905 9.18081 25.1599 9.51128 24.7575 9.51128C24.3478 9.51128 24.0173 9.18069 24.0173 8.77112C24.0172 8.36144 24.3478 8.03812 24.7575 8.03812Z" fill="#FFE356"/>
<path d="M27.6608 8.03812C28.0705 8.03812 28.401 8.3687 28.401 8.77112C28.401 9.18081 28.0704 9.51128 27.6608 9.51128C27.2513 9.51128 26.9278 9.18069 26.9278 8.77112C26.9278 8.36144 27.2584 8.03812 27.6608 8.03812Z" fill="#FF7069"/>
<path d="M15.1348 54.2041C17.147 50.5534 17.9734 41.9727 15.7672 38.1352C13.5609 34.2904 14.3012 33.9024 9.43595 33.9311C4.62821 33.9311 5.30368 34.2832 3.09751 38.128C0.89122 41.9656 1.84712 50.7977 3.70841 54.2041C5.85001 58.1136 13.1299 57.862 15.1349 54.2113L15.1348 54.2041Z" fill="#FF56A2"/>
<path d="M17.032 43.2375C16.9027 41.2397 16.5074 39.4143 15.7672 38.1279C13.561 34.2831 14.3012 33.8951 9.43595 33.9238C4.62822 33.9238 5.30369 34.276 3.09751 38.1208C2.36451 39.4 1.97638 41.2326 1.86142 43.2304L17.032 43.2375Z" fill="#5D718F"/>
<path d="M9.14121 33.9238L9.13406 43.2375H9.75926L9.76641 33.9238H9.43582H9.14121Z" fill="#384A66"/>
<path d="M9.45024 35.7348C8.96156 35.7348 8.55914 36.1372 8.55914 36.6259V41.2109C8.55914 41.6995 8.96156 42.1019 9.45024 42.1019C9.93891 42.1019 10.3413 41.6995 10.3413 41.2109V36.6259C10.3413 36.1372 9.93891 35.7348 9.45024 35.7348Z" fill="#384A66"/>
<path d="M9.45023 36.6619C9.02624 36.6619 8.68124 37.0069 8.68124 37.4309V40.4133C8.68124 40.8373 9.02624 41.1823 9.45023 41.1823C9.87421 41.1823 10.2192 40.8373 10.2192 40.4133V37.4309C10.2192 37.0069 9.87421 36.6619 9.45023 36.6619Z" fill="#FAD24D"/>
<path d="M15.7024 33.2411C15.6306 33.3776 15.4653 33.4351 15.3216 33.3633C15.1851 33.2914 15.1275 33.1261 15.1994 32.9824L15.5371 32.3141C15.6089 32.1776 15.7743 32.12 15.9179 32.1919C16.0545 32.2637 16.112 32.4291 16.0402 32.5727L15.7024 33.2411ZM14.6748 32.968C14.6748 33.1261 14.5526 33.2483 14.3945 33.2555C14.2364 33.2555 14.1142 33.1332 14.1071 32.9752L14.0855 31.236C14.0855 31.0779 14.2077 30.9557 14.3658 30.9485C14.5239 30.9485 14.6461 31.0707 14.6533 31.2288L14.6677 32.968H14.6748ZM13.5681 33.1765C13.6544 33.3059 13.6184 33.4784 13.4819 33.5646C13.3525 33.6509 13.18 33.6149 13.0937 33.4855L12.7919 33.0184C12.7056 32.889 12.7416 32.7165 12.8781 32.6303C13.0075 32.544 13.18 32.58 13.2662 32.7165L13.5681 33.1836V33.1765ZM15.9396 36.3457C15.7958 36.2954 15.7169 36.1373 15.7671 35.9864C15.8174 35.8427 15.9755 35.7636 16.1264 35.8139L17.6571 36.3457C17.8009 36.396 17.8799 36.5541 17.8296 36.705C17.7794 36.8488 17.6213 36.9278 17.4703 36.8775L15.9396 36.3457ZM16.4643 35.1886C16.3133 35.2246 16.1624 35.1311 16.1265 34.9802C16.0907 34.8294 16.1841 34.6784 16.3349 34.6425L16.9385 34.506C17.0895 34.47 17.2404 34.5635 17.2763 34.7143C17.3122 34.8653 17.2187 35.0162 17.0679 35.0521L16.4643 35.1886ZM16.3709 34.046C16.2487 34.1467 16.069 34.1251 15.9756 34.0029C15.8749 33.8807 15.8965 33.701 16.0187 33.6076L17.0608 32.7524C17.183 32.6517 17.3626 32.6733 17.456 32.7955C17.5567 32.9177 17.5351 33.0974 17.4129 33.1908L16.3709 34.046Z" fill="#ECF0F1"/>
<path d="M9.23462 33.9238V19.0046V18.8034H9.4431H19.2958V19.2131H9.64431V33.9238H9.23462Z" fill="#828282"/>
<path d="M30.2048 41.8865H49.6515C49.6515 41.8865 48.7532 35.2461 46.7122 31.6672C45.9289 30.2946 45.5264 28.4836 45.318 26.7588C45.2821 26.4785 45.2534 26.1911 45.2318 25.918C45.0234 23.4962 45.1815 21.4552 45.1815 21.4552C45.1815 21.4552 47.3518 20.6862 47.3518 18.135C47.3518 15.591 44.4412 14.1897 44.4198 14.1824V13.435H43.0975V14.4914L39.9498 18.7746H39.9211L36.7662 14.4914V13.435H35.4438V14.1824C35.4151 14.1968 32.5045 15.5981 32.5045 18.135C32.5045 20.6862 34.6748 21.4552 34.6748 21.4552C34.6748 21.4552 34.8329 23.4961 34.6246 25.918C34.603 26.1911 34.5743 26.4785 34.5383 26.7588C34.33 28.4836 33.9274 30.3018 33.1441 31.6672C31.1031 35.2461 30.2048 41.8865 30.2048 41.8865Z" fill="#E4E7ED"/>
<path d="M45.2318 25.9181H34.6246C34.603 26.1912 34.5743 26.4715 34.5383 26.7589H45.3181C45.2821 26.4786 45.2534 26.1983 45.2318 25.9181Z" fill="white"/>
<path d="M40.8049 31.5883C40.7187 31.5883 40.6397 31.538 40.6108 31.4517C39.8994 29.576 39.8778 28.0453 39.9641 27.1398C39.4323 27.9159 38.6921 29.2742 38.7783 30.6612C38.7854 30.7761 38.6992 30.8768 38.5842 30.884C38.4692 30.8911 38.3686 30.8049 38.3614 30.6899C38.2176 28.3831 40.0862 26.2846 40.1653 26.1912C40.23 26.1193 40.3378 26.0978 40.424 26.1481C40.5103 26.1983 40.5534 26.299 40.5247 26.3924C40.5176 26.414 39.9282 28.4693 41.0134 31.3008C41.0565 31.4086 40.999 31.5307 40.8912 31.5738C40.8696 31.581 40.8409 31.5883 40.8193 31.5883H40.8049Z" fill="#F5EDEE"/>
<path d="M34.7035 22.0876C34.6676 22.0732 34.6317 22.0516 34.5957 22.0374L34.7825 21.6852C34.8112 21.6996 34.8328 21.7139 34.8616 21.7212C35.1707 21.8506 35.415 21.8003 35.6809 21.599C35.9468 21.3977 36.1983 21.0312 36.3923 20.5856C36.845 19.5796 37.0032 18.1566 36.7373 17.3517L37.1182 17.2224C37.4272 18.1925 37.2404 19.6441 36.7589 20.7437C36.5433 21.2324 36.2702 21.6492 35.9252 21.9151C35.5875 22.181 35.1419 22.2817 34.7107 22.0876L34.6963 22.0805L34.7035 22.0876Z" fill="#FEFEFE"/>
<path d="M46.626 32.7165C46.8774 33.1478 46.7266 33.701 46.2882 33.9526L40.0288 37.5602C39.5976 37.8117 39.0443 37.6609 38.7927 37.2297L32.5476 26.3852C32.2962 25.9541 33.6615 19.6011 33.6615 19.6011C33.6615 19.6011 40.1293 21.4409 40.3737 21.8721L46.6187 32.7165H46.626ZM36.0906 21.5271C36.3852 22.0373 36.2128 22.6914 35.6953 22.986C35.1851 23.2806 34.531 23.1082 34.2364 22.5907C33.9418 22.0805 34.1142 21.4264 34.6317 21.1318C35.1419 20.8372 35.796 21.0096 36.0977 21.5271H36.0906Z" fill="#FFD503"/>
<path d="M30.8013 36.8846C30.5714 37.3302 30.0252 37.4955 29.5796 37.2655L23.1837 33.9094C22.7381 33.6794 22.5728 33.1332 22.8028 32.6877L28.6167 21.6134C28.8466 21.175 34.9409 18.9257 34.9409 18.9257C34.9409 18.9257 36.8453 25.3719 36.6154 25.8103L30.7943 36.8846H30.8013ZM34.6173 21.9942C34.3443 22.5189 33.6974 22.7201 33.1729 22.4469C32.6482 22.1739 32.447 21.527 32.7202 21.0025C32.9932 20.4778 33.6401 20.2766 34.1646 20.5498C34.6891 20.8228 34.8904 21.4697 34.6173 21.9942Z" fill="#FD0C00"/>
<path d="M33.3596 21.2397C33.3741 20.9306 33.489 20.5929 33.6758 20.2408C34.2363 19.1772 35.4006 17.9555 36.2917 17.4093C36.5936 17.2296 36.8595 17.2081 37.1254 17.2296L37.1325 17.244L37.0894 17.5386C36.996 17.5242 36.7659 17.5962 36.5073 17.7543C36.2414 17.9195 35.9324 18.1567 35.6234 18.4442C35.0053 19.0191 34.3801 19.7808 34.0351 20.4277C33.8699 20.7438 33.7692 21.0386 33.7692 21.2541C33.7692 21.4697 33.8195 21.5702 33.9776 21.6565L34.6675 21.9295C34.6028 22.0661 34.5238 22.181 34.4303 22.2601C34.4159 22.253 33.7978 22.0158 33.7907 22.0086L33.7763 22.0015C33.4816 21.8506 33.3523 21.5415 33.3666 21.2398H33.3596V21.2397Z" fill="#FEFEFE"/>
<path d="M26.6546 31.6816C26.7769 31.581 26.9205 31.502 27.0858 31.4445L27.2583 31.9475C27.0642 31.9907 26.9205 32.1128 26.8199 32.3213C26.7192 32.5225 26.6976 32.6734 26.7696 32.7812C26.8343 32.889 26.9205 32.9249 27.0139 32.9034C27.1073 32.882 27.2223 32.7741 27.3589 32.5944C27.4883 32.3932 27.6535 32.2351 27.862 32.1129C28.0704 31.9979 28.3004 32.0051 28.5592 32.1345C28.7604 32.2351 28.8898 32.4148 28.94 32.6734C28.9903 32.9321 28.9544 33.1908 28.8322 33.4351C28.7173 33.6723 28.5807 33.852 28.4369 33.9741C28.2933 34.0963 28.1351 34.1897 27.9627 34.24L27.7975 33.7369C27.9915 33.6938 28.164 33.5428 28.3221 33.2842C28.4371 33.0614 28.4586 32.8961 28.3868 32.7884C28.3221 32.6806 28.2216 32.6374 28.0993 32.6446C27.9771 32.6517 27.8478 32.7595 27.7112 32.9752C27.589 33.1692 27.4309 33.3202 27.2441 33.4423C27.0573 33.5572 26.8417 33.5572 26.5973 33.4279C26.3746 33.32 26.238 33.1332 26.2021 32.8673C26.1661 32.6086 26.1949 32.3787 26.2955 32.1775C26.4104 31.9403 26.5326 31.775 26.6548 31.6744L26.6546 31.6816ZM32.059 27.0176L29.5294 25.7456L30.4564 23.8843L30.9307 24.1215L30.248 25.4726L30.7869 25.7456L31.2971 24.7323L31.7642 24.9695L31.254 25.9828L31.8289 26.2703L32.5044 24.9192L32.9787 25.1564L32.0444 27.0105L32.059 27.0176ZM28.6453 27.5063L30.7007 28.5411L31.3762 27.1901L31.8505 27.4273L30.9163 29.2814L28.3867 28.0095L28.6382 27.4992L28.6453 27.5063ZM28.2429 29.9856L29.0119 30.8551L29.3927 30.1005L28.2429 29.9927V29.9856ZM29.4574 32.199L27.438 29.9138L27.6895 29.4107L30.7222 29.6694L30.4563 30.2084L29.9892 30.1652L29.4143 31.3079L29.7305 31.6529L29.4574 32.1919V32.199Z" fill="white"/>
<path d="M42.2494 30.8552C42.4074 30.7618 42.5081 30.6253 42.5368 30.46C42.5728 30.2947 42.544 30.1294 42.4434 29.9713C42.35 29.8132 42.2206 29.7125 42.0481 29.6623C41.8829 29.6192 41.7176 29.6407 41.5595 29.7414C41.4014 29.8348 41.308 29.9641 41.272 30.1366C41.236 30.3019 41.2649 30.4672 41.3654 30.6253C41.4588 30.7834 41.5953 30.8912 41.7607 30.9343C41.9259 30.9846 42.0913 30.9559 42.2494 30.8625V30.8552ZM41.6242 31.5236C41.2936 31.4445 41.0348 31.2505 40.848 30.9415C40.6612 30.6325 40.6108 30.3163 40.6899 29.9857C40.769 29.6551 40.963 29.3964 41.272 29.2096C41.581 29.0228 41.8972 28.9724 42.2278 29.0515C42.5584 29.1306 42.8171 29.3245 43.0039 29.6336C43.1907 29.9426 43.2411 30.2588 43.162 30.5893C43.0829 30.9199 42.889 31.1787 42.5799 31.3655C42.2709 31.5523 41.9547 31.6026 41.6242 31.5236ZM39.6406 33.1118L39.4754 27.2836L40.1797 26.8596L40.3522 32.6878L39.6408 33.1191V33.1118H39.6406ZM38.2321 30.2588C38.3901 30.1581 38.4908 30.0288 38.5267 29.8563C38.5626 29.6838 38.5338 29.5186 38.4333 29.3533C38.3326 29.188 38.2033 29.0874 38.0308 29.0371C37.8656 28.9868 37.6931 29.0155 37.535 29.1162C37.3769 29.2168 37.2763 29.3461 37.2404 29.5186C37.2044 29.6911 37.2333 29.8563 37.3338 30.0217C37.4345 30.1869 37.571 30.2947 37.7362 30.3379C37.9087 30.3881 38.074 30.3594 38.2321 30.266V30.2588ZM37.5853 30.9271C37.2476 30.8408 36.9888 30.6468 36.802 30.3377C36.6152 30.0287 36.5648 29.7053 36.6439 29.3747C36.7302 29.037 36.9242 28.7782 37.2333 28.5914C37.5423 28.4046 37.8657 28.3542 38.1962 28.4333C38.5339 28.5196 38.7927 28.7136 38.9795 29.0227C39.1663 29.3317 39.2167 29.6551 39.1376 29.9857C39.0585 30.3234 38.8572 30.5822 38.5482 30.769C38.2392 30.9558 37.9159 31.0061 37.5853 30.9271Z" fill="white"/>
<path d="M26.4534 46.1337H30.8587C31.6636 46.1337 32.3176 46.7877 32.3176 47.5925C32.3176 48.3974 31.6636 49.0514 30.8587 49.0514H26.4534C25.6486 49.0514 24.9946 48.3974 24.9946 47.5925C24.9946 46.7877 25.6486 46.1337 26.4534 46.1337Z" fill="#FFE356"/>
</g>
<defs>
<clipPath id="clip0_1_557">
<rect width="60" height="60" fill="white"/>
</clipPath>
</defs>
</svg>
