<svg width="32" height="32" viewBox="0 0 32 32" fill="none" xmlns="http://www.w3.org/2000/svg">
<path opacity="0.2" d="M7 19.1123L11.6 23.7123C11.7254 23.8295 11.8773 23.9146 12.0427 23.9603C12.2082 24.0061 12.3822 24.011 12.55 23.9748L19.8 22.1623C19.9324 22.1254 20.0558 22.0615 20.1625 21.9748L27 16.6373L22.925 8.97478L16.5125 7.09978C16.2846 7.03444 16.041 7.05216 15.825 7.14978L11.5 9.11228H14.0875C14.2174 9.11182 14.346 9.13698 14.4661 9.18632C14.5862 9.23565 14.6955 9.30819 14.7875 9.39978L19.6875 14.2873C19.7875 14.39 19.8646 14.5128 19.9137 14.6475C19.9627 14.7823 19.9826 14.9259 19.9719 15.0689C19.9613 15.2119 19.9204 15.351 19.852 15.477C19.7836 15.603 19.6891 15.713 19.575 15.7998L18.9 16.3123C18.2068 16.8297 17.365 17.1092 16.5 17.1092C15.635 17.1092 14.7932 16.8297 14.1 16.3123L12.5 15.1123L7 19.1123Z" fill="#FA8232"/>
<path d="M1.9125 15.2251L5 16.7626L9 9.11259L5.875 7.55009C5.64276 7.43171 5.37314 7.40996 5.12493 7.48957C4.87672 7.56919 4.67005 7.74371 4.55 7.97509L1.475 13.8626C1.41264 13.9804 1.37449 14.1096 1.36277 14.2424C1.35106 14.3752 1.36602 14.509 1.40678 14.636C1.44755 14.7629 1.51329 14.8805 1.60013 14.9816C1.68698 15.0828 1.79319 15.1656 1.9125 15.2251V15.2251Z" stroke="#FA8232" stroke-width="2" stroke-linecap="round" stroke-linejoin="round"/>
<path d="M27 16.6375L30.0875 15.0875C30.2063 15.0292 30.3123 14.9477 30.399 14.8476C30.4857 14.7476 30.5515 14.6311 30.5923 14.5052C30.6331 14.3793 30.6482 14.2464 30.6366 14.1145C30.625 13.9826 30.5871 13.8544 30.525 13.7375L27.45 7.84999C27.3297 7.61878 27.1239 7.44367 26.8764 7.36195C26.6289 7.28023 26.3593 7.29837 26.125 7.41249L23 8.97499L27 16.6375Z" stroke="#FA8232" stroke-width="2" stroke-linecap="round" stroke-linejoin="round"/>
<path d="M5 16.7627L7 19.1127L11.6 23.7127C11.7254 23.8299 11.8773 23.915 12.0427 23.9608C12.2082 24.0065 12.3822 24.0114 12.55 23.9752L19.8 22.1627C19.9324 22.1258 20.0558 22.062 20.1625 21.9752L27 16.6377" stroke="#FA8232" stroke-width="2" stroke-linecap="round" stroke-linejoin="round"/>
<path d="M7.00001 19.1123L12.5 15.1123L14.1 16.3123C14.7932 16.8297 15.635 17.1092 16.5 17.1092C17.365 17.1092 18.2068 16.8297 18.9 16.3123L19.575 15.7998C19.6892 15.713 19.7836 15.603 19.852 15.477C19.9204 15.351 19.9613 15.2119 19.9719 15.0689C19.9826 14.9259 19.9627 14.7823 19.9137 14.6476C19.8647 14.5128 19.7876 14.39 19.6875 14.2873L14.7875 9.39981C14.6955 9.30822 14.5863 9.23568 14.4661 9.18635C14.346 9.13701 14.2174 9.11186 14.0875 9.11231H9.00001" stroke="#FA8232" stroke-width="2" stroke-linecap="round" stroke-linejoin="round"/>
<path d="M22.925 8.97478L16.5125 7.09978C16.2847 7.03444 16.041 7.05216 15.825 7.14978L11.5 9.11228" stroke="#FA8232" stroke-width="2" stroke-linecap="round" stroke-linejoin="round"/>
<path d="M18 26.6125L21.7625 25.6625C21.9158 25.6279 22.0578 25.5547 22.175 25.45L25 23" stroke="#FA8232" stroke-width="2" stroke-linecap="round" stroke-linejoin="round"/>
</svg>
