<svg width="148" height="88" viewBox="0 0 148 88" fill="none" xmlns="http://www.w3.org/2000/svg">
<path d="M13.5419 63.7482C18.401 63.7482 21.4354 64.6734 22.6443 66.5244C22.9892 67.1334 23.162 67.6747 23.162 68.1491V69.097C23.162 71.9858 20.966 74.6938 16.5763 77.2215C13.3321 78.7557 10.0019 79.5234 6.5857 79.5234C4.35349 79.5234 2.45408 79.2079 0.888191 78.5755C0.295826 78.0458 0 77.5488 0 77.0862L0 76.2059C0 75.5285 0.492807 74.0392 1.47985 71.7373C1.73869 71.5122 1.93639 71.399 2.0715 71.399C3.24343 72.3918 4.30442 73.0015 5.25377 73.2266C7.25202 73.7237 8.95374 73.9716 10.3596 73.9716H11.2478C13.357 73.9716 15.4285 73.3854 17.4645 72.2116C18.3022 71.5909 18.7217 71.0496 18.7217 70.5863C18.7217 69.8075 17.4389 69.3566 14.8738 69.2324C12.7398 69.2324 10.1754 69.639 7.17807 70.451C6.82037 70.7672 6.52384 70.9247 6.28988 70.9247H6.06801C5.67333 70.9247 5.47564 69.7743 5.47564 67.4724V67.2688C5.47564 65.4184 6.85735 64.3123 9.61935 63.9512C10.1378 63.8724 11.4455 63.8048 13.5419 63.7482Z" fill="#341217"/>
<path d="M89.9352 63.582C91.3255 63.5917 92.8195 62.6158 93.4318 61.578C94.0683 60.4993 94.0476 58.8805 92.9433 58.0451C91.5153 56.9644 89.4211 57.9058 88.4027 59.0379C87.4029 60.1499 87.1455 62.1818 88.5279 63.1506C88.9532 63.4486 89.4374 63.5787 89.9352 63.582Z" fill="#C74A51"/>
<path d="M38.8839 87.0839C40.2742 87.0937 41.7683 86.1177 42.3805 85.08C43.017 84.0012 42.9964 82.3824 41.892 81.547C40.4641 80.4663 38.3698 81.4078 37.3515 82.5399C36.3516 83.6518 36.0942 85.6837 37.4766 86.6525C37.9019 86.9505 38.3862 87.0807 38.8839 87.0839Z" fill="#C74A51"/>
<path d="M122.119 63.5445C120.306 62.823 119.098 62.4612 118.493 62.4612H118.049C117.112 62.4612 116.248 62.9349 115.46 63.8835C114.756 65.0345 113.572 67.6975 111.908 71.8726C110.785 75.2579 109.724 76.9508 108.725 76.9508C108.282 76.8038 108.06 76.2846 108.06 75.3932V74.8512C108.06 73.926 108.552 72.3235 109.539 70.0444C109.983 68.8147 110.748 67.5284 111.833 66.1854C113.362 64.8198 114.128 64.0748 114.128 63.9512C114.128 63.037 112.844 62.4274 110.28 62.1229C109.231 62.1229 108.269 62.5744 107.393 63.4769C106.875 64.0416 105.568 66.7274 103.471 71.5337C101.979 75.416 100.771 77.3568 99.8455 77.3568C99.5368 77.2326 99.315 76.6008 99.1791 75.4609V75.3249C99.8455 71.5454 101.251 68.4536 103.398 66.0501C104.68 65 105.321 64.3455 105.321 64.0865C105.321 63.9629 105.272 63.8269 105.173 63.6799C103.693 62.8679 102.337 62.4612 101.103 62.4612C100.511 62.4729 100.215 62.5178 100.215 62.5965C99.4629 62.5965 98.3528 63.8607 96.8858 66.3884C95.9357 68.5661 95.4422 70.5525 95.4052 72.3463C95.4543 73.5988 95.5283 74.66 95.6271 75.5285C95.1585 75.9345 94.6159 76.1375 93.9993 76.1375C93.0493 76.1375 92.1127 75.822 91.1876 75.1896C90.5262 74.6261 89.926 74.0594 89.3699 73.4908C89.813 72.6716 90.2233 71.7757 90.5952 70.7893C90.726 70.4419 90.9465 70.1016 91.1293 69.775C91.322 69.4321 91.5232 69.0931 91.7337 68.7587C92.1618 68.0794 92.6262 67.4197 93.1225 66.7801C93.3195 66.5264 93.5215 66.2759 93.7284 66.0286C93.8358 65.9005 93.9439 65.7736 94.0534 65.6474C94.1352 65.5537 94.2952 65.4353 94.2959 65.309C94.2959 65.2355 94.2959 65.162 94.2966 65.0891C94.2966 65.0553 94.2959 65.0208 94.2788 64.9915C94.2625 64.9642 94.234 64.9453 94.2049 64.9291C93.9112 64.7612 93.5037 64.7274 93.1666 64.6851C91.5275 64.4801 89.8492 64.5927 88.208 64.7514C87.6554 64.8048 87.1022 64.8712 86.5596 64.9824C86.2182 65.052 85.862 65.134 85.5555 65.2934C85.3869 65.3813 85.1935 65.5153 85.1935 65.7111C84.3053 72.7523 82.4059 76.2729 79.496 76.2729C78.9648 76.2729 78.3483 76.1831 77.6457 76.0022C76.7447 75.7576 75.5365 74.902 74.0296 73.4537C75.2158 72.0503 75.8145 70.598 75.8145 69.0964V68.1484C75.8145 67.6747 75.6417 67.1334 75.2961 66.5238C74.0872 64.6727 71.0529 63.7475 66.1938 63.7475C64.0974 63.8041 62.7896 63.8724 62.2719 63.9512C59.5092 64.3123 58.1282 65.4184 58.1282 67.2688V67.4717C58.1282 69.7737 58.3252 70.9247 58.7206 70.9247H58.9417C59.1757 70.9247 59.4722 70.7672 59.8299 70.4504C62.8394 69.6384 65.4044 69.2317 67.5257 69.2317C70.0914 69.3566 71.3743 69.8075 71.3743 70.5857C71.3743 71.0489 70.9547 71.5903 70.1163 72.211C68.0932 73.3847 66.0209 73.9709 63.9004 73.9709H63.0122C61.6056 73.9709 59.9046 73.7237 57.9063 73.2266C56.9563 73.0008 55.896 72.3918 54.7248 71.3983C54.5882 71.3983 54.3913 71.5115 54.1324 71.7373C53.1454 74.0392 52.6519 75.5285 52.6519 76.2059V77.0862C52.6519 77.5481 52.9477 78.0452 53.54 78.5755C55.1066 79.2072 57.0061 79.5234 59.2383 79.5234C62.6666 79.5234 65.9968 78.7557 69.2281 77.2215C70.5088 76.4837 71.5969 75.7309 72.5043 74.9631C72.6891 75.483 72.9103 76.0256 73.2054 76.6119C74.6483 78.5527 76.7447 79.5234 79.496 79.5234H80.3095C83.4669 79.5234 86.0561 78.1831 88.0821 75.5129C88.2115 75.8395 88.3573 76.1616 88.5237 76.4765C89.7191 78.4174 91.5694 79.3881 94.0733 79.3881H94.7389C95.775 79.3881 96.8111 79.1623 97.8472 78.7108C98.5626 79.2528 99.5248 79.5234 100.734 79.5234C101.818 79.5234 103.298 78.7108 105.173 77.0862C106.579 78.485 107.837 79.1845 108.948 79.1845H110.132C112.783 78.3276 114.781 76.7251 116.125 74.3776C118.185 69.4685 119.665 66.648 120.565 65.9148C121.737 64.8985 122.329 64.3572 122.341 64.2895V64.1542C122.341 63.9167 122.267 63.7143 122.119 63.5445Z" fill="#341217"/>
<path d="M35.5696 48.6216C34.5065 49.4056 33.5031 50.3822 32.5616 51.5611C28.9605 56.8085 27.1592 62.2699 27.1592 67.9461V68.0814C27.1592 69.492 27.3071 70.8232 27.6036 72.0763C28.9846 77.0413 32.2899 79.5234 37.5195 79.5234C38.5521 79.4851 39.4317 79.394 40.1763 79.2567C40.2097 79.2502 40.2431 79.2443 40.2765 79.2372C40.3683 79.2196 40.4664 79.204 40.5532 79.1851C40.561 79.1799 40.5674 79.1747 40.5752 79.1695C43.0421 78.5976 45.1392 77.0374 46.8615 74.4791C48.416 71.1283 49.6001 68.8491 50.4143 67.6409C51.7462 66.0618 52.4118 65.1815 52.4118 65.0006C52.4118 64.741 51.5244 64.5608 49.748 64.4593C47.1702 64.4593 45.1477 64.6844 43.68 65.136C43.3841 65.136 43.1623 65.7912 43.0136 67.0996C42.2257 72.1888 40.8056 75.1278 38.7597 75.9345H38.5556C37.8274 75.9345 37.0879 75.8226 36.3362 75.5969C34.1652 74.7725 33.08 73.0581 33.08 70.451V69.9097C33.08 68.1718 33.6467 65.7567 34.7817 62.6649C35.842 59.8782 37.1739 57.3726 38.7775 55.1494C39.6266 53.9678 40.5027 52.9028 41.4022 51.9314C40.9749 51.8923 40.5432 51.8247 40.1059 51.7245C37.9647 51.2339 36.4685 50.1981 35.5696 48.6216Z" fill="#341217"/>
<path d="M117.908 42.2621C117.901 42.2697 117.892 42.2773 117.883 42.2773C117.892 42.2773 117.901 42.2697 117.925 42.2545C117.917 42.2545 117.917 42.2621 117.908 42.2621Z" fill="#363794"/>
<path d="M139.901 22.6974C139.879 22.795 139.822 22.8925 139.773 22.9836V22.9967C139.737 23.0552 139.709 23.1268 139.666 23.1983C139.538 23.4781 139.382 23.7709 139.211 24.0962C139.175 24.1548 139.133 24.2263 139.097 24.2979C139.069 24.3565 139.033 24.428 138.99 24.4996C138.962 24.5712 138.912 24.6428 138.877 24.7273C138.806 24.8575 138.742 24.9876 138.663 25.1307C138.599 25.2413 138.55 25.3454 138.486 25.456C138.429 25.5536 138.379 25.6447 138.336 25.7293C137.988 26.3734 137.689 26.933 137.533 27.2193C137.426 27.4014 137.319 27.5901 137.206 27.7593V27.7723H137.191V27.7593C137.021 27.6292 136.85 27.5055 136.686 27.3884C136.58 27.3169 136.473 27.2453 136.381 27.1607C136.281 27.0761 136.16 26.9915 136.061 26.933C135.442 26.484 134.859 26.0416 134.283 25.5601C134.219 25.5016 134.141 25.443 134.077 25.3715C133.998 25.3129 133.92 25.2413 133.842 25.1698C133.75 25.1112 133.671 25.0266 133.579 24.9551C133.515 24.8835 133.451 24.8249 133.387 24.7664V24.7534C133.323 24.7013 133.266 24.6558 133.216 24.5972C133.109 24.5126 133.01 24.4085 132.917 24.2979C132.917 24.2979 132.917 24.2849 132.903 24.2719L132.839 24.2133C132.797 24.1808 132.761 24.1288 132.704 24.0832C132.683 24.0507 132.64 23.9986 132.605 23.9531C132.548 23.9075 132.498 23.8425 132.448 23.7709C132.391 23.7123 132.341 23.6668 132.306 23.5952C132.235 23.5367 132.171 23.4651 132.121 23.3805C132.093 23.3415 132.071 23.322 132.057 23.2829C132.029 23.2829 132.029 23.2829 132.029 23.2699C131.872 23.0812 131.73 22.8795 131.609 22.6648C131.573 22.6193 131.545 22.5542 131.509 22.4957C131.453 22.4111 131.417 22.32 131.374 22.2094C131.374 22.1964 131.367 22.1964 131.367 22.1899C131.325 22.0662 131.289 21.9491 131.261 21.8385C131.246 21.7474 131.232 21.6759 131.232 21.5783C131.232 21.5197 131.232 21.4612 131.246 21.4091V21.4026C131.246 21.3896 131.246 21.3896 131.261 21.3766C131.261 21.3375 131.275 21.305 131.289 21.2595C131.31 21.2074 131.339 21.1619 131.367 21.1033C131.609 20.4917 131.901 19.9061 132.213 19.3141C132.313 19.1124 132.42 18.9172 132.512 18.7155C132.541 18.6895 132.548 18.6439 132.562 18.6179C132.839 18.0974 133.109 17.5834 133.373 17.0564H133.387C133.408 17.0564 133.437 17.0694 133.479 17.0824C133.501 17.0824 133.543 17.0954 133.593 17.1149C133.622 17.1279 133.671 17.1409 133.714 17.154C133.87 17.2125 134.062 17.2841 134.247 17.3557C134.283 17.3817 134.34 17.4012 134.375 17.4142C134.418 17.4272 134.468 17.4533 134.503 17.4728H134.532C134.574 17.4858 134.596 17.5118 134.624 17.5118C134.66 17.5378 134.702 17.5443 134.731 17.5574C134.752 17.5574 134.781 17.5704 134.781 17.5834C134.809 17.5834 134.83 17.5964 134.845 17.6094C134.873 17.6094 134.887 17.6159 134.909 17.6289C135.094 17.7135 135.278 17.7851 135.456 17.8827C135.677 17.9868 135.904 18.0974 136.11 18.2275C136.473 18.4292 136.843 18.6569 137.177 18.8977V18.9042C137.319 19.0018 137.469 19.1124 137.611 19.2165C137.725 19.3141 137.846 19.4052 137.959 19.5027C138.116 19.6329 138.272 19.763 138.414 19.9061C138.756 20.2315 139.069 20.5763 139.367 20.9341C139.396 20.9602 139.431 21.0057 139.46 21.0317C139.581 21.1879 139.709 21.3375 139.822 21.5067C139.901 21.6173 139.993 21.7084 140.05 21.832C140.071 21.8645 140.1 21.8906 140.1 21.9101V21.9361L140.114 21.9491C140.128 21.9621 140.128 21.9752 140.114 21.9752C140.135 22.0337 140.135 22.0923 140.128 22.1508C140.128 22.2354 140.036 22.4241 139.901 22.6974ZM136.722 28.6376C136.722 28.6897 136.708 28.7222 136.694 28.7613C136.686 28.8198 136.672 28.8914 136.644 28.963C136.615 29.0215 136.594 29.0801 136.58 29.1386C136.551 29.2102 136.53 29.2753 136.502 29.3468C136.359 29.7112 136.217 30.0821 136.082 30.4659C135.954 30.8108 135.826 31.1686 135.691 31.5134C135.641 31.6696 135.591 31.8258 135.534 31.9819C135.357 32.4699 135.172 32.9839 134.973 33.4849C134.717 34.2201 134.454 34.9618 134.183 35.6905C133.97 36.2631 133.764 36.8486 133.558 37.4082C133.451 37.6815 133.358 37.9352 133.252 38.1955C133.109 38.5663 132.981 38.9372 132.839 39.3015C132.619 39.8741 132.391 40.4466 132.157 41.0127C132.029 41.3315 131.901 41.6568 131.758 41.9626C131.623 42.2879 131.481 42.6068 131.353 42.9191C131.14 43.394 130.919 43.869 130.699 44.3504C130.542 44.7213 130.372 45.0857 130.194 45.4435C130.037 45.8144 129.853 46.1852 129.668 46.5561C129.319 47.2848 128.964 48.0135 128.615 48.7357C128.381 49.2367 128.146 49.7182 127.911 50.2062C127.847 50.3233 127.79 50.4534 127.726 50.577C127.677 50.6681 127.598 50.7917 127.477 50.8958C127.442 50.9349 127.399 50.9674 127.349 51.0064C127.193 51.1235 127.022 51.2667 126.788 51.2407C126.411 51.1951 126.034 51.065 125.657 50.9674C125.252 50.8763 124.846 50.7657 124.455 50.6486C124.192 50.564 123.943 50.4924 123.687 50.4078C123.452 50.3233 123.232 50.2387 123.004 50.1476C122.983 50.1476 122.955 50.1346 122.926 50.1216C122.684 50.024 122.436 49.9069 122.201 49.7897C121.952 49.6661 121.732 49.523 121.497 49.3929C121.276 49.2497 121.049 49.0936 120.828 48.9309C120.672 48.8008 120.516 48.6642 120.373 48.5145C120.345 48.4885 120.324 48.4494 120.295 48.4299C120.181 48.3193 120.089 48.2022 119.982 48.0851C119.982 48.0851 119.968 48.0721 119.932 48.02C119.918 48.0005 119.904 47.9875 119.89 47.9615C119.797 47.8574 119.719 47.7468 119.641 47.6166C119.634 47.5906 119.62 47.5841 119.62 47.5581C119.591 47.5451 119.591 47.519 119.577 47.5125C119.499 47.4019 119.449 47.2848 119.399 47.1742C119.385 47.1612 119.371 47.1417 119.371 47.1156C119.342 47.0441 119.307 46.9855 119.264 46.8879C119.228 46.7968 119.172 46.6862 119.136 46.5821C119.122 46.5691 119.122 46.5431 119.122 46.5301C119.093 46.4845 119.072 46.426 119.072 46.3739C119.043 46.3544 119.044 46.3284 119.044 46.3024C119.008 46.1982 118.979 46.0811 118.951 45.9705C118.937 45.938 118.93 45.899 118.93 45.8729C118.873 45.6973 118.851 45.4956 118.823 45.3134C118.795 45.1117 118.795 44.923 118.795 44.7278V44.4806C118.795 44.1553 118.859 43.8364 118.937 43.5372C118.951 43.4656 118.979 43.394 118.994 43.3224C119.044 43.1077 119.122 42.88 119.228 42.6588C119.25 42.5872 119.292 42.5157 119.328 42.4441C119.371 42.3725 119.399 42.2944 119.435 42.2229C120.046 41.1428 120.658 40.0433 121.276 38.9567C121.888 37.8701 122.5 36.7771 123.111 35.6905C123.175 35.5799 123.36 35.2481 123.623 34.8187C123.765 34.5714 123.936 34.2721 124.114 33.9598C124.114 33.9468 124.128 33.9338 124.128 33.9273C124.22 33.7842 124.299 33.641 124.391 33.4849C124.64 33.075 124.882 32.6455 125.116 32.2291C125.159 32.1836 125.188 32.1381 125.209 32.086C125.223 32.0665 125.252 32.0274 125.266 31.9949C125.33 31.8713 125.408 31.7542 125.472 31.6436C125.5 31.611 125.508 31.5655 125.536 31.5265C125.771 31.1231 125.991 30.7652 126.148 30.4789C126.176 30.4399 126.19 30.4074 126.212 30.3683C126.24 30.3098 126.269 30.2642 126.29 30.2252C126.397 30.0625 126.461 29.9519 126.489 29.9064C126.916 29.1907 127.349 28.488 127.769 27.7788C128.181 27.1152 128.587 26.432 128.992 25.7683C129.319 25.2153 129.653 24.6688 129.981 24.1222C130.194 23.7709 130.4 23.4521 130.592 23.1203C130.621 23.0682 130.663 23.0357 130.685 22.9836C131.609 23.7709 132.526 24.5712 133.422 25.3585C134.027 25.8855 134.624 26.3995 135.222 26.9135C135.52 27.1737 135.833 27.434 136.146 27.7007L136.267 27.8048C136.331 27.8504 136.381 27.9024 136.438 27.948C136.473 27.9935 136.53 28.0586 136.566 28.1041C136.608 28.1497 136.63 28.1887 136.658 28.2343C136.672 28.2733 136.686 28.3188 136.694 28.3644C136.708 28.4034 136.708 28.4229 136.708 28.462C136.722 28.488 136.722 28.5075 136.722 28.5661V28.6376ZM122.222 28.963V28.9955C122.222 29.0085 122.236 29.0215 122.251 29.0215C122.265 29.0801 122.279 29.1386 122.279 29.2102V29.2818C122.3 29.4184 122.3 29.5485 122.3 29.7047C122.293 29.9259 122.279 30.1536 122.236 30.3944C122.201 30.7392 122.123 31.071 122.066 31.4224C122.002 31.7802 121.938 32.125 121.874 32.4829C121.796 32.4959 121.703 32.4959 121.625 32.4959C121.234 31.1231 120.857 29.7372 120.48 28.3514C120.501 28.3514 120.544 28.3449 120.572 28.3449C120.857 28.2928 121.092 28.2733 121.298 28.2798C121.376 28.2798 121.454 28.2928 121.518 28.3058C121.639 28.3318 121.753 28.3644 121.831 28.4164C121.874 28.4359 121.902 28.462 121.924 28.488C121.938 28.488 121.966 28.5075 121.98 28.5335C121.988 28.5335 121.988 28.5335 122.002 28.5596C122.03 28.5791 122.059 28.6051 122.066 28.6376C122.137 28.7092 122.187 28.8198 122.215 28.9239V28.9369C122.222 28.9369 122.222 28.9499 122.222 28.963ZM119.982 27.0436C119.954 26.972 119.918 26.9004 119.89 26.8159C119.868 26.7573 119.854 26.7053 119.84 26.6337C119.776 26.4906 119.719 26.3409 119.669 26.1848H119.655V26.1457C119.641 26.1132 119.634 26.0741 119.62 26.0546C119.577 25.944 119.556 25.8399 119.513 25.7423C119.499 25.6838 119.484 25.6447 119.484 25.5862V25.5732C119.42 25.3584 119.371 25.1568 119.278 24.9551C119.243 24.8379 119.2 24.7273 119.15 24.6232C119.093 24.5256 119.044 24.415 118.994 24.3239C118.951 24.2263 118.887 24.1222 118.823 24.0247C118.773 23.914 118.702 23.823 118.624 23.7123C118.603 23.6798 118.574 23.6408 118.546 23.5952C118.539 23.5692 118.539 23.5562 118.51 23.5497C118.446 23.4521 118.382 23.3675 118.304 23.2829C118.261 23.2114 118.211 23.1528 118.147 23.0942C118.091 23.0357 118.041 22.9641 117.977 22.9121C117.899 22.808 117.792 22.7104 117.678 22.6193C117.635 22.5672 117.586 22.5217 117.529 22.4826C117.465 22.4241 117.415 22.3655 117.351 22.3395C117.195 22.2094 117.038 22.0793 116.867 21.9621C116.853 21.9491 116.839 21.9231 116.825 21.9231C116.711 21.8385 116.604 21.7604 116.491 21.6954C116.427 21.6498 116.348 21.6043 116.27 21.5522C116.242 21.5457 116.213 21.5197 116.178 21.4937C116.057 21.4091 115.929 21.3375 115.801 21.279C115.744 21.2464 115.694 21.2074 115.651 21.1879C115.488 21.1033 115.331 21.0057 115.161 20.9211C114.727 20.7064 114.3 20.4917 113.852 20.316C113.66 20.2184 113.454 20.1339 113.241 20.0623C112.835 19.8996 112.444 19.7435 112.046 19.6134H112.032C111.612 19.4702 111.221 19.3336 110.809 19.2295C110.453 19.1319 110.112 19.0603 109.763 18.9887C109.749 18.9757 109.735 18.9757 109.721 18.9757C109.372 18.9042 109.017 18.8456 108.668 18.787C108.121 18.7025 107.573 18.6439 107.026 18.6114C106.215 18.5463 105.397 18.5463 104.572 18.5984L104.103 18.6309C103.975 18.6439 103.833 18.6569 103.697 18.6699C103.683 18.6699 103.662 18.6699 103.633 18.6829C103.335 18.7025 103.05 18.7545 102.759 18.787C102.474 18.8326 102.176 18.8846 101.891 18.9432C101.585 19.0018 101.287 19.0603 100.974 19.1319C100.647 19.2035 100.334 19.3011 100.014 19.3856C99.8432 19.4312 99.6725 19.4897 99.5019 19.5418C99.4663 19.5418 99.4379 19.5483 99.4094 19.5613C99.3454 19.5873 99.3099 19.6003 99.253 19.6134C99.0823 19.6589 98.9259 19.7044 98.7694 19.763C98.6912 19.789 98.613 19.8281 98.5347 19.8606C98.4992 19.8606 98.4565 19.8866 98.4352 19.8866C98.1223 19.9907 97.8236 20.1143 97.5321 20.2445C97.4325 20.277 97.3258 20.3291 97.2334 20.3616C96.9703 20.4722 96.7143 20.5763 96.4654 20.7064C96.3231 20.778 96.1809 20.8496 96.0316 20.9211C96.0245 20.9211 96.0245 20.9211 96.0103 20.9341C95.8751 21.0057 95.7614 21.0643 95.6334 21.1228C95.5125 21.1879 95.3845 21.2595 95.2636 21.331C95.2138 21.3636 95.164 21.3896 95.1071 21.4091C94.8511 21.5522 94.6022 21.7084 94.3533 21.8645C94.2324 21.9491 94.1044 22.0337 93.9907 22.1183C93.9764 22.1183 93.9764 22.1183 93.9622 22.1248C93.7915 22.2224 93.6351 22.3395 93.4644 22.4631C93.3507 22.5477 93.2155 22.6258 93.1018 22.7234C92.5826 23.1073 92.0706 23.5107 91.5871 23.9531L91.4449 24.0832C90.9755 24.4996 90.5204 24.9551 90.115 25.4105C90.0226 25.4886 89.9444 25.5732 89.8662 25.6708C89.3968 26.1848 88.9559 26.7053 88.5364 27.2713C88.4866 27.3299 88.4439 27.3884 88.4084 27.447C88.2021 27.7203 87.9888 28.0065 87.7968 28.3058C87.5763 28.6181 87.363 28.9369 87.1568 29.2753C86.9506 29.5941 86.7514 29.9259 86.5594 30.2642V30.2772C86.7159 30.57 86.8723 30.8693 87.0003 31.1686C87.1568 31.4549 87.2848 31.7542 87.4199 32.0405C87.5337 32.2877 87.6546 32.5414 87.7541 32.7887C87.7968 32.8603 87.8181 32.9253 87.8466 32.9969C87.875 33.0424 87.8892 33.075 87.8964 33.127C87.9248 33.1726 87.939 33.1986 87.9532 33.2441C87.9746 33.2832 88.003 33.3287 88.0172 33.3612C88.0812 33.5044 88.1452 33.6475 88.2021 33.7842C88.2519 33.8752 88.2875 33.9859 88.3159 34.0769V34.09C88.3586 34.1615 88.3799 34.2331 88.4084 34.2917C88.4368 34.3632 88.4581 34.4348 88.4866 34.4999C88.515 34.5324 88.5221 34.5714 88.5364 34.5909C88.5506 34.63 88.5648 34.6625 88.579 34.7016C88.6288 34.8187 88.6715 34.9358 88.7212 35.0594L88.7355 35.0724V35.0789C88.8493 35.3587 88.9559 35.6189 89.0626 35.8922C89.0839 35.9638 89.1124 36.0354 89.1408 36.1069C89.1621 36.1785 89.1906 36.2631 89.219 36.3346C89.2404 36.4192 89.283 36.5103 89.3186 36.5949C89.3613 36.6795 89.3968 36.7771 89.4253 36.8617C89.4395 36.9072 89.4537 36.9527 89.4608 36.9918C89.539 37.2065 89.6173 37.4082 89.6955 37.6099C89.7382 37.7205 89.7737 37.8246 89.8164 37.9352V37.9417C89.8306 37.9677 89.8448 37.9938 89.8448 38.0133C89.8519 38.0263 89.8519 38.0393 89.8662 38.0653C89.8804 38.1109 89.9088 38.1694 89.923 38.241C90.0368 38.5273 90.1435 38.8266 90.2359 39.1259C90.2715 39.243 90.3142 39.3666 90.3639 39.4967C90.5488 40.0433 90.7266 40.5833 90.9257 41.1558C90.9897 41.3315 91.0537 41.5007 91.1035 41.6763C91.1746 41.8715 91.2244 42.0732 91.3026 42.2619C91.4591 42.7369 91.6155 43.2379 91.7862 43.7193C91.9569 44.2073 92.1133 44.6953 92.2769 45.1833C91.9142 45.0401 91.7222 44.9816 91.5231 44.897C91.3168 44.7994 91.1035 44.7083 90.8831 44.5977C90.8617 44.5847 90.8333 44.5847 90.8048 44.5782C90.7408 44.5391 90.6768 44.5066 90.6128 44.4546C90.4137 44.3635 90.2217 44.2659 90.0368 44.1553C89.923 44.0967 89.8164 44.0381 89.6955 43.9666C89.3044 43.7519 88.9275 43.5111 88.5648 43.2899C88.4439 43.2053 88.3444 43.1338 88.2235 43.0492C88.2021 43.0362 88.2021 43.0232 88.1737 43.0167C88.1452 42.9906 88.1097 42.9776 88.067 42.9451C87.9746 42.8605 87.8608 42.7889 87.7541 42.7043L87.5835 42.5742C87.5479 42.5482 87.5052 42.5157 87.4839 42.4896C87.4555 42.4766 87.4555 42.4636 87.427 42.4636C87.4057 42.4311 87.363 42.4051 87.3417 42.379C87.2848 42.3465 87.2208 42.2944 87.171 42.2489C87.1426 42.2229 87.1141 42.2034 87.0928 42.1773C87.0501 42.1448 87.0146 42.1188 86.9719 42.0862C86.8723 42.0017 86.7514 41.8911 86.6448 41.7935L86.1541 41.3445C86.1541 41.3445 86.0901 41.286 86.0901 41.273C86.0759 41.2469 86.0474 41.2274 86.0332 41.2014C85.8128 40.9867 85.6065 40.759 85.3932 40.5442C85.2368 40.3556 85.0803 40.1604 84.9239 39.9717C84.7959 39.8155 84.6679 39.6399 84.5327 39.4707C84.419 39.3145 84.2981 39.1584 84.2127 38.9957C84.0634 38.8005 83.9496 38.5988 83.8287 38.4102C83.715 38.228 83.6083 38.0523 83.5158 37.8636C83.4661 37.779 83.4163 37.6815 83.3736 37.5969C83.2741 37.4212 83.1674 37.226 83.0892 37.0503C82.9825 36.8226 82.8829 36.6079 82.7905 36.3802C82.7123 36.1785 82.634 35.9768 82.5416 35.7751C82.5274 35.7361 82.4989 35.6905 82.4989 35.6645C82.4492 35.4888 82.3852 35.3197 82.3354 35.1505C82.2785 35.0008 82.2145 34.8447 82.1789 34.6885C82.1647 34.6495 82.1505 34.604 82.1363 34.5714C82.0865 34.3762 82.0296 34.1875 81.9798 34.0054C81.866 33.5304 81.7451 33.0554 81.6669 32.5675C81.5887 32.1446 81.5247 31.7151 81.4749 31.2857C81.4749 31.2532 81.4749 31.2076 81.4607 31.1686C81.4465 31.1361 81.4465 31.097 81.4465 31.0645C81.3967 30.6546 81.354 30.2382 81.3256 29.8348C81.2616 28.7613 81.2616 27.7007 81.3256 26.6467C81.3256 26.5751 81.3398 26.4906 81.354 26.4125V26.2563C81.3825 26.0026 81.3967 25.7684 81.418 25.5146C81.4465 25.2869 81.4749 25.0722 81.4963 24.8575C81.5105 24.8249 81.5105 24.7859 81.5247 24.7534C81.5389 24.6297 81.5531 24.5126 81.5745 24.3955C81.5745 24.3435 81.5887 24.2979 81.6029 24.2394C81.6171 24.0832 81.6385 23.9271 81.6669 23.7644C81.6954 23.6668 81.7096 23.5692 81.7167 23.4846C81.7167 23.4391 81.7309 23.3935 81.7451 23.3415C81.7736 23.1918 81.8091 23.0357 81.8376 22.8925C81.9016 22.5802 81.9798 22.2679 82.0438 21.9752C82.2643 21.1358 82.4989 20.316 82.8047 19.4767C82.826 19.4052 82.8403 19.3336 82.8687 19.275C82.9043 19.1839 82.9469 19.0733 82.9683 18.9757C82.9967 18.9042 83.0252 18.8456 83.0465 18.774C83.2456 18.273 83.4376 17.7721 83.6723 17.2711C83.7505 17.0954 83.8287 16.9262 83.907 16.7506C83.9354 16.7245 83.9354 16.6985 83.9496 16.679C84.0918 16.3407 84.2625 16.0219 84.4332 15.6835C84.5256 15.4818 84.6252 15.2801 84.7461 15.0784C84.8456 14.8767 84.9665 14.675 85.0732 14.4668C85.187 14.2651 85.2936 14.0765 85.4074 13.8878C85.4714 13.7772 85.5283 13.6796 85.5923 13.5885C85.763 13.2762 85.955 12.9769 86.1541 12.6776C86.2323 12.5345 86.3248 12.4043 86.4243 12.2612C86.467 12.2026 86.5168 12.118 86.5594 12.0335C86.595 12.0009 86.6234 11.9554 86.6448 11.9033C86.6732 11.8708 86.7017 11.8318 86.7159 11.8123L86.9861 11.4154C87.0146 11.3698 87.0643 11.2983 87.107 11.2462C87.2848 10.986 87.4839 10.7387 87.6617 10.4719C87.6901 10.4394 87.7186 10.4004 87.7399 10.3678C87.7541 10.3418 87.7826 10.3158 87.7968 10.2963C87.811 10.2703 87.811 10.2572 87.8181 10.2377C87.9675 10.0555 88.0955 9.88638 88.2519 9.7107C88.4368 9.45045 88.643 9.20972 88.835 8.95597C89.0341 8.72175 89.2404 8.468 89.4537 8.23377C89.6315 8.02557 89.8164 7.82387 90.0013 7.6482C90.3142 7.30987 90.6271 7.00407 90.9471 6.70478C91.1035 6.56164 91.2742 6.40549 91.4449 6.27536C91.4591 6.24934 91.4733 6.24934 91.4875 6.23632C91.5231 6.20379 91.5728 6.15825 91.6155 6.13223C91.644 6.1062 91.6653 6.09318 91.6795 6.07367C91.8075 5.96306 91.9569 5.87197 92.0849 5.76136C92.1204 5.73534 92.1631 5.7028 92.1915 5.68979C92.2129 5.66376 92.2413 5.64424 92.2555 5.64424C92.3551 5.55966 92.476 5.4881 92.5826 5.41653C92.6324 5.37098 92.668 5.34496 92.7106 5.30592C92.7249 5.29941 92.7462 5.2864 92.7604 5.27339C92.8031 5.23435 92.8386 5.21483 92.8813 5.1888C93.1942 4.98711 93.5213 4.78541 93.8413 4.60323C93.948 4.53166 94.0689 4.47311 94.1827 4.42757C94.2253 4.38853 94.2751 4.369 94.3249 4.35599C94.3818 4.31696 94.4316 4.29744 94.4956 4.27141C94.524 4.24538 94.5382 4.23237 94.5596 4.22586C94.588 4.19984 94.6165 4.18683 94.6378 4.18683C94.652 4.17382 94.6805 4.1608 94.7018 4.15429C94.7587 4.12827 94.8227 4.08923 94.8725 4.06971C94.9009 4.0567 94.9365 4.04369 94.9649 4.01766C94.9934 4.01115 94.9934 4.01116 95.0147 3.99814C95.164 3.92657 95.3205 3.86802 95.4769 3.79645C95.5267 3.77042 95.5765 3.7444 95.6334 3.72488C95.7329 3.68584 95.8538 3.64029 95.9534 3.60125C96.0743 3.5427 96.2165 3.49715 96.3374 3.45811C96.3872 3.43859 96.4369 3.41257 96.4938 3.39956C96.7285 3.31498 96.9632 3.24341 97.1836 3.18485C97.3116 3.13931 97.4325 3.11329 97.5463 3.08075C97.5747 3.05473 97.5961 3.05473 97.6103 3.05473C97.7525 3.00918 97.9018 2.97015 98.0583 2.93761C98.1436 2.91159 98.2361 2.88556 98.3285 2.87255C98.3712 2.86604 98.421 2.85303 98.4707 2.84001C98.7054 2.78146 98.9401 2.7294 99.2174 2.69687C99.4734 2.65133 99.7223 2.59929 99.9712 2.56675C100.014 2.55374 100.064 2.55374 100.113 2.55374C100.426 2.50819 100.739 2.46915 101.052 2.44313H101.109C101.657 2.39759 102.204 2.37156 102.773 2.37156H102.972C103.257 2.36505 103.534 2.37156 103.804 2.38457C103.882 2.38457 103.961 2.38457 104.039 2.39758H104.181C104.238 2.39758 104.288 2.39759 104.323 2.4106C104.352 2.39759 104.352 2.39759 104.38 2.4106C104.473 2.4106 104.558 2.42361 104.65 2.42361C104.785 2.43662 104.913 2.44312 105.056 2.45614C105.198 2.46915 105.326 2.46915 105.49 2.49518C105.774 2.5147 106.044 2.55373 106.35 2.57976C106.386 2.58627 106.428 2.58627 106.478 2.59928C106.855 2.65133 107.26 2.70989 107.651 2.76844C108.341 2.87255 109.017 3.00918 109.671 3.15882C109.998 3.2304 110.325 3.31498 110.638 3.41257C110.873 3.47113 111.107 3.52969 111.328 3.60125C111.506 3.65331 111.676 3.71186 111.833 3.75741C112.096 3.84199 112.345 3.92657 112.594 4.01116C112.736 4.04369 112.864 4.10224 113.006 4.15429C113.283 4.25839 113.554 4.356 113.831 4.47311C114.194 4.61625 114.535 4.75938 114.869 4.92855C115.054 5.01313 115.225 5.09121 115.395 5.17579C115.744 5.34495 116.085 5.53364 116.427 5.71582C116.604 5.81992 116.775 5.91751 116.96 6.02161C117.23 6.19078 117.507 6.37296 117.763 6.53562C117.934 6.64622 118.119 6.76334 118.275 6.88045C118.496 7.0366 118.716 7.19275 118.937 7.36192C119.008 7.42048 119.072 7.46602 119.15 7.51807C119.214 7.55061 119.278 7.59615 119.342 7.66772C119.463 7.76531 119.591 7.8499 119.712 7.954C119.84 8.05159 119.954 8.14919 120.075 8.25329C120.103 8.29233 120.139 8.31185 120.167 8.35088C120.181 8.35088 120.188 8.37691 120.203 8.37691C120.345 8.49402 120.494 8.61114 120.622 8.75428C120.814 8.91043 121.013 9.09261 121.184 9.28129C121.34 9.42443 121.497 9.59359 121.639 9.74324C121.874 9.97096 122.094 10.1987 122.3 10.4394C122.457 10.6151 122.613 10.7973 122.763 10.986C122.77 10.999 122.784 11.012 122.798 11.025C122.997 11.2592 123.189 11.5 123.374 11.7472C123.41 11.7862 123.424 11.8188 123.452 11.8578C123.552 12.0009 123.659 12.1311 123.751 12.2482C124.05 12.6451 124.327 13.0615 124.597 13.4779C124.74 13.7056 124.882 13.9333 125.017 14.148C125.159 14.3627 125.273 14.5905 125.408 14.8182C125.522 15.0329 125.643 15.2476 125.757 15.4623C125.821 15.6055 125.892 15.7356 125.97 15.8657C125.991 15.9373 126.048 15.9958 126.069 16.0674C126.112 16.126 126.133 16.1845 126.162 16.2561C126.226 16.3667 126.269 16.4708 126.333 16.6074C126.333 16.6139 126.333 16.6269 126.347 16.64C126.581 17.1279 126.816 17.6094 127.022 18.1104C127.101 18.26 127.165 18.4292 127.221 18.5984C127.378 18.9432 127.506 19.301 127.634 19.6589C127.677 19.7435 127.712 19.8346 127.741 19.9192C127.847 20.1924 127.933 20.4722 128.039 20.7324C128.366 21.7344 128.558 24.2719 128.772 25.3845C128.523 25.8269 128.26 26.2693 128.004 26.7053C127.854 26.933 127.741 27.1607 127.598 27.3884C127.349 27.8048 127.101 28.2343 126.852 28.6637C126.489 29.2948 126.112 29.9389 125.721 30.583C125.657 30.7067 125.564 30.8563 125.472 31.0255C125.316 31.2792 125.145 31.5525 124.974 31.8518C124.91 31.9559 124.86 32.0535 124.782 32.1446C124.725 32.2422 124.676 32.3398 124.612 32.4308C124.327 32.9123 124.036 33.3743 123.829 33.7321C123.801 33.7842 123.78 33.8297 123.751 33.8622C123.723 33.9013 123.701 33.9273 123.687 33.9598C123.644 34.0184 123.63 34.0704 123.595 34.116L123.552 34.1876C123.516 34.2331 123.474 34.2851 123.474 34.2917C123.161 34.7926 122.841 35.2871 122.514 35.7881C122.393 35.7491 122.293 35.723 122.172 35.6905C122.172 34.9032 122.137 34.103 122.158 33.3157C122.172 33.127 122.172 32.9448 122.201 32.7562C122.201 32.639 122.222 32.5414 122.251 32.4243C122.251 32.3398 122.279 32.2682 122.293 32.1836C122.3 32.1381 122.315 32.073 122.315 32.0274C122.343 31.9299 122.357 31.8388 122.379 31.7086C122.407 31.611 122.436 31.5004 122.457 31.3963C122.457 31.3833 122.471 31.3573 122.471 31.3508C122.471 31.3118 122.485 31.2857 122.485 31.2662C122.5 31.2076 122.528 31.1426 122.528 31.071C122.535 31.0255 122.549 30.9799 122.564 30.9279C122.628 30.6351 122.692 30.3488 122.72 30.0495C122.734 29.9649 122.748 29.8804 122.748 29.8088V29.6917C122.763 29.5681 122.763 29.4509 122.748 29.3468V29.1777C122.748 29.0931 122.72 29.0085 122.706 28.95C122.706 28.9369 122.706 28.9239 122.692 28.9174C122.692 28.8654 122.684 28.8328 122.67 28.7808C122.642 28.7092 122.613 28.6376 122.592 28.5791C122.564 28.5205 122.535 28.462 122.5 28.4034C122.471 28.3514 122.436 28.2928 122.393 28.2473C122.343 28.2017 122.3 28.1497 122.251 28.1041C122.236 28.0781 122.222 28.0651 122.201 28.0586C122.137 27.9935 122.059 27.948 121.98 27.9154C121.909 27.8764 121.824 27.8504 121.732 27.8178C121.675 27.8048 121.639 27.7918 121.589 27.7788C121.532 27.7593 121.483 27.7463 121.419 27.7463C121.284 27.7202 121.141 27.7007 120.985 27.6877C120.793 27.6747 120.572 27.6747 120.338 27.7007H120.231C120.153 27.473 120.06 27.2583 119.982 27.0436ZM68.9236 28.1822C66.264 30.3813 63.6329 32.6195 61.1013 34.9358C57.8728 37.8832 54.9643 41.0713 51.8638 44.1162C49.8726 46.0746 47.7251 47.8704 45.0157 49.2302C44.6246 49.4254 44.1908 49.575 43.7357 49.6922C43.2734 49.8093 42.7899 49.8873 42.3276 49.9264C40.2085 50.1151 38.5445 49.1456 37.6911 47.3629C37.6129 47.2067 37.5347 47.0571 37.4707 46.8879C36.724 44.8775 36.8876 42.841 37.3356 40.8045C38.3169 36.3281 40.5854 32.574 44.7099 29.8738C45.7268 29.2037 46.829 28.6702 48.2442 28.2863C48.0237 28.6246 47.9028 28.8068 47.782 28.9825C46.9286 30.1992 46.2388 31.4809 45.9117 32.9123C45.3286 35.4563 46.6939 37.4277 49.3251 37.6684C50.1855 37.7465 51.1598 37.6684 51.9562 37.3757C53.3785 36.8551 54.7936 36.237 56.0665 35.4563C60.4897 32.7301 64.4649 29.4965 68.2907 26.1002C68.7245 25.7098 69.0303 25.6642 69.6063 25.892C70.097 26.0872 70.6019 26.2498 71.1068 26.3799C70.8081 26.3799 69.201 27.9545 68.9236 28.1822ZM48.9482 30.5895C49.5882 29.8023 50.1998 29.0345 50.8398 28.2863C50.9393 28.1757 51.1953 28.1236 51.3802 28.1367C51.686 28.1562 51.9989 28.2277 52.2905 28.3123C53.6843 28.7222 53.8052 29.0606 52.9376 30.0821C52.902 30.1276 52.8594 30.1796 52.8167 30.2252C52.5322 30.5375 52.3047 31.0125 51.942 31.1166C51.622 31.2142 51.174 30.8563 50.7616 30.7782C50.2282 30.6806 49.6735 30.6611 48.9482 30.5895ZM50.6478 32.7171C51.4513 33.3482 51.942 33.3157 52.6318 32.587C53.1296 32.0665 53.6274 31.533 54.1252 31.0125C54.1465 30.9864 54.2105 30.9929 54.246 30.9864C54.9074 33.1661 53.03 35.4888 50.47 35.671C50.2638 35.684 50.0646 35.684 49.8655 35.684C48.9126 35.671 48.3295 35.3457 48.038 34.669C47.8104 34.1225 48.1091 33.1595 48.6637 32.6976C49.2824 32.1771 49.9651 32.1836 50.6478 32.7171ZM41.1685 29.8348C44.1339 25.6903 47.8886 22.2094 51.9989 19.0278C55.2274 16.5294 58.6194 14.2456 62.3813 12.4434C64.536 11.4089 66.7831 10.8753 69.1796 11.6171C71.6117 12.3718 73.2615 13.8162 73.6241 16.2431C73.8304 17.6029 73.3112 18.8066 72.337 19.8151C67.6365 24.6753 62.5093 29.1061 56.7492 32.9058C56.607 32.9969 56.4505 33.075 56.1803 33.2246C56.287 32.587 56.3723 32.0795 56.4505 31.5785C56.9056 28.5791 54.8221 26.8289 52.07 26.4385C48.5428 25.931 45.4139 26.8289 42.7045 28.95C42.0574 29.4574 41.4601 30.0105 40.7418 30.4854C40.8841 30.2707 41.0192 30.0495 41.1685 29.8348ZM147.559 11.3438C147.559 11.3828 147.56 11.4024 147.545 11.4414C147.531 11.5 147.531 11.5455 147.517 11.5975C147.488 11.6691 147.481 11.7472 147.467 11.8318C147.439 11.9033 147.41 11.9749 147.396 12.0465C147.389 12.0855 147.389 12.105 147.375 12.1441C147.36 12.2026 147.332 12.2482 147.332 12.3002C147.311 12.3848 147.296 12.4434 147.268 12.528C147.076 13.1461 146.855 13.7316 146.578 14.2912C146.528 14.4343 146.45 14.5644 146.386 14.6946C146.372 14.7336 146.358 14.7661 146.329 14.7922C146.308 14.8898 146.251 14.9678 146.201 15.0524C146.151 15.176 146.08 15.2801 146.016 15.3973C145.981 15.4623 145.952 15.5079 145.917 15.5664C145.888 15.6054 145.86 15.651 145.831 15.6835C145.831 15.6965 145.824 15.7096 145.81 15.7226C145.81 15.7486 145.782 15.7681 145.767 15.8071C145.689 15.9373 145.611 16.0544 145.511 16.1975C145.497 16.2105 145.497 16.2366 145.469 16.2561C145.447 16.2821 145.419 16.3277 145.391 16.3797C145.362 16.4122 145.327 16.4643 145.298 16.4968C145.248 16.5944 145.184 16.679 145.12 16.7506C145.092 16.7831 145.078 16.8221 145.056 16.8547C145.028 16.8937 144.999 16.9262 144.978 16.9653C144.964 16.9718 144.95 16.9848 144.935 16.9978C144.822 17.154 144.701 17.2971 144.573 17.4533C144.495 17.5378 144.416 17.6289 144.338 17.7135C144.039 18.0388 143.748 18.3706 143.421 18.6829C143.307 18.8001 143.179 18.9172 143.058 19.0278C142.951 19.1189 142.866 19.2035 142.774 19.301C142.617 19.4312 142.461 19.5613 142.29 19.7044C142.212 19.763 142.148 19.8346 142.055 19.9061C141.977 19.9712 141.885 20.0428 141.792 20.1013C141.536 20.316 141.259 20.5177 140.989 20.7194C140.839 20.817 140.697 20.9211 140.555 21.0057C140.413 21.1163 140.27 21.2074 140.128 21.305C140.022 21.1488 139.929 20.9927 139.822 20.8365C139.787 20.765 139.737 20.6934 139.68 20.6218C139.659 20.5763 139.616 20.5308 139.588 20.4917C139.431 20.277 139.275 20.0623 139.111 19.8606C139.097 19.8476 139.083 19.8281 139.054 19.8151C139.019 19.763 138.99 19.7044 138.941 19.6589C138.926 19.6459 138.912 19.6329 138.898 19.6134C138.798 19.4767 138.678 19.3466 138.55 19.2295C138.521 19.1839 138.493 19.1579 138.457 19.1189C138.365 19.0278 138.272 18.9432 138.144 18.8261C138.08 18.7545 138.002 18.6699 137.91 18.5984C137.895 18.5723 137.867 18.5398 137.831 18.5138C137.789 18.4747 137.767 18.4422 137.71 18.4032C137.703 18.3967 137.689 18.3837 137.661 18.3706C137.597 18.3251 137.547 18.26 137.454 18.1885C137.426 18.1559 137.39 18.1299 137.362 18.1169C137.298 18.0583 137.234 17.9998 137.163 17.9412C137.156 17.9412 137.142 17.9152 137.099 17.9152C137.049 17.8566 136.971 17.8111 136.907 17.759C136.8 17.681 136.694 17.6094 136.551 17.5118C136.516 17.4728 136.473 17.4533 136.438 17.4142C136.381 17.3817 136.331 17.3296 136.267 17.3101C136.174 17.2516 136.082 17.18 135.99 17.1149C135.812 16.9978 135.613 16.8807 135.435 16.7701C135.378 16.7506 135.328 16.7245 135.278 16.6855C135.2 16.64 135.129 16.6074 135.051 16.5554C134.816 16.4253 134.582 16.2951 134.347 16.1845C134.34 16.178 134.311 16.165 134.297 16.139C134.262 16.1064 134.219 16.0544 134.19 16.0088C134.183 15.9958 134.169 15.9828 134.169 15.9633C134.155 15.9373 134.141 15.9112 134.112 15.8657C134.077 15.7811 134.062 15.6835 134.062 15.6054C134.091 14.8963 134.126 14.1806 134.169 13.4584C134.262 11.3893 134.496 9.33334 134.496 7.26433C134.496 5.98258 135.584 6.37296 135.655 6.43151C135.833 6.57465 135.99 6.7243 136.061 6.93901C136.182 7.27083 136.288 7.61567 136.395 7.954C136.438 8.09714 136.473 8.23377 136.516 8.37691C136.551 8.50703 136.594 8.65017 136.615 8.7803C136.686 8.99501 136.722 9.20972 136.75 9.42443C136.75 9.46997 136.765 9.50901 136.772 9.54155C136.772 9.58058 136.772 9.6001 136.786 9.62613C136.8 9.72372 136.814 9.79529 136.829 9.87988C136.829 9.92542 136.829 9.97096 136.843 10.023C136.843 10.0555 136.843 10.1011 136.85 10.1401C136.85 10.1662 136.85 10.1857 136.864 10.2117C136.878 10.2833 136.893 10.3548 136.907 10.4134C136.928 10.511 136.942 10.5956 136.985 10.6867C136.999 10.7127 136.999 10.7452 137.006 10.7843C137.021 10.8103 137.035 10.8428 137.049 10.8688C137.113 11.0445 137.191 11.2137 137.298 11.3438C137.348 11.4154 137.398 11.4869 137.454 11.5455C137.504 11.5975 137.554 11.6561 137.625 11.7016C137.661 11.7472 137.71 11.7732 137.767 11.8123C137.803 11.8448 137.86 11.8708 137.91 11.8903C138.038 11.9554 138.18 12.0009 138.315 12.027C138.329 12.027 138.336 12.0335 138.35 12.0335C138.429 12.0465 138.493 12.0595 138.571 12.0595C138.642 12.0725 138.72 12.0725 138.784 12.0725H138.926C138.962 12.0725 139.019 12.0595 139.069 12.0595C139.083 12.0595 139.097 12.0595 139.118 12.0465C139.175 12.0465 139.239 12.0335 139.318 12.027C139.382 12.014 139.46 12.0009 139.538 11.9749C139.602 11.9619 139.666 11.9554 139.737 11.9294C139.837 11.9033 139.943 11.8838 140.05 11.8448C140.206 11.7992 140.349 11.7472 140.491 11.6886C141.479 11.3113 142.397 10.7843 143.335 10.3158C143.478 10.2442 143.606 10.1857 143.748 10.1271C143.776 10.1271 143.791 10.1011 143.812 10.1011C143.869 10.0816 143.919 10.0555 143.968 10.0425C143.983 10.0295 143.997 10.0295 144.011 10.0295C144.167 9.99699 144.31 9.98397 144.452 9.97096C144.587 9.95144 144.701 9.93843 144.822 9.92542C144.886 10.0425 144.95 10.1662 145.028 10.2963C144.765 10.511 144.509 10.7257 144.26 10.9404C144.231 10.9599 144.203 10.9729 144.196 10.986C143.961 11.1876 143.727 11.3828 143.499 11.5715C143.044 11.9749 142.617 12.3848 142.169 12.7882C142.24 12.8728 142.319 12.9444 142.404 13.0289C143.008 12.5149 143.62 12.014 144.231 11.513C144.359 11.4024 144.48 11.2983 144.594 11.1876C144.665 11.1291 144.729 11.0966 144.829 11.025C144.857 10.986 144.9 10.9599 144.95 10.9534C144.95 10.9404 144.978 10.9404 144.999 10.9274C145.028 10.9144 145.056 10.9014 145.092 10.8884C145.17 10.8688 145.263 10.8428 145.355 10.8558H145.419C145.561 10.8428 145.718 10.8428 145.888 10.8428C145.846 11.025 145.846 11.2267 145.796 11.3893C145.782 11.4414 145.76 11.4869 145.718 11.5455C145.668 11.604 145.611 11.6756 145.561 11.7472C145.497 11.8578 145.419 11.9749 145.327 12.0855C145.12 12.3718 144.9 12.6711 144.672 12.9639C144.509 13.1916 144.324 13.4193 144.139 13.6601C143.968 13.8878 143.791 14.122 143.606 14.3627C143.655 14.4083 143.727 14.4473 143.776 14.4799C143.826 14.5189 143.89 14.5514 143.947 14.5905C144.374 14.0309 144.779 13.4453 145.22 12.9053C145.298 12.8207 145.362 12.7296 145.447 12.6321C145.497 12.5865 145.533 12.5345 145.561 12.4889C145.689 12.3328 145.796 12.1571 145.917 11.9749C145.981 11.8708 146.059 11.7472 146.159 11.6561C146.187 11.6171 146.23 11.5975 146.251 11.5585C146.329 11.4869 146.393 11.4284 146.471 11.3893C146.528 11.3698 146.578 11.3438 146.621 11.3308C146.642 11.3178 146.671 11.3113 146.706 11.2983C146.813 11.2722 146.905 11.2462 147.019 11.2462C147.097 11.2462 147.19 11.2592 147.282 11.2722C147.296 11.2722 147.325 11.2722 147.36 11.2852C147.424 11.2983 147.503 11.3113 147.559 11.3308C147.467 11.0575 147.325 10.8168 147.09 10.6411C146.628 10.3093 146.045 10.5826 145.376 9.87988C144.729 9.19671 144.182 9.26828 143.435 9.66516C142.667 10.0686 141.856 10.498 141.053 10.8688C140.74 11.012 140.413 11.1421 140.086 11.2462C138.329 11.9033 137.689 11.513 137.298 9.82782C137.035 8.66969 136.75 7.50506 136.331 6.37946C136.26 6.20379 136.103 6.06716 135.947 5.95655C135.805 5.85245 135.641 5.77437 135.47 5.71582C135.321 5.66376 135.108 5.62473 134.966 5.7028C134.809 5.77437 134.681 5.89799 134.574 6.02161C134.439 6.16475 134.326 6.33392 134.262 6.5161C134.013 7.21878 133.828 7.96701 133.814 8.70873C133.778 10.1271 133.778 11.5325 133.792 12.9444C133.799 13.8357 133.799 14.7466 133.799 15.638C133.657 15.6054 132.704 16.0349 132.498 16.3537C132 17.1409 131.559 17.9673 131.154 18.8131C130.649 19.8346 129.789 20.804 130.542 22.0662C130.649 22.2484 130.357 22.6193 130.229 22.8795C130.101 23.1268 129.959 23.3675 129.81 23.5952C129.554 24.0507 129.291 24.4996 129.028 24.9551C128.949 25.0852 128.871 25.2153 128.793 25.3454C128.928 23.2504 128.793 19.7175 128.629 17.7135C128.196 12.6776 125.799 8.59812 121.454 5.5011C116.178 1.6949 110.126 0.393639 103.555 0.894627C98.2645 1.29802 94.3391 3.55571 91.8004 5.10422C90.8191 5.7028 89.7666 6.43151 88.6359 7.27083C86.2679 9.04055 83.8856 10.8168 81.8447 12.9118C79.9602 14.8507 78.4882 17.0954 77.1726 19.3921C76.5824 20.4136 75.9637 21.4156 75.2526 22.372C74.9539 22.7754 73.1761 25.2869 72.6072 25.1698C71.7397 25.0006 70.8579 24.7794 69.8765 24.5712C70.4525 23.9986 70.8792 23.5887 71.2916 23.1593C72.4579 21.9686 73.6881 20.8235 74.4704 19.3726C75.9637 16.6139 74.7193 12.9834 71.9174 11.2852C68.9236 9.47647 65.6738 9.48949 62.3955 11.0055C56.159 13.8878 50.5553 17.5899 45.7339 22.2419C41.1472 26.6597 37.5418 31.6371 35.6787 37.5513C34.8111 40.2905 34.2564 43.0687 34.6689 45.938C34.8182 46.9725 35.1311 47.8574 35.5649 48.6251C36.468 50.2062 37.9614 51.2407 40.1018 51.7286C40.5427 51.8327 40.9694 51.8978 41.3961 51.9368C47.9455 52.5419 53.3287 46.3284 57.0052 42.2489C60.6888 38.1629 64.7351 33.8362 69.9476 31.3703C71.6045 30.5895 73.553 30.0105 75.3948 30.5505C77.3646 31.1231 78.4242 32.099 78.4242 32.099C81.1976 34.6495 78.9718 38.3841 81.5247 42.1188C82.698 43.8234 84.1985 45.3394 86.019 46.6602C86.0972 46.7318 86.1754 46.7838 86.2679 46.8424C86.3461 46.8879 86.4385 46.9465 86.5168 47.0115C87.1141 47.4279 87.7399 47.8183 88.4084 48.1892C88.5364 48.2608 88.6928 48.3323 88.8279 48.4169C88.835 48.4299 88.8493 48.4299 88.8635 48.4429C89.475 48.7617 90.1435 49.0871 90.8048 49.3798C91.7435 49.8028 92.6182 50.05 93.4929 49.2757C93.5995 49.562 93.6991 49.7767 93.7773 50.0175C94.1684 51.2211 94.4173 52.4834 94.9933 53.6025C95.3205 54.2401 96.1809 54.6435 96.7925 55.1315C97.0627 54.5849 97.4538 54.0449 97.5605 53.4723C97.8094 52.2817 97.9018 51.065 98.0583 49.8808C99.701 50.3623 101.237 50.8112 102.865 51.2797C102.46 51.7351 102.069 52.1646 101.692 52.6135C100.91 53.5244 100.106 54.4288 99.3241 55.3462C98.6272 56.1725 99.0894 57.4087 100.206 57.6299C100.22 57.6364 100.227 57.6364 100.234 57.6364C100.298 57.6494 100.348 57.6624 100.405 57.6754C100.647 57.721 103.548 53.3422 103.555 53.3292C104.103 52.4964 104.899 51.5074 106.044 51.4359C106.293 51.4228 106.542 51.4359 106.777 51.4684C107.026 51.5204 107.26 51.5985 107.466 51.4098C107.495 51.3773 107.523 51.3448 107.545 51.3057C107.609 51.2146 107.666 51.1105 107.765 51.052C107.651 51.078 107.559 51.0194 107.452 51.0194C107.31 50.9934 107.196 50.9674 107.047 50.9544C106.819 50.9349 106.578 50.9088 106.35 50.8958C103.456 50.8503 100.647 50.3948 98.0654 49.1586C93.5284 46.9595 91.8004 42.7043 93.6778 38.3256C93.9124 37.753 93.9907 37.2781 93.4431 36.8812C93.2938 36.7771 93.1658 36.6665 93.0378 36.5624C92.4333 36.0353 91.9426 35.4888 91.5657 34.8902C91.3311 34.5454 91.1462 34.1876 90.9613 33.7842C90.7835 33.3743 90.6342 32.9448 90.5204 32.5024C90.3924 32.0665 90.2857 31.6241 90.2217 31.1426C90.0368 30.0365 89.9444 28.8784 89.8448 27.7007C90.5062 28.2733 91.0395 28.7352 91.5657 29.1907C91.6297 29.2492 91.6937 29.2948 91.7577 29.3468C92.2129 29.6526 92.6182 29.568 93.0733 29.1386C93.82 28.3904 94.6378 27.7007 95.9036 27.6747C95.9676 27.8894 96.0245 28.1041 96.0885 28.3058C96.1525 28.5205 96.2023 28.7222 96.2591 28.9369C96.3374 29.2102 96.4227 29.477 96.5436 29.7242C97.0272 30.8108 97.7454 30.9409 98.6698 30.1536C99.6299 29.3078 100.234 28.3188 100.661 27.2453C100.768 27.0046 100.86 26.7768 100.924 26.5296C101.038 26.1848 101.116 25.8464 101.194 25.5146C101.251 25.3454 101.273 25.1958 101.315 25.0266C101.351 24.8379 101.393 24.6688 101.429 24.4801C101.521 24.0507 101.6 23.6082 101.678 23.1658C101.877 22.1248 102.048 21.1033 102.204 20.0493C102.289 19.4442 102.602 19.1709 103.242 19.0994C105.866 18.8131 108.469 18.9107 111.015 19.6068C111.178 19.6524 111.314 19.763 111.378 19.9061C111.705 20.6218 112.032 21.3505 112.316 22.0923C112.551 22.6388 112.771 23.1918 112.992 23.7384C113.02 23.7969 113.049 23.8685 113.07 23.9271L113.205 24.2524C113.283 24.4801 113.362 24.6818 113.44 24.9095C113.461 24.9551 113.49 25.0136 113.504 25.0592C113.753 25.7163 114.002 26.3734 114.272 27.0176C114.471 27.5186 114.663 28.0065 114.898 28.4945C116.491 31.8258 118.169 35.1049 119.812 38.4102C120.011 38.8005 120.139 39.243 120.011 39.6724C119.932 39.9717 119.719 40.2124 119.541 40.4597C119.186 40.9476 118.887 41.4746 118.539 41.9756C118.368 42.2229 118.169 42.4766 118.055 42.7499C117.913 43.0622 117.92 43.3615 117.899 43.6803C117.884 43.9666 117.87 44.2529 117.87 44.5391C117.842 45.1117 117.856 45.6712 117.963 46.2308C118.112 47.0701 118.389 47.8639 118.802 48.5991C119.214 49.3408 119.762 50.024 120.437 50.6095C120.594 50.7397 120.75 50.8763 120.921 50.9934C121.17 51.1821 121.433 51.3643 121.703 51.5269C121.98 51.7091 122.251 51.8653 122.528 52.0084C122.72 52.1125 122.926 52.2231 123.14 52.3142C123.36 52.4248 123.566 52.5224 123.787 52.6135C123.936 52.6851 124.092 52.7436 124.249 52.7957C124.363 52.8412 124.469 52.8868 124.583 52.9258C124.832 52.9974 125.081 53.0689 125.33 53.1015C125.422 53.1275 125.522 53.1535 125.628 53.1665C125.927 53.2121 126.461 52.6851 126.681 52.5224C128.395 51.2342 129.476 49.4774 130.35 47.6427C130.493 47.3434 130.635 47.018 130.763 46.7318C130.976 46.3024 131.168 45.8664 131.367 45.437C131.73 44.5782 132.093 43.6933 132.448 42.7889C132.562 42.5222 132.669 42.2489 132.775 41.9626C132.839 41.8195 132.889 41.6633 132.932 41.5202C132.939 41.5137 132.939 41.4877 132.953 41.4746C133.23 40.785 133.479 40.0888 133.735 39.3861C134.262 37.9417 134.781 36.5103 135.3 35.0724C136.032 32.9579 136.63 30.8108 137.547 28.7483C137.782 28.2212 138.016 27.7203 138.286 27.2063C138.407 27.0046 138.706 26.3995 139.033 25.7423C139.396 25.0136 139.773 24.2003 139.894 23.836C140.057 23.309 140.207 22.7689 140.37 22.2484C140.413 22.1248 140.448 21.8385 140.541 21.767C141.195 21.2204 141.792 20.7064 142.418 20.2184C143.229 19.6329 143.919 18.9757 144.559 18.2731C145.561 17.167 147.424 15.3647 147.638 12.8923C147.673 12.4759 147.723 11.8708 147.559 11.3438Z" fill="#341217"/>
<path d="M140.134 22.1412C140.134 22.2258 140.042 22.4145 139.907 22.6878C139.886 22.7853 139.829 22.8829 139.779 22.974V22.987C139.743 23.0456 139.715 23.1172 139.672 23.1887C139.544 23.4685 139.388 23.7613 139.217 24.0866C139.182 24.1452 139.139 24.2167 139.103 24.2883C139.075 24.3469 139.039 24.4184 138.997 24.49C138.968 24.5616 138.918 24.6331 138.883 24.7177C138.812 24.8479 138.748 24.978 138.67 25.1211C138.606 25.2317 138.556 25.3358 138.492 25.4464C138.435 25.544 138.385 25.6351 138.342 25.7197C137.994 26.3638 137.695 26.9234 137.539 27.2097C137.432 27.3918 137.325 27.5805 137.212 27.7497V27.7627H137.197V27.7497C137.027 27.6196 136.856 27.4959 136.693 27.3788C136.586 27.3073 136.479 27.2357 136.387 27.1511C136.287 27.0665 136.166 26.9819 136.067 26.9234C135.448 26.4744 134.865 26.032 134.289 25.5505C134.225 25.492 134.147 25.4334 134.083 25.3619C134.005 25.3033 133.926 25.2317 133.848 25.1602C133.756 25.1016 133.677 25.017 133.585 24.9455C133.521 24.8739 133.457 24.8153 133.393 24.7568V24.7438C133.329 24.6917 133.272 24.6462 133.222 24.5876C133.116 24.503 133.016 24.3989 132.924 24.2883C132.924 24.2883 132.924 24.2753 132.909 24.2623L132.845 24.2037C132.803 24.1712 132.767 24.1191 132.71 24.0736C132.689 24.0411 132.646 23.989 132.611 23.9435C132.554 23.8979 132.504 23.8329 132.454 23.7613C132.397 23.7027 132.348 23.6572 132.312 23.5856C132.241 23.5271 132.177 23.4555 132.127 23.3709C132.099 23.3319 132.077 23.3124 132.063 23.2733C132.035 23.2733 132.035 23.2733 132.035 23.2603C131.878 23.0716 131.736 22.8699 131.615 22.6552C131.58 22.6097 131.551 22.5446 131.516 22.4861C131.459 22.4015 131.423 22.3104 131.381 22.1998C131.381 22.1868 131.373 22.1868 131.373 22.1803C131.331 22.0566 131.295 21.9395 131.267 21.8289C131.253 21.7378 131.238 21.6663 131.238 21.5687C131.238 21.5101 131.238 21.4515 131.253 21.3995V21.393C131.253 21.38 131.253 21.38 131.267 21.367C131.267 21.3279 131.281 21.2954 131.295 21.2499C131.317 21.1978 131.345 21.1523 131.373 21.0937C131.615 20.4821 131.907 19.8965 132.22 19.3045C132.319 19.1028 132.426 18.9076 132.518 18.7059C132.547 18.6798 132.554 18.6343 132.568 18.6083C132.845 18.0878 133.116 17.5738 133.379 17.0468H133.393C133.414 17.0468 133.443 17.0598 133.485 17.0728C133.507 17.0728 133.549 17.0858 133.599 17.1053C133.628 17.1183 133.677 17.1313 133.72 17.1444C133.877 17.2029 134.069 17.2745 134.253 17.3461C134.289 17.3721 134.346 17.3916 134.381 17.4046C134.424 17.4176 134.474 17.4436 134.509 17.4632H134.538C134.581 17.4762 134.602 17.5022 134.63 17.5022C134.666 17.5282 134.709 17.5347 134.737 17.5477C134.758 17.5477 134.787 17.5608 134.787 17.5738C134.815 17.5738 134.837 17.5868 134.851 17.5998C134.879 17.5998 134.893 17.6063 134.915 17.6193C135.1 17.7039 135.285 17.7755 135.462 17.8731C135.683 17.9772 135.91 18.0878 136.117 18.2179C136.479 18.4196 136.849 18.6473 137.183 18.8881V18.8946C137.325 18.9922 137.475 19.1028 137.617 19.2069C137.731 19.3045 137.852 19.3955 137.965 19.4931C138.122 19.6233 138.278 19.7534 138.421 19.8965C138.762 20.2219 139.075 20.5667 139.374 20.9245C139.402 20.9506 139.438 20.9961 139.466 21.0221C139.587 21.1783 139.715 21.3279 139.829 21.4971C139.907 21.6077 139.999 21.6988 140.056 21.8224C140.078 21.8549 140.106 21.881 140.106 21.9005V21.9265L140.12 21.9395C140.134 21.9525 140.134 21.9655 140.12 21.9655C140.142 22.0241 140.142 22.0827 140.134 22.1412Z" fill="#E1B196"/>
<path d="M117.228 42.737C117.236 42.737 117.236 42.737 117.236 42.7294C117.219 42.7446 117.211 42.7522 117.194 42.7598C117.211 42.7522 117.219 42.7446 117.228 42.737Z" fill="#363794"/>
<path d="M121.466 20.1156C121.242 19.4 121.04 18.6764 120.776 17.9725C119.35 14.165 117.413 10.6502 113.929 8.02623C112.018 6.58768 109.827 5.85767 107.366 5.90516C106.997 5.91232 106.409 6.3079 106.323 6.6176C106.139 7.27279 106.744 7.30467 107.313 7.34306C108.196 7.40227 109.092 7.47644 109.946 7.67684C113.976 8.62221 116.573 11.1838 118.486 14.364C119.639 16.2815 120.504 18.3446 121.457 20.2588C121.458 20.2471 121.485 20.1755 121.466 20.1156Z" fill="#341217"/>
<path d="M108.729 29.0995C108.687 29.145 108.644 29.1841 108.623 29.2036C108.438 29.3988 108.217 29.5744 107.947 29.659C107.641 29.7501 107.293 29.7111 107.001 29.5874C106.703 29.4638 106.447 29.2621 106.226 29.0474C105.501 28.3187 105.081 27.3428 104.961 26.3668C104.953 26.3408 104.953 26.3148 104.953 26.2887C104.868 25.56 104.982 24.7532 105.394 24.1156C105.615 23.7838 105.942 23.4845 106.361 23.4129C106.674 23.3544 107.009 23.4324 107.286 23.5756C107.449 23.6537 107.599 23.7643 107.741 23.8814C107.812 23.9399 107.883 24.005 107.947 24.0701C107.969 24.0831 108.075 24.2262 108.104 24.2262C107.969 24.2392 107.848 24.2457 107.72 24.2588C107.279 24.2913 106.767 24.4149 106.454 24.7207C106.113 25.059 106.063 25.5665 106.098 26.022C106.162 26.9003 106.497 27.8047 107.229 28.3708C107.492 28.5725 107.798 28.7221 108.118 28.8132C108.289 28.8587 108.459 28.8913 108.63 28.9043C108.687 28.9108 108.815 28.9043 108.822 28.9693C108.822 29.0019 108.779 29.0539 108.729 29.0995ZM109.633 26.1846C109.561 25.7747 109.433 25.3844 109.27 25.0265C109.135 24.7272 108.993 24.4474 108.801 24.2002C108.609 23.9334 108.388 23.6797 108.139 23.478C108.075 23.4259 108.011 23.3804 107.947 23.3414C107.819 23.2373 107.691 23.1592 107.563 23.0876H107.556C106.745 22.6777 105.992 22.7753 105.409 23.3739C105.302 23.478 105.195 23.6016 105.103 23.7448C105.032 23.8358 104.975 23.9464 104.918 24.0506C104.79 24.2913 104.697 24.532 104.626 24.7793C104.541 25.0525 104.498 25.3258 104.484 25.6121C104.449 26.0285 104.491 26.4514 104.591 26.8743C104.676 27.2842 104.825 27.6941 105.01 28.0975C105.65 29.5159 106.895 30.4007 107.926 30.2121C109.049 30.0169 109.768 28.7937 109.739 27.1606C109.732 26.8288 109.697 26.4969 109.633 26.1846Z" fill="#341217"/>
<path d="M97.3737 37.794C97.139 37.8265 96.9114 37.742 96.7123 37.6248C96.3781 37.4427 96.115 37.1694 95.9088 36.8701C95.3185 36.0178 95.0483 34.8336 95.4679 33.8707C95.4963 33.8056 95.5248 33.7406 95.5603 33.682C95.6456 33.5193 95.7594 33.3697 95.9016 33.2526C96.051 33.1355 96.2288 33.0509 96.4208 33.0249C96.6626 32.9988 96.9114 33.0769 97.1177 33.194C97.2243 33.2591 97.331 33.3372 97.4235 33.4218C97.4946 33.4803 97.6368 33.5714 97.6652 33.6625C97.4163 33.6885 97.1603 33.695 96.9186 33.7666C96.7194 33.8186 96.5345 33.9097 96.4065 34.0464C96.1861 34.2806 96.1434 34.6124 96.1505 34.9182C96.1861 35.8681 96.7123 36.8896 97.8003 37.1434C97.9497 37.1759 98.099 37.1889 98.2555 37.1954C98.227 37.241 98.1844 37.2865 98.1417 37.3321C97.9497 37.5533 97.6581 37.7615 97.3737 37.794ZM97.7008 33.0899C96.755 32.3157 95.8092 32.4783 95.2616 33.5193C94.7354 34.5408 94.8847 35.5623 95.3328 36.5643C95.8163 37.6379 96.755 38.3015 97.5443 38.1649C98.3764 38.0152 98.9239 37.1043 98.9026 35.8616C98.8884 34.7555 98.419 33.6885 97.7008 33.0899Z" fill="#341217"/>
<path d="M112.708 43.7168C109.971 46.2282 106.564 46.2673 105.825 46.2477L105.946 45.532C106.059 44.8489 106.23 44.2438 106.458 43.6908C106.685 43.1572 106.963 42.6758 107.311 42.2138C107.93 41.3875 108.726 40.4766 109.871 39.9171C111.315 39.2144 112.637 38.8305 113.917 38.7394L114.045 38.7264C114.116 38.7199 114.195 38.7134 114.273 38.7069C114.372 38.7004 114.479 38.6939 114.579 38.6809C114.657 39.4421 114.721 41.8755 112.708 43.7168ZM105.633 42.0837C105.562 42.1227 105.505 42.1553 105.434 42.1878C105.277 42.2724 105.107 42.3504 104.936 42.409C104.865 42.435 104.808 42.4611 104.737 42.4806C104.594 42.5391 104.438 42.5847 104.289 42.6107C104.232 42.6237 104.189 42.6367 104.139 42.6432C104.09 42.6497 104.04 42.6693 103.99 42.6758C103.947 42.6888 103.905 42.7018 103.862 42.7083C103.798 42.7148 103.748 42.7278 103.691 42.7278C103.627 42.7473 103.563 42.7538 103.499 42.7603C103.464 42.7669 103.421 42.7669 103.393 42.7669H103.386C103.357 42.7799 103.35 42.7799 103.322 42.7799C103.307 42.7799 103.3 42.7864 103.286 42.7864C103.222 42.7929 103.151 42.7994 103.087 42.7994V42.7864C103.215 42.4871 103.35 42.1943 103.499 41.9145C103.506 41.895 103.521 41.8755 103.528 41.8625C103.578 41.7714 103.62 41.6738 103.677 41.5827C103.677 41.5697 103.684 41.5632 103.691 41.5502C103.72 41.4851 103.755 41.4135 103.798 41.3485C103.834 41.2964 103.869 41.2314 103.89 41.1793C103.954 41.0752 104.018 40.9711 104.09 40.867C104.104 40.8475 104.111 40.828 104.125 40.8084C104.175 40.7304 104.232 40.6458 104.289 40.5612C104.324 40.5092 104.36 40.4571 104.395 40.3985C104.495 40.2489 104.594 40.0993 104.701 39.9561C104.73 39.9106 104.765 39.8715 104.794 39.8325C104.836 39.7739 104.879 39.7154 104.922 39.6568C104.943 39.6373 104.957 39.6178 104.971 39.5983C105.071 39.4681 105.163 39.3445 105.263 39.2209C105.327 39.1493 105.398 39.0778 105.462 39.0062C105.59 38.85 105.718 38.7004 105.853 38.5573C105.896 38.5182 105.924 38.4727 105.967 38.4336C106.031 38.3621 106.102 38.284 106.18 38.2124C106.323 38.0693 106.458 37.9261 106.607 37.783C106.607 37.7765 106.607 37.7765 106.614 37.77L106.785 37.6138C106.792 37.6008 106.806 37.5813 106.827 37.5748C106.884 37.5162 106.948 37.4577 107.012 37.4056L107.041 37.3796C107.133 37.2885 107.226 37.2039 107.325 37.1259C107.339 37.1128 107.347 37.1063 107.361 37.0998C107.425 37.0413 107.496 36.9762 107.567 36.9177V36.9111C107.567 36.9046 107.574 36.8981 107.581 36.8981C107.588 36.8981 107.588 36.8981 107.588 36.8916C107.61 36.8786 107.638 36.8591 107.659 36.8396L107.709 36.794C107.809 36.7094 107.908 36.6249 108.008 36.5468C108.029 36.5208 108.043 36.5078 108.072 36.5012L108.25 36.3581L108.264 36.3451C108.385 36.241 108.513 36.1434 108.641 36.0523C108.74 35.9742 108.847 35.9027 108.954 35.8311C109.053 35.753 109.146 35.6749 109.245 35.5969C109.259 35.6229 109.259 35.6554 109.267 35.6814C109.288 35.7465 109.309 35.8116 109.323 35.8766C109.331 35.9092 109.331 35.9417 109.338 35.9742C109.366 36.1109 109.387 36.2475 109.395 36.3906C109.402 36.4297 109.416 36.4687 109.416 36.5143C109.416 36.5468 109.409 36.5858 109.416 36.6184C109.416 36.755 109.409 36.8916 109.395 37.0283V37.1779C109.387 37.23 109.373 37.282 109.366 37.3341V37.3731C109.359 37.3861 109.359 37.3991 109.359 37.4121C109.331 37.5618 109.295 37.7114 109.252 37.8546C109.245 37.8806 109.238 37.9001 109.231 37.9261C109.224 37.9587 109.217 37.9847 109.203 38.0172C109.188 38.0823 109.167 38.1408 109.146 38.2059C109.103 38.323 109.06 38.4336 109.011 38.5507C109.003 38.5507 109.003 38.5573 109.003 38.5573C108.996 38.5768 108.989 38.5898 108.982 38.6093C108.911 38.7589 108.833 38.9151 108.755 39.0647C108.747 39.0778 108.74 39.0843 108.733 39.0908C108.691 39.1754 108.634 39.2534 108.584 39.338C108.541 39.4161 108.499 39.4942 108.442 39.5722C108.435 39.5787 108.435 39.5853 108.427 39.5983C108.413 39.6178 108.392 39.6438 108.378 39.6698C108.349 39.7089 108.321 39.7414 108.299 39.7804C108.264 39.8325 108.228 39.8845 108.193 39.9301C108.136 40.0017 108.079 40.0667 108.022 40.1318C107.987 40.1708 107.951 40.2164 107.915 40.2619C107.887 40.2944 107.851 40.3335 107.823 40.366C107.773 40.4181 107.731 40.4766 107.688 40.5222C107.652 40.5612 107.617 40.5872 107.581 40.6263C107.453 40.7499 107.325 40.8735 107.19 40.9971C107.155 41.0297 107.126 41.0622 107.091 41.0947C107.069 41.1142 107.041 41.1273 107.019 41.1468C106.927 41.2314 106.82 41.3094 106.714 41.394C106.643 41.4461 106.579 41.5046 106.507 41.5502C106.493 41.5632 106.465 41.5762 106.451 41.6022C106.415 41.6217 106.372 41.6543 106.337 41.6803C106.323 41.6868 106.315 41.6933 106.294 41.6998C106.28 41.7063 106.266 41.7193 106.251 41.7258C106.223 41.7454 106.187 41.7714 106.152 41.7974C106.102 41.8234 106.038 41.856 105.981 41.8885C105.967 41.9015 105.939 41.921 105.917 41.9275C105.896 41.934 105.882 41.9405 105.867 41.9536C105.796 41.9926 105.725 42.0381 105.654 42.0707C105.647 42.0772 105.64 42.0772 105.633 42.0837ZM115.219 38.3881C115.197 38.2254 115.176 38.0563 115.148 37.8936C115.048 37.295 114.863 36.7094 114.714 36.1174L114.664 35.9027C114.394 34.8356 114.138 33.9117 113.875 33.0659C113.747 32.656 113.498 32.3762 113.178 32.2721C112.851 32.1745 112.481 32.2591 112.09 32.5194C107.709 35.4798 103.407 38.9802 101.615 44.4845C101.43 45.0701 101.437 45.4865 101.65 45.7988C101.871 46.1371 102.283 46.2803 102.682 46.3649C104.31 46.6967 105.91 46.9765 107.574 46.7357C109.082 46.521 110.532 46.0005 111.784 45.2002C112.282 44.8879 112.744 44.5301 113.171 44.1397C113.668 43.6842 114.095 43.1572 114.422 42.5912C114.7 42.0967 114.913 41.5697 115.048 41.0297C115.169 40.5807 115.233 40.1253 115.261 39.6633C115.283 39.2404 115.261 38.811 115.219 38.3881Z" fill="#670B11"/>
<path d="M112.715 43.7215C109.977 46.233 106.571 46.272 105.831 46.2525L105.952 45.5368C106.066 44.8536 106.236 44.2485 106.464 43.6955C106.692 43.162 106.969 42.6805 107.317 42.2185C107.936 41.3922 108.732 40.4813 109.877 39.9218C111.321 39.2191 112.644 38.8352 113.924 38.7442L114.052 38.7311C114.123 38.7246 114.201 38.7181 114.279 38.7116C114.379 38.7051 114.485 38.6986 114.585 38.6856C114.663 39.4468 114.727 41.8802 112.715 43.7215Z" fill="#9B1D20"/>
<path d="M109.415 36.5166C109.415 36.5492 109.408 36.5882 109.415 36.6207C109.415 36.7574 109.408 36.894 109.394 37.0306V37.1803C109.387 37.2323 109.373 37.2844 109.366 37.3364V37.3755C109.359 37.3885 109.359 37.4015 109.359 37.4145C109.33 37.5642 109.295 37.7138 109.252 37.8569C109.245 37.883 109.238 37.9025 109.231 37.9285C109.223 37.961 109.216 37.9871 109.202 38.0196C109.188 38.0847 109.167 38.1432 109.145 38.2083C109.103 38.3254 109.06 38.436 109.01 38.5531C109.003 38.5531 109.003 38.5596 109.003 38.5596C108.996 38.5791 108.989 38.5922 108.982 38.6117C108.911 38.7613 108.832 38.9175 108.754 39.0671C108.747 39.0801 108.74 39.0866 108.733 39.0931C108.69 39.1777 108.633 39.2558 108.583 39.3404C108.541 39.4185 108.498 39.4965 108.441 39.5746C108.434 39.5811 108.434 39.5876 108.427 39.6006C108.413 39.6202 108.391 39.6462 108.377 39.6722C108.349 39.7112 108.32 39.7438 108.299 39.7828C108.263 39.8349 108.228 39.8869 108.192 39.9325C108.135 40.004 108.079 40.0691 108.022 40.1342C107.986 40.1732 107.951 40.2187 107.915 40.2643C107.887 40.2968 107.851 40.3359 107.822 40.3684C107.773 40.4204 107.73 40.479 107.687 40.5245C107.652 40.5636 107.616 40.5896 107.581 40.6286C107.453 40.7523 107.325 40.8759 107.19 40.9995C107.154 41.032 107.126 41.0646 107.09 41.0971C107.069 41.1166 107.04 41.1296 107.019 41.1491C106.926 41.2337 106.82 41.3118 106.713 41.3964C106.642 41.4484 106.578 41.507 106.507 41.5525C106.493 41.5656 106.464 41.5786 106.45 41.6046C106.414 41.6241 106.372 41.6566 106.336 41.6827C106.322 41.6892 106.315 41.6957 106.294 41.7022C106.279 41.7087 106.265 41.7217 106.251 41.7282C106.222 41.7477 106.187 41.7738 106.151 41.7998C106.102 41.8258 106.038 41.8583 105.981 41.8909C105.966 41.9039 105.938 41.9234 105.917 41.9299C105.895 41.9364 105.881 41.9429 105.867 41.9559C105.796 41.995 105.725 42.0405 105.654 42.073C105.646 42.0796 105.639 42.0796 105.632 42.0861C105.561 42.1251 105.504 42.1576 105.433 42.1902C105.277 42.2747 105.106 42.3528 104.935 42.4114C104.864 42.4374 104.807 42.4634 104.736 42.4829C104.594 42.5415 104.438 42.587 104.288 42.6131C104.231 42.6261 104.189 42.6391 104.139 42.6456C104.089 42.6521 104.039 42.6716 103.99 42.6781C103.947 42.6912 103.904 42.7042 103.862 42.7107C103.798 42.7172 103.748 42.7302 103.691 42.7302C103.627 42.7497 103.563 42.7562 103.499 42.7627C103.463 42.7692 103.421 42.7692 103.392 42.7692H103.385C103.357 42.7822 103.35 42.7822 103.321 42.7822C103.307 42.7822 103.3 42.7887 103.286 42.7887C103.222 42.7953 103.15 42.8018 103.086 42.8018V42.7887C103.214 42.4895 103.35 42.1967 103.499 41.9169C103.506 41.8974 103.52 41.8779 103.527 41.8648C103.577 41.7738 103.62 41.6762 103.677 41.5851C103.677 41.5721 103.684 41.5656 103.691 41.5525C103.719 41.4875 103.755 41.4159 103.798 41.3508C103.833 41.2988 103.869 41.2337 103.89 41.1817C103.954 41.0776 104.018 40.9735 104.089 40.8694C104.103 40.8499 104.11 40.8303 104.125 40.8108C104.174 40.7327 104.231 40.6482 104.288 40.5636C104.324 40.5115 104.359 40.4595 104.395 40.4009C104.494 40.2513 104.594 40.1016 104.701 39.9585C104.729 39.9129 104.765 39.8739 104.793 39.8349C104.836 39.7763 104.878 39.7178 104.921 39.6592C104.942 39.6397 104.957 39.6202 104.971 39.6006C105.07 39.4705 105.163 39.3469 105.262 39.2233C105.326 39.1517 105.398 39.0801 105.462 39.0086C105.59 38.8524 105.718 38.7028 105.853 38.5596C105.895 38.5206 105.924 38.475 105.966 38.436C106.03 38.3644 106.102 38.2864 106.18 38.2148C106.322 38.0717 106.457 37.9285 106.606 37.7854C106.606 37.7789 106.606 37.7789 106.614 37.7724L106.784 37.6162C106.791 37.6032 106.806 37.5837 106.827 37.5772C106.884 37.5186 106.948 37.4601 107.012 37.408L107.04 37.382C107.133 37.2909 107.225 37.2063 107.325 37.1282C107.339 37.1152 107.346 37.1087 107.36 37.1022C107.424 37.0436 107.495 36.9786 107.566 36.92V36.9135C107.566 36.907 107.574 36.9005 107.581 36.9005C107.588 36.9005 107.588 36.9005 107.588 36.894C107.609 36.881 107.638 36.8615 107.659 36.842L107.709 36.7964C107.808 36.7118 107.908 36.6272 108.007 36.5492C108.029 36.5231 108.043 36.5101 108.071 36.5036L108.249 36.3605L108.263 36.3475C108.384 36.2434 108.512 36.1458 108.64 36.0547C108.74 35.9766 108.847 35.905 108.953 35.8335C109.053 35.7554 109.145 35.6773 109.245 35.5992C109.259 35.6253 109.259 35.6578 109.266 35.6838C109.287 35.7489 109.309 35.814 109.323 35.879C109.33 35.9115 109.33 35.9441 109.337 35.9766C109.366 36.1132 109.387 36.2499 109.394 36.393C109.401 36.4321 109.415 36.4711 109.415 36.5166Z" fill="white"/>
<path d="M99.8287 37.072C99.8856 37.9829 100.284 38.9003 100.753 39.7852C100.014 39.0695 99.4376 38.1456 99.3451 37.0915C99.1674 35.9659 100.234 34.7818 101.5 35.3153C100.341 35.3283 99.7931 36.1026 99.8287 37.072Z" fill="#363794"/>
<path d="M104.085 32.9027C104.107 33.1109 103.986 33.2606 103.765 33.3126C103.474 33.3842 103.282 33.228 103.239 32.9873C103.197 32.7531 103.36 32.5774 103.602 32.4928C103.901 32.5123 104.064 32.6425 104.085 32.9027Z" fill="#D7BA2C"/>
<path d="M106.895 31.3473C106.881 31.5815 106.696 31.7246 106.433 31.7441C106.184 31.6791 105.999 31.562 106.02 31.3017C106.042 31.061 106.212 30.9048 106.482 30.9243C106.738 30.9439 106.916 31.113 106.895 31.3473Z" fill="#D7BA2C"/>
<path d="M104.235 31.7705C104.129 31.764 103.972 31.6078 103.944 31.4972C103.887 31.3086 104.036 31.1459 104.243 31.1394C104.356 31.1394 104.47 31.2825 104.527 31.3216C104.57 31.6209 104.449 31.7705 104.235 31.7705Z" fill="#D7BA2C"/>
<path d="M115.261 39.6624C115.233 40.1244 115.169 40.5798 115.048 41.0287C114.913 41.5688 114.699 42.0958 114.422 42.5903C114.095 43.1563 113.668 43.6833 113.171 44.1388C112.744 44.5292 112.282 44.887 111.784 45.1993C110.532 45.9996 109.082 46.5201 107.574 46.7348C105.91 46.9755 104.31 46.6958 102.681 46.3639C102.283 46.2794 101.871 46.1362 101.65 45.7979C101.437 45.4856 101.43 45.0692 101.615 44.4836C103.407 38.9792 107.709 35.4788 112.09 32.5185C112.481 32.2582 112.851 32.1736 113.178 32.2712C113.498 32.3753 113.747 32.6551 113.875 33.065C114.138 33.9108 114.394 34.8347 114.664 35.9018L114.714 36.1165C114.863 36.7085 115.048 37.2941 115.147 37.8927C115.176 38.0554 115.197 38.2245 115.219 38.3872C115.261 38.8101 115.283 39.2395 115.261 39.6624ZM97.54 38.166C96.7507 38.3026 95.812 37.6389 95.3285 36.5654C94.8805 35.5634 94.7311 34.5419 95.2573 33.5204C95.8049 32.4794 96.7507 32.3168 97.6965 33.091C98.4147 33.6896 98.8841 34.7566 98.8983 35.8627C98.9196 37.1054 98.3721 38.0163 97.54 38.166ZM104.623 24.7759C104.694 24.5287 104.786 24.2879 104.914 24.0472C104.971 23.9431 105.028 23.8325 105.099 23.7414C105.192 23.5983 105.298 23.4747 105.405 23.3706C105.988 22.772 106.742 22.6744 107.553 23.0843H107.56C107.688 23.1558 107.816 23.2339 107.944 23.338C108.008 23.3771 108.072 23.4226 108.136 23.4747C108.385 23.6764 108.605 23.9301 108.797 24.1969C108.989 24.4441 109.131 24.7239 109.266 25.0232C109.43 25.381 109.558 25.7714 109.629 26.1813C109.693 26.4936 109.729 26.8254 109.736 27.1572C109.764 28.7903 109.046 30.0135 107.922 30.2087C106.891 30.3974 105.647 29.5125 105.007 28.0942C104.822 27.6908 104.673 27.2809 104.587 26.871C104.488 26.448 104.445 26.0251 104.481 25.6087C104.495 25.3225 104.537 25.0492 104.623 24.7759ZM119.812 38.4067C118.17 35.1015 116.491 31.8223 114.899 28.491C114.664 28.0031 114.472 27.5151 114.273 27.0141C114.003 26.37 113.754 25.7128 113.505 25.0557C113.491 25.0101 113.462 24.9516 113.441 24.906C113.363 24.6783 113.284 24.4766 113.206 24.2489L113.071 23.9236C113.05 23.865 113.021 23.7935 112.993 23.7349C112.772 23.1884 112.552 22.6353 112.317 22.0888C112.033 21.3471 111.706 20.6184 111.378 19.9027C111.314 19.7595 111.179 19.6489 111.016 19.6034C108.47 18.9072 105.867 18.8096 103.243 19.0959C102.603 19.1675 102.29 19.4407 102.205 20.0458C102.049 21.0998 101.878 22.1213 101.679 23.1623C101.601 23.6048 101.522 24.0472 101.43 24.4766C101.394 24.6653 101.352 24.8345 101.316 25.0232C101.273 25.1923 101.252 25.342 101.195 25.5111C101.117 25.843 101.039 26.1813 100.925 26.5261C100.861 26.7734 100.769 27.0011 100.662 27.2418C100.235 28.3154 99.6307 29.3043 98.6707 30.1502C97.7463 30.9374 97.028 30.8073 96.5445 29.7207C96.4236 29.4735 96.3383 29.2067 96.26 28.9335C96.2031 28.7188 96.1534 28.5171 96.0894 28.3024C96.0254 28.1007 95.9685 27.886 95.9045 27.6712C94.6387 27.6973 93.8209 28.3869 93.0742 29.1352C92.6191 29.5646 92.2137 29.6492 91.7586 29.3434C91.6946 29.2913 91.6306 29.2458 91.5666 29.1872C91.0404 28.7318 90.507 28.2698 89.8457 27.6973C89.9453 28.8749 90.0377 30.033 90.2226 31.1391C90.2866 31.6206 90.3933 32.063 90.5213 32.4989C90.635 32.9414 90.7844 33.3708 90.9622 33.7807C91.1471 34.1841 91.332 34.5419 91.5666 34.8868C91.9435 35.4853 92.4342 36.0319 93.0386 36.5589C93.1666 36.663 93.2946 36.7736 93.444 36.8777C93.9915 37.2746 93.9133 37.7496 93.6787 38.3221C91.8013 42.7009 93.5293 46.956 98.0663 49.1552C100.648 50.3914 103.457 50.8468 106.351 50.8923C106.578 50.9054 106.82 50.9314 107.048 50.9509C107.197 50.9639 107.311 50.9899 107.453 51.016C107.56 51.016 107.652 51.0745 107.766 51.0485C107.666 51.1071 107.61 51.2112 107.546 51.3022C108.996 51.3283 114.081 51.1916 118.803 48.5956C118.39 47.8604 118.113 47.0666 117.963 46.2273C117.857 45.6678 117.843 45.1082 117.871 44.5357C117.871 44.2494 117.885 43.9631 117.899 43.6768C117.921 43.358 117.914 43.0587 118.056 42.7464C118.17 42.4732 118.369 42.2194 118.539 41.9722C118.888 41.4712 119.187 40.9442 119.542 40.4562C119.72 40.2089 119.933 39.9682 120.012 39.6689C120.14 39.2395 120.012 38.7971 119.812 38.4067Z" fill="#E1B196"/>
<path d="M106.895 31.3473C106.881 31.5815 106.696 31.7246 106.433 31.7441C106.184 31.6791 105.999 31.562 106.02 31.3017C106.042 31.061 106.212 30.9048 106.482 30.9243C106.738 30.9439 106.916 31.113 106.895 31.3473Z" fill="#341217"/>
<path d="M104.243 31.1394C104.356 31.1394 104.47 31.2825 104.527 31.3216C104.57 31.6209 104.449 31.7705 104.235 31.7705C104.129 31.764 103.972 31.6078 103.944 31.4972C103.887 31.3086 104.036 31.1459 104.243 31.1394Z" fill="#341217"/>
<path d="M103.602 32.4928C103.901 32.5123 104.064 32.6425 104.085 32.9027C104.107 33.1109 103.986 33.2606 103.765 33.3126C103.474 33.3842 103.282 33.228 103.239 32.9873C103.197 32.7531 103.36 32.5774 103.602 32.4928Z" fill="#341217"/>
<path d="M99.3451 37.0915C99.1674 35.9659 100.234 34.7818 101.5 35.3153C100.341 35.3283 99.7931 36.1026 99.8287 37.072C99.8856 37.9829 100.284 38.9003 100.753 39.7852C100.014 39.0695 99.4376 38.1456 99.3451 37.0915Z" fill="#341217"/>
</svg>
