<svg width="32" height="32" viewBox="0 0 32 32" fill="none" xmlns="http://www.w3.org/2000/svg">
<path opacity="0.2" d="M22 27H26C26.2652 27 26.5196 26.8946 26.7071 26.7071C26.8946 26.5196 27 26.2652 27 26V6C27 5.73478 26.8946 5.48043 26.7071 5.29289C26.5196 5.10536 26.2652 5 26 5H22V27Z" fill="#2DB324"/>
<path d="M18 14H10" stroke="#2DB324" stroke-width="2" stroke-linecap="round" stroke-linejoin="round"/>
<path d="M18 18H10" stroke="#2DB324" stroke-width="2" stroke-linecap="round" stroke-linejoin="round"/>
<path d="M6 5H26C26.5523 5 27 5.44772 27 6V26C27 26.5523 26.5523 27 26 27H6C5.44772 27 5 26.5523 5 26V6C5 5.44772 5.44772 5 6 5Z" stroke="#2DB324" stroke-width="2" stroke-linecap="round" stroke-linejoin="round"/>
<path d="M22 5V27" stroke="#2DB324" stroke-width="2" stroke-linecap="round" stroke-linejoin="round"/>
</svg>
