<svg width="32" height="32" viewBox="0 0 32 32" fill="none" xmlns="http://www.w3.org/2000/svg">
<path opacity="0.2" d="M27.8625 9.3252C27.9531 9.48077 28.0005 9.65768 28 9.8377V22.1627C27.999 22.3407 27.9512 22.5154 27.8612 22.669C27.7712 22.8226 27.6423 22.9498 27.4875 23.0377L16.4875 29.2252C16.3392 29.3099 16.1708 29.3531 16 29.3502L15.8875 16.0002L27.8625 9.3252Z" fill="#FA8232"/>
<path d="M4 22.1627V9.83766C4.00096 9.65963 4.04884 9.485 4.13882 9.33137C4.2288 9.17775 4.35769 9.05057 4.5125 8.96266L15.5125 2.77516C15.6607 2.68958 15.8289 2.64453 16 2.64453C16.1711 2.64453 16.3393 2.68958 16.4875 2.77516L27.4875 8.96266C27.6423 9.05057 27.7712 9.17775 27.8612 9.33137C27.9512 9.485 27.999 9.65963 28 9.83766V22.1627C27.999 22.3407 27.9512 22.5153 27.8612 22.6689C27.7712 22.8226 27.6423 22.9497 27.4875 23.0377L16.4875 29.2252C16.3393 29.3107 16.1711 29.3558 16 29.3558C15.8289 29.3558 15.6607 29.3107 15.5125 29.2252L4.5125 23.0377C4.35769 22.9497 4.2288 22.8226 4.13882 22.6689C4.04884 22.5153 4.00096 22.3407 4 22.1627V22.1627Z" stroke="#FA8232" stroke-width="2" stroke-linecap="round" stroke-linejoin="round"/>
<path d="M9.875 19.0625V12.5625L22 5.875" stroke="#FA8232" stroke-width="2" stroke-linecap="round" stroke-linejoin="round"/>
<path d="M4.13755 9.3252L15.8875 16.0002L27.8625 9.3252" stroke="#FA8232" stroke-width="2" stroke-linecap="round" stroke-linejoin="round"/>
<path d="M15.8875 16L16 29.35" stroke="#FA8232" stroke-width="2" stroke-linecap="round" stroke-linejoin="round"/>
</svg>
