<svg width="48" height="48" viewBox="0 0 48 48" fill="none" xmlns="http://www.w3.org/2000/svg">
<rect x="-0.5" y="0.5" width="47" height="47" rx="1.5" transform="matrix(-1 0 0 1 47 0)" fill="#EAF6FE"/>
<rect x="-0.5" y="0.5" width="47" height="47" rx="1.5" transform="matrix(-1 0 0 1 47 0)" stroke="#D5EDFD"/>
<path d="M24 27C20.6863 27 18 24.3137 18 21C18 17.6863 20.6863 15 24 15C27.3137 15 30 17.6863 30 21C30 24.3137 27.3137 27 24 27Z" stroke="#2DA5F3" stroke-width="1.5" stroke-miterlimit="10"/>
<path d="M33.0938 32.2499C32.1722 30.6534 30.8467 29.3277 29.2504 28.406C27.6541 27.4843 25.8433 26.999 24 26.999C22.1567 26.999 20.3459 27.4843 18.7496 28.406C17.1533 29.3277 15.8278 30.6534 14.9062 32.2499" stroke="#2DA5F3" stroke-width="1.5" stroke-linecap="round" stroke-linejoin="round"/>
</svg>
