<svg width="231" height="153" viewBox="0 0 231 153" fill="none" xmlns="http://www.w3.org/2000/svg">
<path d="M21.8901 111.589C29.4501 111.589 34.1702 113.226 36.0502 116.501C36.5802 117.579 36.8501 118.536 36.8501 119.376V121.053C36.8501 126.165 33.4401 130.957 26.6101 135.43C21.5601 138.145 16.3901 139.503 11.0701 139.503C7.60007 139.503 4.65008 138.944 2.21008 137.826C1.29008 136.888 0.830078 136.009 0.830078 135.19V133.632C0.830078 132.434 1.60013 129.798 3.13013 125.726C3.53013 125.327 3.84017 125.126 4.05017 125.126C5.87017 126.883 7.52012 127.962 9.00012 128.361C12.1101 129.241 14.7501 129.679 16.9401 129.679H18.3201C21.6001 129.679 24.8301 128.642 27.9901 126.565C29.2901 125.466 29.9501 124.509 29.9501 123.689C29.9501 122.311 27.9501 121.513 23.9601 121.293C20.6401 121.293 16.6601 122.012 11.9901 123.449C11.4401 124.009 10.9801 124.287 10.6101 124.287H10.2701C9.65014 124.287 9.3501 122.252 9.3501 118.179V117.819C9.3501 114.544 11.4902 112.587 15.7902 111.948C16.6002 111.808 18.6301 111.689 21.8901 111.589Z" fill="#341217"/>
<path d="M140.7 111.293C142.87 111.31 145.19 109.584 146.14 107.746C147.13 105.839 147.1 102.973 145.38 101.495C143.16 99.5835 139.9 101.25 138.32 103.253C136.77 105.22 136.37 108.815 138.52 110.53C139.18 111.057 139.93 111.287 140.7 111.293Z" fill="#C74A51"/>
<path d="M61.3099 152.884C63.4699 152.901 65.7898 151.174 66.7398 149.337C67.7298 147.428 67.6998 144.564 65.9798 143.086C63.7598 141.173 60.5099 142.839 58.9199 144.843C57.3699 146.811 56.9698 150.406 59.1198 152.12C59.7798 152.648 60.5299 152.877 61.3099 152.884Z" fill="#C74A51"/>
<path d="M190.76 111.229C187.94 109.952 186.06 109.312 185.12 109.312H184.43C182.97 109.312 181.63 110.15 180.4 111.828C179.31 113.865 177.47 118.577 174.88 125.965C173.13 131.956 171.48 134.952 169.93 134.952C169.24 134.691 168.89 133.773 168.89 132.195V131.236C168.89 129.599 169.66 126.763 171.19 122.73C171.88 120.554 173.07 118.278 174.76 115.902C177.14 113.485 178.33 112.167 178.33 111.949C178.33 110.33 176.33 109.252 172.35 108.713C170.71 108.713 169.22 109.512 167.86 111.109C167.05 112.109 165.02 116.861 161.76 125.366C159.44 132.235 157.56 135.669 156.12 135.669C155.64 135.45 155.29 134.332 155.08 132.315V132.074C156.12 125.386 158.3 119.915 161.64 115.662C163.64 113.804 164.63 112.646 164.63 112.188C164.63 111.969 164.56 111.728 164.4 111.468C162.1 110.032 159.99 109.312 158.07 109.312C157.15 109.332 156.69 109.412 156.69 109.551C155.52 109.551 153.8 111.788 151.51 116.261C150.04 120.115 149.27 123.629 149.21 126.804C149.29 129.02 149.4 130.897 149.56 132.435C148.83 133.153 147.98 133.512 147.03 133.512C145.55 133.512 144.09 132.954 142.65 131.834C141.62 130.837 140.69 129.835 139.83 128.828C140.51 127.379 141.15 125.794 141.73 124.049C141.93 123.434 142.28 122.831 142.56 122.253C142.86 121.647 143.17 121.047 143.5 120.455C144.17 119.253 144.89 118.085 145.66 116.954C145.97 116.505 146.28 116.062 146.6 115.625C146.77 115.397 146.94 115.173 147.11 114.95C147.24 114.784 147.49 114.574 147.49 114.351C147.49 114.221 147.49 114.09 147.49 113.962C147.49 113.902 147.49 113.841 147.46 113.789C147.43 113.741 147.39 113.708 147.34 113.678C146.89 113.382 146.25 113.322 145.73 113.247C143.18 112.884 140.57 113.083 138.02 113.365C137.16 113.459 136.3 113.576 135.45 113.773C134.92 113.896 134.37 114.041 133.89 114.323C133.63 114.479 133.33 114.716 133.33 115.062C131.95 127.522 128.99 133.751 124.47 133.751C123.64 133.751 122.68 133.592 121.59 133.273C120.19 132.839 118.31 131.326 115.97 128.763C117.81 126.28 118.74 123.71 118.74 121.053V119.375C118.74 118.537 118.47 117.579 117.94 116.5C116.06 113.225 111.34 111.587 103.78 111.587C100.52 111.688 98.4898 111.809 97.6798 111.949C93.3798 112.587 91.2397 114.545 91.2397 117.819V118.177C91.2397 122.251 91.5398 124.288 92.1598 124.288H92.4998C92.8598 124.288 93.3298 124.009 93.8798 123.449C98.5598 122.011 102.55 121.292 105.85 121.292C109.84 121.513 111.84 122.311 111.84 123.688C111.84 124.507 111.18 125.466 109.88 126.564C106.73 128.641 103.51 129.678 100.21 129.678H98.8297C96.6397 129.678 93.9998 129.241 90.8898 128.362C89.4098 127.962 87.7597 126.884 85.9397 125.126C85.7297 125.126 85.4198 125.326 85.0198 125.726C83.4898 129.799 82.7197 132.435 82.7197 133.633V135.191C82.7197 136.008 83.1797 136.888 84.0997 137.826C86.5397 138.944 89.4897 139.503 92.9597 139.503C98.2897 139.503 103.47 138.145 108.5 135.43C110.49 134.125 112.18 132.793 113.59 131.435C113.88 132.354 114.23 133.314 114.68 134.352C116.93 137.786 120.19 139.503 124.47 139.503H125.73C130.64 139.503 134.67 137.132 137.82 132.407C138.02 132.985 138.25 133.555 138.51 134.112C140.37 137.546 143.25 139.265 147.14 139.265H148.18C149.79 139.265 151.4 138.865 153.01 138.065C154.12 139.025 155.62 139.503 157.5 139.503C159.19 139.503 161.49 138.065 164.4 135.191C166.59 137.666 168.55 138.904 170.27 138.904H172.12C176.24 137.387 179.35 134.552 181.44 130.398C184.64 121.711 186.94 116.72 188.34 115.422C190.16 113.625 191.09 112.666 191.1 112.547V112.307C191.1 111.887 190.99 111.529 190.76 111.229Z" fill="#341217"/>
<path d="M56.1499 84.8232C54.4999 86.2109 52.9398 87.9386 51.4698 90.0247C45.8698 99.3101 43.0698 108.974 43.0698 119.019V119.257C43.0698 121.753 43.2999 124.11 43.7599 126.326C45.9099 135.113 51.0499 139.504 59.1799 139.504C60.7899 139.437 62.1599 139.276 63.3099 139.033C63.3699 139.021 63.4198 139.01 63.4698 138.998C63.6098 138.967 63.7699 138.94 63.8999 138.906C63.9099 138.897 63.9198 138.887 63.9398 138.878C67.7698 137.867 71.0298 135.106 73.7098 130.578C76.1298 124.649 77.9699 120.617 79.2399 118.478C81.3099 115.685 82.3398 114.127 82.3398 113.806C82.3398 113.347 80.9598 113.028 78.1998 112.849C74.1898 112.849 71.0499 113.246 68.7599 114.046C68.2999 114.046 67.9599 115.205 67.7299 117.521C66.4999 126.526 64.2899 131.726 61.1099 133.154H60.7899C59.6599 133.154 58.5098 132.956 57.3398 132.556C53.9698 131.098 52.2799 128.064 52.2799 123.451V122.493C52.2799 119.417 53.1599 115.144 54.9199 109.673C56.5699 104.742 58.6499 100.308 61.1399 96.3749C62.4599 94.2838 63.8198 92.3991 65.2198 90.6805C64.5598 90.6107 63.8898 90.4913 63.2098 90.3141C59.8798 89.4457 57.5499 87.6127 56.1499 84.8232Z" fill="#341217"/>
<path d="M184.21 73.5698C184.2 73.584 184.18 73.5971 184.17 73.5971C184.18 73.5971 184.2 73.584 184.24 73.5566C184.22 73.5566 184.22 73.5698 184.21 73.5698Z" fill="#363794"/>
<path d="M218.42 38.9493C218.38 39.122 218.29 39.2946 218.22 39.4559V39.4788C218.16 39.5825 218.12 39.7091 218.05 39.8358C217.85 40.3309 217.61 40.8489 217.34 41.4246C217.29 41.5282 217.22 41.6549 217.17 41.7815C217.12 41.8851 217.07 42.0117 217 42.1384C216.96 42.2651 216.88 42.3917 216.82 42.5414C216.71 42.7717 216.61 43.0018 216.49 43.2552C216.39 43.4509 216.31 43.6351 216.21 43.8308C216.13 44.0035 216.05 44.1647 215.98 44.3144C215.44 45.4541 214.98 46.4442 214.73 46.9508C214.57 47.2732 214.4 47.6071 214.22 47.9064V47.9294H214.2V47.9064C213.94 47.6761 213.67 47.4574 213.42 47.2502C213.25 47.1236 213.08 46.9969 212.94 46.8473C212.79 46.6976 212.6 46.5479 212.44 46.4442C211.48 45.6499 210.57 44.867 209.68 44.015C209.58 43.9114 209.46 43.8078 209.36 43.6812C209.24 43.5775 209.11 43.4509 208.99 43.3242C208.85 43.2206 208.73 43.0709 208.58 42.9443C208.48 42.8177 208.38 42.7141 208.28 42.6104V42.5874C208.18 42.4953 208.1 42.4147 208.02 42.3111C207.85 42.1614 207.7 41.9772 207.55 41.7815C207.55 41.7815 207.55 41.7585 207.53 41.7354L207.43 41.6318C207.37 41.5743 207.31 41.4822 207.22 41.4015C207.19 41.344 207.12 41.2519 207.07 41.1712C206.98 41.0907 206.9 40.9756 206.82 40.8489C206.74 40.7453 206.66 40.6647 206.6 40.538C206.49 40.4344 206.39 40.3078 206.32 40.1581C206.27 40.0891 206.24 40.0545 206.22 39.9854C206.17 39.9854 206.17 39.9854 206.17 39.9624C205.93 39.6285 205.71 39.2717 205.52 38.8917C205.46 38.8111 205.42 38.6959 205.36 38.5924C205.28 38.4427 205.22 38.2815 205.15 38.0858C205.15 38.0627 205.14 38.0628 205.14 38.0513C205.08 37.8325 205.02 37.6253 204.98 37.4295C204.96 37.2684 204.93 37.1417 204.93 36.969C204.93 36.8654 204.93 36.7618 204.96 36.6697V36.6582C204.96 36.6351 204.96 36.6351 204.98 36.6121C204.98 36.543 205 36.4855 205.02 36.4049C205.05 36.3127 205.1 36.2322 205.14 36.1285C205.52 35.0463 205.97 34.0102 206.46 32.9624C206.61 32.6056 206.78 32.2602 206.92 31.9033C206.97 31.8573 206.98 31.7766 207 31.7306C207.43 30.8095 207.85 29.9 208.26 28.9675H208.28C208.32 28.9675 208.36 28.9905 208.43 29.0136C208.46 29.0136 208.53 29.0365 208.6 29.071C208.65 29.0941 208.73 29.1171 208.79 29.1402C209.04 29.2438 209.33 29.3704 209.62 29.4971C209.68 29.5431 209.77 29.5776 209.82 29.6007C209.89 29.6237 209.97 29.6697 210.02 29.7043H210.06C210.13 29.7273 210.16 29.7734 210.21 29.7734C210.26 29.8194 210.33 29.831 210.37 29.8539C210.41 29.8539 210.45 29.877 210.45 29.9C210.5 29.9 210.53 29.9231 210.55 29.946C210.6 29.946 210.62 29.9576 210.65 29.9807C210.94 30.1303 211.23 30.2569 211.5 30.4296C211.85 30.6139 212.2 30.8095 212.52 31.0398C213.08 31.3968 213.66 31.7997 214.18 32.2257V32.2371C214.4 32.4099 214.63 32.6056 214.85 32.7898C215.03 32.9624 215.22 33.1237 215.4 33.2964C215.64 33.5266 215.88 33.7569 216.1 34.0102C216.63 34.5858 217.12 35.196 217.59 35.8292C217.63 35.8753 217.69 35.9559 217.73 36.0019C217.92 36.2782 218.12 36.543 218.29 36.8424C218.42 37.0382 218.56 37.1993 218.65 37.418C218.68 37.4756 218.72 37.5217 218.72 37.5562V37.6022L218.75 37.6253C218.77 37.6483 218.77 37.6713 218.75 37.6713C218.78 37.775 218.78 37.8785 218.77 37.9822C218.77 38.1319 218.63 38.4657 218.42 38.9493ZM213.47 49.4607C213.47 49.5528 213.45 49.6103 213.43 49.6794C213.42 49.7831 213.39 49.9097 213.35 50.0363C213.31 50.14 213.27 50.2435 213.25 50.3472C213.21 50.4738 213.17 50.589 213.13 50.7156C212.91 51.3603 212.69 52.0166 212.48 52.6958C212.28 53.3061 212.08 53.9393 211.87 54.5495C211.79 54.8258 211.71 55.1021 211.62 55.3783C211.35 56.2419 211.06 57.1514 210.75 58.0378C210.35 59.3387 209.94 60.6514 209.52 61.9409C209.19 62.954 208.87 63.9895 208.55 64.9804C208.38 65.4632 208.24 65.9125 208.07 66.3731C207.85 67.0289 207.65 67.6858 207.43 68.3306C207.09 69.3437 206.74 70.3569 206.37 71.3579C206.17 71.9227 205.97 72.4976 205.75 73.0391C205.54 73.615 205.32 74.1787 205.12 74.7314C204.79 75.5715 204.45 76.4125 204.1 77.2648C203.86 77.9206 203.59 78.5654 203.32 79.198C203.07 79.8549 202.79 80.5107 202.5 81.1676C201.96 82.4571 201.4 83.7466 200.86 85.0239C200.5 85.9105 200.13 86.7627 199.77 87.6261C199.67 87.8336 199.58 88.0633 199.48 88.282C199.4 88.4439 199.28 88.6625 199.09 88.8467C199.04 88.9156 198.97 88.9733 198.89 89.0421C198.65 89.2496 198.39 89.5026 198.02 89.4571C197.43 89.3761 196.85 89.1453 196.26 88.9733C195.63 88.8123 195 88.616 194.39 88.4085C193.98 88.2597 193.6 88.1322 193.2 87.9834C192.83 87.8336 192.49 87.6838 192.14 87.5229C192.1 87.5229 192.06 87.4996 192.01 87.4763C191.64 87.3032 191.25 87.0968 190.89 86.8893C190.5 86.6706 190.16 86.4176 189.79 86.1868C189.45 85.9338 189.1 85.6575 188.75 85.369C188.51 85.1393 188.27 84.8974 188.04 84.6322C188 84.5866 187.97 84.5178 187.92 84.4834C187.75 84.287 187.6 84.0796 187.44 83.8731C187.44 83.8731 187.41 83.8498 187.36 83.7577C187.34 83.7233 187.31 83.7 187.29 83.6544C187.15 83.4702 187.03 83.2739 186.91 83.0441C186.89 82.9976 186.87 82.9864 186.87 82.9399C186.83 82.9176 186.83 82.871 186.81 82.8599C186.68 82.6636 186.61 82.4571 186.53 82.2607C186.51 82.2374 186.48 82.203 186.48 82.1575C186.44 82.031 186.39 81.9267 186.32 81.7546C186.26 81.5927 186.18 81.3974 186.12 81.2132C186.1 81.1899 186.1 81.1443 186.1 81.121C186.05 81.0401 186.02 80.9368 186.02 80.8447C185.98 80.8103 185.98 80.7638 185.98 80.7182C185.92 80.534 185.88 80.3265 185.83 80.1312C185.81 80.0735 185.8 80.0047 185.8 79.9581C185.71 79.6474 185.68 79.2901 185.63 78.9682C185.59 78.6109 185.59 78.2769 185.59 77.9318V77.4945C185.59 76.9186 185.69 76.3549 185.81 75.8255C185.83 75.699 185.88 75.5715 185.9 75.4449C185.98 75.0654 186.1 74.6625 186.26 74.2708C186.3 74.1443 186.36 74.0178 186.42 73.8913C186.48 73.7648 186.53 73.6261 186.58 73.4996C187.54 71.5887 188.49 69.6423 189.45 67.7202C190.4 65.7972 191.35 63.8629 192.3 61.9409C192.4 61.7445 192.69 61.1575 193.1 60.3974C193.32 59.9601 193.59 59.4308 193.86 58.8783C193.86 58.8554 193.88 58.8323 193.88 58.8207C194.03 58.5675 194.15 58.3142 194.29 58.0378C194.68 57.3125 195.06 56.5527 195.42 55.8159C195.49 55.7353 195.53 55.6546 195.57 55.5625C195.59 55.528 195.63 55.459 195.65 55.4014C195.75 55.1827 195.87 54.9754 195.97 54.7797C196.02 54.7222 196.03 54.6416 196.07 54.5725C196.44 53.8587 196.78 53.2254 197.03 52.7188C197.07 52.6498 197.09 52.5922 197.12 52.5232C197.17 52.4195 197.21 52.339 197.25 52.2698C197.41 51.9821 197.51 51.7863 197.56 51.7058C198.22 50.4393 198.89 49.1958 199.55 47.941C200.19 46.7666 200.82 45.5578 201.45 44.3834C201.96 43.4049 202.48 42.4377 202.99 41.4706C203.32 40.8489 203.64 40.2848 203.94 39.6977C203.98 39.6056 204.05 39.548 204.08 39.4559C205.52 40.8489 206.95 42.2651 208.34 43.6581C209.28 44.5907 210.21 45.5002 211.14 46.4097C211.6 46.8702 212.09 47.3308 212.58 47.8028L212.76 47.987C212.86 48.0676 212.94 48.1597 213.03 48.2403C213.08 48.3208 213.17 48.436 213.23 48.5166C213.29 48.5972 213.33 48.6663 213.37 48.7469C213.39 48.816 213.42 48.8966 213.43 48.9771C213.45 49.0463 213.45 49.0808 213.45 49.1498C213.47 49.1958 213.47 49.2305 213.47 49.334V49.4607ZM190.92 50.0363V50.0939C190.92 50.1169 190.94 50.14 190.96 50.14C190.99 50.2436 191.01 50.3472 191.01 50.4738V50.6005C191.04 50.8422 191.04 51.0725 191.04 51.3488C191.03 51.7403 191.01 52.1432 190.94 52.5692C190.89 53.1793 190.77 53.7666 190.68 54.3883C190.58 55.0215 190.48 55.6317 190.38 56.2649C190.26 56.2879 190.11 56.288 189.99 56.288C189.38 53.8587 188.8 51.4064 188.21 48.9541C188.24 48.9541 188.31 48.9426 188.35 48.9426C188.8 48.8505 189.16 48.816 189.48 48.8274C189.6 48.8274 189.73 48.8505 189.83 48.8735C190.01 48.9195 190.19 48.9771 190.31 49.0692C190.38 49.1037 190.42 49.1498 190.46 49.1958C190.48 49.1958 190.52 49.2305 190.54 49.2765C190.56 49.2765 190.56 49.2765 190.58 49.3226C190.62 49.3571 190.67 49.4031 190.68 49.4607C190.79 49.5873 190.86 49.7831 190.91 49.9673V49.9903C190.92 49.9903 190.92 50.0134 190.92 50.0363ZM187.44 46.64C187.39 46.5134 187.34 46.3867 187.29 46.237C187.26 46.1334 187.24 46.0413 187.21 45.9147C187.12 45.6613 187.03 45.3966 186.95 45.1202H186.93V45.0512C186.91 44.9936 186.89 44.9246 186.87 44.89C186.81 44.6943 186.77 44.5101 186.71 44.3373C186.68 44.2338 186.66 44.1647 186.66 44.061V44.038C186.56 43.6581 186.48 43.3012 186.34 42.9443C186.29 42.737 186.22 42.5414 186.14 42.3572C186.05 42.1844 185.98 41.9888 185.9 41.8275C185.83 41.6549 185.73 41.4706 185.63 41.298C185.56 41.1022 185.45 40.941 185.32 40.7453C185.29 40.6877 185.25 40.6186 185.2 40.538C185.19 40.492 185.19 40.469 185.15 40.4575C185.05 40.2848 184.95 40.1351 184.83 39.9854C184.76 39.8588 184.68 39.7552 184.58 39.6516C184.49 39.548 184.42 39.4213 184.32 39.3292C184.2 39.145 184.03 38.9723 183.85 38.8111C183.79 38.719 183.71 38.6385 183.62 38.5693C183.52 38.4657 183.44 38.3621 183.34 38.3161C183.1 38.0858 182.86 37.8556 182.59 37.6483C182.57 37.6253 182.55 37.5792 182.53 37.5792C182.35 37.4296 182.18 37.2914 182.01 37.1763C181.91 37.0956 181.78 37.0151 181.66 36.923C181.62 36.9114 181.57 36.8654 181.52 36.8193C181.33 36.6697 181.13 36.543 180.93 36.4395C180.84 36.3819 180.77 36.3127 180.7 36.2782C180.45 36.1285 180.2 35.9559 179.94 35.8062C179.26 35.4263 178.6 35.0464 177.9 34.7355C177.6 34.5629 177.28 34.4132 176.95 34.2865C176.32 33.9987 175.71 33.7224 175.09 33.4921H175.07C174.42 33.2388 173.81 32.9971 173.17 32.8128C172.62 32.6401 172.08 32.5135 171.54 32.3868C171.52 32.3639 171.5 32.3639 171.48 32.3639C170.93 32.2371 170.38 32.1336 169.84 32.03C168.99 31.8803 168.14 31.7766 167.28 31.7191C166.02 31.6039 164.75 31.6039 163.47 31.6961L162.74 31.7536C162.54 31.7766 162.32 31.7997 162.11 31.8227C162.09 31.8227 162.05 31.8227 162.01 31.8457C161.54 31.8803 161.1 31.9724 160.65 32.03C160.21 32.1105 159.74 32.2026 159.3 32.3063C158.82 32.4099 158.36 32.5135 157.87 32.6402C157.36 32.7668 156.88 32.9395 156.38 33.0892C156.11 33.1697 155.85 33.2734 155.58 33.3655C155.53 33.3655 155.48 33.3769 155.44 33.4C155.34 33.446 155.28 33.469 155.2 33.4921C154.93 33.5727 154.69 33.6532 154.44 33.7569C154.32 33.8029 154.2 33.8721 154.08 33.9295C154.02 33.9295 153.96 33.9756 153.92 33.9756C153.44 34.1598 152.97 34.3786 152.52 34.6089C152.36 34.6664 152.2 34.7585 152.06 34.8161C151.65 35.0118 151.25 35.196 150.86 35.4263C150.64 35.5529 150.42 35.6796 150.19 35.8062C150.18 35.8062 150.18 35.8062 150.15 35.8292C149.94 35.9559 149.77 36.0595 149.57 36.1632C149.38 36.2782 149.18 36.4049 148.99 36.5316C148.91 36.5891 148.84 36.6351 148.75 36.6697C148.35 36.923 147.96 37.1993 147.58 37.4756C147.39 37.6253 147.19 37.775 147.01 37.9246C146.99 37.9246 146.99 37.9246 146.97 37.9361C146.7 38.1088 146.46 38.3161 146.19 38.5348C146.02 38.6845 145.81 38.8227 145.63 38.9953C144.82 39.6746 144.03 40.3884 143.27 41.1712L143.05 41.4015C142.32 42.1384 141.61 42.9443 140.98 43.7502C140.84 43.8884 140.72 44.038 140.6 44.2107C139.87 45.1202 139.18 46.0413 138.53 47.0429C138.45 47.1466 138.39 47.2502 138.33 47.3538C138.01 47.8373 137.68 48.3439 137.38 48.8735C137.04 49.4261 136.7 49.9903 136.38 50.589C136.06 51.1531 135.75 51.7403 135.45 52.339V52.3619C135.7 52.8801 135.94 53.4096 136.14 53.9393C136.38 54.4458 136.58 54.9754 136.79 55.482C136.97 55.9195 137.16 56.3685 137.31 56.806C137.38 56.9327 137.41 57.0478 137.46 57.1744C137.5 57.2551 137.52 57.3125 137.53 57.4046C137.58 57.4853 137.6 57.5314 137.62 57.6119C137.66 57.681 137.7 57.7616 137.72 57.8191C137.82 58.0725 137.92 58.3257 138.01 58.5675C138.09 58.7286 138.14 58.9244 138.19 59.0856V59.1086C138.25 59.2344 138.29 59.3619 138.33 59.4652C138.37 59.5917 138.41 59.7182 138.45 59.8336C138.5 59.8913 138.51 59.9601 138.53 59.9945C138.55 60.0634 138.57 60.121 138.6 60.1909C138.67 60.3974 138.74 60.6049 138.82 60.8235L138.84 60.8468V60.8579C139.02 61.3528 139.18 61.8134 139.35 62.2972C139.38 62.4237 139.42 62.5502 139.47 62.6777C139.5 62.8042 139.55 62.954 139.59 63.0806C139.62 63.2304 139.69 63.3913 139.75 63.5411C139.81 63.6909 139.87 63.8629 139.91 64.0127C139.93 64.0937 139.96 64.1737 139.97 64.2435C140.09 64.6231 140.21 64.9804 140.33 65.3366C140.4 65.532 140.45 65.7162 140.52 65.9125V65.9237C140.54 65.9702 140.56 66.0158 140.56 66.0502C140.57 66.0735 140.57 66.0968 140.6 66.1423C140.62 66.2233 140.66 66.3265 140.69 66.453C140.86 66.9601 141.03 67.4895 141.17 68.0188C141.23 68.2263 141.29 68.4449 141.37 68.6757C141.66 69.6423 141.94 70.5978 142.25 71.6109C142.34 71.9227 142.44 72.2212 142.52 72.532C142.63 72.8781 142.71 73.2344 142.83 73.5684C143.07 74.4095 143.32 75.2951 143.58 76.1474C143.85 77.0107 144.09 77.8741 144.35 78.7374C143.78 78.4844 143.48 78.3812 143.17 78.2314C142.85 78.0583 142.52 77.8974 142.18 77.702C142.15 77.6787 142.1 77.6787 142.06 77.6676C141.96 77.5978 141.86 77.5411 141.76 77.449C141.45 77.287 141.15 77.115 140.86 76.9186C140.69 76.8154 140.52 76.7121 140.33 76.5846C139.72 76.2051 139.14 75.7789 138.57 75.3872C138.39 75.2384 138.23 75.1109 138.04 74.9621C138.01 74.9389 138.01 74.9156 137.96 74.9044C137.92 74.8579 137.87 74.8346 137.8 74.7779C137.66 74.6281 137.48 74.5016 137.31 74.3518L137.05 74.121C136.99 74.0755 136.93 74.0178 136.89 73.9713C136.85 73.949 136.85 73.9257 136.8 73.9257C136.77 73.868 136.7 73.8215 136.67 73.7759C136.58 73.7182 136.48 73.6261 136.41 73.5451C136.36 73.4996 136.32 73.4652 136.28 73.4186C136.22 73.3609 136.16 73.3154 136.1 73.2577C135.94 73.1079 135.75 72.9125 135.59 72.7395L134.82 71.9449C134.82 71.9449 134.72 71.8417 134.72 71.8184C134.7 71.7729 134.66 71.7385 134.64 71.6919C134.29 71.3123 133.97 70.9095 133.64 70.5289C133.4 70.1949 133.15 69.8498 132.91 69.5158C132.71 69.2395 132.51 68.9287 132.3 68.6291C132.13 68.3528 131.94 68.0765 131.8 67.7891C131.57 67.4439 131.4 67.0866 131.21 66.7526C131.03 66.4308 130.86 66.12 130.72 65.786C130.64 65.6362 130.57 65.4632 130.5 65.3134C130.34 65.0026 130.18 64.6575 130.06 64.3468C129.89 63.9439 129.74 63.5634 129.59 63.1605C129.47 62.8042 129.35 62.447 129.21 62.0897C129.18 62.0208 129.14 61.9409 129.14 61.8943C129.06 61.5836 128.96 61.284 128.88 60.9844C128.8 60.7202 128.7 60.4439 128.64 60.1676C128.62 60.0988 128.6 60.0178 128.57 59.9601C128.5 59.615 128.41 59.281 128.33 58.9589C128.15 58.1185 127.97 57.278 127.84 56.4146C127.72 55.6662 127.62 54.9064 127.55 54.1465C127.55 54.089 127.55 54.0083 127.52 53.9393C127.5 53.8817 127.5 53.8126 127.5 53.7551C127.42 53.0298 127.36 52.2929 127.31 51.579C127.21 49.6794 127.21 47.8028 127.31 45.9376C127.31 45.811 127.34 45.6613 127.36 45.5232V45.2469C127.4 44.7979 127.42 44.3834 127.46 43.9344C127.5 43.5315 127.55 43.1515 127.58 42.7717C127.6 42.7141 127.6 42.6449 127.62 42.5874C127.65 42.3686 127.67 42.1614 127.7 41.9541C127.7 41.862 127.72 41.7815 127.75 41.6778C127.77 41.4015 127.8 41.1252 127.84 40.8374C127.89 40.6647 127.91 40.492 127.92 40.3423C127.92 40.2617 127.94 40.1812 127.97 40.0891C128.01 39.8243 128.07 39.548 128.11 39.2946C128.21 38.742 128.33 38.1894 128.43 37.6713C128.77 36.1861 129.14 34.7355 129.61 33.2503C129.65 33.1237 129.67 32.9971 129.71 32.8934C129.77 32.7322 129.84 32.5365 129.87 32.3639C129.91 32.2371 129.96 32.1336 129.99 32.0069C130.3 31.1204 130.6 30.2339 130.96 29.3474C131.09 29.0365 131.21 28.7372 131.33 28.4263C131.37 28.3803 131.37 28.3342 131.4 28.2997C131.62 27.701 131.88 27.1369 132.15 26.5383C132.29 26.1813 132.45 25.8244 132.63 25.4675C132.79 25.1106 132.98 24.7537 133.14 24.3853C133.32 24.0283 133.49 23.6945 133.66 23.3606C133.76 23.1649 133.85 22.9922 133.95 22.831C134.22 22.2784 134.51 21.7488 134.82 21.2192C134.95 20.9659 135.09 20.7356 135.24 20.4824C135.31 20.3787 135.39 20.229 135.45 20.0793C135.51 20.0219 135.55 19.9413 135.59 19.8492C135.63 19.7916 135.68 19.7225 135.7 19.688L136.12 18.9856C136.16 18.9051 136.24 18.7784 136.31 18.6863C136.58 18.2258 136.89 17.7883 137.17 17.3163C137.21 17.2587 137.26 17.1897 137.29 17.1321C137.31 17.086 137.36 17.04 137.38 17.0055C137.4 16.9594 137.4 16.9363 137.41 16.9018C137.64 16.5794 137.84 16.2801 138.09 15.9692C138.37 15.5087 138.69 15.0828 138.99 14.6337C139.3 14.2192 139.62 13.7702 139.96 13.3558C140.23 12.9873 140.52 12.6305 140.81 12.3196C141.29 11.7209 141.78 11.1799 142.28 10.6502C142.52 10.397 142.79 10.1206 143.05 9.89038C143.07 9.84433 143.1 9.84433 143.12 9.82125C143.17 9.76376 143.25 9.68309 143.32 9.63704C143.36 9.59099 143.4 9.56801 143.42 9.5335C143.62 9.33775 143.85 9.17651 144.05 8.98086C144.1 8.93481 144.17 8.87722 144.21 8.85415C144.25 8.80809 144.29 8.77358 144.31 8.77358C144.47 8.62388 144.66 8.49726 144.82 8.37064C144.9 8.29008 144.95 8.24402 145.02 8.17489C145.04 8.16335 145.08 8.14038 145.1 8.1174C145.16 8.04827 145.22 8.01376 145.29 7.96771C145.77 7.61082 146.28 7.25384 146.78 6.93147C146.95 6.80485 147.13 6.70121 147.31 6.62064C147.38 6.55162 147.45 6.517 147.53 6.49402C147.62 6.42489 147.7 6.39038 147.8 6.34433C147.84 6.29827 147.86 6.2753 147.9 6.26376C147.94 6.21771 147.99 6.19463 148.02 6.19463C148.04 6.17165 148.08 6.14858 148.12 6.13714C148.21 6.09109 148.31 6.02196 148.38 5.98744C148.43 5.96437 148.48 5.94139 148.53 5.89534C148.57 5.8838 148.57 5.8838 148.6 5.86082C148.84 5.7341 149.08 5.63056 149.32 5.50394C149.4 5.45789 149.48 5.41174 149.57 5.37722C149.72 5.30819 149.91 5.22752 150.06 5.15849C150.25 5.05485 150.47 4.97429 150.66 4.90516C150.74 4.87064 150.82 4.82459 150.9 4.80161C151.27 4.65192 151.63 4.5253 151.98 4.42166C152.18 4.34109 152.36 4.29503 152.54 4.23744C152.59 4.19139 152.62 4.19139 152.64 4.19139C152.86 4.11082 153.09 4.04169 153.34 3.98421C153.47 3.93815 153.61 3.8921 153.76 3.86902C153.82 3.85748 153.9 3.83451 153.98 3.81143C154.34 3.70789 154.71 3.61579 155.14 3.55819C155.54 3.47763 155.93 3.38552 156.31 3.32793C156.38 3.30495 156.46 3.30485 156.53 3.30485C157.02 3.22429 157.51 3.15526 157.99 3.1092H158.08C158.93 3.02853 159.79 2.98248 160.67 2.98248H160.98C161.42 2.97105 161.85 2.98259 162.27 3.00556C162.4 3.00556 162.52 3.00556 162.64 3.02854H162.86C162.95 3.02854 163.03 3.02853 163.08 3.05161C163.13 3.02853 163.13 3.02853 163.17 3.05161C163.31 3.05161 163.45 3.07469 163.59 3.07469C163.8 3.09766 164 3.1092 164.22 3.13218C164.44 3.15526 164.64 3.15526 164.9 3.20131C165.34 3.23583 165.76 3.30485 166.23 3.3509C166.29 3.36244 166.36 3.36244 166.43 3.38552C167.02 3.47763 167.65 3.58117 168.26 3.68481C169.33 3.86902 170.38 4.11082 171.4 4.3756C171.91 4.50222 172.42 4.65192 172.9 4.82459C173.27 4.92823 173.63 5.03188 173.98 5.15849C174.25 5.2506 174.52 5.35425 174.76 5.43481C175.17 5.58451 175.56 5.7341 175.94 5.8838C176.17 5.94139 176.37 6.04503 176.59 6.13714C177.02 6.32135 177.44 6.49402 177.87 6.70121C178.43 6.95455 178.96 7.20779 179.48 7.50718C179.77 7.65678 180.04 7.79493 180.3 7.94463C180.84 8.24402 181.38 8.57783 181.91 8.9002C182.18 9.08441 182.45 9.25718 182.74 9.44139C183.16 9.74068 183.59 10.063 183.99 10.3509C184.25 10.5467 184.54 10.7538 184.78 10.961C185.12 11.2373 185.47 11.5137 185.81 11.8131C185.92 11.9167 186.02 11.9973 186.14 12.0894C186.24 12.147 186.34 12.2275 186.44 12.3541C186.63 12.5268 186.83 12.6765 187.02 12.8607C187.21 13.0334 187.39 13.2061 187.58 13.3903C187.62 13.4594 187.68 13.4939 187.72 13.5631C187.75 13.5631 187.76 13.6091 187.78 13.6091C188 13.8163 188.23 14.0236 188.43 14.2768C188.73 14.5531 189.04 14.8755 189.31 15.2094C189.55 15.4626 189.79 15.762 190.01 16.0268C190.38 16.4298 190.72 16.8327 191.04 17.2587C191.28 17.5695 191.53 17.8919 191.76 18.2258C191.77 18.2488 191.79 18.2719 191.82 18.2948C192.13 18.7093 192.42 19.1353 192.71 19.5729C192.77 19.6419 192.79 19.6995 192.83 19.7685C192.99 20.0219 193.15 20.2521 193.3 20.4593C193.76 21.1616 194.19 21.8985 194.61 22.6353C194.84 23.0383 195.06 23.4412 195.27 23.8211C195.49 24.2011 195.66 24.604 195.87 25.007C196.05 25.3869 196.24 25.7669 196.42 26.1468C196.52 26.4001 196.63 26.6304 196.75 26.8606C196.78 26.9872 196.87 27.0909 196.9 27.2175C196.97 27.3211 197 27.4247 197.05 27.5514C197.15 27.7471 197.21 27.9313 197.31 28.1731C197.31 28.1846 197.31 28.2076 197.33 28.2307C197.7 29.0941 198.06 29.946 198.39 30.8326C198.51 31.0974 198.61 31.3968 198.7 31.6961C198.94 32.3063 199.14 32.9395 199.34 33.5727C199.4 33.7224 199.46 33.8835 199.5 34.0332C199.67 34.5168 199.8 35.0118 199.97 35.4724C200.48 37.2453 200.77 41.7354 201.11 43.7041C200.72 44.487 200.31 45.2699 199.91 46.0413C199.68 46.4442 199.5 46.8473 199.28 47.2502C198.89 47.987 198.51 48.7469 198.12 49.5068C197.56 50.6235 196.97 51.7633 196.36 52.903C196.26 53.1219 196.12 53.3866 195.97 53.6859C195.73 54.135 195.47 54.6185 195.2 55.1482C195.1 55.3324 195.02 55.5051 194.9 55.6662C194.81 55.8389 194.74 56.0116 194.64 56.1728C194.19 57.0248 193.74 57.8422 193.42 58.4754C193.38 58.5675 193.34 58.6481 193.3 58.7057C193.25 58.7747 193.22 58.8207 193.2 58.8783C193.13 58.982 193.11 59.0741 193.05 59.1547L192.99 59.281C192.93 59.3619 192.87 59.454 192.87 59.4652C192.38 60.3518 191.88 61.2263 191.37 62.1129C191.19 62.0441 191.03 61.9976 190.84 61.9409C190.84 60.5472 190.79 59.1317 190.82 57.7386C190.84 57.4046 190.84 57.0823 190.89 56.7485C190.89 56.5412 190.92 56.3685 190.96 56.1612C190.96 56.0116 191.01 55.8849 191.03 55.7353C191.04 55.6546 191.06 55.5396 191.06 55.459C191.11 55.2863 191.13 55.1251 191.16 54.8948C191.21 54.7222 191.25 54.5264 191.28 54.3422C191.28 54.3192 191.31 54.2732 191.31 54.2616C191.31 54.1925 191.33 54.1465 191.33 54.1119C191.35 54.0083 191.4 53.8932 191.4 53.7666C191.41 53.6859 191.43 53.6054 191.45 53.5133C191.55 52.9951 191.65 52.4887 191.69 51.959C191.72 51.8093 191.74 51.6597 191.74 51.533V51.3258C191.76 51.1071 191.76 50.8998 191.74 50.7156V50.4163C191.74 50.2666 191.69 50.1169 191.67 50.0134C191.67 49.9903 191.67 49.9673 191.65 49.9558C191.65 49.8637 191.64 49.8061 191.62 49.714C191.57 49.5873 191.53 49.4607 191.5 49.3571C191.45 49.2534 191.41 49.1498 191.35 49.0462C191.31 48.9541 191.25 48.8505 191.19 48.7699C191.11 48.6893 191.04 48.5972 190.96 48.5166C190.94 48.4705 190.92 48.4476 190.89 48.436C190.79 48.3208 190.67 48.2403 190.54 48.1827C190.43 48.1137 190.3 48.0676 190.16 48.01C190.07 47.987 190.01 47.964 189.94 47.941C189.85 47.9064 189.77 47.8834 189.67 47.8834C189.46 47.8373 189.24 47.8028 189 47.7797C188.7 47.7568 188.35 47.7568 187.99 47.8028H187.82C187.7 47.3999 187.56 47.0199 187.44 46.64ZM108.03 48.6548C103.89 52.5461 99.8 56.5067 95.86 60.6049C90.84 65.8204 86.31 71.4621 81.49 76.8498C78.4 80.3154 75.06 83.4925 70.84 85.8994C70.23 86.2445 69.56 86.5097 68.85 86.7162C68.13 86.9237 67.3801 87.0623 66.6601 87.1312C63.3701 87.4652 60.78 85.7496 59.45 82.5947C59.33 82.3184 59.21 82.0532 59.11 81.7546C57.95 78.197 58.2001 74.5937 58.9001 70.9895C60.4201 63.0684 63.95 56.4261 70.37 51.6482C71.95 50.4623 73.66 49.5182 75.86 48.839C75.52 49.4376 75.33 49.76 75.14 50.0708C73.82 52.2238 72.74 54.4919 72.24 57.0248C71.33 61.5259 73.4501 65.0148 77.5401 65.4399C78.8801 65.5785 80.4 65.4399 81.64 64.9227C83.85 64.0016 86.0501 62.9075 88.0301 61.5259C94.9101 56.7024 101.09 50.9804 107.04 44.9706C107.72 44.2799 108.19 44.1992 109.09 44.6022C109.85 44.9476 110.64 45.2354 111.42 45.4657C110.96 45.4657 108.46 48.2518 108.03 48.6548ZM76.96 52.9146C77.95 51.5216 78.9001 50.1629 79.9001 48.839C80.0501 48.6432 80.45 48.5511 80.74 48.5742C81.22 48.6087 81.7001 48.7353 82.1601 48.885C84.3201 49.6103 84.5101 50.209 83.1601 52.0166C83.1101 52.0972 83.04 52.1893 82.97 52.2698C82.53 52.8225 82.18 53.663 81.61 53.8472C81.12 54.0198 80.4201 53.3866 79.7801 53.2485C78.9501 53.0758 78.09 53.0412 76.96 52.9146ZM79.6 56.6793C80.85 57.7961 81.61 57.7386 82.69 56.4491C83.46 55.528 84.24 54.584 85.01 53.663C85.04 53.6169 85.14 53.6284 85.2 53.6169C86.23 57.4738 83.31 61.5836 79.32 61.9055C79 61.9287 78.69 61.9287 78.38 61.9287C76.9 61.9055 76.0001 61.3306 75.5401 60.1332C75.1901 59.1662 75.6501 57.4622 76.5201 56.6448C77.4801 55.7238 78.54 55.7353 79.6 56.6793ZM64.86 51.579C69.47 44.2452 75.31 38.0858 81.7 32.456C86.72 28.0349 92 23.9938 97.85 20.8048C101.2 18.9742 104.7 18.0301 108.42 19.3426C112.21 20.678 114.77 23.234 115.34 27.5283C115.66 29.9346 114.85 32.0645 113.33 33.849C106.02 42.4493 98.05 50.2896 89.09 57.0133C88.87 57.1744 88.63 57.3125 88.21 57.5774C88.37 56.4491 88.5 55.5511 88.63 54.6646C89.33 49.3571 86.0901 46.26 81.8101 45.5692C76.3301 44.6712 71.46 46.26 67.25 50.0134C66.24 50.9113 65.31 51.89 64.19 52.7304C64.42 52.3505 64.63 51.959 64.86 51.579ZM230.33 18.859C230.33 18.9281 230.33 18.9626 230.3 19.0317C230.28 19.1353 230.28 19.2159 230.26 19.308C230.22 19.4347 230.21 19.5729 230.18 19.7225C230.14 19.8492 230.09 19.9758 230.07 20.1024C230.06 20.1716 230.06 20.2061 230.04 20.2751C230.02 20.3787 229.97 20.4593 229.97 20.5514C229.94 20.7011 229.92 20.8048 229.87 20.9543C229.57 22.0482 229.23 23.0843 228.8 24.0744C228.72 24.3277 228.6 24.558 228.5 24.7883C228.48 24.8573 228.46 24.9149 228.41 24.9609C228.38 25.1336 228.29 25.2718 228.21 25.4215C228.14 25.6402 228.03 25.8244 227.93 26.0317C227.87 26.1468 227.83 26.2273 227.77 26.331C227.73 26.4001 227.68 26.4807 227.64 26.5383C227.64 26.5612 227.63 26.5843 227.61 26.6073C227.61 26.6533 227.56 26.6878 227.54 26.757C227.42 26.9872 227.3 27.1944 227.14 27.4478C227.12 27.4707 227.12 27.5168 227.08 27.5514C227.04 27.5975 227 27.678 226.95 27.7701C226.91 27.8277 226.85 27.9197 226.81 27.9773C226.73 28.15 226.63 28.2997 226.53 28.4263C226.49 28.4839 226.47 28.553 226.43 28.6105C226.39 28.6797 226.35 28.7372 226.31 28.8063C226.29 28.8178 226.27 28.8408 226.25 28.8639C226.07 29.1402 225.88 29.3934 225.68 29.6697C225.56 29.8194 225.44 29.9807 225.32 30.1303C224.85 30.706 224.4 31.2931 223.89 31.8457C223.71 32.0529 223.51 32.2602 223.33 32.456C223.16 32.6171 223.03 32.7668 222.88 32.9395C222.64 33.1697 222.4 33.4 222.13 33.6532C222.01 33.7569 221.91 33.8835 221.77 34.0102C221.64 34.1253 221.5 34.2519 221.36 34.3556C220.96 34.7355 220.53 35.0924 220.11 35.4493C219.88 35.622 219.65 35.8062 219.43 35.9559C219.21 36.1516 218.99 36.3127 218.77 36.4855C218.6 36.2092 218.46 35.9329 218.29 35.6566C218.24 35.5299 218.16 35.4032 218.07 35.2766C218.04 35.196 217.97 35.1155 217.93 35.0464C217.69 34.6664 217.44 34.2865 217.19 33.9295C217.17 33.9066 217.14 33.8721 217.1 33.849C217.04 33.7569 217 33.6532 216.92 33.5727C216.9 33.5497 216.88 33.5266 216.86 33.4921C216.7 33.2503 216.51 33.02 216.31 32.8128C216.27 32.7322 216.23 32.6862 216.17 32.6171C216.03 32.456 215.88 32.3063 215.68 32.099C215.58 31.9724 215.46 31.8227 215.32 31.6961C215.3 31.65 215.25 31.5924 215.2 31.5464C215.13 31.4773 215.1 31.4197 215.01 31.3507C215 31.3392 214.98 31.3161 214.93 31.2931C214.83 31.2125 214.75 31.0974 214.61 30.9707C214.57 30.9131 214.51 30.8671 214.47 30.8441C214.37 30.7405 214.27 30.6368 214.16 30.5332C214.15 30.5332 214.12 30.4871 214.06 30.4871C213.98 30.3836 213.86 30.303 213.76 30.2109C213.59 30.0728 213.43 29.946 213.21 29.7734C213.15 29.7043 213.08 29.6697 213.03 29.6007C212.94 29.5431 212.86 29.451 212.76 29.4165C212.62 29.3128 212.48 29.1862 212.33 29.071C212.06 28.8639 211.75 28.6566 211.47 28.4609C211.38 28.4263 211.3 28.3803 211.23 28.3112C211.1 28.2307 210.99 28.1731 210.87 28.081C210.51 27.8507 210.14 27.6204 209.78 27.4247C209.77 27.4133 209.72 27.3902 209.7 27.3441C209.64 27.2865 209.58 27.1944 209.53 27.1139C209.52 27.0909 209.5 27.0678 209.5 27.0333C209.48 26.9872 209.46 26.9412 209.41 26.8606C209.36 26.7109 209.33 26.5382 209.33 26.4001C209.38 25.1451 209.43 23.8787 209.5 22.6008C209.64 18.9396 210.01 15.3015 210.01 11.6404C210.01 9.37226 211.7 10.0631 211.81 10.1667C212.09 10.4199 212.33 10.6848 212.44 11.0647C212.63 11.6518 212.8 12.262 212.96 12.8607C213.03 13.114 213.08 13.3558 213.15 13.6091C213.21 13.8394 213.27 14.0926 213.31 14.3229C213.42 14.7028 213.47 15.0828 213.52 15.4626C213.52 15.5433 213.54 15.6123 213.55 15.6699C213.55 15.739 213.55 15.7735 213.57 15.8195C213.59 15.9923 213.62 16.1189 213.64 16.2686C213.64 16.3492 213.64 16.4298 213.66 16.5219C213.66 16.5794 213.66 16.66 213.67 16.7291C213.67 16.7752 213.67 16.8097 213.69 16.8558C213.71 16.9824 213.74 17.109 213.76 17.2126C213.79 17.3853 213.81 17.535 213.88 17.6963C213.9 17.7422 213.9 17.7998 213.91 17.8689C213.94 17.915 213.96 17.9725 213.98 18.0185C214.08 18.3294 214.2 18.6287 214.37 18.859C214.44 18.9856 214.52 19.1123 214.61 19.2159C214.69 19.308 214.77 19.4116 214.88 19.4922C214.93 19.5729 215.01 19.6189 215.1 19.688C215.15 19.7455 215.24 19.7916 215.32 19.8261C215.52 19.9412 215.74 20.0219 215.95 20.0679C215.97 20.0679 215.98 20.0793 216 20.0793C216.13 20.1024 216.23 20.1254 216.35 20.1254C216.46 20.1485 216.58 20.1485 216.68 20.1485H216.9C216.96 20.1485 217.04 20.1254 217.12 20.1254C217.14 20.1254 217.17 20.1255 217.2 20.1024C217.29 20.1024 217.39 20.0794 217.51 20.0679C217.61 20.0448 217.73 20.0219 217.85 19.9758C217.95 19.9527 218.05 19.9413 218.16 19.8952C218.32 19.8492 218.48 19.8146 218.65 19.7455C218.89 19.665 219.11 19.5729 219.33 19.4692C220.87 18.8014 222.3 17.8689 223.76 17.04C223.98 16.9134 224.18 16.8097 224.4 16.7061C224.44 16.7061 224.46 16.66 224.5 16.66C224.59 16.6255 224.66 16.5794 224.74 16.5564C224.76 16.5334 224.79 16.5334 224.81 16.5334C225.05 16.4758 225.27 16.4528 225.49 16.4298C225.7 16.3952 225.88 16.3722 226.07 16.3492C226.17 16.5564 226.27 16.7752 226.39 17.0055C225.98 17.3853 225.58 17.7653 225.19 18.1452C225.15 18.1798 225.11 18.2027 225.1 18.2258C224.73 18.5827 224.37 18.9281 224.01 19.2619C223.3 19.9758 222.64 20.7011 221.94 21.4149C222.05 21.5646 222.18 21.6912 222.31 21.8409C223.25 20.9314 224.2 20.0448 225.15 19.1584C225.35 18.9626 225.54 18.7784 225.71 18.5827C225.83 18.479 225.92 18.4216 226.08 18.2948C226.12 18.2258 226.19 18.1798 226.27 18.1682C226.27 18.1452 226.31 18.1452 226.35 18.1222C226.39 18.0992 226.43 18.0761 226.49 18.0531C226.61 18.0186 226.75 17.9725 226.9 17.9955H227C227.22 17.9725 227.46 17.9726 227.73 17.9726C227.66 18.2948 227.66 18.6518 227.58 18.9396C227.56 19.0317 227.53 19.1123 227.46 19.2159C227.38 19.3195 227.3 19.4461 227.22 19.5729C227.12 19.7685 227 19.9758 226.85 20.1716C226.53 20.678 226.19 21.2077 225.84 21.7258C225.58 22.1287 225.29 22.5317 225.01 22.9577C224.74 23.3606 224.46 23.7751 224.18 24.2011C224.25 24.2817 224.37 24.3507 224.44 24.4083C224.52 24.4774 224.62 24.5349 224.71 24.604C225.37 23.6139 226 22.5777 226.69 21.6222C226.81 21.4725 226.91 21.3113 227.04 21.1386C227.12 21.058 227.17 20.9659 227.22 20.8853C227.42 20.609 227.58 20.2982 227.77 19.9758C227.87 19.7916 227.99 19.5729 228.15 19.4116C228.19 19.3426 228.26 19.308 228.29 19.239C228.41 19.1123 228.51 19.0087 228.63 18.9396C228.72 18.9051 228.8 18.859 228.87 18.836C228.9 18.813 228.94 18.8014 229 18.7784C229.17 18.7324 229.31 18.6863 229.49 18.6863C229.61 18.6863 229.75 18.7093 229.9 18.7324C229.92 18.7324 229.96 18.7324 230.02 18.7554C230.12 18.7784 230.24 18.8014 230.33 18.836C230.18 18.3524 229.96 17.9264 229.6 17.6156C228.88 17.0284 227.97 17.512 226.93 16.2686C225.92 15.0597 225.07 15.1863 223.91 15.8887C222.72 16.6024 221.46 17.3623 220.21 18.0185C219.72 18.2719 219.21 18.5021 218.7 18.6863C215.97 19.8492 214.98 19.1584 214.37 16.1765C213.96 14.1271 213.52 12.0663 212.86 10.0746C212.75 9.76376 212.51 9.52196 212.27 9.32621C212.04 9.142 211.79 9.00384 211.52 8.9002C211.29 8.80809 210.96 8.73906 210.74 8.87722C210.5 9.00384 210.3 9.22257 210.13 9.44139C209.92 9.69463 209.74 9.99402 209.64 10.3164C209.26 11.5597 208.97 12.8837 208.95 14.1962C208.89 16.7061 208.89 19.1929 208.91 21.6912C208.93 23.2685 208.93 24.8804 208.93 26.4576C208.7 26.4001 207.22 27.1599 206.9 27.7241C206.13 29.1171 205.44 30.5792 204.81 32.076C204.03 33.8835 202.69 35.599 203.86 37.8325C204.03 38.1549 203.57 38.8111 203.37 39.2717C203.17 39.7091 202.95 40.1351 202.72 40.538C202.32 41.344 201.91 42.1384 201.5 42.9443C201.38 43.1746 201.26 43.4049 201.14 43.6351C201.35 39.9279 201.14 33.6763 200.89 30.1303C200.21 21.2192 196.48 14.0005 189.73 8.52034C181.52 1.78522 172.11 -0.517416 161.89 0.369123C153.66 1.08289 147.55 5.07793 143.61 7.81801C142.08 8.87722 140.44 10.1667 138.68 11.6518C135 14.7834 131.3 17.9265 128.12 21.6337C125.19 25.0646 122.9 29.0365 120.86 33.1006C119.94 34.9082 118.97 36.6812 117.87 38.3736C117.4 39.0874 114.64 43.5315 113.75 43.3242C112.41 43.0249 111.03 42.6335 109.51 42.2651C110.4 41.2519 111.07 40.5265 111.71 39.7667C113.52 37.6598 115.44 35.6335 116.65 33.0661C118.97 28.1846 117.04 21.7603 112.68 18.7554C108.03 15.5548 102.97 15.5778 97.87 18.2603C88.17 23.3606 79.46 29.9115 71.96 38.1433C64.83 45.9607 59.22 54.7682 56.32 65.2334C54.97 70.0806 54.11 74.9966 54.75 80.0735C54.98 81.9044 55.47 83.4702 56.14 84.8285C57.55 87.6261 59.87 89.4571 63.2 90.3204C63.89 90.5047 64.55 90.619 65.21 90.6889C75.4 91.7587 83.77 80.7638 89.49 73.5451C95.22 66.3154 101.51 58.6596 109.62 54.2961C112.2 52.9146 115.23 51.89 118.09 52.8455C121.15 53.8587 122.8 55.5856 122.8 55.5856C127.11 60.0988 123.65 66.7071 127.62 73.3154C129.45 76.3316 131.78 79.0138 134.61 81.3518C134.74 81.4783 134.86 81.5704 135 81.6737C135.12 81.7547 135.27 81.8579 135.39 81.9733C136.32 82.7101 137.29 83.4004 138.33 84.0573C138.53 84.1838 138.77 84.3103 138.98 84.4601C138.99 84.4834 139.02 84.4834 139.04 84.5057C139.99 85.0704 141.03 85.6453 142.06 86.1636C143.52 86.9125 144.88 87.3498 146.24 85.9793C146.4 86.4864 146.56 86.866 146.68 87.2921C147.29 89.4217 147.68 91.6555 148.57 93.6362C149.08 94.7638 150.42 95.4783 151.37 96.3417C151.79 95.3741 152.4 94.4186 152.56 93.4055C152.95 91.2982 153.09 89.1453 153.34 87.0502C155.89 87.9024 158.28 88.697 160.81 89.5259C160.18 90.3316 159.58 91.0917 158.99 91.8862C157.77 93.4976 156.52 95.0978 155.31 96.7213C154.22 98.1838 154.94 100.371 156.68 100.763C156.7 100.774 156.71 100.774 156.72 100.774C156.82 100.797 156.9 100.82 156.99 100.843C157.36 100.924 161.88 93.1757 161.89 93.1524C162.74 91.6787 163.98 89.9287 165.76 89.8022C166.15 89.7789 166.53 89.8022 166.9 89.8599C167.28 89.952 167.65 90.0897 167.97 89.7557C168.01 89.698 168.06 89.6413 168.09 89.5714C168.19 89.4105 168.28 89.2263 168.44 89.1231C168.26 89.1686 168.11 89.0654 167.95 89.0654C167.73 89.0188 167.55 88.9733 167.32 88.95C166.96 88.9156 166.59 88.869 166.23 88.8467C161.73 88.7658 157.36 87.9601 153.35 85.7729C146.29 81.8812 143.61 74.3518 146.53 66.6028C146.89 65.5897 147.01 64.7496 146.16 64.0472C145.93 63.863 145.73 63.6676 145.53 63.4834C144.59 62.5502 143.83 61.5836 143.24 60.5239C142.88 59.9146 142.59 59.281 142.3 58.5675C142.02 57.8422 141.79 57.0823 141.61 56.2994C141.42 55.528 141.25 54.7451 141.15 53.8932C140.86 51.936 140.72 49.8866 140.56 47.8028C141.59 48.816 142.42 49.6334 143.24 50.4393C143.34 50.5429 143.44 50.6235 143.54 50.7156C144.25 51.2567 144.88 51.1071 145.59 50.3472C146.75 49.0232 148.02 47.8028 149.99 47.7568C150.09 48.1366 150.18 48.5166 150.27 48.8735C150.37 49.2534 150.45 49.6103 150.54 49.9903C150.66 50.4738 150.79 50.9458 150.98 51.3834C151.73 53.3061 152.85 53.5363 154.29 52.1432C155.78 50.6466 156.72 48.8966 157.39 46.9969C157.55 46.5709 157.7 46.1679 157.8 45.7305C157.97 45.1202 158.09 44.5216 158.22 43.9344C158.3 43.6351 158.34 43.3702 158.4 43.0709C158.46 42.737 158.53 42.4377 158.58 42.1038C158.72 41.344 158.85 40.5611 158.97 39.7782C159.28 37.9361 159.54 36.1285 159.79 34.2635C159.92 33.1927 160.41 32.7092 161.4 32.5826C165.48 32.076 169.53 32.2487 173.49 33.4806C173.74 33.5611 173.95 33.7569 174.05 34.0102C174.56 35.2766 175.07 36.5661 175.51 37.8785C175.88 38.8456 176.22 39.8243 176.56 40.7914C176.61 40.8949 176.65 41.0217 176.69 41.1252L176.9 41.7009C177.02 42.1038 177.14 42.4607 177.26 42.8637C177.29 42.9443 177.34 43.0479 177.36 43.1285C177.75 44.2913 178.13 45.4541 178.55 46.5939C178.86 47.4805 179.16 48.3439 179.53 49.2074C182.01 55.1021 184.62 60.9044 187.17 66.7526C187.48 67.4439 187.68 68.2263 187.48 68.9864C187.36 69.5158 187.03 69.9419 186.75 70.3791C186.2 71.2425 185.73 72.1757 185.19 73.0623C184.93 73.4996 184.62 73.949 184.44 74.4318C184.22 74.9844 184.23 75.5148 184.2 76.0785C184.17 76.5846 184.15 77.0917 184.15 77.5978C184.11 78.6109 184.13 79.6018 184.3 80.5917C184.53 82.0765 184.96 83.4814 185.6 84.782C186.24 86.0947 187.09 87.3032 188.14 88.3397C188.39 88.5704 188.63 88.8123 188.9 89.0188C189.28 89.3528 189.69 89.6757 190.11 89.9632C190.54 90.286 190.96 90.5613 191.4 90.8154C191.69 90.9996 192.01 91.1949 192.35 91.3559C192.69 91.5522 193.01 91.7243 193.35 91.8862C193.59 92.0127 193.83 92.116 194.07 92.2081C194.25 92.2891 194.41 92.369 194.59 92.4389C194.98 92.5654 195.37 92.6919 195.75 92.7496C195.9 92.7951 196.05 92.8417 196.22 92.864C196.68 92.9449 197.51 92.0127 197.85 91.7243C200.52 89.4449 202.2 86.3366 203.56 83.0897C203.78 82.5603 204 81.9844 204.2 81.4783C204.53 80.7182 204.83 79.947 205.14 79.1868C205.71 77.6676 206.27 76.1018 206.82 74.5016C207 74.0289 207.17 73.5451 207.33 73.0391C207.43 72.786 207.51 72.5097 207.58 72.2557C207.59 72.2445 207.59 72.199 207.61 72.1757C208.04 70.9551 208.43 69.7233 208.83 68.4793C209.64 65.9237 210.45 63.3913 211.26 60.8468C212.4 57.1054 213.33 53.3061 214.75 49.6564C215.12 48.7239 215.48 47.8373 215.9 46.9278C216.09 46.5709 216.56 45.5002 217.07 44.3373C217.63 43.0479 218.22 41.6088 218.4 40.9641C218.66 40.0315 218.89 39.0759 219.15 38.1549C219.21 37.9361 219.27 37.4296 219.41 37.3029C220.43 36.3358 221.36 35.4263 222.33 34.5629C223.59 33.5266 224.66 32.3639 225.66 31.1204C227.22 29.1632 230.12 25.9741 230.45 21.5991C230.5 20.8622 230.58 19.7916 230.33 18.859Z" fill="#341217"/>
<path d="M218.78 37.9639C218.78 38.1136 218.63 38.4475 218.42 38.931C218.39 39.1037 218.3 39.2763 218.23 39.4376V39.4606C218.17 39.5642 218.13 39.6908 218.06 39.8175C217.86 40.3126 217.62 40.8307 217.35 41.4063C217.3 41.5099 217.23 41.6366 217.17 41.7632C217.13 41.8668 217.08 41.9934 217.01 42.1201C216.96 42.2468 216.89 42.3734 216.83 42.5231C216.72 42.7534 216.62 42.9836 216.5 43.2369C216.4 43.4326 216.32 43.6168 216.22 43.8125C216.14 43.9852 216.06 44.1464 215.99 44.2961C215.45 45.4359 214.99 46.4259 214.74 46.9325C214.58 47.2549 214.41 47.5888 214.23 47.8882V47.9112H214.21V47.8882C213.95 47.6579 213.68 47.4391 213.43 47.2319C213.26 47.1053 213.09 46.9786 212.95 46.829C212.8 46.6793 212.61 46.5296 212.45 46.4259C211.49 45.6316 210.58 44.8487 209.69 43.9967C209.59 43.8931 209.47 43.7895 209.37 43.6629C209.24 43.5592 209.12 43.4326 209 43.306C208.86 43.2024 208.74 43.0527 208.59 42.926C208.49 42.7994 208.39 42.6958 208.29 42.5921V42.5692C208.19 42.477 208.11 42.3964 208.03 42.2928C207.86 42.1431 207.71 41.9589 207.56 41.7632C207.56 41.7632 207.56 41.7402 207.54 41.7171L207.44 41.6135C207.38 41.556 207.32 41.4639 207.23 41.3832C207.2 41.3257 207.13 41.2336 207.08 41.1531C206.99 41.0724 206.91 40.9573 206.83 40.8307C206.75 40.7271 206.67 40.6465 206.61 40.5198C206.5 40.4162 206.4 40.2895 206.33 40.1399C206.28 40.0708 206.25 40.0363 206.23 39.9671C206.18 39.9671 206.18 39.9671 206.18 39.9442C205.94 39.6103 205.72 39.2534 205.53 38.8734C205.47 38.7928 205.43 38.6778 205.37 38.5741C205.29 38.4244 205.23 38.2633 205.16 38.0675C205.16 38.0445 205.15 38.0445 205.15 38.033C205.09 37.8142 205.03 37.607 204.99 37.4113C204.96 37.2501 204.94 37.1234 204.94 36.9507C204.94 36.8471 204.94 36.7435 204.96 36.6514V36.6399C204.96 36.6168 204.96 36.6168 204.99 36.5938C204.99 36.5247 205.01 36.4672 205.03 36.3867C205.06 36.2946 205.11 36.2139 205.15 36.1103C205.53 35.0281 205.98 33.9919 206.47 32.9443C206.62 32.5873 206.79 32.2419 206.93 31.885C206.98 31.839 206.99 31.7583 207.01 31.7123C207.44 30.7913 207.86 29.8817 208.27 28.9492H208.29C208.33 28.9492 208.37 28.9722 208.44 28.9953C208.47 28.9953 208.54 29.0182 208.61 29.0528C208.66 29.0758 208.74 29.0989 208.8 29.1219C209.05 29.2255 209.34 29.3522 209.63 29.4788C209.69 29.5248 209.78 29.5593 209.83 29.5824C209.9 29.6054 209.97 29.6514 210.03 29.6861H210.07C210.14 29.709 210.17 29.7551 210.22 29.7551C210.27 29.8011 210.34 29.8127 210.38 29.8357C210.42 29.8357 210.46 29.8587 210.46 29.8817C210.51 29.8817 210.54 29.9048 210.56 29.9278C210.61 29.9278 210.63 29.9393 210.66 29.9624C210.95 30.112 211.24 30.2387 211.51 30.4114C211.86 30.5956 212.21 30.7913 212.53 31.0216C213.09 31.3785 213.67 31.7814 214.19 32.2074V32.2189C214.41 32.3916 214.64 32.5873 214.86 32.7715C215.04 32.9443 215.23 33.1054 215.41 33.2781C215.65 33.5083 215.89 33.7386 216.11 33.9919C216.64 34.5675 217.13 35.1778 217.6 35.811C217.64 35.857 217.69 35.9376 217.74 35.9836C217.93 36.2599 218.13 36.5247 218.3 36.8241C218.42 37.0199 218.57 37.181 218.66 37.3997C218.69 37.4573 218.73 37.5034 218.73 37.5379V37.5839L218.76 37.607C218.78 37.63 218.78 37.6531 218.76 37.6531C218.79 37.7567 218.79 37.8603 218.78 37.9639Z" fill="#E1B196"/>
<path d="M183.15 74.4096C183.16 74.4096 183.16 74.4096 183.16 74.3965C183.14 74.4228 183.13 74.436 183.1 74.4501C183.13 74.436 183.14 74.4228 183.15 74.4096Z" fill="#363794"/>
<path d="M189.74 34.3809C189.4 33.1145 189.08 31.8343 188.67 30.5885C186.45 23.8511 183.44 17.6318 178.02 12.9885C175.05 10.443 171.64 9.15129 167.81 9.2353C167.24 9.24795 166.33 9.94795 166.19 10.496C165.91 11.6553 166.85 11.7118 167.73 11.7797C169.1 11.8845 170.5 12.0157 171.83 12.3703C178.1 14.0432 182.13 18.5759 185.11 24.2034C186.9 27.5963 188.25 31.2471 189.73 34.6342C189.73 34.6135 189.77 34.4868 189.74 34.3809Z" fill="#341217"/>
<path d="M169.94 50.2774C169.87 50.3581 169.8 50.4271 169.77 50.4616C169.48 50.8071 169.14 51.1179 168.72 51.2676C168.24 51.4287 167.7 51.3597 167.25 51.1409C166.78 50.9221 166.38 50.5653 166.04 50.1853C164.91 48.8958 164.26 47.1689 164.07 45.442C164.06 45.3959 164.06 45.3499 164.06 45.3038C163.93 44.0143 164.11 42.5867 164.75 41.4585C165.09 40.8712 165.6 40.3417 166.25 40.2151C166.74 40.1114 167.26 40.2496 167.69 40.5029C167.94 40.6411 168.18 40.8367 168.4 41.044C168.51 41.1476 168.62 41.2627 168.72 41.3778C168.75 41.4009 168.92 41.6541 168.96 41.6541C168.75 41.6772 168.56 41.6887 168.36 41.7117C167.68 41.7693 166.88 41.988 166.4 42.5291C165.86 43.1278 165.79 44.0259 165.84 44.8318C165.94 46.386 166.46 47.9863 167.6 48.9879C168.01 49.3449 168.49 49.6097 168.98 49.7708C169.25 49.8515 169.51 49.909 169.78 49.9321C169.87 49.9436 170.07 49.9321 170.08 50.0471C170.08 50.1047 170.01 50.1968 169.94 50.2774ZM171.34 45.1196C171.23 44.3943 171.03 43.7035 170.78 43.0703C170.57 42.5407 170.34 42.0456 170.05 41.6081C169.75 41.1361 169.4 40.687 169.02 40.3301C168.92 40.238 168.82 40.1575 168.72 40.0884C168.52 39.9042 168.32 39.7661 168.12 39.6393H168.11C166.85 38.914 165.68 39.0867 164.77 40.1459C164.6 40.3301 164.44 40.549 164.29 40.8022C164.18 40.9633 164.1 41.1591 164.01 41.3433C163.81 41.7693 163.66 42.1953 163.55 42.6328C163.42 43.1163 163.35 43.5999 163.33 44.1065C163.28 44.8433 163.34 45.5916 163.5 46.34C163.63 47.0653 163.86 47.7907 164.15 48.5044C165.15 51.0142 167.08 52.58 168.69 52.2461C170.43 51.9008 171.55 49.7363 171.51 46.8465C171.49 46.2594 171.44 45.6722 171.34 45.1196Z" fill="#341217"/>
<path d="M152.27 65.6628C151.91 65.7205 151.55 65.5707 151.24 65.3642C150.72 65.0413 150.32 64.5575 149.99 64.0282C149.08 62.5201 148.66 60.4249 149.31 58.7206C149.35 58.6055 149.4 58.4903 149.45 58.3868C149.59 58.0989 149.76 57.8341 149.98 57.6269C150.22 57.4197 150.49 57.27 150.79 57.2239C151.17 57.1779 151.55 57.316 151.87 57.5232C152.04 57.6384 152.21 57.7766 152.35 57.9262C152.46 58.0298 152.68 58.191 152.73 58.3522C152.34 58.3982 151.94 58.4097 151.57 58.5364C151.26 58.6285 150.97 58.7897 150.77 59.0315C150.43 59.4462 150.36 60.0332 150.37 60.5747C150.43 62.2549 151.24 64.0626 152.94 64.512C153.17 64.5697 153.4 64.5929 153.64 64.6041C153.6 64.685 153.53 64.765 153.47 64.846C153.17 65.2377 152.72 65.6061 152.27 65.6628ZM152.78 57.339C151.31 55.969 149.84 56.2568 148.99 58.0989C148.17 59.9067 148.4 61.7144 149.1 63.4877C149.85 65.3865 151.31 66.5616 152.54 66.3197C153.83 66.0545 154.68 64.4431 154.65 62.2438C154.63 60.2863 153.9 58.3982 152.78 57.339Z" fill="#341217"/>
<path d="M176.12 76.1437C171.86 80.588 166.57 80.6568 165.42 80.6224L165.6 79.3562C165.78 78.1467 166.05 77.0759 166.4 76.0981C166.76 75.1538 167.19 74.3016 167.73 73.4838C168.69 72.0222 169.93 70.4099 171.71 69.42C173.96 68.1771 176.01 67.4969 178 67.336L178.2 67.3127C178.31 67.3016 178.43 67.2904 178.56 67.2783C178.71 67.2672 178.88 67.256 179.03 67.2327C179.15 68.5799 179.25 72.8856 176.12 76.1437ZM165.12 73.254C165.01 73.3228 164.92 73.3805 164.81 73.4382C164.57 73.588 164.3 73.7257 164.03 73.8299C163.92 73.8755 163.84 73.922 163.72 73.9564C163.5 74.0597 163.26 74.1406 163.03 74.1862C162.94 74.2095 162.87 74.2327 162.8 74.2439C162.72 74.256 162.64 74.2904 162.56 74.3016C162.5 74.3249 162.43 74.3481 162.36 74.3593C162.26 74.3704 162.19 74.3937 162.1 74.3937C162 74.4281 161.9 74.4402 161.8 74.4514C161.74 74.4625 161.68 74.4625 161.63 74.4625H161.62C161.58 74.4858 161.57 74.4858 161.52 74.4858C161.5 74.4858 161.49 74.4969 161.47 74.4969C161.37 74.5091 161.26 74.5202 161.16 74.5202V74.4969C161.36 73.9676 161.57 73.4493 161.8 72.9544C161.81 72.92 161.83 72.8856 161.84 72.8623C161.92 72.7014 161.99 72.5283 162.08 72.3674C162.08 72.3441 162.09 72.333 162.1 72.3097C162.14 72.1943 162.2 72.0678 162.26 71.9534C162.32 71.8613 162.38 71.7459 162.41 71.6538C162.51 71.4696 162.61 71.2854 162.72 71.1012C162.74 71.0668 162.75 71.0323 162.77 70.9969C162.85 70.8593 162.94 70.7095 163.03 70.5597C163.08 70.4676 163.14 70.3755 163.19 70.2722C163.35 70.007 163.5 69.7429 163.67 69.4888C163.71 69.4089 163.77 69.339 163.81 69.2702C163.88 69.167 163.95 69.0627 164.01 68.9595C164.05 68.9251 164.07 68.8906 164.09 68.8562C164.24 68.6255 164.39 68.4068 164.54 68.1882C164.64 68.0617 164.75 67.9352 164.85 67.8087C165.05 67.5323 165.25 67.2672 165.46 67.0141C165.53 66.9443 165.57 66.8643 165.64 66.7955C165.74 66.668 165.85 66.5303 165.97 66.4038C166.19 66.1508 166.4 65.8967 166.63 65.6437C166.63 65.6325 166.63 65.6325 166.64 65.6204L166.91 65.3441C166.92 65.3218 166.94 65.2874 166.98 65.2753C167.06 65.172 167.16 65.0678 167.26 64.9757L167.31 64.9301C167.45 64.7692 167.6 64.6194 167.75 64.4807C167.77 64.4585 167.78 64.4463 167.81 64.4352C167.91 64.3309 168.02 64.2166 168.13 64.1123V64.1012C168.13 64.09 168.14 64.0779 168.15 64.0779C168.16 64.0779 168.16 64.0779 168.16 64.0668C168.19 64.0435 168.24 64.0091 168.27 63.9747L168.35 63.8937C168.5 63.7439 168.66 63.5941 168.81 63.4564C168.85 63.4099 168.87 63.3876 168.91 63.3755L169.19 63.1224L169.21 63.0991C169.4 62.9149 169.6 62.7429 169.8 62.5809C169.95 62.4433 170.12 62.3168 170.28 62.1902C170.44 62.0516 170.58 61.9139 170.74 61.7753C170.76 61.8218 170.76 61.8795 170.77 61.9251C170.8 62.0404 170.84 62.1558 170.86 62.2702C170.87 62.3279 170.87 62.3856 170.88 62.4433C170.92 62.6852 170.96 62.9271 170.97 63.1801C170.98 63.2489 171 63.3178 171 63.3987C171 63.4564 170.99 63.5253 171 63.583C171 63.8249 170.99 64.0668 170.97 64.3087V64.5728C170.96 64.6649 170.94 64.757 170.92 64.8491V64.919C170.91 64.9413 170.91 64.9645 170.91 64.9878C170.87 65.252 170.81 65.5172 170.75 65.7702C170.74 65.8168 170.73 65.8512 170.71 65.8967C170.7 65.9544 170.69 66.001 170.67 66.0587C170.65 66.173 170.62 66.2773 170.58 66.3917C170.52 66.5991 170.45 66.7955 170.37 67.002C170.36 67.002 170.36 67.0141 170.36 67.0141C170.35 67.0485 170.34 67.0718 170.33 67.1062C170.22 67.3704 170.1 67.6467 169.97 67.9119C169.96 67.9352 169.95 67.9463 169.94 67.9574C169.87 68.1072 169.79 68.2459 169.71 68.3957C169.64 68.5334 169.58 68.672 169.49 68.8097C169.48 68.8218 169.48 68.833 169.46 68.8562C169.44 68.8906 169.41 68.9362 169.39 68.9827C169.34 69.0516 169.3 69.1093 169.27 69.1781C169.21 69.2702 169.16 69.3623 169.1 69.4433C169.01 69.5698 168.92 69.6852 168.83 69.7996C168.78 69.8694 168.72 69.9493 168.67 70.0303C168.62 70.088 168.57 70.1568 168.52 70.2145C168.45 70.3066 168.38 70.4099 168.31 70.4908C168.26 70.5597 168.2 70.6062 168.15 70.6751C167.95 70.8937 167.75 71.1123 167.54 71.3309C167.49 71.3886 167.44 71.4463 167.39 71.504C167.35 71.5384 167.31 71.5617 167.27 71.5961C167.13 71.7459 166.97 71.8836 166.8 72.0334C166.69 72.1255 166.59 72.2297 166.48 72.3097C166.46 72.333 166.41 72.3562 166.39 72.4018C166.33 72.4362 166.27 72.4939 166.21 72.5404C166.19 72.5516 166.18 72.5627 166.15 72.5749C166.12 72.586 166.1 72.6093 166.08 72.6204C166.04 72.6548 165.98 72.7014 165.93 72.7469C165.85 72.7935 165.75 72.8512 165.66 72.9089C165.64 72.9311 165.59 72.9666 165.56 72.9777C165.53 72.9888 165.51 73.001 165.48 73.0232C165.37 73.0931 165.26 73.173 165.15 73.2307C165.14 73.2429 165.13 73.2429 165.12 73.254ZM180.03 66.7145C179.99 66.4271 179.96 66.1275 179.92 65.84C179.76 64.7803 179.47 63.7439 179.24 62.6963L179.16 62.3168C178.74 60.4281 178.35 58.7932 177.94 57.2964C177.74 56.5711 177.35 56.0761 176.85 55.8919C176.34 55.7192 175.77 55.8689 175.16 56.3293C168.35 61.5678 161.66 67.7621 158.87 77.502C158.58 78.5384 158.59 79.2753 158.92 79.8279C159.27 80.4261 159.91 80.6801 160.53 80.8299C163.06 81.417 165.55 81.9119 168.14 81.4858C170.48 81.1062 172.74 80.1852 174.69 78.7682C175.46 78.2166 176.18 77.5829 176.84 76.8917C177.62 76.086 178.28 75.1538 178.79 74.1518C179.22 73.2773 179.55 72.3441 179.76 71.3886C179.95 70.5941 180.05 69.7884 180.09 68.9706C180.13 68.2226 180.09 67.4625 180.03 66.7145Z" fill="#670B11"/>
<path d="M176.13 76.1521C171.87 80.5965 166.58 80.6653 165.43 80.6309L165.61 79.3647C165.79 78.1552 166.06 77.0843 166.41 76.1066C166.77 75.1623 167.2 74.31 167.74 73.4922C168.7 72.0307 169.94 70.4183 171.72 69.4285C173.97 68.1855 176.02 67.5064 178.01 67.3444L178.21 67.3222C178.32 67.31 178.44 67.2989 178.57 67.2868C178.72 67.2756 178.89 67.2645 179.04 67.2412C179.16 68.5884 179.26 72.894 176.13 76.1521Z" fill="#9B1D20"/>
<path d="M171 63.4018C171 63.4595 170.99 63.5283 171 63.586C171 63.8279 170.99 64.0698 170.97 64.3107V64.5759C170.96 64.668 170.93 64.7601 170.92 64.8522V64.921C170.91 64.9443 170.91 64.9676 170.91 64.9909C170.87 65.255 170.81 65.5202 170.75 65.7733C170.74 65.8198 170.72 65.8542 170.71 65.8998C170.7 65.9575 170.69 66.004 170.67 66.0607C170.65 66.1761 170.61 66.2803 170.58 66.3947C170.51 66.6022 170.45 66.7976 170.37 67.005C170.36 67.005 170.36 67.0172 170.36 67.0172C170.35 67.0516 170.34 67.0739 170.33 67.1093C170.22 67.3735 170.09 67.6498 169.97 67.915C169.96 67.9382 169.95 67.9494 169.94 67.9605C169.87 68.1103 169.78 68.249 169.71 68.3988C169.64 68.5364 169.57 68.6751 169.49 68.8127C169.48 68.8239 169.48 68.836 169.46 68.8593C169.44 68.8937 169.41 68.9393 169.39 68.9858C169.34 69.0546 169.3 69.1123 169.26 69.1812C169.21 69.2733 169.15 69.3654 169.1 69.4463C169.01 69.5729 168.92 69.6882 168.83 69.8026C168.78 69.8725 168.72 69.9524 168.67 70.0334C168.62 70.0911 168.57 70.1599 168.52 70.2176C168.45 70.3097 168.38 70.4129 168.31 70.4939C168.26 70.5627 168.2 70.6093 168.15 70.6781C167.95 70.8967 167.75 71.1154 167.54 71.334C167.48 71.3917 167.44 71.4494 167.38 71.5071C167.35 71.5415 167.31 71.5648 167.27 71.5992C167.13 71.749 166.96 71.8866 166.8 72.0364C166.69 72.1285 166.59 72.2318 166.48 72.3127C166.46 72.336 166.41 72.3583 166.39 72.4048C166.33 72.4393 166.27 72.4969 166.21 72.5425C166.19 72.5546 166.18 72.5658 166.15 72.5779C166.12 72.5891 166.1 72.6123 166.08 72.6235C166.04 72.6579 165.98 72.7044 165.92 72.75C165.85 72.7965 165.75 72.8542 165.66 72.9109C165.64 72.9342 165.59 72.9686 165.56 72.9808C165.53 72.9919 165.5 73.003 165.48 73.0263C165.37 73.0951 165.26 73.1761 165.15 73.2338C165.14 73.2449 165.13 73.2449 165.12 73.2571C165.01 73.3259 164.92 73.3836 164.81 73.4413C164.56 73.5911 164.3 73.7287 164.03 73.832C163.92 73.8785 163.83 73.9241 163.72 73.9595C163.5 74.0627 163.26 74.1437 163.03 74.1893C162.94 74.2125 162.87 74.2358 162.79 74.2469C162.72 74.2581 162.64 74.2925 162.56 74.3046C162.5 74.3279 162.43 74.3502 162.36 74.3623C162.26 74.3735 162.19 74.3967 162.1 74.3967C162 74.4312 161.9 74.4423 161.8 74.4544C161.74 74.4656 161.68 74.4656 161.63 74.4656H161.62C161.58 74.4889 161.57 74.4889 161.52 74.4889C161.5 74.4889 161.49 74.5 161.47 74.5C161.37 74.5121 161.26 74.5233 161.16 74.5233V74.5C161.36 73.9706 161.57 73.4524 161.8 72.9575C161.81 72.9231 161.83 72.8886 161.84 72.8654C161.92 72.7044 161.99 72.5314 162.08 72.3704C162.08 72.3472 162.09 72.336 162.1 72.3127C162.14 72.1974 162.2 72.0708 162.26 71.9554C162.32 71.8633 162.37 71.749 162.41 71.6569C162.51 71.4727 162.61 71.2884 162.72 71.1042C162.74 71.0698 162.75 71.0344 162.77 71C162.85 70.8623 162.94 70.7125 163.03 70.5627C163.08 70.4706 163.14 70.3785 163.19 70.2753C163.35 70.0101 163.5 69.7449 163.67 69.4919C163.71 69.4119 163.77 69.3421 163.81 69.2733C163.88 69.17 163.95 69.0658 164.01 68.9625C164.04 68.9281 164.07 68.8937 164.09 68.8593C164.24 68.6285 164.39 68.4099 164.54 68.1913C164.64 68.0648 164.75 67.9382 164.85 67.8107C165.05 67.5344 165.25 67.2702 165.46 67.0172C165.53 66.9474 165.57 66.8674 165.64 66.7976C165.74 66.671 165.85 66.5334 165.97 66.4069C166.19 66.1528 166.4 65.8998 166.63 65.6467C166.63 65.6356 166.63 65.6356 166.64 65.6235L166.91 65.3471C166.92 65.3239 166.94 65.2895 166.98 65.2783C167.06 65.1751 167.16 65.0708 167.26 64.9787L167.31 64.9332C167.45 64.7712 167.59 64.6225 167.75 64.4838C167.77 64.4605 167.78 64.4494 167.81 64.4382C167.9 64.334 168.02 64.2186 168.13 64.1154V64.1042C168.13 64.0921 168.14 64.081 168.15 64.081C168.16 64.081 168.16 64.081 168.16 64.0698C168.19 64.0465 168.24 64.0121 168.27 63.9777L168.35 63.8967C168.5 63.7469 168.66 63.5971 168.81 63.4595C168.84 63.4129 168.87 63.3897 168.91 63.3785L169.19 63.1255L169.21 63.1022C169.4 62.918 169.6 62.7449 169.8 62.584C169.95 62.4463 170.12 62.3198 170.28 62.1923C170.44 62.0546 170.58 61.916 170.74 61.7783C170.76 61.8239 170.76 61.8816 170.77 61.9281C170.8 62.0435 170.84 62.1579 170.86 62.2733C170.87 62.331 170.87 62.3886 170.88 62.4463C170.92 62.6882 170.96 62.9291 170.97 63.1832C170.98 63.252 171 63.3208 171 63.4018Z" fill="white"/>
<path d="M156.09 64.3848C156.18 65.9971 156.8 67.6206 157.53 69.1864C156.38 67.9192 155.48 66.2846 155.34 64.4192C155.06 62.4273 156.72 60.3322 158.69 61.2765C156.89 61.2998 156.04 62.6692 156.09 64.3848Z" fill="#363794"/>
<path d="M162.71 57.0085C162.75 57.3769 162.56 57.6417 162.21 57.7338C161.76 57.8605 161.46 57.5842 161.4 57.1582C161.33 56.7437 161.58 56.4329 161.96 56.2832C162.42 56.3177 162.68 56.548 162.71 57.0085Z" fill="#D7BA2C"/>
<path d="M167.08 54.2542C167.06 54.6687 166.77 54.9219 166.36 54.9564C165.98 54.8414 165.69 54.6341 165.72 54.1737C165.75 53.7476 166.02 53.4713 166.44 53.5058C166.84 53.5403 167.11 53.8397 167.08 54.2542Z" fill="#D7BA2C"/>
<path d="M162.94 55.0054C162.78 54.9938 162.54 54.7175 162.49 54.5219C162.4 54.188 162.64 53.9001 162.96 53.8887C163.13 53.8887 163.31 54.1419 163.4 54.211C163.46 54.7406 163.28 55.0054 162.94 55.0054Z" fill="#D7BA2C"/>
<path d="M180.09 68.9685C180.05 69.7863 179.95 70.592 179.76 71.3865C179.55 72.342 179.22 73.2742 178.79 74.1497C178.28 75.1517 177.62 76.0839 176.84 76.8895C176.18 77.5808 175.46 78.2134 174.69 78.7661C172.74 80.1821 170.48 81.1031 168.14 81.4837C165.55 81.9098 163.06 81.4149 160.53 80.8268C159.91 80.678 159.27 80.424 158.92 79.8258C158.59 79.2732 158.58 78.5363 158.87 77.4999C161.66 67.76 168.35 61.5657 175.16 56.3272C175.77 55.8667 176.34 55.717 176.85 55.8897C177.35 56.0739 177.74 56.5689 177.94 57.2943C178.35 58.791 178.74 60.426 179.16 62.3147L179.24 62.6942C179.47 63.7418 179.76 64.7782 179.92 65.8369C179.96 66.1254 179.99 66.424 180.03 66.7124C180.09 67.4604 180.13 68.2205 180.09 68.9685ZM152.53 66.3207C151.3 66.5626 149.84 65.3885 149.09 63.4887C148.4 61.7155 148.16 59.9078 148.98 58.1002C149.83 56.2581 151.3 55.9702 152.78 57.3404C153.89 58.3995 154.62 60.2883 154.64 62.2448C154.68 64.4442 153.83 66.0555 152.53 66.3207ZM163.55 42.6267C163.66 42.1891 163.8 41.7631 164 41.3372C164.09 41.153 164.18 40.9573 164.29 40.7961C164.43 40.5428 164.6 40.3241 164.76 40.1398C165.67 39.0806 166.84 38.908 168.1 39.6333H168.12C168.31 39.7599 168.51 39.898 168.71 40.0823C168.81 40.1514 168.91 40.232 169.01 40.3241C169.4 40.6809 169.74 41.1299 170.04 41.602C170.34 42.0394 170.56 42.5346 170.77 43.0641C171.02 43.6973 171.22 44.3881 171.33 45.1134C171.43 45.6661 171.49 46.2532 171.5 46.8405C171.54 49.7302 170.43 51.8946 168.68 52.2401C167.08 52.574 165.14 51.0082 164.15 48.4984C163.86 47.7845 163.63 47.0592 163.49 46.3339C163.34 45.5855 163.27 44.8371 163.33 44.1003C163.35 43.5938 163.42 43.1102 163.55 42.6267ZM187.17 66.7468C184.62 60.8976 182.01 55.0953 179.53 49.2006C179.16 48.3371 178.87 47.4737 178.56 46.5871C178.14 45.4473 177.75 44.2845 177.36 43.1217C177.34 43.0412 177.3 42.9375 177.26 42.857C177.14 42.4539 177.02 42.097 176.9 41.6941L176.69 41.1185C176.65 41.0149 176.61 40.8882 176.57 40.7846C176.22 39.8175 175.88 38.8388 175.51 37.8717C175.07 36.5593 174.56 35.2698 174.05 34.0034C173.96 33.7501 173.75 33.5544 173.49 33.4738C169.53 32.2419 165.48 32.0692 161.4 32.5758C160.41 32.7024 159.92 33.186 159.79 34.2567C159.54 36.1218 159.28 37.9293 158.97 39.7714C158.85 40.5543 158.73 41.3372 158.58 42.097C158.53 42.4309 158.46 42.7302 158.4 43.0641C158.34 43.3635 158.31 43.6283 158.22 43.9276C158.1 44.5148 157.97 45.1134 157.8 45.7237C157.7 46.1612 157.55 46.5641 157.39 46.9901C156.72 48.8898 155.78 50.6397 154.29 52.1364C152.85 53.5295 151.74 53.2993 150.98 51.3766C150.8 50.939 150.66 50.4671 150.54 49.9835C150.45 49.6035 150.38 49.2466 150.28 48.8667C150.18 48.5098 150.09 48.1299 149.99 47.75C148.02 47.796 146.75 49.0164 145.59 50.3404C144.88 51.1003 144.25 51.2499 143.54 50.7088C143.44 50.6167 143.34 50.5361 143.24 50.4325C142.42 49.6266 141.59 48.8092 140.57 47.796C140.72 49.8798 140.86 51.9292 141.15 53.8864C141.25 54.7383 141.42 55.5212 141.62 56.2926C141.79 57.0755 142.03 57.8354 142.3 58.5607C142.59 59.2752 142.88 59.9078 143.24 60.5181C143.83 61.5778 144.59 62.5444 145.53 63.4766C145.73 63.6608 145.93 63.8572 146.16 64.0414C147.01 64.7438 146.89 65.5839 146.53 66.597C143.61 74.345 146.29 81.8754 153.35 85.7661C157.37 87.9533 161.73 88.76 166.24 88.84C166.59 88.8632 166.97 88.9098 167.32 88.9442C167.55 88.9665 167.73 89.013 167.95 89.0586C168.12 89.0586 168.26 89.1628 168.44 89.1163C168.28 89.2205 168.19 89.4047 168.09 89.5657C170.35 89.6112 178.26 89.3703 185.6 84.7762C184.96 83.4756 184.53 82.0707 184.3 80.5859C184.13 79.595 184.11 78.6051 184.15 77.592C184.15 77.0859 184.17 76.5788 184.2 76.0727C184.23 75.508 184.22 74.9786 184.44 74.426C184.62 73.9422 184.93 73.4938 185.19 73.0555C185.73 72.1699 186.2 71.2367 186.75 70.3734C187.03 69.9361 187.36 69.51 187.48 68.9806C187.68 68.2205 187.48 67.4371 187.17 66.7468Z" fill="#E1B196"/>
<path d="M167.08 54.2542C167.06 54.6687 166.77 54.9219 166.36 54.9564C165.98 54.8414 165.69 54.6341 165.72 54.1737C165.75 53.7476 166.02 53.4713 166.44 53.5058C166.84 53.5403 167.11 53.8397 167.08 54.2542Z" fill="#341217"/>
<path d="M162.96 53.8887C163.13 53.8887 163.31 54.1419 163.4 54.211C163.46 54.7406 163.28 55.0054 162.94 55.0054C162.78 54.9938 162.54 54.7175 162.49 54.5219C162.4 54.188 162.64 53.9001 162.96 53.8887Z" fill="#341217"/>
<path d="M161.96 56.2832C162.42 56.3177 162.68 56.548 162.71 57.0085C162.75 57.3769 162.56 57.6417 162.21 57.7338C161.76 57.8605 161.46 57.5842 161.4 57.1582C161.33 56.7437 161.58 56.4329 161.96 56.2832Z" fill="#341217"/>
<path d="M155.34 64.4192C155.06 62.4273 156.72 60.3322 158.69 61.2765C156.89 61.2998 156.04 62.6692 156.09 64.3848C156.18 65.9971 156.8 67.6206 157.53 69.1864C156.38 67.9192 155.48 66.2846 155.34 64.4192Z" fill="#341217"/>
</svg>
