<svg width="63" height="71" viewBox="0 0 63 71" fill="none" xmlns="http://www.w3.org/2000/svg">
<path d="M52.2701 42.8213H44.8873V47.0369H52.2701C53.2545 47.0369 54.1404 47.9244 54.1404 49.1447C54.1404 50.365 53.3529 51.2525 52.2701 51.2525H6.20137C5.21699 51.2525 4.33105 52.14 4.33105 53.3604C4.33105 54.4697 5.11855 55.4682 6.20137 55.4682H52.3686C55.4201 55.4682 57.8811 52.6947 57.8811 49.2557C57.8811 45.5947 55.3217 42.8213 52.2701 42.8213Z" fill="#B2C1C0"/>
<path d="M53.648 28.5107L50.0059 28.1779C50.0059 28.067 52.2699 12.8686 52.7621 9.76231C53.0574 7.98731 53.648 2.99512 59.259 2.99512V7.21074C56.9949 7.21074 56.6996 8.20918 56.5027 10.0951C55.9121 13.2014 53.648 28.2889 53.648 28.5107Z" fill="#B2C1C0"/>
<path d="M53.8452 13.6455H3.93738C2.06707 13.6455 1.77175 15.6424 2.06707 16.7518L7.678 44.9299C7.97332 46.0393 8.95769 46.9268 10.0405 46.9268H49.2186C50.203 46.9268 51.1874 46.0393 51.3843 44.8189L55.5186 15.6424C55.6171 14.6439 54.8296 13.6455 53.8452 13.6455ZM6.79207 23.0752L5.80769 18.8596C5.70925 18.3049 6.00457 17.8611 6.49675 17.8611H13.4858C13.978 17.8611 14.4702 18.3049 14.4702 18.8596L14.8639 23.0752C14.9624 23.6299 14.5686 24.0736 14.0764 24.0736H7.87488C7.38269 24.0736 6.8905 23.6299 6.79207 23.0752ZM9.94207 33.3924C9.44988 33.3924 8.95769 32.9486 8.76082 32.3939L8.07175 29.1768C7.97332 28.6221 8.26863 28.1783 8.76082 28.1783H14.3718C14.8639 28.1783 15.3561 28.6221 15.3561 29.1768L15.6514 32.283C15.7499 32.8377 15.3561 33.2814 14.8639 33.2814C14.9624 33.3924 9.94207 33.3924 9.94207 33.3924ZM15.8483 42.8221H12.0093C11.5171 42.8221 11.0249 42.3783 10.828 41.8236L10.1389 38.6064C10.0405 38.0518 10.3358 37.608 10.828 37.608H15.2577C15.7499 37.608 16.2421 38.0518 16.2421 38.6064L16.5374 41.7127C16.7343 42.2674 16.3405 42.8221 15.8483 42.8221ZM27.1686 41.7127C27.1686 42.2674 26.7749 42.7111 26.2827 42.7111H21.4593C20.9671 42.7111 20.4749 42.2674 20.4749 41.7127L20.1796 38.6064C20.0811 38.0518 20.4749 37.608 20.9671 37.608H26.2827C26.7749 37.608 27.1686 38.0518 27.1686 38.6064V41.7127ZM27.1686 32.3939C27.1686 32.9486 26.7749 33.3924 26.2827 33.3924H20.5733C20.0811 33.3924 19.5889 32.9486 19.5889 32.3939L19.2936 29.2877C19.1952 28.733 19.5889 28.2893 20.0811 28.2893H26.2827C26.7749 28.2893 27.1686 28.733 27.1686 29.2877V32.3939ZM27.1686 23.0752C27.1686 23.6299 26.7749 24.0736 26.2827 24.0736H19.6874C19.1952 24.0736 18.703 23.6299 18.703 23.0752L18.2108 18.8596C18.1124 18.3049 18.5061 17.8611 18.9983 17.8611H26.1843C26.6764 17.8611 27.0702 18.3049 27.0702 18.8596C27.1686 18.8596 27.1686 23.0752 27.1686 23.0752ZM37.2093 41.7127C37.1108 42.2674 36.7171 42.7111 36.2249 42.7111H31.8936C31.4014 42.7111 31.0077 42.2674 31.0077 41.7127V38.6064C31.0077 38.0518 31.4014 37.608 31.8936 37.608H36.7171C37.2093 37.608 37.603 38.0518 37.5046 38.6064L37.2093 41.7127ZM38.0952 32.3939C37.9968 32.9486 37.603 33.3924 37.1108 33.3924H31.8936C31.4014 33.3924 31.0077 32.9486 31.0077 32.3939V29.2877C31.0077 28.733 31.4014 28.2893 31.8936 28.2893H37.603C38.0952 28.2893 38.4889 28.733 38.3905 29.2877L38.0952 32.3939ZM38.9811 23.0752C38.8827 23.6299 38.4889 24.0736 37.9968 24.0736H31.8936C31.4014 24.0736 31.0077 23.6299 31.0077 23.0752V18.8596C31.0077 18.3049 31.4014 17.8611 31.8936 17.8611H38.5874C39.0796 17.8611 39.4733 18.3049 39.3749 18.8596L38.9811 23.0752ZM47.5452 41.7127C47.4468 42.2674 46.9546 42.7111 46.4624 42.7111H41.7374C41.2452 42.7111 40.8514 42.2674 40.9499 41.7127L41.2452 38.6064C41.3436 38.0518 41.7374 37.608 42.2296 37.608H47.2499C47.7421 37.608 48.1358 38.0518 48.0374 38.6064L47.5452 41.7127ZM48.8249 32.3939C48.7264 32.9486 48.2343 33.3924 47.7421 33.3924H42.5249C42.0327 33.3924 41.6389 32.9486 41.7374 32.3939L42.0327 29.2877C42.1311 28.733 42.5249 28.2893 43.0171 28.2893H48.4311C48.9233 28.2893 49.3171 28.733 49.2186 29.2877L48.8249 32.3939ZM50.1046 23.0752C50.0061 23.6299 49.5139 24.0736 49.0218 24.0736H43.4108C42.9186 24.0736 42.5249 23.6299 42.6233 23.0752L43.0171 18.8596C43.1155 18.3049 43.5093 17.8611 44.0014 17.8611H49.8093C50.3014 17.8611 50.6952 18.3049 50.5968 18.8596L50.1046 23.0752Z" fill="#F15744"/>
<path d="M12.1077 68.7814C15.1522 68.7814 17.6202 66 17.6202 62.5689C17.6202 59.1379 15.1522 56.3564 12.1077 56.3564C9.06325 56.3564 6.59521 59.1379 6.59521 62.5689C6.59521 66 9.06325 68.7814 12.1077 68.7814Z" fill="#62727A"/>
<path d="M12.1078 65.6754C13.63 65.6754 14.8641 64.2847 14.8641 62.5691C14.8641 60.8536 13.63 59.4629 12.1078 59.4629C10.5856 59.4629 9.35156 60.8536 9.35156 62.5691C9.35156 64.2847 10.5856 65.6754 12.1078 65.6754Z" fill="white"/>
<path d="M45.3797 68.7814C48.4242 68.7814 50.8922 66 50.8922 62.5689C50.8922 59.1379 48.4242 56.3564 45.3797 56.3564C42.3352 56.3564 39.8672 59.1379 39.8672 62.5689C39.8672 66 42.3352 68.7814 45.3797 68.7814Z" fill="#62727A"/>
<path d="M48.136 62.5691C48.136 64.3441 46.8563 65.6754 45.3798 65.6754C43.8048 65.6754 42.6235 64.2332 42.6235 62.5691C42.6235 60.7941 43.9032 59.4629 45.3798 59.4629C46.8563 59.4629 48.136 60.7941 48.136 62.5691Z" fill="white"/>
<path d="M60.1454 2.21875H57.3892V8.43125H60.1454C60.6376 8.43125 61.0313 7.9875 61.0313 7.43281V3.21719C61.0313 2.6625 60.6376 2.21875 60.1454 2.21875Z" fill="#62727A"/>
<path d="M12.1079 54.248C8.07197 54.248 4.7251 58.0199 4.7251 62.5684H19.4907C19.4907 57.909 16.2423 54.248 12.1079 54.248Z" fill="#F15744"/>
<path d="M45.3799 54.248C41.3439 54.248 37.9971 58.0199 37.9971 62.5684H52.7627C52.7627 57.909 49.4158 54.248 45.3799 54.248Z" fill="#F15744"/>
</svg>
