<svg width="1440" height="600" viewBox="0 0 1440 600" fill="none" xmlns="http://www.w3.org/2000/svg">
<g clip-path="url(#clip0_1_391)">
<rect width="1440" height="600" fill="white"/>
<mask id="mask0_1_391" style="mask-type:luminance" maskUnits="userSpaceOnUse" x="0" y="0" width="1440" height="600">
<path d="M1440 0H0V600H1440V0Z" fill="white"/>
</mask>
<g mask="url(#mask0_1_391)">
<mask id="mask1_1_391" style="mask-type:luminance" maskUnits="userSpaceOnUse" x="0" y="0" width="1440" height="962">
<path d="M1440 0H0V961.134H1440V0Z" fill="white"/>
</mask>
<g mask="url(#mask1_1_391)">
<path d="M0 -113H1440V526.404C856.367 623.034 528.067 625.844 0 526.917V-113Z" fill="url(#paint0_linear_1_391)" fill-opacity="0.65"/>
<g filter="url(#filter0_f_1_391)">
<path d="M591 71.638C591 148.683 504.344 299.331 366.335 338.554C223.063 379.272 -33.7835 397.121 3.69159 222.766C30.8773 96.2834 364.445 -23.689 449.431 -23.689C534.416 -23.689 591 -5.40733 591 71.638Z" fill="white"/>
</g>
<g filter="url(#filter1_f_1_391)">
<path d="M809 149.914C809 206.457 745.511 317.015 644.398 345.8C539.428 375.683 351.248 388.782 378.705 260.825C398.622 168.001 643.013 79.9547 705.278 79.9547C767.543 79.9547 809 93.3716 809 149.914Z" fill="white"/>
</g>
<g filter="url(#filter2_f_1_391)">
<path d="M1027 149.914C1027 206.457 963.511 317.015 862.398 345.8C757.428 375.683 569.248 388.782 596.705 260.825C616.622 168.001 861.013 79.9547 923.278 79.9547C985.543 79.9547 1027 93.3716 1027 149.914Z" fill="#E4FFB3"/>
</g>
<g filter="url(#filter3_f_1_391)">
<path d="M1245 149.914C1245 206.457 1181.51 317.015 1080.4 345.8C975.428 375.683 787.248 388.782 814.705 260.825C834.622 168.001 1079.01 79.9547 1141.28 79.9547C1203.54 79.9547 1245 93.3716 1245 149.914Z" fill="white"/>
</g>
<path opacity="0.2" d="M1293.5 66.5C1271.56 62.4509 1094.99 49.9832 1011 117.5C1011 117.5 992.955 114.535 967.956 180.017C960.393 313.628 1153.5 275.126 1085.5 180.017C1004.94 67.3277 488.987 16.6423 282 393" stroke="#9C1D1F" stroke-opacity="0.7" stroke-width="2" stroke-linejoin="round" stroke-dasharray="8 8"/>
<g filter="url(#filter4_f_1_391)">
<path d="M786.604 118.543C786.604 175.085 724.872 285.644 626.558 314.428C524.495 344.312 341.524 357.411 368.221 229.453C387.587 136.629 625.212 48.583 685.753 48.583C746.295 48.583 786.604 61.9997 786.604 118.543Z" fill="white"/>
</g>
<g filter="url(#filter5_f_1_391)">
<path d="M421.013 404.372C421.013 460.915 359.281 571.474 260.968 600.258C158.904 630.142 -24.0665 643.24 2.6298 515.283C21.9962 422.459 259.621 334.413 320.162 334.413C380.704 334.413 421.013 347.83 421.013 404.372Z" fill="white"/>
</g>
<g opacity="0.8">
<path d="M68.1579 220V226.076" stroke="#D6D6D6"/>
<path d="M105.027 220V226.076" stroke="#D6D6D6"/>
<g opacity="0.9091">
<path style="mix-blend-mode:multiply" d="M176.036 432.233C97.5916 432.233 34 425.915 34 418.12C34 410.325 97.5916 404.006 176.036 404.006C254.481 404.006 318.073 410.325 318.073 418.12C318.073 425.915 254.481 432.233 176.036 432.233Z" fill="url(#paint1_radial_1_391)"/>
</g>
<path d="M83.7873 313.383V408.448C83.7873 411.773 86.5001 414.489 89.8208 414.489H239.462C241.82 414.489 243.847 413.144 244.836 411.189C245.267 410.352 245.495 409.438 245.495 408.448V313.383C245.495 310.057 242.783 307.341 239.462 307.341H89.8208C87.5394 307.341 85.562 308.611 84.5476 310.464C84.0664 311.327 83.7873 312.342 83.7873 313.383Z" fill="#670C11"/>
<path d="M90.476 407.783V314.063H238.774V407.783H90.476Z" fill="#F7F3EB"/>
<path d="M69.4391 411.341H259.843V415.479H69.4391V411.341Z" fill="url(#paint2_linear_1_391)"/>
<path d="M81.151 418.17H248.132L259.843 415.48H69.4391L81.151 418.17Z" fill="url(#paint3_linear_1_391)"/>
<path opacity="0.05" d="M162.55 310.591C162.55 311.759 163.488 312.698 164.654 312.698C165.82 312.698 166.758 311.759 166.758 310.591C166.758 309.424 165.82 308.484 164.654 308.484C163.488 308.484 162.55 309.424 162.55 310.591Z" fill="white"/>
<path d="M163.615 310.591C163.615 311.175 164.071 311.632 164.654 311.632C165.237 311.632 165.694 311.175 165.694 310.591C165.694 310.007 165.237 309.55 164.654 309.55C164.071 309.55 163.615 310.032 163.615 310.591Z" fill="#1F2123"/>
<path opacity="0.18" d="M164.325 310.591C164.325 310.77 164.477 310.896 164.629 310.896C164.781 310.896 164.933 310.744 164.933 310.591C164.933 310.414 164.781 310.287 164.629 310.287C164.477 310.287 164.325 310.414 164.325 310.591Z" fill="white"/>
<path opacity="0.1" d="M84.5228 310.464L244.836 411.189C245.267 410.352 245.495 409.438 245.495 408.448V313.383C245.495 310.057 242.783 307.341 239.462 307.341H89.8208C87.5395 307.341 85.5621 308.611 84.5228 310.464Z" fill="#D19C6E"/>
<path d="M237.941 301.553H266.46L216.343 267.716H202.046L237.941 301.553Z" fill="#9C1D1F"/>
<path d="M209.422 301.553H237.941L202.045 267.716H187.723L209.422 301.553Z" fill="#670C11"/>
<path d="M180.879 301.553H209.423L187.723 267.716H173.4L180.879 301.553Z" fill="#9C1D1F"/>
<path d="M150.864 301.553H180.878L173.4 267.716H159.077L150.864 301.553Z" fill="#670C11"/>
<path d="M122.346 301.553H150.864L159.078 267.716H144.78L122.346 301.553Z" fill="#9C1D1F"/>
<path d="M65.2823 301.553H93.801L130.457 267.716H116.134L65.2823 301.553Z" fill="#9C1D1F"/>
<path d="M93.8003 301.553H122.345L144.779 267.716H130.457L93.8003 301.553Z" fill="#670C11"/>
<path d="M237.941 301.554H266.46V314.347C266.46 316.657 264.584 318.511 262.302 318.511H242.099C239.792 318.511 237.941 316.632 237.941 314.347V301.554Z" fill="#9C1D1F"/>
<path d="M209.422 301.554H237.941V314.347C237.941 316.657 236.065 318.511 233.784 318.511H213.579C211.273 318.511 209.422 316.632 209.422 314.347V301.554Z" fill="#670C11"/>
<path d="M180.879 301.554H209.423V314.347C209.423 316.657 207.547 318.511 205.265 318.511H185.061C182.755 318.511 180.904 316.632 180.904 314.347V301.554H180.879Z" fill="#9C1D1F"/>
<path d="M150.864 301.554H180.878V314.119C180.878 316.53 178.927 318.511 176.493 318.511H155.25C152.841 318.511 150.864 316.556 150.864 314.119V301.554Z" fill="#670C11"/>
<path d="M122.346 301.554H150.864V314.347C150.864 316.657 148.988 318.511 146.707 318.511H126.503C124.196 318.511 122.346 316.632 122.346 314.347V301.554Z" fill="#9C1D1F"/>
<path d="M65.2823 301.554H93.801V314.347C93.801 316.657 91.9249 318.511 89.6436 318.511H69.4397C67.1329 318.511 65.2823 316.632 65.2823 314.347V301.554Z" fill="#9C1D1F"/>
<path d="M93.8009 301.554H122.345V314.347C122.345 316.657 120.47 318.511 118.188 318.511H97.9583C95.6515 318.511 93.8009 316.632 93.8009 314.347V301.554Z" fill="#670C11"/>
<path d="M116.159 267.716H216.368V262.335C216.368 261.421 215.633 260.71 214.746 260.71H117.807C116.895 260.71 116.185 261.447 116.185 262.335V267.716H116.159Z" fill="#E26567"/>
<path d="M187.242 386.769H216.445C220.095 386.769 223.061 383.799 223.061 380.144C223.061 376.488 220.095 373.518 216.445 373.518H187.242C183.591 373.518 180.625 376.488 180.625 380.144C180.651 383.825 183.591 386.769 187.242 386.769Z" fill="#FFD1B7"/>
<g opacity="0.4">
<path d="M177.075 338.514H226.584V341.001H177.075V338.514Z" fill="#606060"/>
<path d="M177.075 346.916H226.584V349.404H177.075V346.916Z" fill="#606060"/>
<path d="M177.075 355.343H226.584V357.831H177.075V355.343Z" fill="#606060"/>
<path d="M177.075 363.77H226.584V366.258H177.075V363.77Z" fill="#606060"/>
</g>
<path d="M97.7552 331.255H164.958V389.131H97.7552V331.255Z" fill="#D59877"/>
<path d="M141.612 372.174L143.894 372.199" stroke="white" stroke-width="1.8533" stroke-miterlimit="10"/>
<path d="M119.153 371.844L121.434 371.895" stroke="white" stroke-width="1.8533" stroke-miterlimit="10"/>
<path d="M126.046 371.946C126.021 373.216 124.981 374.231 123.714 374.205C122.446 374.18 121.432 373.139 121.458 371.87C121.483 370.601 122.523 369.586 123.79 369.586C125.032 369.636 126.046 370.677 126.046 371.946Z" stroke="white" stroke-width="1.8533" stroke-miterlimit="10"/>
<path d="M141.611 372.174C141.585 373.443 140.546 374.459 139.279 374.433C138.011 374.408 136.997 373.367 137.023 372.098C137.048 370.829 138.088 369.814 139.355 369.814C140.597 369.838 141.636 370.905 141.611 372.174Z" stroke="white" stroke-width="1.8533" stroke-miterlimit="10"/>
<path d="M101.711 348.008L111.927 348.16L118.822 367.249L144.325 367.605" stroke="white" stroke-width="1.8533" stroke-miterlimit="10"/>
<path d="M126.047 371.944L136.998 372.097" stroke="white" stroke-width="1.8533" stroke-miterlimit="10"/>
<path d="M115.832 349.709H116.364L145.187 350.115L141.511 364.685L121.181 364.406L115.832 349.709Z" stroke="white" stroke-width="1.8533" stroke-miterlimit="10"/>
<path d="M117.657 354.708L143.844 355.064" stroke="white" stroke-width="1.8533" stroke-miterlimit="10"/>
<path d="M119.406 359.507L142.754 359.836" stroke="white" stroke-width="1.8533" stroke-miterlimit="10"/>
<path d="M139.129 350.039L136.747 364.609" stroke="white" stroke-width="1.8533" stroke-miterlimit="10"/>
<path d="M122.778 349.81L125.87 364.456" stroke="white" stroke-width="1.8533" stroke-miterlimit="10"/>
<path d="M131.473 349.912L131.27 364.533" stroke="white" stroke-width="1.8533" stroke-miterlimit="10"/>
<path opacity="0.5" d="M132.23 428.273C121.52 428.273 112.837 409.248 112.837 385.779C112.837 362.311 121.52 343.286 132.23 343.286C142.941 343.286 151.623 362.311 151.623 385.779C151.623 409.248 142.941 428.273 132.23 428.273Z" fill="url(#paint4_radial_1_391)"/>
<path opacity="0.5" d="M148.556 408.22C162.093 427.385 180.168 437.869 188.914 431.676C197.659 425.482 193.755 404.92 180.218 385.78C166.681 366.641 148.607 356.131 139.861 362.325C131.116 368.519 135.019 389.055 148.556 408.22Z" fill="url(#paint5_radial_1_391)"/>
<path opacity="0.5" d="M67.2088 434.62C67.2088 432.081 87.1342 430.05 111.724 430.05C136.313 430.05 156.238 432.106 156.238 434.62C156.238 434.925 155.934 435.229 155.376 435.508C156.846 435.559 158.317 435.61 159.737 435.66C162.525 433.452 178.495 431.776 197.762 431.776C219.005 431.776 236.218 433.833 236.218 436.346C236.218 438.884 219.005 440.915 197.762 440.915C194.01 440.915 190.384 440.839 186.962 440.737C183.16 442.87 165.009 444.494 143.183 444.494C118.593 444.494 98.6683 442.438 98.6683 439.925C98.6683 439.62 98.9723 439.316 99.5299 439.036C80.8726 438.478 67.2088 436.701 67.2088 434.62Z" fill="url(#paint6_radial_1_391)"/>
<path d="M137.582 394.766H217.611V436.117H137.582V394.766Z" fill="url(#paint7_linear_1_391)"/>
<path opacity="0.6" d="M172.565 408.854L173.072 407.204L173.655 408.854L174.263 407.204L174.897 408.854L175.531 407.204L176.164 408.854L176.849 407.204L177.483 408.854L178.04 407.204L178.623 408.854L179.232 407.204L179.891 408.854L180.474 407.204L181.108 408.854L181.741 407.204L182.375 408.854V394.766H172.565V408.854Z" fill="#BCBCBC"/>
<g opacity="0.5">
<path d="M203.29 399.868H213.481V410.072H203.29V399.868Z" stroke="#A86B3C" stroke-width="0.6049" stroke-miterlimit="10"/>
<path d="M208.386 406.341C209.172 406.341 209.907 405.757 209.983 404.97L210.389 401.543H206.358L206.764 404.97C206.865 405.757 207.575 406.341 208.386 406.341Z" fill="#A86B3C"/>
<path d="M207.93 407.915H208.817L208.488 405.631H208.284L207.93 407.915Z" fill="#A86B3C"/>
<path d="M206.789 408.423H209.984L208.818 407.915H207.93L206.789 408.423Z" fill="#A86B3C"/>
</g>
<g opacity="0.5">
<path d="M189.221 399.892H199.411V410.098H189.221V399.892Z" stroke="#A86B3C" stroke-width="0.6049" stroke-miterlimit="10"/>
<path d="M190.917 405.654C191.195 404.03 192.615 402.786 194.339 402.786C196.063 402.786 197.457 404.03 197.761 405.654H190.917Z" fill="#A86B3C"/>
<path d="M194.135 405.097V408.016" stroke="#A86B3C" stroke-width="0.4598" stroke-miterlimit="10" stroke-linecap="round" stroke-linejoin="round"/>
<path d="M194.135 408.016C194.135 408.397 194.44 408.727 194.845 408.727C195.226 408.727 195.555 408.422 195.555 408.016" stroke="#A86B3C" stroke-width="0.4598" stroke-miterlimit="10" stroke-linecap="round" stroke-linejoin="round"/>
<path d="M195.912 402.28C195.912 402.483 196.065 402.635 196.267 402.635C196.47 402.635 196.622 402.483 196.622 402.28C196.622 402.076 196.267 401.289 196.267 401.289C196.267 401.289 195.912 402.102 195.912 402.28Z" fill="#A86B3C"/>
<path d="M191.982 402.432C191.982 402.635 192.134 402.787 192.337 402.787C192.54 402.787 192.692 402.635 192.692 402.432C192.692 402.228 192.337 401.441 192.337 401.441C192.337 401.441 191.982 402.254 191.982 402.432Z" fill="#A86B3C"/>
<path d="M193.959 401.772C193.959 401.975 194.111 402.127 194.314 402.127C194.517 402.127 194.669 401.975 194.669 401.772C194.669 401.568 194.314 400.781 194.314 400.781C194.314 400.781 193.959 401.568 193.959 401.772Z" fill="#A86B3C"/>
</g>
<mask id="mask2_1_391" style="mask-type:luminance" maskUnits="userSpaceOnUse" x="137" y="394" width="81" height="43">
<g opacity="0.8">
<g opacity="0.8">
<path d="M137.581 394.766H217.611V436.117H137.581V394.766Z" fill="white"/>
</g>
</g>
</mask>
<g mask="url(#mask2_1_391)">
<path opacity="0.4" d="M223.492 395.197C223.492 395.832 206.634 396.34 185.822 396.34C165.01 396.34 148.152 395.832 148.152 395.197C148.152 394.563 165.01 394.055 185.822 394.055C206.609 394.055 223.492 394.563 223.492 395.197Z" fill="url(#paint8_radial_1_391)"/>
</g>
<path d="M68.0449 358.848H127.922V434.468H68.0449V358.848Z" fill="url(#paint9_linear_1_391)"/>
<path d="M108.376 385.704H166.808V439.164H108.376V385.704Z" fill="url(#paint10_linear_1_391)"/>
<path d="M129.164 414.362H145.97C148.176 414.362 149.976 412.56 149.976 410.351V411.291C149.976 413.499 148.176 415.302 145.97 415.302H129.164C126.958 415.302 125.158 413.499 125.158 411.291V410.351C125.158 412.586 126.958 414.362 129.164 414.362Z" fill="#898989"/>
<path opacity="0.2" d="M149.95 410.351V411.291C149.95 413.499 148.15 415.302 145.944 415.302H129.138C126.932 415.302 125.132 413.499 125.132 411.291V410.351H149.95Z" fill="url(#paint11_linear_1_391)"/>
<path opacity="0.5" d="M129.899 403.981L130.684 401.849L131.597 403.981L132.535 401.849L133.524 403.981L134.512 401.849L135.527 403.981L136.591 401.849L137.554 403.981L138.441 401.849L139.379 403.981L140.317 401.849L141.331 403.981L142.244 401.849L143.207 403.981L144.221 401.849L145.236 403.981V385.755H129.899V403.981Z" fill="#F1F1F1"/>
<g opacity="0.5">
<path d="M151.902 422.816H160.521V431.447H151.902V422.816Z" stroke="#A86B3C" stroke-width="0.5114" stroke-miterlimit="10"/>
<path d="M157.199 425.229H158.111V429.163H157.199V425.229Z" fill="#A86B3C"/>
<path d="M157.655 424.568L158.543 425.532H156.768L157.655 424.568L158.543 425.532H156.768L157.655 424.568Z" fill="#A86B3C"/>
<path d="M154.362 425.229H155.275V429.163H154.362V425.229Z" fill="#A86B3C"/>
<path d="M154.792 424.568L155.68 425.532H153.905L154.792 424.568L155.68 425.532H153.905L154.792 424.568Z" fill="#A86B3C"/>
<path d="M153.068 429.568H159.406V430.102H153.068V429.568Z" fill="#A86B3C"/>
</g>
<g opacity="0.5">
<path d="M140.037 422.866H148.657V431.496H140.037V422.866Z" stroke="#A86B3C" stroke-width="0.5114" stroke-miterlimit="10"/>
<path d="M144.347 428.349C145.032 428.349 145.615 427.866 145.716 427.181L146.046 424.288H142.649L142.979 427.181C143.054 427.842 143.663 428.349 144.347 428.349Z" fill="#A86B3C"/>
<path d="M143.967 429.669H144.703L144.424 427.74H144.246L143.967 429.669Z" fill="#A86B3C"/>
<path d="M143.005 430.1H145.692L144.703 429.668H143.968L143.005 430.1Z" fill="#A86B3C"/>
</g>
<g opacity="0.5">
<path d="M128.148 422.892H136.768V431.523H128.148V422.892Z" stroke="#A86B3C" stroke-width="0.5114" stroke-miterlimit="10"/>
<path d="M129.568 427.766C129.822 426.395 131.014 425.33 132.458 425.33C133.903 425.33 135.095 426.371 135.348 427.766H129.568Z" fill="#A86B3C"/>
<path d="M132.28 427.309V429.771" stroke="#A86B3C" stroke-width="0.3887" stroke-miterlimit="10" stroke-linecap="round" stroke-linejoin="round"/>
<path d="M132.28 429.77C132.28 430.1 132.534 430.354 132.863 430.354C133.193 430.354 133.446 430.1 133.446 429.77" stroke="#A86B3C" stroke-width="0.3887" stroke-miterlimit="10" stroke-linecap="round" stroke-linejoin="round"/>
<path d="M133.802 424.924C133.802 425.076 133.928 425.228 134.106 425.228C134.258 425.228 134.41 425.101 134.41 424.924C134.41 424.771 134.106 424.086 134.106 424.086C134.106 424.086 133.802 424.771 133.802 424.924Z" fill="#A86B3C"/>
<path d="M130.456 425.051C130.456 425.203 130.583 425.355 130.76 425.355C130.913 425.355 131.065 425.228 131.065 425.051C131.065 424.898 130.76 424.213 130.76 424.213C130.76 424.213 130.456 424.898 130.456 425.051Z" fill="#A86B3C"/>
<path d="M132.154 424.492C132.154 424.644 132.28 424.796 132.458 424.796C132.61 424.796 132.762 424.669 132.762 424.492C132.762 424.339 132.458 423.654 132.458 423.654C132.458 423.654 132.154 424.314 132.154 424.492Z" fill="#A86B3C"/>
</g>
<path d="M92.2035 366.844H121.103V375.551H92.2035V366.844Z" fill="#FFDEBB"/>
<path d="M117.224 368.774H118.694V374.18H117.224V368.774Z" fill="#A86B3C"/>
<path d="M116.008 368.774H116.743V374.18H116.008V368.774Z" fill="#A86B3C"/>
<path d="M108.732 368.774H109.112V374.18H108.732V368.774Z" fill="#A86B3C"/>
<path d="M104.067 368.774H104.447V374.18H104.067V368.774Z" fill="#A86B3C"/>
<path d="M102.649 368.774H103.029V374.18H102.649V368.774Z" fill="#A86B3C"/>
<path d="M111.648 368.774H112.383V374.18H111.648V368.774Z" fill="#A86B3C"/>
<path d="M109.974 368.774H111.216V374.18H109.974V368.774Z" fill="#A86B3C"/>
<path d="M114.689 368.774H115.07V374.18H114.689V368.774Z" fill="#A86B3C"/>
<path d="M113.828 368.774H114.208V374.18H113.828V368.774Z" fill="#A86B3C"/>
<path d="M112.991 368.774H113.371V374.18H112.991V368.774Z" fill="#A86B3C"/>
<path d="M104.753 368.774H105.487V374.18H104.753V368.774Z" fill="#A86B3C"/>
<path d="M101.253 368.774H101.988V374.18H101.253V368.774Z" fill="#A86B3C"/>
<path d="M106.095 368.774H106.476V374.18H106.095V368.774Z" fill="#A86B3C"/>
<path d="M106.805 368.774H108.124V374.18H106.805V368.774Z" fill="#A86B3C"/>
<path d="M99.3272 368.774H100.646V374.18H99.3272V368.774Z" fill="#A86B3C"/>
<path opacity="0.4" d="M130.457 359.025C130.457 359.66 116.388 360.168 99.0487 360.168C81.7092 360.168 67.6395 359.66 67.6395 359.025C67.6395 358.39 81.7092 357.883 99.0487 357.883C116.388 357.883 130.457 358.39 130.457 359.025Z" fill="url(#paint12_radial_1_391)"/>
<path opacity="0.4" d="M168.938 386.16C168.938 386.795 154.869 387.302 137.53 387.302C120.19 387.302 106.121 386.795 106.121 386.16C106.121 385.525 120.19 385.017 137.53 385.017C154.869 384.992 168.938 385.525 168.938 386.16Z" fill="url(#paint13_radial_1_391)"/>
<g opacity="0.1">
<path d="M116.159 279.869H216.368V274.487C216.368 273.574 215.633 272.863 214.745 272.863H117.807C116.894 272.863 116.184 273.599 116.184 274.487V279.869H116.159Z" fill="#7D3319"/>
</g>
</g>
<path opacity="0.3" d="M184 382.039C184 381.926 184.011 381.807 184.033 381.68C184.06 381.549 184.099 381.409 184.149 381.264C184.204 381.113 184.271 380.956 184.348 380.792L184.945 380.989C184.889 381.12 184.84 381.245 184.796 381.363C184.757 381.48 184.727 381.591 184.705 381.694C184.688 381.797 184.68 381.896 184.68 381.99C184.68 382.234 184.755 382.436 184.904 382.596C185.053 382.756 185.257 382.875 185.517 382.955C185.777 383.036 186.07 383.075 186.396 383.075C186.766 383.075 187.076 383.033 187.325 382.948C187.579 382.864 187.781 382.751 187.93 382.61C188.08 382.474 188.184 382.321 188.245 382.153C188.312 381.983 188.345 381.816 188.345 381.652C188.345 381.473 188.303 381.258 188.22 381.004C188.143 380.75 187.997 380.435 187.781 380.059L188.403 379.792C188.513 379.97 188.612 380.157 188.701 380.355C188.795 380.548 188.869 380.747 188.925 380.954C188.986 381.156 189.016 381.363 189.016 381.574C189.016 381.757 188.989 381.945 188.934 382.138C188.884 382.331 188.798 382.516 188.677 382.695C188.554 382.878 188.392 383.04 188.187 383.181C187.988 383.326 187.74 383.442 187.441 383.526C187.148 383.611 186.797 383.653 186.388 383.653C186.067 383.653 185.76 383.621 185.468 383.555C185.18 383.494 184.926 383.397 184.705 383.266C184.489 383.134 184.317 382.968 184.191 382.766C184.063 382.564 184 382.321 184 382.039ZM186.504 379.227C186.388 379.227 186.289 379.194 186.206 379.128C186.128 379.058 186.089 378.976 186.089 378.882C186.089 378.788 186.128 378.706 186.206 378.635C186.289 378.565 186.388 378.529 186.504 378.529C186.614 378.529 186.708 378.565 186.786 378.635C186.869 378.706 186.91 378.788 186.91 378.882C186.91 378.976 186.869 379.058 186.786 379.128C186.708 379.194 186.614 379.227 186.504 379.227ZM192.686 378.255C192.686 378.151 192.678 378.026 192.661 377.881C192.644 377.736 192.625 377.589 192.603 377.444C192.581 377.299 192.559 377.174 192.537 377.071L193.25 377C193.266 377.094 193.283 377.218 193.299 377.374C193.321 377.524 193.338 377.675 193.349 377.825C193.361 377.976 193.366 378.099 193.366 378.198C193.366 378.424 193.346 378.645 193.308 378.861C193.275 379.072 193.22 379.281 193.142 379.488C193.064 379.69 192.963 379.887 192.835 380.08L192.736 380.235C192.581 380.456 192.39 380.67 192.164 380.877C191.937 381.079 191.671 381.271 191.368 381.454H192.412C192.6 381.454 192.744 381.436 192.843 381.398C192.943 381.356 193.009 381.302 193.042 381.236C193.081 381.17 193.101 381.099 193.101 381.024C193.101 380.897 193.009 380.74 192.827 380.552C192.65 380.359 192.404 380.148 192.089 379.918C191.774 379.683 191.417 379.437 191.019 379.178C190.621 378.92 190.201 378.656 189.759 378.388L190.149 377.923C190.657 378.243 191.105 378.532 191.492 378.79C191.885 379.048 192.219 379.286 192.495 379.502C192.777 379.713 193.006 379.911 193.183 380.094C193.366 380.273 193.499 380.444 193.581 380.609C193.67 380.769 193.714 380.926 193.714 381.081C193.714 381.184 193.692 381.292 193.648 381.405C193.609 381.513 193.537 381.616 193.432 381.715C193.333 381.809 193.189 381.887 193.001 381.948C192.819 382.004 192.581 382.032 192.288 382.032H190.381V381.461C190.95 381.113 191.401 380.775 191.732 380.446C192.069 380.118 192.313 379.774 192.462 379.417C192.611 379.061 192.686 378.673 192.686 378.255ZM195.016 382.032L194.85 377H195.522L195.688 382.032H195.016ZM198.632 382.039C198.632 381.926 198.642 381.807 198.665 381.68C198.692 381.549 198.731 381.409 198.781 381.264C198.836 381.113 198.902 380.956 198.98 380.792L199.577 380.989C199.521 381.12 199.472 381.245 199.428 381.363C199.389 381.48 199.358 381.591 199.337 381.694C199.32 381.797 199.312 381.896 199.312 381.99C199.312 382.173 199.355 382.333 199.444 382.469C199.538 382.606 199.668 382.718 199.834 382.807C200 382.902 200.193 382.972 200.415 383.019C200.635 383.066 200.873 383.089 201.128 383.089C201.526 383.089 201.874 383.052 202.172 382.977C202.471 382.906 202.72 382.815 202.919 382.702C203.118 382.59 203.264 382.472 203.358 382.349C203.458 382.227 203.507 382.12 203.507 382.026C203.507 381.96 203.46 381.901 203.366 381.849C203.272 381.797 203.151 381.748 203.002 381.701C202.852 381.654 202.695 381.605 202.529 381.554C202.363 381.497 202.206 381.431 202.056 381.356C201.907 381.281 201.785 381.191 201.691 381.088C201.597 380.979 201.551 380.853 201.551 380.707C201.551 380.514 201.606 380.324 201.716 380.136C201.832 379.943 201.987 379.767 202.181 379.608C202.38 379.448 202.601 379.321 202.844 379.227C203.087 379.128 203.339 379.079 203.599 379.079C203.831 379.079 204.03 379.107 204.196 379.164C204.361 379.216 204.48 379.265 204.552 379.312L204.278 379.812C204.184 379.774 204.079 379.739 203.963 379.706C203.847 379.674 203.725 379.657 203.599 379.657C203.438 379.657 203.275 379.685 203.109 379.742C202.949 379.798 202.8 379.873 202.662 379.967C202.529 380.061 202.421 380.164 202.338 380.277C202.255 380.39 202.214 380.503 202.214 380.616C202.214 380.696 202.261 380.768 202.355 380.834C202.454 380.9 202.581 380.961 202.736 381.017C202.891 381.074 203.054 381.133 203.225 381.193C203.402 381.25 203.568 381.313 203.723 381.384C203.877 381.45 204.002 381.528 204.096 381.617C204.196 381.706 204.245 381.811 204.245 381.934C204.245 382.107 204.176 382.296 204.038 382.498C203.899 382.7 203.695 382.888 203.424 383.061C203.153 383.24 202.821 383.385 202.429 383.498C202.042 383.611 201.594 383.667 201.086 383.667C200.738 383.667 200.415 383.635 200.116 383.569C199.823 383.503 199.563 383.402 199.337 383.266C199.115 383.134 198.941 382.965 198.814 382.758C198.692 382.556 198.632 382.317 198.632 382.039ZM201.932 385C201.816 385 201.716 384.964 201.633 384.894C201.556 384.828 201.517 384.748 201.517 384.654C201.517 384.56 201.556 384.478 201.633 384.407C201.716 384.337 201.816 384.302 201.932 384.302C202.042 384.302 202.136 384.337 202.214 384.407C202.297 384.478 202.338 384.56 202.338 384.654C202.338 384.748 202.297 384.828 202.214 384.894C202.136 384.964 202.042 385 201.932 385ZM200.796 385C200.68 385 200.58 384.964 200.497 384.894C200.42 384.828 200.381 384.748 200.381 384.654C200.381 384.56 200.42 384.478 200.497 384.407C200.58 384.337 200.68 384.302 200.796 384.302C200.906 384.302 201 384.337 201.078 384.407C201.161 384.478 201.202 384.56 201.202 384.654C201.202 384.748 201.161 384.828 201.078 384.894C201 384.964 200.906 385 200.796 385ZM204.716 383.667L204.475 383.132C204.879 383.019 205.213 382.889 205.479 382.744C205.75 382.599 205.962 382.444 206.117 382.279C206.278 382.114 206.391 381.948 206.457 381.778C206.523 381.605 206.556 381.438 206.556 381.278C206.556 381.048 206.496 380.815 206.374 380.58C206.258 380.341 206.128 380.115 205.984 379.904L206.59 379.643C206.695 379.808 206.786 379.97 206.863 380.129C206.946 380.289 207.018 380.439 207.079 380.58C207.145 380.721 207.198 380.851 207.236 380.968C207.314 381.17 207.413 381.309 207.535 381.384C207.662 381.454 207.833 381.49 208.049 381.49C208.165 381.49 208.248 381.518 208.298 381.574C208.353 381.626 208.381 381.689 208.381 381.764C208.381 381.839 208.342 381.91 208.265 381.976C208.188 382.037 208.088 382.067 207.966 382.067C207.723 382.067 207.524 382.033 207.369 381.962C207.22 381.887 207.107 381.79 207.029 381.673C206.952 381.55 206.899 381.423 206.872 381.292L207.137 381.419C207.137 381.729 207.054 382.011 206.888 382.265C206.728 382.523 206.521 382.747 206.266 382.934C206.012 383.127 205.747 383.284 205.47 383.407C205.194 383.529 204.943 383.615 204.716 383.667ZM207.971 382.067L208.053 381.49C208.329 381.49 208.545 381.473 208.7 381.44C208.855 381.402 208.971 381.334 209.048 381.236C209.131 381.133 209.198 380.985 209.247 380.792C209.297 380.599 209.358 380.348 209.43 380.038L210.077 380.143C210.054 380.228 210.029 380.322 210.002 380.425C209.974 380.528 209.949 380.633 209.927 380.736C209.911 380.835 209.902 380.921 209.902 380.996C209.902 381.067 209.908 381.133 209.919 381.193C209.93 381.254 209.971 381.307 210.043 381.349C210.115 381.391 210.236 381.426 210.408 381.454C210.579 381.478 210.825 381.49 211.146 381.49C211.262 381.49 211.345 381.518 211.395 381.574C211.45 381.626 211.478 381.689 211.478 381.764C211.478 381.839 211.439 381.91 211.362 381.976C211.284 382.037 211.185 382.067 211.063 382.067C210.726 382.067 210.458 382.054 210.259 382.026C210.06 381.993 209.908 381.946 209.803 381.885C209.704 381.824 209.631 381.748 209.587 381.659C209.548 381.564 209.518 381.457 209.496 381.334L209.745 381.349C209.656 381.5 209.56 381.621 209.455 381.715C209.355 381.809 209.239 381.882 209.106 381.934C208.974 381.985 208.813 382.021 208.626 382.039C208.443 382.058 208.225 382.067 207.971 382.067ZM210.184 379.312C210.068 379.312 209.969 379.279 209.886 379.213C209.808 379.143 209.77 379.061 209.77 378.966C209.77 378.872 209.808 378.79 209.886 378.72C209.969 378.649 210.068 378.614 210.184 378.614C210.294 378.614 210.389 378.649 210.466 378.72C210.549 378.79 210.591 378.872 210.591 378.966C210.591 379.061 210.549 379.143 210.466 379.213C210.389 379.279 210.294 379.312 210.184 379.312ZM209.048 379.312C208.932 379.312 208.833 379.279 208.75 379.213C208.672 379.143 208.634 379.061 208.634 378.966C208.634 378.872 208.672 378.79 208.75 378.72C208.833 378.649 208.932 378.614 209.048 378.614C209.159 378.614 209.253 378.649 209.33 378.72C209.413 378.79 209.455 378.872 209.455 378.966C209.455 379.061 209.413 379.143 209.33 379.213C209.253 379.279 209.159 379.312 209.048 379.312ZM211.063 382.067L211.146 381.49C211.323 381.49 211.467 381.48 211.577 381.461C211.688 381.438 211.779 381.384 211.851 381.299C211.929 381.21 212 381.071 212.067 380.883C212.133 380.696 212.211 380.432 212.299 380.094L212.921 380.242C212.899 380.322 212.874 380.414 212.846 380.517C212.818 380.616 212.793 380.719 212.771 380.827C212.75 380.93 212.738 381.027 212.738 381.116C212.738 381.233 212.791 381.325 212.896 381.391C213.001 381.457 213.191 381.49 213.468 381.49C213.634 381.49 213.769 381.478 213.874 381.454C213.979 381.431 214.065 381.375 214.131 381.286C214.203 381.197 214.267 381.053 214.322 380.855C214.377 380.658 214.435 380.387 214.496 380.045L215.126 380.143C215.11 380.228 215.09 380.331 215.068 380.453C215.046 380.576 215.024 380.698 215.002 380.82C214.985 380.937 214.977 381.036 214.977 381.116C214.977 381.182 214.994 381.245 215.027 381.306C215.065 381.363 215.138 381.407 215.242 381.44C215.353 381.473 215.516 381.49 215.732 381.49C215.892 381.49 216.03 381.473 216.146 381.44C216.268 381.407 216.359 381.346 216.42 381.257C216.486 381.168 216.519 381.043 216.519 380.883C216.519 380.705 216.47 380.482 216.37 380.214C216.276 379.942 216.168 379.671 216.047 379.403L216.718 379.192C216.79 379.342 216.856 379.514 216.917 379.706C216.984 379.899 217.039 380.09 217.083 380.277C217.128 380.465 217.149 380.63 217.149 380.771C217.149 380.987 217.116 381.177 217.05 381.341C216.984 381.506 216.889 381.642 216.768 381.75C216.647 381.853 216.497 381.933 216.32 381.99C216.143 382.042 215.944 382.067 215.723 382.067C215.463 382.067 215.251 382.042 215.085 381.99C214.919 381.938 214.792 381.861 214.703 381.758C214.615 381.65 214.557 381.514 214.529 381.349H214.811C214.706 381.551 214.596 381.703 214.48 381.807C214.363 381.91 214.219 381.98 214.048 382.018C213.877 382.051 213.65 382.067 213.368 382.067C213.231 382.067 213.081 382.049 212.921 382.011C212.766 381.973 212.63 381.901 212.514 381.793C212.398 381.68 212.329 381.513 212.307 381.292L212.556 381.25C212.462 381.489 212.346 381.668 212.208 381.785C212.075 381.898 211.914 381.973 211.727 382.011C211.539 382.049 211.317 382.067 211.063 382.067ZM214.637 378.191C214.521 378.191 214.421 378.159 214.339 378.093C214.261 378.023 214.222 377.94 214.222 377.846C214.222 377.752 214.261 377.67 214.339 377.599C214.421 377.529 214.521 377.493 214.637 377.493C214.748 377.493 214.841 377.529 214.919 377.599C215.002 377.67 215.043 377.752 215.043 377.846C215.043 377.94 215.002 378.023 214.919 378.093C214.841 378.159 214.748 378.191 214.637 378.191ZM214.073 378.966C213.957 378.966 213.858 378.934 213.775 378.868C213.697 378.797 213.659 378.715 213.659 378.621C213.659 378.527 213.697 378.445 213.775 378.374C213.858 378.304 213.957 378.269 214.073 378.269C214.184 378.269 214.278 378.304 214.355 378.374C214.438 378.445 214.48 378.527 214.48 378.621C214.48 378.715 214.438 378.797 214.355 378.868C214.278 378.934 214.184 378.966 214.073 378.966ZM215.201 378.966C215.085 378.966 214.985 378.934 214.902 378.868C214.825 378.797 214.786 378.715 214.786 378.621C214.786 378.527 214.825 378.445 214.902 378.374C214.985 378.304 215.085 378.269 215.201 378.269C215.312 378.269 215.405 378.304 215.483 378.374C215.566 378.445 215.607 378.527 215.607 378.621C215.607 378.715 215.566 378.797 215.483 378.868C215.405 378.934 215.312 378.966 215.201 378.966ZM218.328 382.032L218.163 377H218.834L219 382.032H218.328Z" fill="black"/>
<path opacity="0.1" d="M391.903 384H276C268.268 384 262 389.075 262 395.336C262 401.597 268.268 406.672 276 406.672H391.903C399.635 406.672 405.903 401.597 405.903 395.336C405.903 389.075 399.635 384 391.903 384Z" fill="#FF9A60"/>
<path d="M281.723 402.194C287.093 402.194 291.446 398.569 291.446 394.097C291.446 389.625 287.093 386 281.723 386C276.353 386 272 389.625 272 394.097C272 398.569 276.353 402.194 281.723 402.194Z" fill="#FF9A60"/>
<path d="M316 398.503C316.4 398.503 316.712 398.467 316.936 398.396C317.168 398.331 317.332 398.228 317.428 398.086C317.532 397.943 317.584 397.761 317.584 397.541V392.381H319.18V397.541C319.18 398.027 319.064 398.444 318.832 398.794C318.6 399.144 318.268 399.416 317.836 399.61C317.412 399.805 316.9 399.912 316.3 399.931L316 398.503ZM320.779 397.249V389H322.387V397.249H320.779ZM328.581 397.249V395.753H330.885V397.249H328.581ZM330.885 397.249V395.753C330.965 395.753 331.025 395.821 331.065 395.957C331.105 396.093 331.125 396.271 331.125 396.491C331.125 396.718 331.105 396.903 331.065 397.045C331.025 397.181 330.965 397.249 330.885 397.249ZM328.353 397.249C328.345 396.556 328.193 395.941 327.897 395.403C327.609 394.866 327.193 394.419 326.649 394.062C326.105 393.7 325.449 393.444 324.681 393.295L325.029 391.877C326.037 392.065 326.905 392.407 327.633 392.906C328.361 393.405 328.925 394.023 329.325 394.762C329.733 395.5 329.941 396.33 329.949 397.249H328.353ZM323.733 397.249V395.753H329.469V397.249H323.733ZM330.883 397.249V395.753H332.527V389H334.135V397.249H330.883ZM330.883 397.249C330.803 397.249 330.743 397.181 330.703 397.045C330.663 396.909 330.643 396.725 330.643 396.491C330.643 396.265 330.663 396.087 330.703 395.957C330.743 395.821 330.803 395.753 330.883 395.753V397.249ZM335.721 397.249V389H337.329V397.249H335.721ZM345.821 397.249C345.181 397.249 344.625 397.175 344.153 397.026C343.681 396.877 343.289 396.676 342.977 396.423C342.673 396.171 342.445 395.883 342.293 395.559C342.149 395.235 342.077 394.895 342.077 394.538C342.077 394.208 342.137 393.878 342.257 393.547C342.377 393.217 342.557 392.903 342.797 392.605L344.069 393.071C343.925 393.311 343.817 393.538 343.745 393.751C343.673 393.965 343.637 394.169 343.637 394.364C343.637 394.655 343.717 394.908 343.877 395.121C344.037 395.329 344.277 395.487 344.597 395.598C344.917 395.701 345.317 395.753 345.797 395.753H350.609V392.381H352.217V397.249H345.821ZM347.141 399.999C346.869 399.999 346.641 399.925 346.457 399.776C346.273 399.627 346.181 399.442 346.181 399.222C346.181 398.995 346.273 398.807 346.457 398.658C346.641 398.516 346.869 398.445 347.141 398.445C347.421 398.445 347.649 398.516 347.825 398.658C348.009 398.807 348.101 398.995 348.101 399.222C348.101 399.442 348.009 399.627 347.825 399.776C347.649 399.925 347.421 399.999 347.141 399.999ZM355.48 397.249V395.753H356.896V397.249H355.48ZM353.92 397.249V389H355.528V397.249H353.92ZM356.896 397.249V395.753C356.976 395.753 357.036 395.821 357.076 395.957C357.116 396.093 357.136 396.271 357.136 396.491C357.136 396.718 357.116 396.903 357.076 397.045C357.036 397.181 356.976 397.249 356.896 397.249ZM358.662 392.381H360.258V397.249H356.898V395.753H358.662V392.381ZM356.898 397.249C356.818 397.249 356.758 397.181 356.718 397.045C356.678 396.909 356.658 396.725 356.658 396.491C356.658 396.265 356.678 396.087 356.718 395.957C356.758 395.821 356.818 395.753 356.898 395.753V397.249ZM358.878 399.999C358.606 399.999 358.378 399.925 358.194 399.776C358.01 399.627 357.918 399.442 357.918 399.222C357.918 398.995 358.01 398.807 358.194 398.658C358.378 398.516 358.606 398.445 358.878 398.445C359.158 398.445 359.386 398.516 359.562 398.658C359.746 398.807 359.838 398.995 359.838 399.222C359.838 399.442 359.746 399.627 359.562 399.776C359.386 399.925 359.158 399.999 358.878 399.999ZM369.969 400.504C368.865 400.504 367.921 400.362 367.137 400.077C366.361 399.798 365.765 399.387 365.349 398.843C364.933 398.305 364.725 397.649 364.725 396.871C364.725 396.657 364.741 396.44 364.773 396.219C364.805 395.993 364.853 395.76 364.917 395.521L366.393 395.753C366.353 395.986 366.321 396.187 366.297 396.355C366.281 396.524 366.273 396.676 366.273 396.812C366.273 397.564 366.569 398.117 367.161 398.474C367.761 398.836 368.681 399.018 369.921 399.018C370.657 399.018 371.277 398.963 371.781 398.853C372.285 398.749 372.669 398.61 372.933 398.435C373.197 398.266 373.329 398.088 373.329 397.9C373.329 397.771 373.269 397.661 373.149 397.57C373.029 397.479 372.837 397.385 372.573 397.288C372.317 397.198 371.989 397.091 371.589 396.968L372.057 395.675C372.377 395.772 372.705 395.883 373.041 396.006C373.385 396.122 373.697 396.268 373.977 396.443C374.265 396.611 374.497 396.815 374.673 397.055C374.849 397.288 374.937 397.57 374.937 397.9C374.937 398.192 374.861 398.467 374.709 398.726C374.565 398.985 374.353 399.223 374.073 399.436C373.793 399.657 373.449 399.844 373.041 399.999C372.641 400.161 372.181 400.284 371.661 400.368C371.149 400.459 370.585 400.504 369.969 400.504ZM373.461 397.249C372.261 397.249 371.353 397.006 370.737 396.521L371.853 395.461C371.917 395.507 372.025 395.552 372.177 395.598C372.337 395.643 372.529 395.682 372.753 395.714C372.977 395.74 373.213 395.753 373.461 395.753H374.985V397.249H373.461ZM374.985 397.249V395.753C375.065 395.753 375.125 395.821 375.165 395.957C375.205 396.093 375.225 396.271 375.225 396.491C375.225 396.718 375.205 396.903 375.165 397.045C375.125 397.181 375.065 397.249 374.985 397.249ZM374.98 397.249V395.753H376.624V389H378.232V397.249H374.98ZM374.98 397.249C374.9 397.249 374.84 397.181 374.8 397.045C374.76 396.909 374.74 396.725 374.74 396.491C374.74 396.265 374.76 396.087 374.8 395.957C374.84 395.821 374.9 395.753 374.98 395.753V397.249ZM379.818 397.249V389H381.426V397.249H379.818Z" fill="#666666"/>
</g>
</g>
</g>
<defs>
<filter id="filter0_f_1_391" x="-421" y="-444.689" width="1433" height="1231.47" filterUnits="userSpaceOnUse" color-interpolation-filters="sRGB">
<feFlood flood-opacity="0" result="BackgroundImageFix"/>
<feBlend mode="normal" in="SourceGraphic" in2="BackgroundImageFix" result="shape"/>
<feGaussianBlur stdDeviation="210.5" result="effect1_foregroundBlur_1_391"/>
</filter>
<filter id="filter1_f_1_391" x="-44.9998" y="-341.045" width="1275" height="1127.83" filterUnits="userSpaceOnUse" color-interpolation-filters="sRGB">
<feFlood flood-opacity="0" result="BackgroundImageFix"/>
<feBlend mode="normal" in="SourceGraphic" in2="BackgroundImageFix" result="shape"/>
<feGaussianBlur stdDeviation="210.5" result="effect1_foregroundBlur_1_391"/>
</filter>
<filter id="filter2_f_1_391" x="173" y="-341.045" width="1275" height="1127.83" filterUnits="userSpaceOnUse" color-interpolation-filters="sRGB">
<feFlood flood-opacity="0" result="BackgroundImageFix"/>
<feBlend mode="normal" in="SourceGraphic" in2="BackgroundImageFix" result="shape"/>
<feGaussianBlur stdDeviation="210.5" result="effect1_foregroundBlur_1_391"/>
</filter>
<filter id="filter3_f_1_391" x="391" y="-341.045" width="1275" height="1127.83" filterUnits="userSpaceOnUse" color-interpolation-filters="sRGB">
<feFlood flood-opacity="0" result="BackgroundImageFix"/>
<feBlend mode="normal" in="SourceGraphic" in2="BackgroundImageFix" result="shape"/>
<feGaussianBlur stdDeviation="210.5" result="effect1_foregroundBlur_1_391"/>
</filter>
<filter id="filter4_f_1_391" x="-55.4089" y="-372.417" width="1263.01" height="1127.83" filterUnits="userSpaceOnUse" color-interpolation-filters="sRGB">
<feFlood flood-opacity="0" result="BackgroundImageFix"/>
<feBlend mode="normal" in="SourceGraphic" in2="BackgroundImageFix" result="shape"/>
<feGaussianBlur stdDeviation="210.5" result="effect1_foregroundBlur_1_391"/>
</filter>
<filter id="filter5_f_1_391" x="-421" y="-86.5871" width="1263.01" height="1127.83" filterUnits="userSpaceOnUse" color-interpolation-filters="sRGB">
<feFlood flood-opacity="0" result="BackgroundImageFix"/>
<feBlend mode="normal" in="SourceGraphic" in2="BackgroundImageFix" result="shape"/>
<feGaussianBlur stdDeviation="210.5" result="effect1_foregroundBlur_1_391"/>
</filter>
<linearGradient id="paint0_linear_1_391" x1="1492.04" y1="284.651" x2="24.6456" y2="284.651" gradientUnits="userSpaceOnUse">
<stop stop-color="#E0E0DF"/>
<stop offset="1" stop-color="#FF8F7E" stop-opacity="0.66"/>
</linearGradient>
<radialGradient id="paint1_radial_1_391" cx="0" cy="0" r="1" gradientUnits="userSpaceOnUse" gradientTransform="translate(176.036 418.131) rotate(180) scale(193.688 26.6783)">
<stop offset="0.2142" stop-opacity="0.7"/>
<stop offset="0.2582" stop-color="#202020" stop-opacity="0.6607"/>
<stop offset="0.3372" stop-color="#545454" stop-opacity="0.5904"/>
<stop offset="0.4196" stop-color="#828282" stop-opacity="0.517"/>
<stop offset="0.504" stop-color="#A8A8A8" stop-opacity="0.4419"/>
<stop offset="0.5908" stop-color="#C8C8C8" stop-opacity="0.3645"/>
<stop offset="0.6807" stop-color="#E0E0E0" stop-opacity="0.2844"/>
<stop offset="0.7752" stop-color="#F1F1F1" stop-opacity="0.2003"/>
<stop offset="0.8771" stop-color="#FCFCFC" stop-opacity="0.1095"/>
<stop offset="1" stop-color="white" stop-opacity="0"/>
</radialGradient>
<linearGradient id="paint2_linear_1_391" x1="259.84" y1="413.416" x2="69.4348" y2="413.416" gradientUnits="userSpaceOnUse">
<stop stop-color="white"/>
<stop offset="0.218" stop-color="#B3B2AF"/>
<stop offset="0.3496" stop-color="white"/>
<stop offset="0.4739" stop-color="#6E6964"/>
<stop offset="0.6306" stop-color="white"/>
<stop offset="0.7946" stop-color="#6E6964"/>
<stop offset="1" stop-color="#B3B2AF"/>
</linearGradient>
<linearGradient id="paint3_linear_1_391" x1="259.84" y1="416.827" x2="69.4348" y2="416.827" gradientUnits="userSpaceOnUse">
<stop stop-color="#6E6964"/>
<stop offset="0.218"/>
<stop offset="0.3496"/>
<stop offset="0.4739" stop-color="#4A423B"/>
<stop offset="0.6306"/>
<stop offset="0.7946" stop-color="#4A423B"/>
<stop offset="1"/>
</linearGradient>
<radialGradient id="paint4_radial_1_391" cx="0" cy="0" r="1" gradientUnits="userSpaceOnUse" gradientTransform="translate(132.222 385.786) rotate(180) scale(32.9934 33.0382)">
<stop stop-color="#A17904"/>
<stop offset="0.1406" stop-color="#AC8921" stop-opacity="0.8594"/>
<stop offset="0.4467" stop-color="#C8B06C" stop-opacity="0.5533"/>
<stop offset="0.8919" stop-color="#F4EFE1" stop-opacity="0.1081"/>
<stop offset="1" stop-color="white" stop-opacity="0"/>
</radialGradient>
<radialGradient id="paint5_radial_1_391" cx="0" cy="0" r="1" gradientUnits="userSpaceOnUse" gradientTransform="translate(164.378 397.002) rotate(144.66) scale(33.0083 33.0232)">
<stop stop-color="#A17904"/>
<stop offset="0.1406" stop-color="#AC8921" stop-opacity="0.8594"/>
<stop offset="0.4467" stop-color="#C8B06C" stop-opacity="0.5533"/>
<stop offset="0.8919" stop-color="#F4EFE1" stop-opacity="0.1081"/>
<stop offset="1" stop-color="white" stop-opacity="0"/>
</radialGradient>
<radialGradient id="paint6_radial_1_391" cx="0" cy="0" r="1" gradientUnits="userSpaceOnUse" gradientTransform="translate(151.719 437.267) rotate(180) scale(100.36 100.496)">
<stop stop-color="#4D4D4D"/>
<stop offset="1" stop-color="#FFC790" stop-opacity="0"/>
</radialGradient>
<linearGradient id="paint7_linear_1_391" x1="206.541" y1="361.704" x2="171.835" y2="425.966" gradientUnits="userSpaceOnUse">
<stop offset="5e-08" stop-color="#FFC88A"/>
<stop offset="0.2111" stop-color="#FAC487"/>
<stop offset="0.4519" stop-color="#EDB67F"/>
<stop offset="0.7073" stop-color="#D6A171"/>
<stop offset="0.9712" stop-color="#B6835E"/>
<stop offset="1" stop-color="#B27F5C"/>
</linearGradient>
<radialGradient id="paint8_radial_1_391" cx="0" cy="0" r="1" gradientUnits="userSpaceOnUse" gradientTransform="translate(185.812 395.197) scale(37.6755 1.15051)">
<stop stop-color="white"/>
<stop offset="0.1263" stop-color="#E6E6E6"/>
<stop offset="0.3961" stop-color="#A4A4A4"/>
<stop offset="0.7845" stop-color="#3C3C3C"/>
<stop offset="1"/>
</radialGradient>
<linearGradient id="paint9_linear_1_391" x1="120.942" y1="316.216" x2="89.4463" y2="426.301" gradientUnits="userSpaceOnUse">
<stop offset="5e-08" stop-color="#FFC88A"/>
<stop offset="0.2111" stop-color="#FAC487"/>
<stop offset="0.4519" stop-color="#EDB67F"/>
<stop offset="0.7073" stop-color="#D6A171"/>
<stop offset="0.9712" stop-color="#B6835E"/>
<stop offset="1" stop-color="#B27F5C"/>
</linearGradient>
<linearGradient id="paint10_linear_1_391" x1="137.597" y1="389.238" x2="137.597" y2="438.215" gradientUnits="userSpaceOnUse">
<stop offset="5e-08" stop-color="#FFC88A"/>
<stop offset="0.2111" stop-color="#FAC487"/>
<stop offset="0.4519" stop-color="#EDB67F"/>
<stop offset="0.7073" stop-color="#D6A171"/>
<stop offset="0.9712" stop-color="#B6835E"/>
<stop offset="1" stop-color="#B27F5C"/>
</linearGradient>
<linearGradient id="paint11_linear_1_391" x1="137.558" y1="409.894" x2="137.558" y2="414.165" gradientUnits="userSpaceOnUse">
<stop offset="5e-08" stop-color="#FFC790" stop-opacity="0"/>
<stop offset="0.2574" stop-color="#EDB47E" stop-opacity="0.2574"/>
<stop offset="0.7783" stop-color="#BE8251" stop-opacity="0.7783"/>
<stop offset="1" stop-color="#A86B3C"/>
</linearGradient>
<radialGradient id="paint12_radial_1_391" cx="0" cy="0" r="1" gradientUnits="userSpaceOnUse" gradientTransform="translate(99.0574 359.02) scale(31.3974 1.15053)">
<stop stop-color="white"/>
<stop offset="0.1263" stop-color="#E6E6E6"/>
<stop offset="0.3961" stop-color="#A4A4A4"/>
<stop offset="0.7845" stop-color="#3C3C3C"/>
<stop offset="1"/>
</radialGradient>
<radialGradient id="paint13_radial_1_391" cx="0" cy="0" r="1" gradientUnits="userSpaceOnUse" gradientTransform="translate(137.534 386.152) scale(31.3974 1.15054)">
<stop stop-color="white"/>
<stop offset="0.1263" stop-color="#E6E6E6"/>
<stop offset="0.3961" stop-color="#A4A4A4"/>
<stop offset="0.7845" stop-color="#3C3C3C"/>
<stop offset="1"/>
</radialGradient>
<clipPath id="clip0_1_391">
<rect width="1440" height="600" fill="white"/>
</clipPath>
</defs>
</svg>
