<svg width="32" height="27" viewBox="0 0 32 27" fill="none" xmlns="http://www.w3.org/2000/svg">
<path d="M15.409 12.8556H8.38395L3.28403 16.1707C3.08139 16.3181 2.84497 16.097 2.87874 15.8392L3.62177 12.8187H1.3589C0.75096 12.8187 0.210571 12.2294 0.210571 11.5663V1.9892C0.210571 1.32616 0.75096 0.736801 1.3589 0.736801H15.409C16.0169 0.736801 16.5573 1.32616 16.5573 1.9892V11.64C16.5573 12.3399 16.0507 12.8556 15.409 12.8556Z" fill="#FAC487" fill-opacity="0.77"/>
<path d="M11.9978 21.9168H21.1506L27.8042 26.2265C28.0743 26.4107 28.3783 26.116 28.3445 25.8213L27.3651 21.9168H30.3034C31.114 21.9168 31.7895 21.1433 31.7895 20.2961V7.80898C31.7895 6.92493 31.0803 6.18823 30.3034 6.18823H12.0653C11.2548 6.18823 10.5793 6.96177 10.5793 7.80898V20.3697C10.4779 21.217 11.1872 21.9168 11.9978 21.9168Z" fill="#1EAE98"/>
<path d="M21.1506 12.8188C21.7924 12.8188 22.2652 13.4081 22.2652 14.0343C22.2652 14.6605 21.7248 15.2499 21.1506 15.2499C20.5089 15.2499 20.0361 14.6605 20.0361 14.0343C20.0361 13.4081 20.5089 12.8188 21.1506 12.8188Z" fill="white"/>
<path d="M25.7439 12.8188C26.3856 12.8188 26.8585 13.4081 26.8585 14.0343C26.8585 14.6605 26.3181 15.2499 25.7439 15.2499C25.1022 15.2499 24.6294 14.6605 24.6294 14.0343C24.6294 13.4081 25.1022 12.8188 25.7439 12.8188Z" fill="white"/>
<path d="M16.5236 12.8188C17.1653 12.8188 17.6381 13.4081 17.6381 14.0343C17.6381 14.6605 17.0977 15.2499 16.5236 15.2499C15.8818 15.2499 15.409 14.6605 15.409 14.0343C15.409 13.4081 15.8818 12.8188 16.5236 12.8188Z" fill="white"/>
<path d="M8.38395 12.3556H8.23572L8.11144 12.4363L3.49206 15.4391L4.1073 12.9382L4.25968 12.3187H3.62177H1.3589C1.06705 12.3187 0.710571 11.9949 0.710571 11.5663V1.9892C0.710571 1.56059 1.06705 1.2368 1.3589 1.2368H15.409C15.7008 1.2368 16.0573 1.56059 16.0573 1.9892V5.68823H12.0653C10.9317 5.68823 10.0793 6.73495 10.0793 7.80898V12.3556H8.38395ZM26.8801 22.0385L27.7768 25.6131L21.4224 21.4972L21.2984 21.4168H21.1506H11.9978C11.454 21.4168 11.0138 20.947 11.0757 20.4291L11.0793 20.3995V20.3697V13.3556H15.0462C14.9568 13.572 14.909 13.8045 14.909 14.0343C14.909 14.8744 15.5473 15.7499 16.5236 15.7499C16.982 15.7499 17.3865 15.5182 17.6647 15.2149C17.9445 14.9097 18.1381 14.4887 18.1381 14.0343C18.1381 13.3105 17.6642 12.5604 16.9086 12.3667C17.0045 12.1465 17.0573 11.9005 17.0573 11.64V6.68823H30.3034C30.7712 6.68823 31.2895 7.16693 31.2895 7.80898V20.2961C31.2895 20.9165 30.791 21.4168 30.3034 21.4168H27.3651H26.7242L26.8801 22.0385ZM15.409 12.3556H11.0793V7.80898C11.0793 7.18859 11.5778 6.68823 12.0653 6.68823H16.0573V11.64C16.0573 12.0852 15.7536 12.3556 15.409 12.3556ZM21.1506 13.3188C21.4578 13.3188 21.7652 13.622 21.7652 14.0343C21.7652 14.2062 21.6886 14.393 21.5547 14.539C21.4191 14.6869 21.2664 14.7499 21.1506 14.7499C20.8435 14.7499 20.5361 14.4467 20.5361 14.0343C20.5361 13.622 20.8435 13.3188 21.1506 13.3188ZM22.7652 14.0343C22.7652 13.1943 22.1269 12.3188 21.1506 12.3188C20.1744 12.3188 19.5361 13.1943 19.5361 14.0343C19.5361 14.8744 20.1744 15.7499 21.1506 15.7499C21.6091 15.7499 22.0136 15.5182 22.2918 15.2149C22.5716 14.9097 22.7652 14.4887 22.7652 14.0343ZM25.7439 13.3188C26.0511 13.3188 26.3585 13.622 26.3585 14.0343C26.3585 14.2062 26.2819 14.393 26.148 14.539C26.0124 14.6869 25.8596 14.7499 25.7439 14.7499C25.4368 14.7499 25.1294 14.4467 25.1294 14.0343C25.1294 13.622 25.4368 13.3188 25.7439 13.3188ZM27.3585 14.0343C27.3585 13.1943 26.7202 12.3188 25.7439 12.3188C24.7677 12.3188 24.1294 13.1943 24.1294 14.0343C24.1294 14.8744 24.7677 15.7499 25.7439 15.7499C26.2024 15.7499 26.6069 15.5182 26.885 15.2149C27.1649 14.9097 27.3585 14.4887 27.3585 14.0343ZM16.5236 13.3188C16.8307 13.3188 17.1381 13.622 17.1381 14.0343C17.1381 14.2062 17.0615 14.393 16.9276 14.539C16.792 14.6869 16.6393 14.7499 16.5236 14.7499C16.2164 14.7499 15.909 14.4467 15.909 14.0343C15.909 13.622 16.2164 13.3188 16.5236 13.3188Z" stroke="#1EAE98" stroke-opacity="0.64"/>
</svg>
