<svg width="60" height="60" viewBox="0 0 60 60" fill="none" xmlns="http://www.w3.org/2000/svg">
<path d="M16.9125 0H18.349V19.0744H16.9125V0Z" fill="#2980B9"/>
<path d="M41.741 0H43.1773V19.0744H41.741V0Z" fill="#2980B9"/>
<path d="M41.741 15.9831V16.3648H43.1775V15.9831H41.741Z" fill="#216694"/>
<path d="M5.38995 28.851H54.6002V57.5391H5.38995V28.851Z" fill="#9CDCFF"/>
<path d="M5.38983 28.8511V33.9646C5.47983 33.9701 5.57046 33.9739 5.66208 33.9739C7.93296 33.9739 9.76121 32.258 9.76121 30.1268C9.76121 32.258 11.5892 33.9739 13.8601 33.9739C16.131 33.9739 17.9592 32.258 17.9592 30.1268C17.9592 32.258 19.7876 33.9739 22.0586 33.9739C24.3296 33.9739 26.1577 32.258 26.1577 30.1268C26.1577 32.258 27.986 33.9739 30.2568 33.9739C32.5277 33.9739 34.3562 32.258 34.3562 30.1268C34.3562 32.258 36.1845 33.9739 38.4553 33.9739C40.7262 33.9739 42.5545 32.258 42.5545 30.1268C42.5545 32.258 44.3825 33.9739 46.6533 33.9739C48.9242 33.9739 50.7525 32.258 50.7525 30.1268C50.7525 32.1786 52.4473 33.8448 54.6001 33.9661V28.8511H5.38983Z" fill="#89BCD8"/>
<path d="M1.28497 26.2392L58.715 26.2687L50.0357 18.6482L9.31035 18.5412L1.28497 26.2392Z" fill="#ECF0F1"/>
<path d="M9.5531 26.2365L15.6107 18.5252L21.5395 18.563L17.7159 26.2554L9.5531 26.2365Z" fill="#3498DB"/>
<path d="M27.3632 18.5844L32.978 18.5962L34.1092 26.2431L25.9121 26.2379L27.3632 18.5844Z" fill="#3498DB"/>
<path d="M39.0097 18.6255L42.3171 26.2406L50.5282 26.2852L44.8677 18.6007L39.0097 18.6255Z" fill="#3498DB"/>
<path d="M1.31696 26.2365V29.7715C1.31696 31.9028 3.14521 33.6186 5.41608 33.6186C7.68696 33.6186 9.51521 31.9029 9.51521 29.7715V26.2365H1.31696Z" fill="#BDC3C7"/>
<path d="M9.5152 26.2365V29.7715C9.5152 31.9028 11.3434 33.6186 13.6143 33.6186C15.8852 33.6186 17.7134 31.9029 17.7134 29.7715V26.2365H9.5152Z" fill="#2980B9"/>
<path d="M17.7136 26.2365V29.7715C17.7136 31.9028 19.5419 33.6186 21.8127 33.6186C24.0836 33.6186 25.9119 31.9029 25.9119 29.7715V26.2365H17.7136Z" fill="#BDC3C7"/>
<path d="M25.9119 26.2365V29.7715C25.9119 31.9028 27.7401 33.6186 30.011 33.6186C32.2819 33.6186 34.1101 31.9029 34.1101 29.7715V26.2365H25.9119Z" fill="#2980B9"/>
<path d="M34.1102 26.2365V29.7715C34.1102 31.9028 35.9385 33.6186 38.2094 33.6186C40.4802 33.6186 42.3085 31.9029 42.3085 29.7715V26.2365H34.1102Z" fill="#BDC3C7"/>
<path d="M42.3085 26.2365V29.7715C42.3085 31.9028 44.1367 33.6186 46.4076 33.6186C48.6785 33.6186 50.5067 31.9029 50.5067 29.7715V26.2365H42.3085Z" fill="#2980B9"/>
<path d="M50.5068 26.2365V29.7715C50.5068 31.9028 52.3351 33.6186 54.606 33.6186C56.8768 33.6186 58.7051 31.9029 58.7051 29.7715V26.2365H50.5068Z" fill="#BDC3C7"/>
<path d="M2.10522 57.5391H57.8847V60H2.10522V57.5391Z" fill="#7F8C8D"/>
<path d="M9.82482 35.6069C9.61219 35.6069 9.43982 35.7792 9.43982 35.9919V48.4396C9.43994 48.6521 9.61232 48.8244 9.82482 48.8244H50.1652C50.3777 48.8242 50.5498 48.652 50.5499 48.4396V35.9919C50.5499 35.7794 50.3777 35.607 50.1652 35.6069H9.82482Z" fill="#6E7374"/>
<path d="M10.21 36.3769H49.7803V48.0546H10.21V36.3769Z" fill="#B3C7D6"/>
<path d="M10.5111 36.6657H49.3994V47.7656H10.5111V36.6657Z" fill="#C2D2DE"/>
<path d="M16.9124 15.9831V16.3648H18.3489V15.9831H16.9124Z" fill="#216694"/>
<path d="M14.896 1.64838C14.5546 1.64838 14.261 1.84375 14.0752 2.10325C13.8895 2.36275 13.7894 2.6935 13.7894 3.05225V14.5791C13.7894 14.9377 13.8895 15.2686 14.0752 15.5281C14.261 15.7876 14.5546 15.9833 14.896 15.9833H45.0144C45.3557 15.9833 45.6494 15.7876 45.8351 15.5281C46.0209 15.2686 46.121 14.9379 46.121 14.5791V3.05225C46.121 2.69363 46.0209 2.36275 45.8351 2.10325C45.6494 1.84375 45.3557 1.64838 45.0144 1.64838H14.896Z" fill="#3498DB"/>
<path d="M14.896 2.36127H45.0144C45.0886 2.36127 45.1701 2.39927 45.2556 2.51852C45.3411 2.63777 45.4083 2.83064 45.4083 3.05227V14.5791C45.4083 14.8008 45.341 14.9939 45.2556 15.113C45.1703 15.2321 45.0886 15.27 45.0144 15.27H14.896C14.8218 15.27 14.7404 15.2323 14.655 15.113C14.5696 14.9938 14.5024 14.8006 14.5024 14.5791V3.05227C14.5024 2.83064 14.5696 2.63777 14.655 2.51852C14.7404 2.39927 14.8218 2.36127 14.896 2.36127Z" fill="#ECF0F1"/>
<path d="M25.322 3.87148C24.5875 3.87148 23.8365 3.99249 23.0716 4.23186H23.0714C22.3113 4.46361 21.6588 4.79549 21.1201 5.23011C20.4173 5.79261 20.0216 6.39373 20.0216 7.03161C20.0216 7.44698 20.2031 7.83024 20.528 8.13486L20.5294 8.13624L20.5305 8.13749C20.862 8.43886 21.2921 8.64811 21.8066 8.77199H21.808L24.1656 9.30798C24.5149 9.41811 24.7643 9.54836 24.9113 9.67773C25.0593 9.80786 25.1094 9.91961 25.1094 10.06C25.1094 10.2122 25.0449 10.4206 24.8888 10.6752L24.8874 10.6776L24.8863 10.6799C24.5034 11.3374 23.8794 11.8504 22.9824 12.2212C22.0761 12.5959 21.1576 12.7819 20.2203 12.7819C19.8234 12.7819 19.4586 12.7444 19.1201 12.6774C18.8511 12.4094 18.6548 12.0946 18.5378 11.7127L18.5375 11.7115L18.5373 11.7102C18.5295 11.6854 18.4904 11.4905 18.4483 11.202C18.4061 10.9135 18.3534 10.5132 18.2908 10.0027L18.2913 10.0076C18.262 9.71961 18.1998 9.48436 18.0714 9.29961C17.943 9.11486 17.7256 8.99836 17.5014 8.99836C16.9976 8.99836 16.567 9.31123 16.272 9.83073C16.1293 10.073 16.0643 10.3644 16.0643 10.6914C16.0643 11.0406 16.1788 11.4091 16.3889 11.8006C16.5968 12.1881 16.8284 12.4925 17.0953 12.708H17.0955H17.0958C17.501 13.0341 18.081 13.2402 18.818 13.3625C19.3621 13.7906 19.8398 14.0397 20.2876 14.0397C20.399 14.0397 20.4938 14.0329 20.594 13.99C20.6943 13.947 20.8098 13.8126 20.8098 13.6792C20.8098 13.6162 20.777 13.5392 20.7305 13.4874C21.9689 13.453 23.0704 13.2395 24.0164 12.8224H24.0169C25.254 12.2921 26.0629 11.4944 26.3724 10.4497H26.3726C26.4408 10.2164 26.4766 9.99198 26.4766 9.77698C26.4766 9.24098 26.2121 8.78386 25.7453 8.49824C25.3868 8.26374 24.8875 8.09986 24.2353 7.98036H24.2345L22.6555 7.68611C22.1595 7.56936 21.8 7.41886 21.5843 7.25936C21.3681 7.09961 21.2945 6.95661 21.2945 6.77536C21.2945 6.53511 21.4574 6.21974 21.8629 5.84811L21.8638 5.84686L21.8649 5.84549C22.2663 5.46924 22.7641 5.19161 23.3708 5.01224H23.3721H23.3738C23.9894 4.82149 24.6019 4.72661 25.2143 4.72661C25.7476 4.72661 26.1719 4.78999 26.481 4.90374C26.7876 5.01649 26.976 5.17111 27.0879 5.36736C27.1714 5.53624 27.2094 5.68611 27.2094 5.81998C27.2094 6.08948 27.1094 6.24911 26.8315 6.39748C26.772 6.42398 26.602 6.46086 26.3504 6.46924H26.35C26.2103 6.47399 26.1014 6.48386 26.0018 6.51124C25.952 6.52499 25.9028 6.54136 25.8475 6.58324C25.7923 6.62511 25.7285 6.71761 25.7285 6.81599C25.7285 6.95961 25.8509 7.10036 25.962 7.14736C26.073 7.19436 26.1841 7.20348 26.3176 7.20348C26.6038 7.20348 26.9173 7.12636 27.2674 6.98449C27.8764 6.74461 28.2395 6.25661 28.2395 5.64499C28.2395 5.01749 27.8535 4.50586 27.1989 4.20299L27.197 4.20174L27.1951 4.20049C26.687 3.97574 26.0625 3.87048 25.3218 3.87048L25.322 3.87148ZM29.3068 6.69861C29.1183 6.69861 29.0476 6.79011 28.9471 6.88536C28.8466 6.98049 28.7363 7.10861 28.6064 7.27561H28.6059L28.6054 7.27686C28.426 7.51086 28.2711 7.71049 28.1259 7.89661H27.4429L27.4233 7.89986C27.3758 7.90774 27.3418 7.91011 27.3415 7.91011H27.3074L27.2746 7.91949C27.142 7.95824 27.024 8.01423 26.9301 8.10811C26.8364 8.20186 26.7791 8.33986 26.7791 8.47249C26.7791 8.62599 26.8414 8.79236 26.9673 8.89223C27.0704 8.97411 27.1945 9.00161 27.3241 9.01136C27.1681 9.30873 27.0156 9.59899 26.7783 10.0737C26.4468 10.7274 26.2676 11.2515 26.2676 11.6894C26.2676 12.0942 26.3604 12.4306 26.6208 12.6225L26.6264 12.6265L26.6325 12.6302C26.8594 12.7777 27.1376 12.8439 27.4493 12.8439C28.1395 12.8439 28.8511 12.6104 29.5779 12.1636C29.8076 12.0257 30.02 11.8555 30.232 11.6846C30.2425 11.9066 30.3019 12.1199 30.4188 12.3076C30.5823 12.5984 30.8618 12.7901 31.1761 12.7901H31.3916C32.0323 12.7901 32.6679 12.2882 33.394 11.3966H33.3943C33.7 11.0225 33.9323 10.6991 34.0928 10.4189C34.2478 10.1482 34.3388 9.92061 34.3451 9.69511C34.6081 9.58149 34.854 9.47186 35.0139 9.37261C35.1126 9.31136 35.1933 9.25248 35.2601 9.18398C35.327 9.11548 35.3918 9.03098 35.3991 8.90398L35.4236 8.48549L35.0509 8.67711C34.7415 8.83598 34.5156 8.90011 34.4321 8.90361C34.4459 8.80911 34.4706 8.70199 34.4706 8.62086C34.4706 8.34086 34.4028 8.09049 34.2336 7.91136C34.0645 7.73236 33.816 7.65449 33.545 7.65449C33.2223 7.65449 32.8998 7.80849 32.5579 8.07086C32.4751 8.13436 32.3858 8.22674 32.2999 8.30411C32.3135 8.27374 32.3321 8.24961 32.3321 8.20336C32.3321 8.07924 32.2775 8.04286 32.252 8.01736C32.2265 7.99186 32.2063 7.97798 32.1851 7.96386L32.1234 7.92274L30.1141 7.95074C29.9439 7.95074 29.8431 7.94661 29.7029 7.94486C29.7551 7.88036 29.836 7.79098 29.876 7.73661C29.9336 7.65848 29.979 7.59124 30.0141 7.52749C30.0493 7.46374 30.0843 7.41348 30.0843 7.30173C30.0843 7.09423 29.9305 6.92811 29.7558 6.83486C29.6016 6.75274 29.4601 6.69911 29.3066 6.69911L29.3068 6.69861ZM36.9806 6.83311C36.7245 6.83311 36.5056 7.00011 36.3509 7.23224C36.2015 7.45624 36.085 7.75998 35.9808 8.14448C35.6714 8.74311 35.1328 9.49548 34.3633 10.3887C34.1984 10.573 34.0763 10.7115 34.0763 10.9354C34.0763 11.0031 34.1111 11.1049 34.183 11.1625C34.2549 11.2201 34.3285 11.2284 34.3828 11.2284C34.4708 11.2284 34.5113 11.2009 34.548 11.1795C34.5846 11.1581 34.6153 11.1349 34.6475 11.1077C34.7121 11.0536 34.7826 10.9839 34.8671 10.8935C35.0363 10.7126 35.2581 10.4506 35.5383 10.1027L35.5399 10.1006L36.3328 9.07198C36.366 9.11111 36.397 9.15324 36.4354 9.18574C36.4968 9.23786 36.5668 9.27923 36.6413 9.30861C36.4841 9.55773 36.3336 9.82661 36.1964 10.1386C35.989 10.6099 35.88 11.0547 35.88 11.4734C35.88 11.8817 35.9726 12.2266 36.1941 12.4716C36.4156 12.7167 36.7483 12.8299 37.1289 12.8299C37.6788 12.8299 38.2933 12.5324 39.022 11.9881L39.0244 11.9862L39.027 11.9844C39.0374 11.9762 39.045 11.9671 39.0553 11.9589C39.0959 12.1419 39.1626 12.3146 39.2859 12.4534C39.4676 12.6577 39.7258 12.7961 40.0398 12.8855C40.147 12.9206 40.2611 12.9374 40.38 12.9374C40.9384 12.9374 41.5534 12.6607 42.2568 12.1517C42.9565 11.6454 43.5573 11.0632 44.0566 10.4069L44.0583 10.4047L44.0599 10.4026C44.1439 10.2871 44.2131 10.1934 44.2131 10.0331C44.2131 9.95961 44.1816 9.85548 44.1061 9.79073C44.0306 9.72598 43.9453 9.71286 43.8796 9.71286C43.773 9.71286 43.6974 9.75923 43.6394 9.80561C43.5814 9.85198 43.5344 9.90611 43.4864 9.97011L43.4891 9.96636C43.1159 10.4439 42.6626 10.8974 42.1279 11.3269L42.1255 11.329L42.1229 11.3312C41.433 11.9164 40.8831 12.1762 40.5413 12.1762C40.3638 12.1762 40.2763 12.1351 40.2209 12.0765C40.1655 12.0177 40.1211 11.9114 40.1211 11.7156C40.1211 11.5384 40.1655 11.3725 40.2343 11.209C40.2473 11.209 40.259 11.2146 40.2721 11.2146C40.8241 11.2146 41.467 10.9626 42.2393 10.494H42.24C43.0354 10.0166 43.4995 9.47249 43.4995 8.84911C43.4995 8.62399 43.3894 8.40936 43.2133 8.26511C43.0404 8.10824 42.8085 8.03098 42.5604 8.03098C41.8274 8.03098 41.0723 8.49461 40.2608 9.34311C39.7431 9.88423 39.3959 10.3915 39.1984 10.8789C38.9981 11.0687 38.7898 11.2505 38.5633 11.4147H38.5628H38.5625C37.9824 11.839 37.5104 12.0281 37.1826 12.0281C37.0278 12.0281 36.9575 11.9932 36.9133 11.9459C36.8689 11.8985 36.8299 11.8084 36.8299 11.6349C36.8299 11.3107 37.0801 10.7509 37.6396 10.0336H37.6399C37.6403 10.0336 37.6403 10.0324 37.6406 10.0324L38.5918 8.83336L38.6049 8.79811C38.6709 8.62199 38.5889 8.43474 38.478 8.31161C38.3736 8.19574 38.2429 8.09798 38.0714 8.09798C38.0305 8.09798 37.9951 8.09924 37.9601 8.10236C37.9251 8.10586 37.8958 8.10361 37.8298 8.13649L37.8204 8.14111L37.4645 8.36011C37.2919 8.46199 37.1521 8.50149 37.0483 8.50149C36.9644 8.50149 36.9395 8.48861 36.9144 8.47948L37.1404 8.17773L37.1455 8.17086C37.3824 7.87598 37.5299 7.61798 37.5299 7.34111C37.5299 7.20548 37.4815 7.05524 37.3703 6.95861C37.2589 6.86236 37.1186 6.83311 36.9806 6.83311ZM32.1095 8.47549C31.8984 8.68461 31.6805 8.92136 31.4475 9.20998H31.4473C31.1514 9.57723 30.9245 9.90649 30.7331 10.2192C30.1798 10.8036 29.6634 11.2459 29.1934 11.5395C29.0263 11.6429 28.768 11.7649 28.4266 11.8961C28.092 12.0249 27.8301 12.0821 27.6646 12.0821C27.4648 12.0821 27.3433 12.0416 27.2903 12.0031C27.2373 11.9646 27.2174 11.9342 27.2174 11.8232C27.2174 11.5776 27.42 11.0316 27.8691 10.2919H27.8696L27.8699 10.2905C28.3023 9.56986 28.6168 9.13436 28.7356 9.01273C28.7599 9.00786 28.7625 9.00711 28.8083 8.99961C28.8919 8.98599 29.0091 8.96874 29.1585 8.94749C29.4573 8.90511 29.885 8.84811 30.4408 8.77649C31.0044 8.70436 31.428 8.63986 31.7193 8.58161C31.8649 8.55249 31.976 8.52624 32.0656 8.49536C32.0809 8.49011 32.0951 8.48086 32.1095 8.47523V8.47549ZM42.5739 8.89986C42.6205 8.89986 42.6231 8.90411 42.6508 8.90823C42.5214 9.25423 42.2165 9.60286 41.691 9.93948C41.3306 10.1682 41.0478 10.286 40.8058 10.358C41.0675 10.0216 41.3688 9.69024 41.7569 9.36999H41.7571H41.7576C42.1634 9.03336 42.474 8.89986 42.5739 8.89986ZM33.1359 9.24061C33.2641 9.42748 33.3891 9.57073 33.5143 9.67573C33.4943 9.76761 33.4505 9.89561 33.3455 10.0737C33.2083 10.3067 32.9935 10.5991 32.7029 10.9426C32.1271 11.623 31.6595 11.9077 31.4184 11.9077C31.3739 11.9077 31.3938 11.9157 31.3784 11.8914C31.363 11.867 31.3346 11.7807 31.3346 11.6355C31.3346 11.4249 31.5736 10.8977 32.1178 10.1952H32.118C32.3941 9.84474 32.6363 9.58624 32.8326 9.42436C32.9638 9.31611 33.0601 9.26811 33.1359 9.24061ZM17.1749 9.88274V9.88411C17.2064 10.0095 17.2416 10.1881 17.2781 10.4442C17.3676 11.0649 17.5388 11.6051 17.7756 12.0791C17.7531 12.0584 17.7215 12.0424 17.7006 12.0207L17.6999 12.0194L17.6991 12.0181C17.2536 11.5644 17.0409 11.044 17.0409 10.409C17.0409 10.2169 17.0705 10.0756 17.1126 9.98536C17.1493 9.90661 17.1608 9.90024 17.1749 9.88274Z" fill="#BDC0C1"/>
<path d="M25.1385 3.73037C24.404 3.73037 23.653 3.85137 22.8881 4.09074H22.8879C22.1277 4.32249 21.4752 4.65437 20.9366 5.089C20.2337 5.6515 19.8381 6.25262 19.8381 6.8905C19.8381 7.30587 20.0196 7.68912 20.3445 7.99374L20.3459 7.99512L20.347 7.99637C20.6785 8.29774 21.1086 8.50699 21.6231 8.63087H21.6245L23.9821 9.16699C24.3314 9.27712 24.5807 9.40737 24.7277 9.53674C24.8757 9.66687 24.9259 9.77862 24.9259 9.91899C24.9259 10.0712 24.8614 10.2796 24.7052 10.5342L24.7039 10.5366L24.7027 10.5389C24.3199 11.1964 23.6959 11.7094 22.7989 12.0802C21.8926 12.4549 20.9741 12.6409 20.0367 12.6409C19.6399 12.6409 19.2751 12.6034 18.9366 12.5364C18.6676 12.2684 18.4712 11.9536 18.3542 11.5717L18.354 11.5705L18.3537 11.5692C18.346 11.5444 18.3069 11.3495 18.2647 11.061C18.2226 10.7725 18.1699 10.3722 18.1072 9.86175L18.1077 9.86662C18.0785 9.57862 18.0162 9.34337 17.8879 9.15862C17.7595 8.97387 17.5421 8.85737 17.3179 8.85737C16.8141 8.85737 16.3835 9.17024 16.0885 9.68974C15.9457 9.93199 15.8807 10.2234 15.8807 10.5504C15.8807 10.8996 15.9952 11.2681 16.2054 11.6596C16.4132 12.0471 16.6449 12.3515 16.9117 12.567H16.912H16.9122C17.3175 12.8931 17.8975 13.0992 18.6345 13.2215C19.1786 13.6496 19.6562 13.8987 20.1041 13.8987C20.2155 13.8987 20.3102 13.8919 20.4105 13.849C20.5107 13.806 20.6262 13.6716 20.6262 13.5382C20.6262 13.4752 20.5935 13.3982 20.547 13.3464C21.7854 13.312 22.8869 13.0985 23.8329 12.6814H23.8334C25.0705 12.1511 25.8794 11.3534 26.1889 10.3087H26.1891C26.2572 10.0754 26.2931 9.85099 26.2931 9.63599C26.2931 9.09999 26.0286 8.64287 25.5617 8.35725C25.2032 8.12275 24.704 7.95887 24.0517 7.83937H24.051L22.472 7.54512C21.976 7.42837 21.6165 7.27787 21.4007 7.11837C21.1846 6.95862 21.111 6.81562 21.111 6.63437C21.111 6.39412 21.2739 6.07875 21.6794 5.70712L21.6802 5.70587L21.6814 5.70449C22.0827 5.32824 22.5806 5.05062 23.1872 4.87125H23.1886H23.1902C23.8059 4.6805 24.4184 4.58562 25.0307 4.58562C25.5641 4.58562 25.9884 4.64899 26.2975 4.76274C26.6041 4.87549 26.7925 5.03012 26.9044 5.22637C26.9879 5.39525 27.0259 5.54512 27.0259 5.67899C27.0259 5.94849 26.9259 6.10812 26.648 6.25637C26.5885 6.28287 26.4185 6.31974 26.1669 6.32812H26.1666C26.0269 6.33287 25.918 6.34274 25.8184 6.37012C25.7686 6.38387 25.7194 6.40024 25.6641 6.44212C25.6089 6.48399 25.5451 6.57662 25.5451 6.67487C25.5451 6.81849 25.6675 6.95924 25.7786 7.00624C25.8896 7.05324 26.0007 7.06237 26.1342 7.06237C26.4204 7.06237 26.7339 6.98524 27.084 6.84337C27.693 6.60349 28.0561 6.11549 28.0561 5.50387C28.0561 4.87637 27.6701 4.36474 27.0155 4.06187L27.0136 4.06062L27.0117 4.05937C26.5036 3.83462 25.8791 3.72937 25.1382 3.72937L25.1385 3.73037ZM29.1232 6.5575C28.9347 6.5575 28.8641 6.649 28.7636 6.74425C28.6631 6.83937 28.5527 6.96749 28.4229 7.13449H28.4224L28.4219 7.13574C28.2425 7.36974 28.0876 7.56937 27.9424 7.75549H27.2594L27.2397 7.75874C27.1922 7.76662 27.1582 7.769 27.158 7.769H27.1239L27.0911 7.77837C26.9585 7.81712 26.8405 7.87312 26.7466 7.967C26.6529 8.06075 26.5956 8.19874 26.5956 8.33137C26.5956 8.48487 26.6579 8.65125 26.7837 8.75112C26.8869 8.833 27.011 8.8605 27.1406 8.87025C26.9846 9.16762 26.8321 9.45787 26.5947 9.93262C26.2632 10.5862 26.0841 11.1104 26.0841 11.5482C26.0841 11.9531 26.1769 12.2895 26.4372 12.4814L26.4429 12.4854L26.449 12.4891C26.6759 12.6366 26.9541 12.7027 27.2657 12.7027C27.956 12.7027 28.6676 12.4692 29.3944 12.0225C29.6241 11.8846 29.8365 11.7144 30.0485 11.5435C30.059 11.7655 30.1184 11.9787 30.2352 12.1665C30.3987 12.4572 30.6782 12.649 30.9926 12.649H31.2081C31.8487 12.649 32.4844 12.1471 33.2105 11.2555H33.2107C33.5165 10.8814 33.7487 10.558 33.9092 10.2777C34.0642 10.007 34.1552 9.77949 34.1616 9.55399C34.4246 9.44037 34.6705 9.33074 34.8304 9.23149C34.9291 9.17024 35.0097 9.11137 35.0766 9.04287C35.1435 8.97437 35.2082 8.88987 35.2156 8.76287L35.2401 8.34437L34.8674 8.536C34.558 8.69487 34.3321 8.759 34.2486 8.7625C34.2624 8.668 34.2871 8.56074 34.2871 8.47974C34.2871 8.19974 34.2192 7.94937 34.0501 7.77024C33.881 7.59112 33.6325 7.51337 33.3615 7.51337C33.0387 7.51337 32.7162 7.66737 32.3744 7.92974C32.2916 7.99324 32.2022 8.08562 32.1164 8.16299C32.13 8.13262 32.1486 8.10849 32.1486 8.06224C32.1486 7.93812 32.094 7.90174 32.0685 7.87624C32.043 7.85074 32.0227 7.83687 32.0016 7.82275L31.9399 7.78162L29.9306 7.80962C29.7604 7.80962 29.6596 7.80562 29.5194 7.80374C29.5716 7.73924 29.6525 7.64987 29.6925 7.5955C29.7501 7.51737 29.7955 7.45012 29.8306 7.38637C29.8657 7.32262 29.9007 7.27237 29.9007 7.16062C29.9007 6.95312 29.747 6.78699 29.5722 6.69374C29.4181 6.61162 29.2766 6.55799 29.1231 6.55799L29.1232 6.5575ZM36.7972 6.69212C36.5411 6.69212 36.3222 6.85912 36.1675 7.09125C36.0181 7.31525 35.9016 7.61899 35.7974 8.00349C35.488 8.60212 34.9494 9.35449 34.1799 10.2477C34.015 10.432 33.8929 10.5705 33.8929 10.7944C33.8929 10.8621 33.9277 10.9639 33.9996 11.0215C34.0716 11.0791 34.1451 11.0874 34.1994 11.0874C34.2874 11.0874 34.3279 11.0599 34.3646 11.0385C34.4014 11.0171 34.4319 10.9939 34.4641 10.9667C34.5287 10.9126 34.5992 10.8429 34.6837 10.7525C34.8529 10.5716 35.0747 10.3096 35.3549 9.96175L35.3565 9.95962L36.1494 8.93099C36.1826 8.97012 36.2136 9.01225 36.252 9.04475C36.3134 9.09687 36.3834 9.13824 36.4579 9.16762C36.3007 9.41674 36.1502 9.68562 36.013 9.99762C35.8056 10.4689 35.6966 10.9137 35.6966 11.3324C35.6966 11.7407 35.7892 12.0856 36.0107 12.3306C36.2322 12.5757 36.5649 12.6889 36.9455 12.6889C37.4954 12.6889 38.1099 12.3914 38.8386 11.8471L38.841 11.8452L38.8436 11.8434C38.854 11.8352 38.8616 11.8261 38.8719 11.8179C38.9125 12.0009 38.9792 12.1736 39.1025 12.3124C39.2842 12.5167 39.5424 12.6551 39.8564 12.7445C39.9636 12.7796 40.0777 12.7964 40.1966 12.7964C40.755 12.7964 41.37 12.5197 42.0734 12.0107C42.7731 11.5044 43.3739 10.9222 43.8732 10.2659L43.8749 10.2637L43.8765 10.2616C43.9605 10.1461 44.0297 10.0524 44.0297 9.89212C44.0297 9.81862 43.9982 9.71449 43.9227 9.64974C43.8472 9.58499 43.7619 9.57187 43.6964 9.57187C43.5897 9.57187 43.5141 9.61824 43.4561 9.66462C43.3981 9.71099 43.3511 9.76512 43.3031 9.82912L43.3059 9.82537C42.9326 10.3029 42.4794 10.7564 41.9446 11.1859L41.9422 11.188L41.9396 11.1902C41.2497 11.7754 40.6999 12.0352 40.358 12.0352C40.1805 12.0352 40.093 11.9941 40.0376 11.9355C39.9822 11.8767 39.9379 11.7704 39.9379 11.5746C39.9379 11.3974 39.9822 11.2315 40.051 11.068C40.064 11.068 40.0757 11.0736 40.0889 11.0736C40.6409 11.0736 41.2837 10.8216 42.056 10.353H42.0567C42.8521 9.87562 43.3162 9.3315 43.3162 8.70812C43.3162 8.483 43.2061 8.26837 43.03 8.12412C42.8571 7.96725 42.6252 7.88999 42.3771 7.88999C41.6441 7.88999 40.889 8.35362 40.0775 9.20212C39.5599 9.74324 39.2126 10.2505 39.0151 10.7379C38.8149 10.9277 38.6065 11.1095 38.38 11.2737H38.3795H38.3792C37.7991 11.698 37.3271 11.8871 36.9994 11.8871C36.8446 11.8871 36.7742 11.8522 36.73 11.8049C36.6856 11.7575 36.6466 11.6674 36.6466 11.4939C36.6466 11.1697 36.8969 10.6099 37.4564 9.89262H37.4566C37.457 9.89262 37.457 9.89137 37.4574 9.89137L38.4085 8.69237L38.4216 8.65712C38.4876 8.48099 38.4056 8.29374 38.2947 8.17062C38.1904 8.05474 38.0596 7.95699 37.8881 7.95699C37.8472 7.95699 37.8119 7.95825 37.7769 7.96137C37.7419 7.96487 37.7125 7.96262 37.6465 7.99549L37.6371 8.00012L37.2812 8.21912C37.1086 8.32099 36.9689 8.3605 36.865 8.3605C36.7811 8.3605 36.7562 8.34762 36.7311 8.33849L36.9571 8.03674L36.9622 8.02987C37.1991 7.73499 37.3466 7.47699 37.3466 7.20012C37.3466 7.06449 37.2982 6.91424 37.187 6.81762C37.0755 6.72124 36.9352 6.69199 36.7972 6.69212ZM31.9261 8.33437C31.715 8.54349 31.4971 8.78025 31.2641 9.06887H31.2639C30.968 9.43612 30.7411 9.76537 30.5497 10.0781C29.9964 10.6625 29.48 11.1047 29.01 11.3984C28.8429 11.5017 28.5846 11.6237 28.2432 11.755C27.9086 11.8837 27.6467 11.941 27.4812 11.941C27.2814 11.941 27.1599 11.9005 27.1069 11.862C27.0539 11.8235 27.034 11.7931 27.034 11.682C27.034 11.4364 27.2366 10.8904 27.6857 10.1506H27.6862L27.6865 10.1492C28.1189 9.42862 28.4334 8.99312 28.5522 8.87149C28.5765 8.86662 28.5791 8.86587 28.6249 8.85837C28.7085 8.84474 28.8257 8.82749 28.9751 8.80624C29.2739 8.76387 29.7016 8.70687 30.2574 8.63525C30.821 8.56312 31.2446 8.49862 31.5359 8.44037C31.6815 8.41124 31.7926 8.38499 31.8822 8.35412C31.8975 8.34887 31.9117 8.33962 31.9261 8.33399V8.33437ZM42.3905 8.75874C42.4371 8.75874 42.4397 8.763 42.4674 8.76712C42.338 9.11312 42.0331 9.46175 41.5076 9.79837C41.1472 10.0271 40.8644 10.1449 40.6224 10.2169C40.8841 9.88049 41.1854 9.54912 41.5735 9.22887H41.5737H41.5742C41.98 8.89224 42.2906 8.75887 42.3905 8.75887V8.75874ZM32.9525 9.09949C33.0807 9.28637 33.2059 9.42962 33.3309 9.53462C33.3109 9.6265 33.2671 9.75449 33.1621 9.93262C33.0249 10.1656 32.8101 10.458 32.5195 10.8015C31.9437 11.4819 31.4761 11.7666 31.235 11.7666C31.1905 11.7666 31.2104 11.7746 31.195 11.7502C31.1796 11.7259 31.1512 11.6396 31.1512 11.4944C31.1512 11.2837 31.3902 10.7566 31.9344 10.0541H31.9346C32.2107 9.70362 32.4529 9.44512 32.6492 9.28324C32.7802 9.17499 32.8767 9.127 32.9525 9.09949ZM16.9914 9.74162V9.743C17.0229 9.86837 17.0581 10.047 17.0946 10.3031C17.1841 10.9237 17.3552 11.464 17.5921 11.938C17.5696 11.9172 17.538 11.9012 17.5171 11.8796L17.5164 11.8782L17.5156 11.877C17.0701 11.4232 16.8574 10.9029 16.8574 10.2679C16.8574 10.0757 16.887 9.9345 16.9291 9.84425C16.9659 9.7655 16.9774 9.75925 16.9914 9.74162Z" fill="#3498DB"/>
</svg>
