<svg width="70" height="70" viewBox="0 0 70 70" fill="none" xmlns="http://www.w3.org/2000/svg">
<path d="M1.45833 37.9167V51.0417H7.29166C7.29166 49.4946 7.90625 48.0108 9.00021 46.9169C10.0942 45.8229 11.5779 45.2083 13.125 45.2083C14.6721 45.2083 16.1558 45.8229 17.2498 46.9169C18.3437 48.0108 18.9583 49.4946 18.9583 51.0417H24.7917V21.875H11.6667L1.45833 37.9167Z" fill="#6FABE6"/>
<path d="M1.45833 37.9167V48.125H8.07916C8.59195 47.241 9.32796 46.5073 10.2135 45.9972C11.0991 45.4871 12.1031 45.2187 13.125 45.2187C14.1469 45.2187 15.1509 45.4871 16.0365 45.9972C16.922 46.5073 17.658 47.241 18.1708 48.125H24.7917V21.875H11.6667L1.45833 37.9167Z" fill="#0C1E2E"/>
<path d="M1.45834 37.9167H18.9583V27.7083H7.94792L1.45834 37.9167Z" fill="#9FDBF3"/>
<path d="M1.45834 37.9167H18.9583V27.7083H7.94792L1.45834 37.9167Z" fill="#9FDBF3"/>
<path d="M1.45834 37.9167H18.9583V27.7083H7.94792L1.45834 37.9167Z" fill="#B2E5FB"/>
<path d="M13.125 56.875C9.90334 56.875 7.29167 54.2633 7.29167 51.0417C7.29167 47.82 9.90334 45.2083 13.125 45.2083C16.3467 45.2083 18.9583 47.82 18.9583 51.0417C18.9583 54.2633 16.3467 56.875 13.125 56.875Z" fill="#374F68"/>
<path d="M13.125 45.2083C14.0654 45.2099 14.9916 45.4388 15.8245 45.8756C16.6573 46.3123 17.3723 46.944 17.9083 47.7167C16.7854 46.9483 15.4292 46.5967 14.0745 46.7225C12.7197 46.8484 11.4515 47.444 10.4894 48.4061C9.52728 49.3682 8.93176 50.6363 8.80587 51.9911C8.67998 53.3459 9.03164 54.7021 9.8 55.825C8.78308 55.1152 8.01884 54.0998 7.61821 52.9261C7.21758 51.7525 7.20141 50.4817 7.57205 49.2982C7.9427 48.1148 8.68086 47.0802 9.67939 46.3448C10.6779 45.6093 11.8849 45.2113 13.125 45.2083Z" fill="#425B72"/>
<path d="M53.9583 56.875C50.7367 56.875 48.125 54.2633 48.125 51.0417C48.125 47.82 50.7367 45.2083 53.9583 45.2083C57.18 45.2083 59.7917 47.82 59.7917 51.0417C59.7917 54.2633 57.18 56.875 53.9583 56.875Z" fill="#374F68"/>
<path d="M53.9583 45.2083C54.8988 45.2099 55.8249 45.4388 56.6578 45.8756C57.4907 46.3123 58.2056 46.944 58.7417 47.7167C57.6188 46.9483 56.2626 46.5967 54.9078 46.7225C53.553 46.8484 52.2848 47.444 51.3227 48.4061C50.3606 49.3682 49.7651 50.6363 49.6392 51.9911C49.5133 53.3459 49.865 54.7021 50.6333 55.825C49.6164 55.1152 48.8522 54.0998 48.4515 52.9261C48.0509 51.7525 48.0347 50.4817 48.4054 49.2982C48.776 48.1148 49.5142 47.0802 50.5127 46.3448C51.5113 45.6093 52.7182 45.2113 53.9583 45.2083Z" fill="#425B72"/>
<path d="M68.5417 13.125H24.7917V39.375H68.5417V13.125Z" fill="#FFCC66"/>
<path d="M24.7917 39.375V51.0417H48.125C48.125 49.4946 48.7396 48.0108 49.8335 46.9169C50.9275 45.8229 52.4112 45.2083 53.9583 45.2083C55.5054 45.2083 56.9892 45.8229 58.0831 46.9169C59.1771 48.0108 59.7917 49.4946 59.7917 51.0417H68.5417V39.375H24.7917Z" fill="#FFBA55"/>
<path d="M1.45834 43.75V46.6667H4.375C4.76178 46.6667 5.13271 46.513 5.4062 46.2395C5.67969 45.966 5.83334 45.5951 5.83334 45.2083C5.83334 44.8216 5.67969 44.4506 5.4062 44.1771C5.13271 43.9036 4.76178 43.75 4.375 43.75H1.45834ZM62.7083 13.125H24.7917V39.375H62.7083V13.125Z" fill="#FFDE76"/>
<path d="M24.7917 39.375V48.125H48.9125C49.4253 47.241 50.1613 46.5073 51.0468 45.9972C51.9324 45.4871 52.9364 45.2187 53.9583 45.2187C54.9803 45.2187 55.9843 45.4871 56.8698 45.9972C57.7554 46.5073 58.4914 47.241 59.0042 48.125C59.9866 48.125 60.9287 47.7347 61.6234 47.0401C62.3181 46.3454 62.7083 45.4032 62.7083 44.4208V39.375H24.7917Z" fill="#FFCC66"/>
</svg>
