<svg width="24" height="25" viewBox="0 0 24 25" fill="none" xmlns="http://www.w3.org/2000/svg">
<path d="M5.2815 11.4026C5.4742 11.5854 5.7318 11.6875 5.9999 11.6875C6.268 11.6875 6.5256 11.5854 6.7183 11.4026C8.4833 9.71919 10.8485 7.83861 9.695 5.10835C9.0714 3.63212 7.5743 2.6875 5.9999 2.6875C4.4255 2.6875 2.9285 3.63212 2.3048 5.10835C1.1528 7.83517 3.5122 9.72499 5.2815 11.4026Z" stroke="white" stroke-width="1.5"/>
<path d="M6 6.6875H5.991" stroke="white" stroke-width="2" stroke-linecap="round" stroke-linejoin="round"/>
<path d="M19 22.6875C17.3431 22.6875 16 21.3444 16 19.6875C16 18.0306 17.3431 16.6875 19 16.6875C20.6569 16.6875 22 18.0306 22 19.6875C22 21.3444 20.6569 22.6875 19 22.6875Z" stroke="white" stroke-width="1.5" stroke-linecap="round" stroke-linejoin="round"/>
<path d="M13 7.6875H14.5C16.433 7.6875 18 9.03065 18 10.6875C18 12.3444 16.433 13.6875 14.5 13.6875H11.5C9.567 13.6875 8 15.0306 8 16.6875C8 18.3444 9.567 19.6875 11.5 19.6875H13" stroke="white" stroke-width="1.5" stroke-linecap="round" stroke-linejoin="round"/>
</svg>
