<svg width="32" height="32" viewBox="0 0 32 32" fill="none" xmlns="http://www.w3.org/2000/svg">
<path opacity="0.2" d="M10 18H30V23C30 23.2652 29.8946 23.5196 29.7071 23.7071C29.5196 23.8946 29.2652 24 29 24H26.5C26.5 23.2044 26.1839 22.4413 25.6213 21.8787C25.0587 21.3161 24.2956 21 23.5 21C22.7044 21 21.9413 21.3161 21.3787 21.8787C20.8161 22.4413 20.5 23.2044 20.5 24H11.5C11.5003 23.4731 11.3619 22.9553 11.0986 22.4989C10.8352 22.0425 10.4563 21.6635 10 21.4V18Z" fill="#FA8232"/>
<path opacity="0.2" d="M5.5 24C5.49966 23.4732 5.63803 22.9557 5.9012 22.4993C6.16437 22.043 6.54305 21.664 6.99917 21.4005C7.45528 21.1369 7.97275 20.9982 8.49952 20.9981C9.02629 20.998 9.5438 21.1366 10 21.4V15H2V23C2 23.2652 2.10536 23.5196 2.29289 23.7071C2.48043 23.8946 2.73478 24 3 24H5.5Z" fill="#FA8232"/>
<path d="M10 10H4.675C4.47576 9.99872 4.2808 10.0577 4.11571 10.1693C3.95062 10.2808 3.82313 10.4397 3.75 10.625L2 15" stroke="#FA8232" stroke-width="2" stroke-linecap="round" stroke-linejoin="round"/>
<path d="M30 18H10" stroke="#FA8232" stroke-width="2" stroke-linecap="round" stroke-linejoin="round"/>
<path d="M8.5 27C6.84315 27 5.5 25.6569 5.5 24C5.5 22.3431 6.84315 21 8.5 21C10.1569 21 11.5 22.3431 11.5 24C11.5 25.6569 10.1569 27 8.5 27Z" stroke="#FA8232" stroke-width="2" stroke-miterlimit="10"/>
<path d="M23.5 27C21.8431 27 20.5 25.6569 20.5 24C20.5 22.3431 21.8431 21 23.5 21C25.1569 21 26.5 22.3431 26.5 24C26.5 25.6569 25.1569 27 23.5 27Z" stroke="#FA8232" stroke-width="2" stroke-miterlimit="10"/>
<path d="M11.5 24H20.5" stroke="#FA8232" stroke-width="2" stroke-linecap="round" stroke-linejoin="round"/>
<path d="M26.5 24H29C29.2652 24 29.5196 23.8946 29.7071 23.7071C29.8946 23.5196 30 23.2652 30 23V9C30 8.73478 29.8946 8.48043 29.7071 8.29289C29.5196 8.10536 29.2652 8 29 8H10V21.4" stroke="#FA8232" stroke-width="2" stroke-linecap="round" stroke-linejoin="round"/>
<path d="M10 15H2V23C2 23.2652 2.10536 23.5196 2.29289 23.7071C2.48043 23.8946 2.73478 24 3 24H5.5" stroke="#FA8232" stroke-width="2" stroke-linecap="round" stroke-linejoin="round"/>
</svg>
