<svg width="56" height="56" viewBox="0 0 56 56" fill="none" xmlns="http://www.w3.org/2000/svg">
<path d="M18.6663 12.1665H16.7064C15.2092 12.1666 13.8322 12.9779 13.0794 14.2739V14.2729L11.5892 16.8804V16.8813C11.5817 16.8947 11.5756 16.9207 11.596 16.9556C11.6055 16.9718 11.6181 16.9829 11.6292 16.9897C11.6389 16.9956 11.6502 16.9995 11.6663 16.9995C15.1625 16.9995 18.0003 19.8374 18.0003 23.3335V30.3335C18.0001 33.8295 15.1624 36.6665 11.6663 36.6665H5.83333C5.45614 36.6665 5.16634 36.9563 5.16634 37.3335V39.6665C5.16634 43.1022 7.8149 45.9023 11.1868 46.147C11.4559 42.2611 14.715 39.1667 18.6663 39.1665C22.6245 39.1665 25.8884 42.2713 26.1478 46.1665H29.8519C30.1113 42.2713 33.3752 39.1665 37.3333 39.1665C41.2848 39.1665 44.5448 42.2609 44.8138 46.147C48.1854 45.902 50.8333 43.102 50.8333 39.6665V34.9995C50.8332 33.9926 50.0073 33.1667 49.0003 33.1665H26.8333C23.3373 33.1665 20.5005 30.3295 20.5003 26.8335V13.9995C20.5002 13.0553 19.7736 12.2705 18.8529 12.1763L18.6663 12.1665Z" fill="#FF8527" stroke="#FF8527"/>
<path d="M37.333 42.5C35.032 42.5002 33.167 44.3659 33.167 46.667C33.1672 48.9679 35.0321 50.8328 37.333 50.833C39.6341 50.833 41.4998 48.968 41.5 46.667C41.5 44.3658 39.6342 42.5 37.333 42.5Z" fill="#FFECDD" stroke="#FFECDD"/>
<path d="M18.6663 42.5C16.3653 42.5002 14.5003 44.3659 14.5003 46.667C14.5005 48.9679 16.3654 50.8328 18.6663 50.833C20.9674 50.833 22.8332 48.968 22.8333 46.667C22.8333 44.3658 20.9675 42.5 18.6663 42.5Z" fill="#FFECDD" stroke="#FFECDD"/>
<path d="M4.66667 29.2367V32.6667H11.6667C12.95 32.6667 14 31.6167 14 30.3333V23.3333C14 22.05 12.95 21 11.6667 21H8.65667L5.27334 26.9267C4.87667 27.6267 4.66667 28.42 4.66667 29.2367Z" fill="#FFECDD"/>
<path d="M25.48 4.6665H42.7233C46.9 4.6665 50.4 7.65317 51.17 11.6198H40.9733C40.0867 11.6198 39.3867 12.3432 39.3867 13.2298C39.3867 14.1165 40.0867 14.8165 40.9733 14.8165H51.3333V18.0365H45.2667C44.38 18.0365 43.6567 18.7598 43.6567 19.6465C43.6567 20.5332 44.38 21.2332 45.2667 21.2332H51.3333V24.4532H49.5367C48.65 24.4532 47.9267 25.1765 47.9267 26.0632C47.9267 26.9498 48.65 27.6498 49.5367 27.6498H51.3333V28.1865C51.3333 29.4698 50.2833 30.5198 49 30.5198H27.65C25.27 30.5198 23.3333 28.5832 23.3333 26.2032V6.81317C23.3333 5.62317 24.29 4.6665 25.48 4.6665Z" fill="#FF8527"/>
<path d="M51.17 11.6196H51.52H53.8067C54.6933 11.6196 55.4167 12.343 55.4167 13.2296C55.4167 14.1163 54.6933 14.8163 53.8067 14.8163H51.6833H51.3333V13.2763C51.3333 12.7163 51.2633 12.1563 51.17 11.6196Z" fill="#FF8527"/>
<path d="M51.6833 18.0366H53.8067C54.6933 18.0366 55.4167 18.76 55.4167 19.6466C55.4167 20.5333 54.6933 21.2333 53.8067 21.2333H51.6833H51.3333V18.0366H51.6833Z" fill="#FF8527"/>
<path d="M51.6833 24.4531H53.8067C54.6933 24.4531 55.4167 25.1765 55.4167 26.0631C55.4167 26.9498 54.6933 27.6498 53.8067 27.6498H51.6833H51.3333V24.4531H51.6833Z" fill="#FF8527"/>
</svg>
