<svg width="62" height="62" viewBox="0 0 62 62" fill="none" xmlns="http://www.w3.org/2000/svg">
<path fill-rule="evenodd" clip-rule="evenodd" d="M9.80859 25.3086L4.14746 15.5H15.5V4.10205L25.3086 9.80859L31 0L36.6914 9.80859L46.5 4.10205V15.5H57.898L52.1914 25.3086L62 31L52.1914 36.6914L57.898 46.5H46.5V57.8525L36.6914 52.1914L31 62L25.3086 52.1914L15.5 57.8525V46.5H4.14746L9.80859 36.6914L0 31L9.80859 25.3086Z" fill="#CE2334"/>
<path fill-rule="evenodd" clip-rule="evenodd" d="M12.9974 26.1663L8.18896 17.8361H17.8361V8.15365L26.1663 12.9974L31 4.66716L35.8337 12.9974L44.1689 8.15365V17.8361H53.8464L49.0026 26.1663L57.3328 31L49.0026 35.8337L53.8464 44.1639H44.1689V53.811L35.8337 49.0026L31 57.3328L26.1663 49.0026L17.8361 53.811V44.1639H8.18896L12.9974 35.8337L4.66716 31L12.9974 26.1663Z" fill="#E5273A"/>
<path d="M18.5576 34.2493C18.0531 34.1989 17.5384 34.0828 17.0086 33.9062C16.4486 33.7196 15.9087 33.4774 15.389 33.1746C15.3385 33.1444 15.2881 33.1141 15.2376 33.0838C14.7028 32.7609 14.2336 32.4178 13.835 32.0495C13.3506 31.6055 12.9469 31.1211 12.619 30.5913C12.5837 30.5308 12.5483 30.4753 12.5181 30.4147C12.2204 29.9051 12.0135 29.3955 11.8874 28.8859C11.7259 28.235 11.7007 27.5942 11.8066 26.9534V26.9434C11.8924 26.4489 12.0488 25.9191 12.2759 25.3691C12.4727 24.8949 12.735 24.3802 13.0579 23.8202C13.0832 23.7747 13.1084 23.7344 13.1387 23.689L13.5221 23.028C13.8703 22.4175 14.4404 22.0138 15.0762 21.8524C15.0762 21.5547 15.0964 21.252 15.1418 20.9492C15.2023 20.5254 15.3234 20.0713 15.5101 19.5869C15.6715 19.1681 15.8734 18.7443 16.1257 18.3104C16.4839 17.6948 16.827 17.1852 17.16 16.7866C17.5889 16.272 18.048 15.8683 18.5425 15.5706L18.5374 15.5656C19.0369 15.2679 19.5718 15.056 20.1419 14.945C20.6515 14.8441 21.2015 14.8188 21.7969 14.8743C22.3468 14.9248 22.8918 15.0459 23.4367 15.2376C23.9312 15.4092 24.4408 15.6463 24.9605 15.9491L24.9655 15.9541L24.9705 15.9491C25.5104 16.2619 25.9998 16.605 26.4388 16.9834C26.903 17.382 27.3016 17.8159 27.6296 18.2801L27.6396 18.2902C27.9172 18.6838 28.1392 19.0824 28.3057 19.481C29.0524 19.1177 29.9505 19.1379 30.6922 19.5819L35.2585 22.2207C35.7227 22.4932 36.0708 22.8867 36.2777 23.3408C36.7721 23.2954 37.2868 23.3963 37.751 23.6637L40.9347 25.5003C41.4797 25.8132 41.8581 26.2975 42.0498 26.8475C42.62 26.7365 43.2254 26.8223 43.7653 27.1351L49.0682 30.1978C50.264 30.884 50.6777 32.4128 49.9915 33.6086L48.5838 36.0506C48.3114 36.5299 47.9027 36.8781 47.4334 37.09C47.4284 37.5088 47.3224 37.9276 47.0954 38.3161L45.7583 40.637C45.5212 41.0457 45.1831 41.3636 44.7996 41.5755C44.9863 42.2113 44.9207 42.9126 44.5625 43.5332C44.5373 43.5786 44.512 43.619 44.4818 43.6593L43.1548 45.9652C42.4686 47.161 40.9398 47.5747 39.744 46.8885L39.7339 46.8835V46.8885L34.209 43.6896C34.0526 43.5988 33.9113 43.4928 33.7852 43.3768C33.6187 43.3213 33.4522 43.2507 33.2957 43.1598C33.2503 43.1346 33.21 43.1094 33.1696 43.0791L28.2048 40.2132C28.0938 40.1476 27.9878 40.077 27.8869 39.9963L27.8516 39.9862C27.675 39.9155 27.5085 39.8298 27.3571 39.7238L24.2692 37.9427C24.0018 37.7913 23.7747 37.5946 23.5931 37.3726C23.3105 37.3221 23.0381 37.2262 22.7808 37.0799L19.491 35.1777C19.0874 34.9557 18.7746 34.6278 18.5576 34.2493Z" fill="#CE2334"/>
<path d="M24.9756 24.1077L22.0239 22.4023L22.5436 21.4992C22.7858 21.0754 22.9069 20.7827 22.8968 20.6263C22.8867 20.4648 22.7959 20.3387 22.6243 20.2378C22.4326 20.1268 22.2459 20.1217 22.0542 20.2227C21.8675 20.3185 21.6808 20.5254 21.4992 20.8433C21.262 21.252 21.146 21.59 21.1359 21.8574C21.1258 22.1248 21.2822 22.5436 21.6051 23.1239C22.5285 24.7788 23.0179 25.9847 23.0734 26.7365C23.1289 27.4883 22.811 28.4621 22.1198 29.6579C21.6152 30.5308 21.146 31.111 20.702 31.4087C20.258 31.7013 19.6676 31.8224 18.9259 31.7619C18.1792 31.7064 17.4224 31.4541 16.6504 31.005C15.7977 30.5156 15.172 29.9354 14.7533 29.2643C14.3395 28.5933 14.1831 27.9575 14.284 27.3521C14.3849 26.7466 14.7028 25.9847 15.2326 25.0664L15.6968 24.2642L18.6484 25.9696L17.7907 27.458C17.5233 27.9172 17.3971 28.235 17.4022 28.4116C17.4072 28.5882 17.5182 28.7396 17.7301 28.8607C17.9421 28.9818 18.1439 28.9919 18.3457 28.8809C18.5425 28.7749 18.7393 28.5579 18.9259 28.235C19.3397 27.5135 19.5163 26.9888 19.4456 26.6558C19.37 26.3177 19.0874 25.6618 18.603 24.6829C18.1187 23.7041 17.8159 23.0229 17.6948 22.6395C17.5788 22.256 17.5535 21.8019 17.6242 21.2923C17.6999 20.7777 17.9219 20.1974 18.2952 19.5466C18.8351 18.6131 19.3498 17.9925 19.8392 17.6999C20.3286 17.4072 20.9089 17.2912 21.5799 17.3517C22.256 17.4173 22.9674 17.6646 23.7192 18.0985C24.5417 18.5728 25.1673 19.1126 25.5962 19.7131C26.02 20.3135 26.2118 20.8735 26.1663 21.3882C26.1209 21.9028 25.8182 22.6445 25.2581 23.6133L24.9756 24.1077ZM34.0072 24.3802L28.7699 37.6551L25.5205 35.7782L26.6154 33.4824L25.4701 32.8215L24.0321 34.9154L20.7424 33.0182L29.4157 21.7212L34.0072 24.3802ZM27.7809 31.2725C28.4268 29.7992 29.2593 27.9878 30.2734 25.8434C28.6034 28.013 27.4126 29.6125 26.7012 30.6468L27.7809 31.2725ZM39.6935 27.6598L34.0425 37.4432L35.9598 38.5482L34.5521 40.9902L29.451 38.0436L36.5098 25.8132L39.6935 27.6598ZM42.5291 29.2946L47.832 32.3573L46.4193 34.7993L44.3001 33.5783L42.953 35.9144L44.9308 37.0547L43.5938 39.3757L41.6159 38.2354L40.0619 40.9196L42.3979 42.2668L40.9902 44.7088L35.4653 41.5251L42.5291 29.2946Z" fill="white"/>
</svg>
