<svg width="58" height="50" viewBox="0 0 58 50" fill="none" xmlns="http://www.w3.org/2000/svg">
<path d="M50.0959 48.0475H47.9199C47.6464 48.0475 47.3841 47.9536 47.1907 47.7866C46.9973 47.6196 46.8887 47.3931 46.8887 47.1568C46.8887 46.9206 46.9973 46.6941 47.1907 46.5271C47.3841 46.3601 47.6464 46.2662 47.9199 46.2662H50.0959C50.814 46.2674 51.5253 46.1461 52.1891 45.9093C52.8528 45.6725 53.4559 45.3249 53.9637 44.8863C54.4715 44.4477 54.874 43.9269 55.1482 43.3537C55.4224 42.7805 55.5628 42.1661 55.5615 41.5459C55.5574 40.4605 55.122 39.4091 54.328 38.5678C53.5339 37.7264 52.4295 37.146 51.1993 36.9236C50.9258 36.8763 50.6852 36.7372 50.5305 36.5368C50.3758 36.3363 50.3196 36.091 50.3743 35.8548C50.429 35.6186 50.5901 35.4108 50.8222 35.2772C51.0543 35.1436 51.3383 35.0951 51.6118 35.1423C53.4896 35.4223 55.1746 36.307 56.3269 37.6177C57.4791 38.9285 58.0129 40.5679 57.8206 42.2053C57.6283 43.8426 56.7241 45.3561 55.2905 46.4403C53.8569 47.5245 52.0005 48.0989 50.0959 48.0475Z" fill="#F57C00"/>
<path d="M34.9365 48.0475H32.7709C30.9066 48.047 29.1088 47.4491 27.7257 46.3696C26.3425 45.2901 25.4724 43.8057 25.2837 42.2039C25.095 40.6021 25.6012 38.9969 26.7043 37.6989C27.8074 36.4009 29.429 35.5027 31.2549 35.1779C31.5284 35.1307 31.8125 35.1792 32.0445 35.3128C32.2766 35.4465 32.4377 35.6542 32.4924 35.8904C32.5471 36.1266 32.4909 36.3719 32.3362 36.5724C32.1815 36.7728 31.9409 36.9119 31.6674 36.9592C30.4415 37.1757 29.339 37.7496 28.5448 38.5847C27.7506 39.4198 27.313 40.4653 27.3052 41.5459C27.308 42.7971 27.8847 43.9963 28.9091 44.8811C29.9335 45.7658 31.3221 46.2639 32.7709 46.2662H34.9365C35.21 46.2662 35.4723 46.3601 35.6657 46.5271C35.8591 46.6941 35.9677 46.9206 35.9677 47.1568C35.9677 47.3931 35.8591 47.6196 35.6657 47.7866C35.4723 47.9536 35.21 48.0475 34.9365 48.0475Z" fill="#F57C00"/>
<path d="M41.4334 49.9178C38.8694 49.9236 36.3738 49.2042 34.328 47.8693C34.2197 47.7992 34.1284 47.7113 34.0594 47.6106C33.9904 47.51 33.9451 47.3986 33.9259 47.2828C33.9068 47.167 33.9142 47.0491 33.9478 46.9358C33.9814 46.8225 34.0405 46.716 34.1218 46.6225C34.2031 46.5289 34.3049 46.4501 34.4214 46.3905C34.5379 46.3309 34.6669 46.2917 34.801 46.2752C34.935 46.2586 35.0716 46.2651 35.2027 46.2941C35.3339 46.3231 35.4572 46.3742 35.5656 46.4443C37.2584 47.5448 39.3197 48.1399 41.4385 48.1399C43.5573 48.1399 45.6186 47.5448 47.3115 46.4443C47.5303 46.3026 47.8053 46.2418 48.0761 46.2752C48.3468 46.3086 48.5911 46.4335 48.7552 46.6225C48.9193 46.8114 48.9898 47.049 48.9511 47.2828C48.9124 47.5166 48.7678 47.7276 48.549 47.8693C46.5004 49.206 44.0008 49.9256 41.4334 49.9178Z" fill="#F57C00"/>
<path d="M51.4365 36.9414C51.2341 36.9412 51.0362 36.8896 50.8675 36.793C50.6987 36.6964 50.5667 36.5591 50.4877 36.3981C49.7415 34.8632 48.4871 33.5528 46.8818 32.6313C45.2765 31.7097 43.3919 31.2181 41.4643 31.2181C39.5367 31.2181 37.6521 31.7097 36.0468 32.6313C34.4415 33.5528 33.1871 34.8632 32.4409 36.3981C32.3853 36.5075 32.3054 36.6063 32.2057 36.689C32.1059 36.7717 31.9883 36.8366 31.8595 36.88C31.7307 36.9234 31.5932 36.9445 31.455 36.942C31.3168 36.9396 31.1805 36.9136 31.0538 36.8657C30.9272 36.8177 30.8128 36.7487 30.717 36.6626C30.6213 36.5764 30.5461 36.4748 30.4959 36.3636C30.4456 36.2523 30.4212 36.1336 30.424 36.0143C30.4269 35.8949 30.4569 35.7771 30.5124 35.6678C31.4172 33.8116 32.936 32.2272 34.8786 31.1131C36.8213 29.999 39.1014 29.4047 41.4334 29.4047C43.7653 29.4047 46.0454 29.999 47.9881 31.1131C49.9307 32.2272 51.4496 33.8116 52.3543 35.6678C52.4608 35.8851 52.463 36.1301 52.3605 36.3488C52.258 36.5676 52.0592 36.7422 51.8077 36.8345C51.6941 36.8923 51.5676 36.9287 51.4365 36.9414Z" fill="#F57C00"/>
<path d="M22.2315 43.5944H21.8396C19.9753 43.5939 18.1776 42.996 16.7944 41.9165C15.4113 40.8369 14.5411 39.3526 14.3525 37.7508C14.1638 36.149 14.67 34.5437 15.7731 33.2458C16.8762 31.9478 18.4977 31.0495 20.3237 30.7248C20.4591 30.7014 20.5985 30.7013 20.734 30.7244C20.8695 30.7476 20.9984 30.7936 21.1133 30.8597C21.2282 30.9259 21.3269 31.0109 21.4037 31.1101C21.4806 31.2092 21.5341 31.3204 21.5612 31.4373C21.5883 31.5543 21.5884 31.6747 21.5616 31.7917C21.5348 31.9087 21.4816 32.02 21.405 32.1193C21.3284 32.2185 21.2299 32.3037 21.1151 32.3701C21.0004 32.4365 20.8716 32.4827 20.7362 32.5061C19.5103 32.7226 18.4078 33.2965 17.6136 34.1316C16.8194 34.9667 16.3817 36.0121 16.374 37.0928C16.3767 38.344 16.9534 39.5432 17.9778 40.428C19.0023 41.3127 20.3909 41.8107 21.8396 41.8131H22.2315C22.505 41.8131 22.7673 41.9069 22.9607 42.074C23.1541 42.241 23.2627 42.4675 23.2627 42.7037C23.2627 42.9399 23.1541 43.1665 22.9607 43.3335C22.7673 43.5005 22.505 43.5944 22.2315 43.5944Z" fill="#F57C00"/>
<path d="M20.499 32.4882C20.3605 32.4904 20.2231 32.4661 20.0968 32.417C19.9699 32.369 19.8554 32.2994 19.7603 32.2124C19.6652 32.1254 19.5914 32.0227 19.5432 31.9104C19.4951 31.7982 19.4737 31.6787 19.4802 31.5592C19.4867 31.4397 19.521 31.3225 19.5812 31.2147C20.2591 29.8219 21.2861 28.5762 22.5881 27.5672C23.8901 26.5582 25.4349 25.8109 27.1113 25.3791C28.7877 24.9473 30.5541 24.8417 32.2834 25.07C34.0127 25.2983 35.6619 25.8547 37.1124 26.6992C37.3449 26.8303 37.5076 27.0358 37.5646 27.2704C37.6217 27.5051 37.5684 27.7497 37.4166 27.9505C37.2648 28.1513 37.0269 28.2918 36.7552 28.341C36.4835 28.3903 36.2002 28.3443 35.9677 28.2132C34.3577 27.2632 32.452 26.757 30.5021 26.7615C28.5817 26.7659 26.7055 27.2603 25.1093 28.1825C23.5131 29.1047 22.2679 30.4136 21.5302 31.945C21.4463 32.1177 21.3015 32.2631 21.1164 32.3607C20.9312 32.4582 20.7152 32.5028 20.499 32.4882Z" fill="#F57C00"/>
<path d="M11.2177 37.2887C11.0194 37.2884 10.8253 37.2386 10.6589 37.1454C10.4924 37.0522 10.3606 36.9195 10.2793 36.7632L0.451489 17.7128C0.174248 17.1789 0.0215494 16.6031 0.00212074 16.0182C-0.0173079 15.4333 0.0969147 14.8509 0.33826 14.3042C0.579605 13.7574 0.943341 13.2571 1.40868 12.8319C1.87401 12.4066 2.43183 12.0647 3.05024 11.8258L24.624 3.51622C24.7485 3.45954 24.8852 3.42548 25.0256 3.41614C25.1659 3.40681 25.307 3.42239 25.4401 3.46193C25.5733 3.50147 25.6956 3.56413 25.7996 3.64606C25.9037 3.72798 25.9872 3.82743 26.045 3.93829C26.1028 4.04914 26.1338 4.16904 26.1359 4.29061C26.138 4.41218 26.1113 4.53284 26.0574 4.64515C26.0035 4.75747 25.9236 4.85907 25.8225 4.94368C25.7214 5.0283 25.6013 5.09414 25.4696 5.13716L3.89586 13.4467C3.51974 13.5893 3.18026 13.7951 2.89722 14.0522C2.61419 14.3093 2.39327 14.6125 2.24736 14.9441C2.10145 15.2758 2.03347 15.6292 2.04737 15.9837C2.06128 16.3383 2.1568 16.6869 2.32836 17.0092L12.1871 36.0597C12.2987 36.2747 12.3071 36.5191 12.2105 36.7394C12.1138 36.9598 11.92 37.1381 11.6715 37.2353C11.5268 37.2822 11.3717 37.3005 11.2177 37.2887Z" fill="#999999"/>
<path d="M13.9712 26.8684C13.415 26.8678 12.8693 26.7377 12.3915 26.4919C11.9137 26.246 11.5215 25.8935 11.2561 25.4713C10.9908 25.0492 10.8621 24.5731 10.8836 24.0931C10.9051 23.6132 11.0761 23.1471 11.3784 22.7439C11.6808 22.3408 12.1034 22.0155 12.6018 21.8023C13.1002 21.5891 13.6559 21.4959 14.2105 21.5324C14.765 21.569 15.2979 21.7339 15.7531 22.01C16.2082 22.2861 16.5688 22.663 16.7968 23.1011C16.9684 23.4234 17.0639 23.772 17.0778 24.1266C17.0917 24.4811 17.0237 24.8345 16.8778 25.1661C16.7319 25.4977 16.511 25.8009 16.2279 26.058C15.9449 26.3151 15.6054 26.521 15.2293 26.6636C14.8305 26.8051 14.4023 26.8748 13.9712 26.8684ZM13.9712 23.3059C13.8264 23.3072 13.6831 23.3313 13.5484 23.3772C13.4231 23.4244 13.31 23.4927 13.2156 23.5781C13.1212 23.6635 13.0474 23.7642 12.9984 23.8744C12.9495 23.9846 12.9264 24.1021 12.9305 24.2201C12.9346 24.3381 12.9659 24.4542 13.0224 24.5617C13.0781 24.6691 13.1579 24.7659 13.2571 24.8465C13.3564 24.9271 13.4732 24.9899 13.6007 25.0313C13.7282 25.0727 13.864 25.0919 14.0002 25.0877C14.1363 25.0835 14.2702 25.0561 14.394 25.007C14.6425 24.9098 14.8363 24.7315 14.933 24.5112C15.0296 24.2908 15.0212 24.0464 14.9096 23.8314C14.8283 23.6751 14.6965 23.5424 14.53 23.4492C14.3636 23.356 14.1695 23.3063 13.9712 23.3059Z" fill="#666666"/>
<path d="M15.1468 23.6265C14.9595 23.6247 14.7764 23.5788 14.6171 23.4938C14.4577 23.4089 14.3282 23.288 14.2423 23.1443C14.1564 23.0006 14.1175 22.8394 14.1297 22.678C14.1419 22.5166 14.2047 22.3611 14.3115 22.2283L18.0859 17.5703C18.2477 17.3899 18.4836 17.2701 18.7448 17.2356C19.006 17.201 19.2726 17.2544 19.4895 17.3846C19.7065 17.5149 19.8573 17.7121 19.9108 17.9356C19.9643 18.159 19.9164 18.3917 19.7771 18.5856L16.0027 23.2436C15.907 23.3628 15.7789 23.46 15.6298 23.5267C15.4806 23.5935 15.3148 23.6277 15.1468 23.6265Z" fill="#666666"/>
<path d="M16.1574 25.2208H15.9409C15.8054 25.2126 15.6732 25.1814 15.5517 25.1291C15.4302 25.0768 15.3219 25.0043 15.2328 24.9158C15.1437 24.8273 15.0757 24.7245 15.0327 24.6134C14.9896 24.5022 14.9723 24.3847 14.9818 24.2678C14.9913 24.1508 15.0273 24.0366 15.0879 23.9317C15.1485 23.8268 15.2324 23.7332 15.3349 23.6563C15.4374 23.5794 15.5564 23.5206 15.6851 23.4834C15.8138 23.4462 15.9498 23.4313 16.0852 23.4395H16.2296C16.5031 23.4478 16.7616 23.5495 16.9482 23.7224C17.1349 23.8953 17.2343 24.1251 17.2248 24.3613C17.2152 24.5975 17.0974 24.8208 16.8972 24.9819C16.697 25.1431 16.4309 25.229 16.1574 25.2208Z" fill="black"/>
<path d="M13.8887 31.8915C13.646 31.8953 13.4095 31.8251 13.2208 31.6931C13.0322 31.5612 12.9035 31.376 12.8574 31.1701C12.6716 30.3446 12.7537 29.4908 13.0946 28.7031L24.5002 2.87497C24.7405 2.32709 25.1036 1.82554 25.5687 1.39906C26.0337 0.972571 26.5917 0.629534 27.2106 0.389602C27.8294 0.14967 28.497 0.0175588 29.1751 0.000837705C29.8532 -0.0158834 30.5284 0.0831146 31.1621 0.292159L54.3137 7.96935C55.5905 8.39024 56.6217 9.23172 57.1805 10.3089C57.7394 11.386 57.7802 12.6107 57.294 13.7139L50.4671 29.1217C50.3554 29.3247 50.159 29.4837 49.9172 29.5669C49.6754 29.6501 49.4061 29.6512 49.1634 29.57C48.9207 29.4889 48.7225 29.3315 48.6085 29.1294C48.4946 28.9273 48.4733 28.6955 48.549 28.4804L55.3656 13.0815C55.5114 12.753 55.5807 12.4027 55.5694 12.051C55.5581 11.6992 55.4664 11.3528 55.2997 11.0317C55.133 10.7106 54.8945 10.4212 54.5978 10.1799C54.3012 9.93866 53.9523 9.75039 53.5712 9.62591L30.4506 1.99325C30.0701 1.86728 29.6646 1.80745 29.2573 1.81721C28.85 1.82696 28.4489 1.90611 28.0771 2.05011C27.7053 2.1941 27.3701 2.4001 27.0908 2.65629C26.8114 2.91247 26.5934 3.21379 26.4493 3.54294L25.9749 4.63841L15.0437 29.3354C14.8359 29.813 14.7859 30.331 14.8993 30.8317C14.9508 31.0631 14.8939 31.3027 14.7412 31.4981C14.5885 31.6934 14.3524 31.8285 14.0846 31.8737L13.8887 31.8915Z" fill="#999999"/>
<path d="M28.749 18.4253C28.3718 18.4231 27.9981 18.3628 27.6455 18.2472C26.9253 18.0079 26.3346 17.5447 25.9893 16.9487C25.6441 16.3526 25.5693 15.6666 25.7796 15.0253C25.9899 14.384 26.4701 13.8338 27.126 13.4826C27.7819 13.1314 28.5661 13.0046 29.3247 13.127C30.0833 13.2495 30.7615 13.6124 31.2262 14.1445C31.6909 14.6766 31.9086 15.3395 31.8365 16.0031C31.7644 16.6666 31.4077 17.283 30.8365 17.7311C30.2653 18.1793 29.5207 18.4269 28.749 18.4253ZM28.749 14.8628C28.5105 14.8663 28.2808 14.9412 28.099 15.0746C27.9172 15.208 27.7946 15.3916 27.752 15.5944C27.7094 15.7971 27.7496 16.0062 27.8655 16.1863C27.9815 16.3663 28.1662 16.506 28.388 16.5817C28.5174 16.6319 28.6573 16.6586 28.7992 16.66C28.941 16.6615 29.0816 16.6376 29.2123 16.59C29.3429 16.5423 29.4608 16.4719 29.5585 16.3831C29.6563 16.2944 29.7317 16.1891 29.7802 16.074C29.8299 15.9642 29.8538 15.8469 29.8506 15.729C29.8474 15.611 29.8171 15.4949 29.7614 15.3871C29.7058 15.2794 29.6259 15.1823 29.5265 15.1015C29.427 15.0207 29.31 14.9577 29.1821 14.9162C29.0429 14.875 28.896 14.8568 28.749 14.8628Z" fill="#666666"/>
<path d="M46.5484 15.7089C45.9504 15.7088 45.3652 15.5589 44.8637 15.2776C44.3622 14.9962 43.9659 14.5954 43.7227 14.1236C43.4813 13.6421 43.4093 13.1099 43.5157 12.5933C43.6222 12.0767 43.9024 11.5987 44.3214 11.2188C44.7404 10.8388 45.2797 10.5739 45.872 10.4569C46.4642 10.3399 47.0832 10.3762 47.6518 10.5611C48.2229 10.7502 48.7162 11.0812 49.0695 11.5124C49.4228 11.9436 49.6202 12.4555 49.6367 12.9835C49.6533 13.5115 49.4882 14.0319 49.1625 14.4789C48.8367 14.926 48.3649 15.2796 47.8065 15.4951C47.4084 15.6397 46.9802 15.7125 46.5484 15.7089ZM46.5484 12.1464C46.4036 12.1476 46.2603 12.1718 46.1255 12.2176C46.0008 12.2654 45.8882 12.3341 45.7944 12.4197C45.7006 12.5053 45.6273 12.6061 45.579 12.7164C45.4814 12.9372 45.4814 13.1813 45.579 13.4022C45.6347 13.5095 45.7145 13.6063 45.8137 13.6869C45.913 13.7676 46.0297 13.8304 46.1573 13.8718C46.2848 13.9132 46.4206 13.9324 46.5567 13.9282C46.6929 13.924 46.8267 13.8966 46.9506 13.8475C47.1967 13.7512 47.3893 13.5753 47.4868 13.3576C47.5349 13.2483 47.5576 13.1318 47.5535 13.0149C47.5495 12.898 47.5188 12.7829 47.4633 12.6762C47.4078 12.5695 47.3284 12.4733 47.2298 12.3931C47.1312 12.3129 47.0153 12.2502 46.8887 12.2087C46.7801 12.1714 46.6651 12.1504 46.5484 12.1464Z" fill="#666666"/>
<path d="M30.8115 16.3323C30.538 16.3524 30.2664 16.2778 30.0566 16.125C29.8468 15.9722 29.7158 15.7536 29.6926 15.5174C29.6693 15.2812 29.7557 15.0467 29.9326 14.8655C30.1096 14.6842 30.3627 14.5711 30.6362 14.5511L44.3415 12.5115C44.4769 12.4917 44.6155 12.495 44.7495 12.5214C44.8834 12.5478 45.01 12.5967 45.122 12.6653C45.2341 12.734 45.3294 12.821 45.4025 12.9215C45.4756 13.0219 45.525 13.1338 45.548 13.2508C45.5711 13.3677 45.5672 13.4874 45.5366 13.6031C45.5061 13.7188 45.4494 13.8281 45.37 13.9249C45.2905 14.0216 45.1897 14.1039 45.0734 14.1671C44.9571 14.2302 44.8275 14.2729 44.6921 14.2928L30.9868 16.3145C30.9301 16.3297 30.8707 16.3357 30.8115 16.3323Z" fill="#666666"/>
<path d="M36.4731 24.2856C36.3266 24.2854 36.1819 24.2584 36.0486 24.2061C35.9152 24.1539 35.7963 24.0778 35.6996 23.9828L29.3471 17.6861C29.1666 17.5077 29.0755 17.2748 29.0939 17.0384C29.1123 16.8021 29.2386 16.5817 29.4451 16.4258C29.6516 16.2699 29.9213 16.1913 30.195 16.2071C30.4686 16.223 30.7238 16.3321 30.9043 16.5104L37.2568 22.8072C37.4358 22.9855 37.5255 23.218 37.5062 23.4535C37.4868 23.689 37.3601 23.9082 37.1537 24.0629C36.9657 24.2061 36.7237 24.2853 36.4731 24.2856Z" fill="#666666"/>
</svg>
