<svg width="66" height="53" viewBox="0 0 66 53" fill="none" xmlns="http://www.w3.org/2000/svg">
<path d="M31.5 25.1171H16.94L6.37 31.9881C5.95 32.2934 5.46 31.8354 5.53 31.301L7.07 25.0408H2.38C1.12 25.0408 0 23.8193 0 22.4451V2.59569C0 1.2215 1.12 0 2.38 0H31.5C32.76 0 33.88 1.2215 33.88 2.59569V22.5978C33.88 24.0483 32.83 25.1171 31.5 25.1171Z" fill="#A9F1DF"/>
<path d="M24.43 43.8973H43.4L57.19 52.8296C57.75 53.2113 58.38 52.6005 58.31 51.9898L56.28 43.8973H62.37C64.05 43.8973 65.45 42.2941 65.45 40.5382V14.6577C65.45 12.8254 63.98 11.2985 62.37 11.2985H24.57C22.89 11.2985 21.49 12.9018 21.49 14.6577V40.6909C21.28 42.4468 22.75 43.8973 24.43 43.8973Z" fill="#1EAE98"/>
<path d="M43.4 25.0409C44.73 25.0409 45.71 26.2624 45.71 27.5602C45.71 28.8581 44.59 30.0796 43.4 30.0796C42.07 30.0796 41.09 28.8581 41.09 27.5602C41.09 26.2624 42.07 25.0409 43.4 25.0409Z" fill="white"/>
<path d="M52.92 25.0409C54.25 25.0409 55.23 26.2624 55.23 27.5602C55.23 28.8581 54.11 30.0796 52.92 30.0796C51.59 30.0796 50.61 28.8581 50.61 27.5602C50.61 26.2624 51.59 25.0409 52.92 25.0409Z" fill="white"/>
<path d="M33.81 25.0409C35.14 25.0409 36.12 26.2624 36.12 27.5602C36.12 28.8581 35 30.0796 33.81 30.0796C32.48 30.0796 31.5 28.8581 31.5 27.5602C31.5 26.2624 32.48 25.0409 33.81 25.0409Z" fill="white"/>
</svg>
