<svg width="70" height="48" viewBox="0 0 70 48" fill="none" xmlns="http://www.w3.org/2000/svg">
<path d="M62.3455 0H7.65401V48H62.3455V0Z" fill="#399FB8"/>
<path fill-rule="evenodd" clip-rule="evenodd" d="M22.8509 45.823H47.1486V28.8464C47.1486 14.4539 22.8509 14.493 22.8509 28.8464V45.823Z" fill="#21839C"/>
<path fill-rule="evenodd" clip-rule="evenodd" d="M24.152 48H45.8475V28.5643C45.8475 16.2636 24.152 16.2487 24.152 28.5643V48Z" fill="#9FECFF"/>
<path d="M24.152 45.823H7.65401V48H24.152V45.823Z" fill="#21839C"/>
<path fill-rule="evenodd" clip-rule="evenodd" d="M0 13.5239L70 13.5244L62.3455 0H7.65401L0 13.5239Z" fill="#FF9274"/>
<path fill-rule="evenodd" clip-rule="evenodd" d="M6.36325 13.5244C6.36325 15.3988 7.78762 16.919 9.5451 16.919C11.3026 16.919 12.7274 15.3992 12.7274 13.5244H6.36325Z" fill="#EDC256"/>
<path fill-rule="evenodd" clip-rule="evenodd" d="M19.0907 13.5244C19.0907 15.3988 20.5155 16.919 22.2725 16.919C24.03 16.919 25.4544 15.3992 25.4544 13.5244H19.0907Z" fill="#EDC256"/>
<path fill-rule="evenodd" clip-rule="evenodd" d="M31.8181 13.5244C31.8181 15.3988 33.2425 16.919 35 16.919C36.7575 16.919 38.1823 15.3992 38.1823 13.5244H31.8181Z" fill="#EDC256"/>
<path fill-rule="evenodd" clip-rule="evenodd" d="M44.5451 13.5244C44.5451 15.3988 45.9699 16.919 47.727 16.919C49.4845 16.919 50.9093 15.3992 50.9093 13.5244H44.5451Z" fill="#EDC256"/>
<path fill-rule="evenodd" clip-rule="evenodd" d="M57.2725 13.5244C57.2725 15.3988 58.6969 16.919 60.4544 16.919C62.2119 16.919 63.6367 15.3992 63.6367 13.5244H57.2725Z" fill="#EDC256"/>
<path fill-rule="evenodd" clip-rule="evenodd" d="M6.36325 13.5244C6.36325 15.3992 4.93843 16.9185 3.18139 16.9185C1.42435 16.9185 0 15.3988 0 13.5239L6.36325 13.5244Z" fill="#E85931"/>
<path fill-rule="evenodd" clip-rule="evenodd" d="M19.0907 13.5244C19.0907 15.3988 17.6659 16.919 15.9088 16.919C14.1513 16.919 12.7274 15.3992 12.7274 13.5244H19.0907Z" fill="#E85931"/>
<path fill-rule="evenodd" clip-rule="evenodd" d="M31.8181 13.5244C31.8181 15.3988 30.3933 16.919 28.6363 16.919C26.8788 16.919 25.4544 15.3992 25.4544 13.5244H31.8181Z" fill="#E85931"/>
<path fill-rule="evenodd" clip-rule="evenodd" d="M44.5451 13.5244C44.5451 15.3988 43.1203 16.919 41.3632 16.919C39.6058 16.919 38.1814 15.3992 38.1814 13.5244H44.5451Z" fill="#E85931"/>
<path fill-rule="evenodd" clip-rule="evenodd" d="M57.2725 13.5244C57.2725 15.3988 55.8477 16.919 54.0907 16.919C52.3332 16.919 50.9093 15.3992 50.9093 13.5244H57.2725Z" fill="#E85931"/>
<path fill-rule="evenodd" clip-rule="evenodd" d="M70 13.5244C70 15.3988 68.5752 16.919 66.8181 16.919C65.0606 16.919 63.6367 15.3992 63.6367 13.5244H70Z" fill="#E85931"/>
<path fill-rule="evenodd" clip-rule="evenodd" d="M6.36325 13.5244H63.6367L57.3739 0H12.6261L6.36325 13.5244Z" fill="#FFD873"/>
<path fill-rule="evenodd" clip-rule="evenodd" d="M12.7274 13.5244H57.2725L52.4018 0H17.5977L12.7274 13.5244Z" fill="#FF9274"/>
<path fill-rule="evenodd" clip-rule="evenodd" d="M19.0907 13.5244H50.9093L47.4297 0H22.5698L19.0907 13.5244Z" fill="#FFD873"/>
<path fill-rule="evenodd" clip-rule="evenodd" d="M25.4544 13.5244H44.5451L42.4576 0H27.5419L25.4544 13.5244Z" fill="#FF9274"/>
<path fill-rule="evenodd" clip-rule="evenodd" d="M31.8181 13.5244H38.1823L37.4856 0H32.5135L31.8181 13.5244Z" fill="#FFD873"/>
<path fill-rule="evenodd" clip-rule="evenodd" d="M48.9908 40.5941H60.631V23.2306C60.631 16.3353 48.9908 16.3544 48.9908 23.2306V40.5941Z" fill="#21839C"/>
<path fill-rule="evenodd" clip-rule="evenodd" d="M50.1825 39.3294H59.4398V23.3065C59.4398 18.0575 50.1825 18.051 50.1825 23.3065V39.3294Z" fill="#9FECFF"/>
<path fill-rule="evenodd" clip-rule="evenodd" d="M50.1825 31.1755L59.1641 21.8514C59.0242 21.5121 58.8368 21.2072 58.6104 20.9373L50.1825 29.6865V31.1755Z" fill="#DEF8FF"/>
<path fill-rule="evenodd" clip-rule="evenodd" d="M50.1825 35.643L59.4398 26.0322V23.3065C59.4398 23.2231 59.4376 23.1422 59.4326 23.0616L50.1821 32.6655L50.1825 35.643Z" fill="#DEF8FF"/>
<path fill-rule="evenodd" clip-rule="evenodd" d="M50.1825 38.621L59.4398 29.0102V27.5207L50.1825 37.132V38.621Z" fill="#DEF8FF"/>
<path fill-rule="evenodd" clip-rule="evenodd" d="M9.44692 40.5941H21.0871V23.2306C21.0871 16.3353 9.44692 16.3544 9.44692 23.2306V40.5941Z" fill="#21839C"/>
<path fill-rule="evenodd" clip-rule="evenodd" d="M10.6382 39.3294H19.8954V23.3065C19.8954 18.0575 10.6382 18.051 10.6382 23.3065V39.3294Z" fill="#9FECFF"/>
<path fill-rule="evenodd" clip-rule="evenodd" d="M10.6382 31.1755L19.6202 21.8514C19.4803 21.5121 19.2929 21.2072 19.0665 20.9373L10.6382 29.6865V31.1755Z" fill="#DEF8FF"/>
<path fill-rule="evenodd" clip-rule="evenodd" d="M10.6382 35.643L19.8954 26.0322V23.3065C19.8954 23.2231 19.8932 23.1422 19.8883 23.0616L10.6382 32.6645V35.643Z" fill="#DEF8FF"/>
<path fill-rule="evenodd" clip-rule="evenodd" d="M10.6382 38.621L19.8959 29.0102V27.5207L10.6382 37.132V38.621Z" fill="#DEF8FF"/>
<path d="M62.3459 45.823H45.8475V48H62.3455L62.3459 45.823Z" fill="#21839C"/>
<path fill-rule="evenodd" clip-rule="evenodd" d="M34.9341 39.2517L45.8274 27.9429C45.7928 27.3853 45.7121 26.8542 45.5902 26.3501L34.9341 37.4127V39.2517ZM34.9341 35.5736V31.8956L43.7063 22.7889C44.2869 23.4321 44.7724 24.1634 45.1324 24.9868L34.9341 35.5736ZM34.9341 30.0566V28.2175L41.7407 21.1519C42.1066 21.3809 42.4572 21.6322 42.7863 21.9054L34.9341 30.0566ZM26.5075 48L34.9341 39.2517V37.4127L24.7362 48H26.5075ZM34.9341 28.2175V30.0566L24.152 41.2499V39.4109L34.9341 28.2175ZM34.9341 31.8956V35.5736L24.152 46.7675V43.0894L34.9341 31.8956Z" fill="#DEF8FF"/>
</svg>
