<svg width="73" height="44" viewBox="0 0 73 44" fill="none" xmlns="http://www.w3.org/2000/svg">
<path d="M49.6152 0.370372H0.429426V32.8199H49.6152V0.370372Z" fill="#BE90BE"/>
<path d="M3.24805 0.370987H0.431137V32.82H3.24805V0.370987Z" fill="#D3B4D3"/>
<path d="M49.6152 0.370372L46.7984 0.370987V32.82L49.6152 32.8199V0.370372Z" fill="#A76BA7"/>
<path d="M71.3446 20.3073V32.8199H49.614V7.41874H56.4104C57.4982 7.41874 58.5407 7.78838 59.3072 8.44988L70.1444 17.8073C70.9106 18.4688 71.3446 19.3686 71.3446 20.3073Z" fill="white"/>
<path d="M71.3446 20.3073V32.8199H49.614V7.41874H56.4104C57.4982 7.41874 58.5407 7.78838 59.3072 8.44988L70.1444 17.8073C70.9106 18.4688 71.3446 19.3686 71.3446 20.3073Z" fill="white"/>
<path d="M71.3472 20.3085V32.82H69.3032V22.1862C69.3032 21.2475 68.8738 20.3481 68.1066 19.6859L57.2682 10.3273C56.5011 9.66521 55.459 9.29459 54.371 9.29459H49.613V7.41702H56.4093C57.497 7.41702 58.5398 7.78788 59.3072 8.44988L70.1444 17.8073C70.9116 18.4696 71.3472 19.3698 71.3472 20.3085Z" fill="#EDEDED"/>
<path d="M67.9127 20.7936H52.4318V9.85052H56.4104C56.7486 9.85052 57.0643 9.96237 57.3065 10.1618L68.4087 19.7626C68.8481 20.1468 68.538 20.7936 67.9127 20.7936Z" fill="#7AD2FA"/>
<path d="M61.9117 14.142L58.5277 20.7928H52.5276L57.7492 10.54L61.9117 14.142Z" fill="#A5E1FB"/>
<path d="M64.0586 15.995L61.614 20.7928H59.862L62.8391 14.9426L64.0586 15.995Z" fill="#A5E1FB"/>
<path d="M67.9126 21.1641H52.4319C52.1948 21.1641 52.0025 20.9981 52.0025 20.7934V9.85052C52.0025 9.64589 52.1948 9.4799 52.4319 9.4799H56.4102C56.8551 9.4799 57.2785 9.62657 57.6028 9.89346L68.7128 19.5012C69.0422 19.7888 69.1344 20.197 68.9555 20.5667C68.777 20.9354 68.3772 21.1641 67.9126 21.1641ZM52.8614 20.423H67.9126C68.0765 20.423 68.1425 20.3235 68.1632 20.2811C68.1838 20.2376 68.2202 20.1257 68.1033 20.0234L57.0023 10.4233C56.8463 10.2955 56.6333 10.2211 56.4102 10.2211H52.8614V20.423Z" fill="#333333"/>
<path d="M71.3428 25.3015V29.0047H65.6797C65.3333 29.0047 65.0468 28.7632 65.0468 28.4584V27.2332C65.0468 27.0837 65.1201 26.9458 65.2268 26.8423C65.813 26.3421 66.2128 25.9971 66.7792 25.5026C66.9391 25.3761 67.1323 25.3014 67.3388 25.3014L71.3428 25.3015Z" fill="#FEE9B4"/>
<path d="M72.5708 33.7587V35.636C72.5708 36.1544 72.0839 36.5746 71.4832 36.5746H1.51744C0.916758 36.5746 0.429711 36.1543 0.429711 35.6359L0.429426 32.8199H71.4831C72.0838 32.8199 72.5708 33.2403 72.5708 33.7587Z" fill="#D3D9D9"/>
<path d="M4.33621 36.5754H1.51929C0.918184 36.5754 0.431422 36.1554 0.431422 35.6366L0.431137 32.82H3.24805L3.24834 35.6365C3.24834 36.1554 3.73496 36.5754 4.33621 36.5754Z" fill="#EDEDED"/>
<path d="M72.5708 33.7587V35.636C72.5708 36.1544 72.0839 36.5746 71.4832 36.5746L68.6662 36.5753C69.2673 36.5753 69.754 36.1552 69.754 35.6365V33.7589C69.754 33.2401 69.2673 32.82 68.6662 32.82L71.4831 32.8199C72.0838 32.8199 72.5708 33.2403 72.5708 33.7587Z" fill="#A8B2B4"/>
<path d="M57.3299 43.232C61.5906 43.232 65.0445 40.2512 65.0445 36.5742C65.0445 32.8972 61.5906 29.9164 57.3299 29.9164C53.0693 29.9164 49.6153 32.8972 49.6153 36.5742C49.6153 40.2512 53.0693 43.232 57.3299 43.232Z" fill="#A8B2B4"/>
<path d="M20.0845 39.1226C21.715 35.7254 19.8458 31.8307 15.9093 30.4235C11.9729 29.0163 7.45998 30.6295 5.82942 34.0267C4.19886 37.4239 6.06814 41.3186 10.0046 42.7258C13.941 44.133 18.4539 42.5198 20.0845 39.1226Z" fill="#A8B2B4"/>
<path d="M57.3299 39.2784C55.6019 39.2784 54.1961 38.0655 54.1961 36.5743C54.1961 35.0831 55.6019 33.8703 57.3299 33.8703C59.0568 33.8703 60.4627 35.0831 60.4627 36.5743C60.4627 38.0655 59.057 39.2784 57.3299 39.2784Z" fill="white"/>
<path d="M12.9555 39.2784C11.2286 39.2784 9.82261 38.0655 9.82261 36.5743C9.82261 35.0831 11.2286 33.8703 12.9555 33.8703C14.6835 33.8703 16.0894 35.0831 16.0894 36.5743C16.0894 38.0655 14.6835 39.2784 12.9555 39.2784Z" fill="white"/>
<path d="M65.0468 36.574C65.0468 40.2509 61.5883 43.2358 57.3278 43.2358C54.5675 43.2358 52.1511 41.9806 50.7994 40.0927C51.9677 40.7155 53.3534 41.0812 54.831 41.0812C59.0915 41.0812 62.5503 38.0962 62.5503 34.4193C62.5503 33.1343 62.1267 31.9284 61.3935 30.9203C63.5811 32.0867 65.0468 34.1821 65.0468 36.574Z" fill="#7C8B8E"/>
<path d="M20.6759 36.574C20.6759 40.2509 17.2171 43.2358 12.9566 43.2358C10.185 43.2358 7.75694 41.9806 6.40559 40.0828C7.57387 40.7154 8.971 41.081 10.4599 41.081C14.7205 41.081 18.1793 38.0961 18.1793 34.4192C18.1793 33.1342 17.7554 31.9283 17.0225 30.9202C19.2097 32.0867 20.6759 34.1821 20.6759 36.574Z" fill="#7C8B8E"/>
<path d="M71.774 32.4747V20.3072C71.774 19.2789 71.2903 18.2723 70.4477 17.5456L59.6106 8.18779C58.759 7.45283 57.6224 7.048 56.4102 7.048H50.0451V0.370617C50.0451 0.16599 49.8527 0 49.6156 0H0.429445C0.192338 0 0 0.16599 0 0.370617V35.6359C0 36.3578 0.680383 36.9449 1.51746 36.9449H4.83297C5.05839 40.6476 8.60958 43.6025 12.9555 43.6025C17.3009 43.6025 20.852 40.6476 21.0775 36.9449H49.2071C49.4325 40.6476 52.9837 43.6025 57.3297 43.6025C61.675 43.6025 65.2262 40.6476 65.4516 36.9449H71.483C72.3195 36.9449 72.9998 36.3576 72.9998 35.6359V33.7588C73.0001 33.1229 72.4715 32.5922 71.774 32.4747ZM50.0451 7.78911H56.4102C57.3931 7.78911 58.314 8.11679 59.0034 8.71172L69.8405 18.0696C70.5237 18.6587 70.9151 19.4743 70.9151 20.307V24.9307H67.3389C67.0302 24.9307 66.7363 25.0339 66.4739 25.2418C65.9086 25.7355 65.5099 26.0795 64.9055 26.5963C64.7199 26.7768 64.6175 27.0031 64.6175 27.2332V28.4584C64.6175 28.9641 65.0939 29.3752 65.6799 29.3752H70.9151V32.4489H63.9091C62.427 30.6932 60.0337 29.5455 57.3298 29.5455C54.6257 29.5455 52.2321 30.6932 50.75 32.4489H50.0451V7.78911ZM70.9151 25.672V28.6342H65.6799C65.5675 28.6342 65.4764 28.5556 65.4764 28.4587V27.2335C65.4764 27.1852 65.5021 27.1326 65.5285 27.1061C66.1162 26.6047 66.517 26.2588 67.0695 25.7757C67.1293 25.7285 67.2249 25.672 67.3389 25.672H70.9151ZM0.858748 0.741235H49.186V32.4492H19.5349C18.0528 30.6934 15.6595 29.5458 12.9556 29.5458C10.2515 29.5458 7.85791 30.6934 6.37581 32.4492H0.858605L0.858748 0.741235ZM1.5176 36.2038C1.15417 36.2038 0.858891 35.949 0.858891 35.6359V33.1904H5.82132C5.24445 34.0926 4.89913 35.1165 4.83297 36.2038H1.5176ZM12.9556 42.8614C8.93822 42.8614 5.67019 40.0409 5.67019 36.5745C5.67019 33.1075 8.93836 30.287 12.9556 30.287C16.9724 30.287 20.2405 33.1075 20.2405 36.5745C20.2407 40.0409 16.9724 42.8614 12.9556 42.8614ZM20.0894 33.1904H50.1958C49.6189 34.0926 49.2736 35.1165 49.2074 36.2038H21.0777C21.0116 35.1165 20.6663 34.0926 20.0894 33.1904ZM57.3299 42.8614C53.3125 42.8614 50.0445 40.0409 50.0445 36.5745C50.0445 33.1075 53.3127 30.287 57.3299 30.287C61.3468 30.287 64.6148 33.1075 64.6148 36.5745C64.6148 40.0409 61.3467 42.8614 57.3299 42.8614ZM72.1411 35.6359C72.1411 35.949 71.8458 36.2038 71.483 36.2038H65.4518C65.3856 35.1165 65.0403 34.0926 64.4634 33.1904H71.483C71.8458 33.1904 72.1411 33.4452 72.1411 33.7589V35.6359Z" fill="#333333"/>
<path d="M55.9823 23.5893H52.4318C52.1947 23.5893 52.0024 23.4233 52.0024 23.2187C52.0024 23.0141 52.1947 22.8481 52.4318 22.8481H55.9823C56.2194 22.8481 56.4117 23.0141 56.4117 23.2187C56.4119 23.4233 56.2195 23.5893 55.9823 23.5893Z" fill="#333333"/>
</svg>
