<svg width="22" height="22" viewBox="0 0 22 22" fill="none" xmlns="http://www.w3.org/2000/svg">
<path d="M9.16634 5.5C5.70937 5.5 3.9809 5.5 2.90695 6.57394C1.83301 7.64789 1.83301 9.3764 1.83301 12.8333C1.83301 16.2903 1.83301 18.0188 2.90695 19.0927C3.9809 20.1667 5.70937 20.1667 9.16634 20.1667H12.833C16.2899 20.1667 18.0185 20.1667 19.0924 19.0927C20.1663 18.0188 20.1663 16.2903 20.1663 12.8333C20.1663 11.761 20.1663 10.8551 20.1343 10.0833" stroke="#F58634" stroke-width="1.5" stroke-linecap="round" stroke-linejoin="round"/>
<path d="M16.4997 1.83301L16.7699 2.56322C17.1242 3.52075 17.3014 3.9995 17.6506 4.34875C17.9999 4.698 18.4786 4.87516 19.4361 5.22947L20.1663 5.49967L19.4361 5.76988C18.4786 6.12419 17.9999 6.30135 17.6506 6.6506C17.3014 6.99985 17.1242 7.4786 16.7699 8.43612L16.4997 9.16634L16.2294 8.43612C15.8751 7.4786 15.698 6.99985 15.3487 6.6506C14.9995 6.30135 14.5208 6.12419 13.5632 5.76988L12.833 5.49967L13.5632 5.22947C14.5208 4.87516 14.9995 4.698 15.3487 4.34875C15.698 3.9995 15.8751 3.52075 16.2294 2.56322L16.4997 1.83301Z" stroke="#F58634" stroke-width="1.5" stroke-linejoin="round"/>
</svg>
