<svg width="34" height="34" viewBox="0 0 34 34" fill="none" xmlns="http://www.w3.org/2000/svg">
<path d="M16.9999 31.1668C24.824 31.1668 31.1666 24.8242 31.1666 17.0002C31.1666 9.17613 24.824 2.8335 16.9999 2.8335C9.17588 2.8335 2.83325 9.17613 2.83325 17.0002C2.83325 24.8242 9.17588 31.1668 16.9999 31.1668Z" stroke="#341217" stroke-width="1.5"/>
<path d="M10.625 24.0832C13.9282 20.6234 20.0362 20.4605 23.375 24.0832M20.5347 13.4582C20.5347 15.4142 18.9468 16.9998 16.988 16.9998C15.0293 16.9998 13.4413 15.4142 13.4413 13.4582C13.4413 11.5022 15.0293 9.9165 16.988 9.9165C18.9468 9.9165 20.5347 11.5022 20.5347 13.4582Z" stroke="#341217" stroke-width="1.5" stroke-linecap="round"/>
</svg>
